<svg width="24" height="24" viewBox="0 0 24 24" fill="none" xmlns="http://www.w3.org/2000/svg">
<g clip-path="url(#clip0_845_13683)">
<path d="M17.2173 1.19072C15.6396 0.427875 13.8697 0 11.9999 0C10.13 0 8.36012 0.427875 6.7825 1.19072L5.73901 12L6.7825 22.8093C8.36012 23.5721 10.13 24 11.9999 24C13.8697 24 15.6396 23.5721 17.2173 22.8093L18.2607 12L17.2173 1.19072Z" fill="#D80027"/>
<path d="M6.78275 1.19141C2.76884 3.13236 0.00012207 7.24278 0.00012207 12.0003C0.00012207 16.7577 2.76884 20.8682 6.78275 22.8091V1.19141Z" fill="black"/>
<path d="M17.2175 1.19141V22.8091C21.2314 20.8682 24.0002 16.7577 24.0002 12.0003C24.0002 7.24278 21.2314 3.13236 17.2175 1.19141Z" fill="#496E2D"/>
<path d="M11.9997 7.82666C9.69448 7.82666 7.82581 9.69538 7.82581 12.0006C7.82581 14.3057 9.69452 16.1744 11.9997 16.1744C14.3049 16.1744 16.1736 14.3057 16.1736 12.0006C16.1736 9.69538 14.3049 7.82666 11.9997 7.82666ZM11.9997 14.6092C10.5589 14.6092 9.39101 13.4413 9.39101 12.0006C9.39101 10.5598 10.559 9.39186 11.9997 9.39186C13.4404 9.39186 14.6084 10.5598 14.6084 12.0006C14.6084 13.4413 13.4404 14.6092 11.9997 14.6092Z" fill="#FFDA44"/>
<path d="M12 10.4363C11.4237 10.4363 10.9565 10.9034 10.9565 11.4798V13.045H13.0435V11.4798C13.0435 10.9034 12.5764 10.4363 12 10.4363Z" fill="#FFDA44"/>
</g>
<defs>
<clipPath id="clip0_845_13683">
<rect width="24" height="24" fill="white"/>
</clipPath>
</defs>
</svg>
