<svg width="24" height="24" viewBox="0 0 24 24" fill="none" xmlns="http://www.w3.org/2000/svg">
<rect x="0.25" y="0.25" width="23.5" height="23.5" rx="11.75" fill="#FFF6DD"/>
<rect x="0.25" y="0.25" width="23.5" height="23.5" rx="11.75" stroke="#F2F4F7" stroke-width="0.5"/>
<g clip-path="url(#clip0_845_14171)">
<path d="M19.5922 9.63731H18.7662C18.4843 9.63731 18.2691 9.49113 18.1652 9.23961L16.8753 5.70933C16.7527 5.37399 16.438 5.19353 16.0836 5.15036C15.1303 5.03379 13.8909 4.72407 13.44 4.72407C12.8846 4.72407 12.5428 4.89498 11.731 4.89498C10.9193 4.89498 10.492 3.86957 10.1929 3.57049C9.89383 3.27141 8.44124 3.91228 7.58674 3.91228C6.73224 3.91228 5.79231 4.4677 5.79231 5.194C5.79231 5.9203 4.98056 6.39029 4.08335 7.28747C3.18613 8.18468 4.36105 10.3422 5.02327 11.0045C5.68548 11.6667 6.56132 11.8162 7.5867 11.389C8.61208 10.9617 8.97525 11.154 9.46655 11.6453C9.95788 12.1366 9.97922 12.8416 10.5774 13.4397C11.1755 14.0378 10.8765 16.2595 10.8765 17.2422C10.8765 18.2248 11.6882 19.4638 12.3291 20.1047C12.97 20.7455 13.0554 20.5319 14.0381 20.1047C15.0207 19.6774 15.7897 17.6267 16.687 16.7295C17.5842 15.8323 17.4133 14.5078 17.4133 13.7388C17.4133 12.9698 19.0795 11.4744 19.934 10.6199C20.7885 9.76548 19.5922 9.63731 19.5922 9.63731Z" fill="#F6D060"/>
<path d="M6.00152 10.5963C5.31344 9.90821 3.93563 7.51742 5.01366 6.45251H4.98531C4.71827 6.69675 4.40649 6.96432 4.08335 7.28747C3.18613 8.18468 4.36105 10.3422 5.02327 11.0045C5.68548 11.6667 6.56132 11.8162 7.5867 11.389C7.69189 11.3448 7.79872 11.3047 7.90696 11.2687C7.16829 11.352 6.52446 11.1193 6.00152 10.5963ZM11.7134 17.1667C11.7134 16.1511 12.0125 13.8548 11.4143 13.2366C10.8162 12.6183 10.7948 11.8897 10.3035 11.3819C9.81216 10.8741 9.449 10.6753 8.42365 11.1169C8.37725 11.1369 8.33125 11.1553 8.28544 11.1728C8.8164 11.0871 9.1074 11.2861 9.46658 11.6453C9.95792 12.1366 9.97925 12.8416 10.5774 13.4397C11.1755 14.0378 10.8765 16.2595 10.8765 17.2422C10.8765 18.2248 11.6883 19.4638 12.3291 20.1047C12.8067 20.5823 12.9761 20.5852 13.438 20.3788C12.7625 19.8443 11.7134 18.3047 11.7134 17.1667Z" fill="#E4B939"/>
<path d="M19.6991 15.469C20.0142 15.6154 20.1049 15.9604 19.8913 16.4517C19.6777 16.9431 20.4574 17.8509 19.6991 18.6093C18.9407 19.3676 18.7378 19.0579 18.2892 18.6093C17.8406 18.1607 17.7872 17.8509 18.0328 17.6053C18.2785 17.3596 18.2571 16.4838 18.5669 16.174C18.8766 15.8642 19.1009 15.1913 19.6991 15.469Z" fill="#F6D060"/>
<path d="M19.1453 18.6093C18.6967 18.1607 18.6433 17.8509 18.8889 17.6053C19.1346 17.3596 19.1132 16.4838 19.423 16.174C19.5776 16.0194 19.7109 15.7744 19.8801 15.6022C19.8322 15.5478 19.7719 15.5028 19.6991 15.469C19.1009 15.1913 18.8766 15.8643 18.5669 16.174C18.2571 16.4838 18.2785 17.3596 18.0328 17.6053C17.7872 17.8509 17.8406 18.1607 18.2892 18.6093C18.6742 18.9942 18.8785 19.2763 19.4079 18.8695C19.3264 18.7952 19.2415 18.7055 19.1453 18.6093Z" fill="#E4B939"/>
</g>
<defs>
<clipPath id="clip0_845_14171">
<rect width="17.0182" height="17.0182" fill="white" transform="translate(3.49097 3.49097)"/>
</clipPath>
</defs>
</svg>
