<svg width="24" height="24" viewBox="0 0 24 24" fill="none" xmlns="http://www.w3.org/2000/svg">
<g clip-path="url(#clip0_845_13697)">
<path d="M24 12C24 18.6274 18.6274 24 12 24C5.37262 24 0 18.6274 0 12C0 12.0029 12 0.0013125 12 0C18.6274 0 24 5.37262 24 12Z" fill="#0052B4"/>
<path d="M11.9674 12.0004H11.9996C11.9996 11.9896 11.9996 11.9791 11.9996 11.9683C11.9889 11.979 11.9782 11.9897 11.9674 12.0004Z" fill="#F0F0F0"/>
<path d="M12 6.26086C12 4.14937 12 2.76586 12 0H11.998C5.37145 0.001125 0 5.37323 0 12H6.26086V8.47448L9.78637 12H11.9679C11.9786 11.9893 11.9893 11.9786 12 11.9679C12 11.1594 12 10.4381 12 9.78647L8.47443 6.26086H12Z" fill="#F0F0F0"/>
<path d="M6.07075 1.56519C4.19393 2.63389 2.6336 4.19417 1.56494 6.071V12H4.6954V4.69573V4.69564H11.9997C11.9997 3.70831 11.9997 2.76772 11.9997 1.56519H6.07075Z" fill="#D80027"/>
<path d="M11.9995 10.5249L7.736 6.26147H6.26038V6.26157L11.9994 12.0006H11.9995C11.9995 12.0006 11.9995 10.9831 11.9995 10.5249Z" fill="#D80027"/>
<path d="M20.2941 13.7574C20.6392 13.2826 20.8696 12.7029 20.8696 12.0008V6.78339C20.4336 7.11095 19.8917 7.30511 19.3044 7.30511C18.451 7.30511 17.6934 6.89528 17.2175 6.26172C16.7415 6.89528 15.9839 7.30511 15.1305 7.30511C14.5432 7.30511 14.0013 7.11091 13.5653 6.78348V12.0008C13.5653 12.7029 13.7958 13.2826 14.1408 13.7574H20.2941Z" fill="#F3F3F3"/>
<path d="M19.2085 11.0321C19.3746 10.6269 19.5038 10.0345 19.5038 9.7397C19.5038 9.26603 18.8863 8.88208 18.8863 8.88208C18.8863 8.88208 18.2687 9.26603 18.2687 9.7397C18.2687 10.0345 18.398 10.6269 18.564 11.0321L18.2075 11.837C18.4171 11.9222 18.6461 11.9696 18.8863 11.9696C19.1265 11.9696 19.3555 11.9222 19.5651 11.837L19.2085 11.0321Z" fill="#FF9811"/>
<path d="M16.7953 8.42672C16.3614 8.4855 15.7838 8.66995 15.5285 8.81733C15.1183 9.05419 15.0945 9.78089 15.0945 9.78089C15.0945 9.78089 15.7358 10.1237 16.146 9.88687C16.4014 9.73945 16.8497 9.33145 17.1175 8.98495L17.9929 8.8912C17.9619 8.66723 17.8882 8.44519 17.7683 8.2372C17.6481 8.02922 17.4927 7.85447 17.3141 7.71558L16.7953 8.42672Z" fill="#FF9811"/>
<path d="M15.7447 11.8207C16.0125 12.167 16.4609 12.575 16.7163 12.7224C17.1265 12.9592 17.7678 12.6165 17.7678 12.6165C17.7678 12.6165 17.7439 11.8897 17.3338 11.6529C17.0783 11.5055 16.5008 11.3212 16.0668 11.2625L15.5481 10.5513C15.3695 10.6901 15.2141 10.865 15.0939 11.0728C14.9739 11.2808 14.9004 11.5028 14.8693 11.7269L15.7447 11.8207Z" fill="#FF9811"/>
<path d="M14.0114 13.5657C14.9858 15.1292 17.2171 15.6525 17.2171 15.6525C17.2171 15.6525 19.4483 15.1292 20.4228 13.5657H14.0114Z" fill="#338AF3"/>
</g>
<defs>
<clipPath id="clip0_845_13697">
<rect width="24" height="24" fill="white"/>
</clipPath>
</defs>
</svg>
