<svg width="24" height="24" viewBox="0 0 24 24" fill="none" xmlns="http://www.w3.org/2000/svg">
<rect x="0.25" y="0.25" width="23.5" height="23.5" rx="11.75" fill="#E6F0FF"/>
<rect x="0.25" y="0.25" width="23.5" height="23.5" rx="11.75" stroke="#F2F4F7" stroke-width="0.5"/>
<g clip-path="url(#clip0_845_14197)">
<path d="M18.8512 10.9358C18.8512 10.9358 18.6147 11.207 18.7219 11.6327C18.8291 12.0584 18.2142 12.4147 18.2836 12.8278C18.3561 13.2409 17.88 13.8211 18.4381 14.0356C18.9931 14.25 19.2296 13.963 19.2895 13.7265C19.3495 13.49 18.9238 13.2283 19.1697 12.7206C19.4157 12.2129 19.668 11.8692 19.6301 11.1597C19.5923 10.4501 19.6774 9.9519 19.2643 9.6681C18.8512 9.38429 19.1603 10.4155 18.8512 10.9358ZM17.0349 11.948C17.921 11.7336 17.5678 11.2385 17.4416 10.7245C17.3155 10.2105 17.7065 10.015 17.3187 9.50097C17.2051 9.3496 17.0601 9.28023 16.9119 9.24239C16.9119 9.25815 16.9119 9.27077 16.9119 9.28653C16.9119 10.3335 16.3033 11.2385 15.4203 11.6705C15.3446 11.7052 15.2847 11.7651 15.2437 11.8376L14.4049 13.3261C14.3418 13.4396 14.181 13.4396 14.118 13.3261L13.2791 11.8376C13.2382 11.7651 13.1751 11.7084 13.1026 11.6705C12.2385 11.248 11.6394 10.3713 11.6141 9.35275C11.5952 8.51395 11.9579 7.76344 12.5476 7.26204C12.3394 7.23682 12.1187 7.24312 11.8916 7.33457C11.2357 7.59946 10.8983 7.51116 10.8983 8.25852C10.8983 9.00588 9.83247 8.47295 9.1608 8.59594C8.48912 8.71892 8.39767 8.9302 7.56517 8.66531C6.73267 8.40043 6.32273 8.68423 6.11145 9.18247C5.89702 9.68071 6.55608 10.2105 6.27227 10.7276C5.98847 11.2448 5.43977 11.188 5.84656 11.8282C6.25335 12.4683 5.22534 12.2886 5.02983 11.8282C4.83432 11.3678 4.10588 10.8695 3.85992 11.0461C3.61395 11.2227 3.3806 11.7903 3.85992 12.0395C4.33924 12.2886 4.48114 12.6071 4.23202 12.7679C3.9829 12.9287 3.53196 12.8909 3.57926 13.1589C3.62657 13.427 3.37429 13.9094 3.57611 14.5243C3.77478 15.1393 3.31438 16.0727 3.59818 16.6781C3.88199 17.2836 4.49691 16.6781 5.64475 16.7601C6.79259 16.8421 6.81466 16.2146 6.81466 16.2146C6.81466 16.2146 6.48355 16.142 5.77404 15.7163C5.06452 15.2906 5.1812 14.0261 5.63213 14.0734C6.08307 14.1207 5.90333 14.6536 6.55608 14.9248C7.20884 15.196 7.1237 15.9055 8.18955 16.0128C9.2554 16.12 8.43867 17.1133 9.12926 17.9647C9.81986 18.8161 9.20179 18.9391 9.83878 19.1189C10.4758 19.2986 10.3181 17.8417 10.8857 17.6115C11.4533 17.3813 11.3997 16.7412 12.3047 16.7065C13.2098 16.6718 12.803 17.6809 13.4589 17.8417C14.1148 18.0026 13.5314 19.5446 14.736 20.2194C15.9438 20.8942 15.1081 19.9167 14.9126 19.5635C14.7171 19.2103 14.4144 18.3747 14.8779 18.444C15.3383 18.5166 15.7293 18.2674 15.8366 17.9647C15.9438 17.662 14.6225 16.9525 15.3163 16.4006C16.0068 15.8519 16.5776 16.2398 16.7353 15.7605C16.893 15.2812 17.3218 15.0699 17.2493 14.518C17.1768 13.9662 17.0885 13.5594 16.4862 13.2062C15.8839 12.853 16.1488 12.1593 17.0349 11.948Z" fill="#2C4872"/>
<path d="M6.30365 12.3421C6.49916 12.8025 7.52717 12.9823 7.12038 12.3421C6.71359 11.702 7.26228 11.7556 7.54609 11.2416C7.8299 10.7276 7.17399 10.1947 7.38527 9.69644C7.59654 9.1982 8.00649 8.91439 8.83899 9.17928C9.67149 9.44416 9.76294 9.23288 10.4346 9.1099C10.7909 9.04368 11.2513 9.16036 11.6108 9.17612C11.6392 8.40669 11.9924 7.7224 12.5411 7.2557C12.333 7.23047 12.1122 7.23678 11.8852 7.32823C11.2293 7.59311 10.8919 7.50482 10.8919 8.25217C10.8919 8.99953 9.826 8.46661 9.15433 8.58959C8.48265 8.71257 8.3912 8.92385 7.5587 8.65896C6.7262 8.39408 6.31626 8.67788 6.10498 9.17612C5.8937 9.67436 6.54961 10.2041 6.26581 10.7213C5.99146 11.2164 5.47115 11.1848 5.7991 11.7556C6.01353 11.9133 6.21535 12.1309 6.30365 12.3421ZM4.84992 15.0383C4.65126 14.4234 4.90353 13.9378 4.85308 13.6729C4.80578 13.408 5.25671 13.4427 5.50583 13.2819C5.75495 13.121 5.61305 12.8025 5.13373 12.5534C4.76163 12.3611 4.81839 11.9732 4.97921 11.7272C4.73325 11.2952 4.0868 10.8727 3.85345 11.0398C3.60433 11.2164 3.37413 11.784 3.85345 12.0331C4.33277 12.2822 4.47467 12.6007 4.22555 12.7615C3.97643 12.9224 3.52549 12.8845 3.57279 13.1526C3.6201 13.4175 3.36782 13.9031 3.56964 14.518C3.77146 15.1329 3.30791 16.0663 3.59171 16.6718C3.79353 17.1038 4.16564 16.9177 4.78055 16.8074C4.74271 16.2398 5.01075 15.5365 4.84992 15.0383ZM14.8715 18.4408C14.8778 18.4408 14.8872 18.444 14.8935 18.444C14.8494 18.403 14.7958 18.3746 14.7327 18.3589C14.0768 18.198 14.4836 17.1889 13.5786 17.2236C13.3326 17.2331 13.1592 17.2867 13.0236 17.3655C13.0961 17.58 13.1907 17.7755 13.4524 17.8417C14.1083 18.0025 13.525 19.5445 14.7296 20.2194C15.9373 20.8942 15.1017 19.9166 14.9061 19.5635C14.7106 19.204 14.4111 18.3715 14.8715 18.4408ZM9.46336 16.5299C9.0818 16.492 8.84845 16.3754 8.67501 16.2303C8.9399 16.5929 8.59933 17.3182 9.12279 17.9615C9.81339 18.8129 9.19532 18.9359 9.83231 19.1157C10.1634 19.2071 10.2801 18.8602 10.3936 18.4724C9.71563 17.6241 10.5229 16.6371 9.46336 16.5299Z" fill="#122644"/>
<path d="M14.2029 6.6344C15.0134 6.61548 15.7418 6.9592 16.24 7.51735C16.2968 7.49213 16.3567 7.47321 16.4166 7.45744C17.2491 7.24301 16.5932 6.4988 17.0379 6.3569C17.4825 6.215 16.877 5.41718 17.1451 4.93786C17.4131 4.45855 15.9752 4.29772 15.1584 4.53107C15.1584 4.53107 14.5908 4.63829 14.7138 5.18698C14.8368 5.73568 14.9061 6.00372 14.2849 6.34113C14.1052 6.43889 14.0074 6.5461 13.9475 6.65647C14.0327 6.64386 14.1178 6.63755 14.2029 6.6344Z" fill="#2C4872"/>
<path d="M15.6693 6.03208C15.5463 5.48023 16.1139 5.37301 16.1139 5.37301C16.3914 5.29418 16.7414 5.26265 17.0725 5.26895C17.0694 5.14912 17.0883 5.0356 17.1419 4.93469C17.4068 4.45537 15.972 4.29455 15.1553 4.5279C15.1553 4.5279 14.5877 4.63512 14.7106 5.18381C14.8336 5.7325 14.9061 6.0037 14.2849 6.34111C14.1052 6.43887 14.0074 6.54608 13.9475 6.65645C14.0327 6.64699 14.1146 6.64068 14.1998 6.63753C14.6917 6.62492 15.1553 6.75105 15.5557 6.97495C15.8332 6.71952 15.767 6.46094 15.6693 6.03208Z" fill="#122644"/>
<path d="M12.5444 7.26159C12.5444 7.26159 13.6102 6.96832 13.9477 6.65298C14.2851 6.33764 16.0668 6.76965 16.237 7.51701C16.4073 8.26437 16.6218 8.61755 16.9119 9.24193C17.202 9.8663 16.9119 11.1277 16.9119 11.1277L15.6568 12.758L14.4711 14.7604L11.0465 12.8778L10.9172 9.62034L11.8916 7.33411L12.5444 7.26159Z" fill="#2C4872"/>
<path d="M10.9961 9.05586C10.9961 9.05586 11.2957 9.42481 12.0367 9.12839C12.7746 8.83197 12.3962 7.4224 13.4967 7.4224C14.5973 7.4224 15.3636 7.43186 15.5591 6.97146C15.7546 6.51106 15.351 6.20203 15.351 6.20203C15.351 6.20203 14.3356 6.29348 13.9508 6.65296C13.5661 7.01245 13.2035 7.18904 12.5476 7.26157C11.8917 7.3341 11.7371 7.31203 11.7687 7.517C11.8002 7.72197 10.9961 9.05586 10.9961 9.05586Z" fill="#122644"/>
</g>
<defs>
<clipPath id="clip0_845_14197">
<rect width="16.1455" height="16.1455" fill="white" transform="translate(3.49097 4.36365)"/>
</clipPath>
</defs>
</svg>
