<svg width="24" height="24" viewBox="0 0 24 24" fill="none" xmlns="http://www.w3.org/2000/svg">
<rect x="0.25" y="0.25" width="23.5" height="23.5" rx="11.75" fill="#FFF1E0"/>
<rect x="0.25" y="0.25" width="23.5" height="23.5" rx="11.75" stroke="#F2F4F7" stroke-width="0.5"/>
<g clip-path="url(#clip0_845_14216)">
<path d="M17.6174 18.6049C17.172 18.7677 16.8595 18.7345 16.6435 18.6414C16.3909 18.5317 16.0984 18.6414 15.9953 18.8974V18.9007C15.9288 19.0669 15.9588 19.2597 16.0784 19.3959C16.2845 19.6319 16.3044 19.9543 16.9293 20.1338C17.7237 20.3632 17.9032 19.7483 18.229 19.3893C18.5547 19.0303 18.6644 18.2193 17.6174 18.6049ZM19.1929 9.55397C19.1896 9.4044 19.163 9.25815 19.1131 9.11522C18.9103 9.87639 18.3852 10.5046 17.6905 10.8403C17.614 10.8769 17.5509 10.9367 17.511 11.0098L16.6568 12.5222C16.5936 12.6352 16.4274 12.6352 16.3643 12.5222L15.51 11.0098C15.4668 10.9367 15.407 10.8769 15.3305 10.8403C14.453 10.4115 13.8415 9.52073 13.8182 8.48369C13.8016 7.79565 14.0409 7.16079 14.4497 6.67883C14.35 6.62897 14.247 6.58576 14.1439 6.54588C13.1833 6.1869 13.3761 5.87113 13.303 5.19971C13.2299 4.52829 14.0243 4.52497 13.8813 4.02306C13.7384 3.51784 12.0067 4.26238 11.4782 4.26238C10.9497 4.26238 10.4212 6.01738 9.45728 5.3925C8.49336 4.76761 6.88461 8.51693 5.77776 8.70971C4.67092 8.9025 2.50708 10.704 3.9995 12.459C5.48859 14.214 4.4316 15.1048 5.48859 15.7995C6.54557 16.4975 6.57217 15.4638 8.99859 14.357C11.4283 13.2501 11.7408 15.1015 12.9174 15.0051C14.0941 14.9087 14.9616 17.7207 15.8757 17.385C16.7897 17.0493 18.568 18.3456 18.5347 16.9994C18.5015 15.6533 20.1535 14.6428 20.4659 12.8878C20.7817 11.1395 19.2294 10.7605 19.1929 9.55397Z" fill="#F9A23D"/>
<path d="M5.98384 13.1537C4.49475 11.3987 6.65859 9.59386 7.76211 9.4044C8.86563 9.21494 10.481 5.45897 11.4416 6.08386C12.3125 6.64892 12.8277 5.26951 13.3096 5.00028C13.3961 4.52164 14.0076 4.47179 13.8813 4.02306C13.7384 3.51784 12.0067 4.26238 11.4782 4.26238C10.9497 4.26238 10.4212 6.01738 9.45728 5.3925C8.49668 4.76761 6.88461 8.51693 5.77776 8.70971C4.67092 8.9025 2.50708 10.704 3.9995 12.459C5.49191 14.214 4.4316 15.1048 5.48859 15.7995C6.09353 16.1984 6.35944 16.0289 6.93447 15.6067C6.85137 15.0251 6.9245 14.2606 5.98384 13.1537Z" fill="#E1963D"/>
<path d="M16.0984 5.75812C16.2147 5.74151 16.3311 5.73153 16.4474 5.72821C16.8396 5.71824 17.2119 5.79469 17.5509 5.93761C17.3714 5.6717 17.1554 5.44568 17.1354 4.90389C17.0989 3.93 16.5571 3.82031 16.5571 3.82031C15.992 3.93665 16.125 4.92384 16.0984 5.75812Z" fill="#F9A23D"/>
<path d="M14.4496 6.67888C15.5233 6.71544 16.095 6.16036 16.0983 5.75817C16.1016 5.35598 16.8262 5.48561 16.8262 5.48561C16.8262 5.48561 17.0223 4.98703 17.5541 5.93433C18.086 6.88163 19.02 7.5597 19.1164 9.11527C19.2127 10.6708 18.8804 12.0004 18.8804 12.0004L16.8262 14.6595L13.0968 12.7649L12.2659 9.34129C12.2659 9.34129 13.1101 6.60908 14.4496 6.67888Z" fill="#F9A23D"/>
</g>
<defs>
<clipPath id="clip0_845_14216">
<rect width="17.0182" height="17.0182" fill="white" transform="translate(3.49097 3.49097)"/>
</clipPath>
</defs>
</svg>
