<svg width="24" height="24" viewBox="0 0 24 24" fill="none" xmlns="http://www.w3.org/2000/svg">
<g clip-path="url(#clip0_845_13723)">
<path d="M16.1736 0.746513C14.8736 0.264169 13.4676 0.00012207 11.9997 0.00012207C10.5319 0.00012207 9.12582 0.264169 7.82583 0.746513L6.78235 12.0001L7.82583 23.2537C9.12582 23.7361 10.5319 24.0001 11.9997 24.0001C13.4676 24.0001 14.8736 23.7361 16.1736 23.2537L17.2171 12.0001L16.1736 0.746513Z" fill="#FFDA44"/>
<path d="M23.9999 11.9993C23.9999 6.83976 20.7434 2.4412 16.1738 0.745728V23.253C20.7434 21.5574 23.9999 17.1589 23.9999 11.9993Z" fill="#D80027"/>
<path d="M-0.000366211 12C-0.000366211 17.1596 3.25613 21.5581 7.82574 23.2537V0.74646C3.25613 2.44193 -0.000366211 6.84049 -0.000366211 12Z" fill="black"/>
</g>
<defs>
<clipPath id="clip0_845_13723">
<rect width="24" height="24" fill="white"/>
</clipPath>
</defs>
</svg>
