<svg width="24" height="24" viewBox="0 0 24 24" fill="none" xmlns="http://www.w3.org/2000/svg">
<g clip-path="url(#clip0_845_13721)">
<path d="M12 24C18.6274 24 24 18.6274 24 12C24 5.37258 18.6274 0 12 0C5.37258 0 0 5.37258 0 12C0 18.6274 5.37258 24 12 24Z" fill="#FCFCFC"/>
<path d="M4.95669 11.129L3.65234 8.76262L4.95669 6.43335L6.26103 8.76262L4.95669 11.129Z" fill="#A2001D"/>
<path d="M2.3478 11.129L1.04346 8.76262L2.3478 6.43335L3.65214 8.76262L2.3478 11.129Z" fill="#A2001D"/>
<path d="M4.95669 17.5646L3.65234 15.1982L4.95669 12.8689L6.26103 15.1982L4.95669 17.5646Z" fill="#A2001D"/>
<path d="M2.3478 17.5646L1.04346 15.1982L2.3478 12.8689L3.65214 15.1982L2.3478 17.5646Z" fill="#A2001D"/>
<path d="M6.26053 2.32887L5.89125 1.66943C5.2289 2.06187 4.60767 2.51623 4.03528 3.02454L4.95619 4.69522L6.26053 2.32887Z" fill="#A2001D"/>
<path d="M4.95617 19.3042L4.02551 20.9662C4.59739 21.4752 5.2182 21.9302 5.88026 22.3235L6.26056 21.6335L4.95617 19.3042Z" fill="#A2001D"/>
<path d="M7.3042 15.1306V23.0461C8.7465 23.66 10.3334 24.0002 11.9999 24.0002C17.1594 24.0002 21.5579 20.7437 23.2535 16.1741L7.3042 15.1306Z" fill="#6DA544"/>
<path d="M23.2535 16.1741C23.7359 14.8742 23.9999 13.4681 23.9999 12.0002C23.9999 5.37287 18.6272 0.000244141 11.9999 0.000244141C10.3335 0.000244141 8.7465 0.340228 7.3042 0.954057V16.1742H23.2535V16.1741Z" fill="#A2001D"/>
</g>
<defs>
<clipPath id="clip0_845_13721">
<rect width="24" height="24" fill="white"/>
</clipPath>
</defs>
</svg>
