<svg width="24" height="24" viewBox="0 0 24 24" fill="none" xmlns="http://www.w3.org/2000/svg">
<g clip-path="url(#clip0_845_13803)">
<path d="M12 24.0001C18.6273 24.0001 23.9999 18.6276 23.9999 12.0002C23.9999 5.37281 18.6273 0.000244141 12 0.000244141C5.37256 0.000244141 0 5.37281 0 12.0002C0 18.6276 5.37256 24.0001 12 24.0001Z" fill="#F0F0F0"/>
<path d="M11.9996 0.000244141C8.07369 0.000244141 4.58834 1.8857 2.39905 4.80024H21.6C19.4108 1.88565 15.9254 0.000244141 11.9996 0.000244141Z" fill="#0052B4"/>
<path d="M11.9996 24.0002C15.9254 24.0002 19.4108 22.1147 21.6001 19.2002H2.39905C4.5883 22.1148 8.07369 24.0002 11.9996 24.0002Z" fill="#0052B4"/>
<path d="M0 12.0001C0 12.8221 0.0828749 13.6247 0.240328 14.4001H23.7597C23.9172 13.6247 24 12.8221 24 12.0001C24 11.1781 23.9171 10.3756 23.7597 9.6001H0.240328C0.0828749 10.3756 0 11.1781 0 12.0001Z" fill="#0052B4"/>
<path d="M3.5148 3.51465C-1.17144 8.20088 -1.17144 15.7989 3.5148 20.4852C5.45134 18.5487 7.31378 16.6862 12.0001 12L3.5148 3.51465Z" fill="#D80027"/>
<path d="M4.85658 8.86963L5.63349 11.261H8.14814L6.11391 12.739L6.89081 15.1304L4.85658 13.6524L2.82225 15.1304L3.59934 12.739L1.56506 11.261H4.07953L4.85658 8.86963Z" fill="#F0F0F0"/>
</g>
<defs>
<clipPath id="clip0_845_13803">
<rect width="24" height="24" fill="white"/>
</clipPath>
</defs>
</svg>
