<svg width="24" height="24" viewBox="0 0 24 24" fill="none" xmlns="http://www.w3.org/2000/svg">
<g clip-path="url(#clip0_845_13813)">
<path d="M12 24C18.6274 24 24 18.6274 24 12C24 5.37258 18.6274 0 12 0C5.37258 0 0 5.37258 0 12C0 18.6274 5.37258 24 12 24Z" fill="#F0F0F0"/>
<path d="M9.39189 10.435H23.899C23.1319 4.54721 18.0974 0.000244141 12.0005 0.000244141C11.1045 0.000244141 10.2318 0.099291 9.39185 0.285479V10.435H9.39189Z" fill="#D80027"/>
<path d="M6.26146 10.4359V1.46021C2.96647 3.25805 0.607626 6.55575 0.102173 10.4359H6.26146V10.4359Z" fill="#D80027"/>
<path d="M6.26092 13.5657H0.101685C0.607138 17.4458 2.96598 20.7435 6.26097 22.5413L6.26092 13.5657Z" fill="#D80027"/>
<path d="M9.39185 13.5657V23.7152C10.2318 23.9014 11.1045 24.0005 12.0005 24.0005C18.0974 24.0005 23.1319 19.4535 23.899 13.5657H9.39185V13.5657Z" fill="#D80027"/>
</g>
<defs>
<clipPath id="clip0_845_13813">
<rect width="24" height="24" fill="white"/>
</clipPath>
</defs>
</svg>
