<svg width="24" height="24" viewBox="0 0 24 24" fill="none" xmlns="http://www.w3.org/2000/svg">
<g clip-path="url(#clip0_845_13817)">
<path d="M12 24C18.6274 24 24 18.6274 24 12C24 5.37258 18.6274 0 12 0C5.37258 0 0 5.37258 0 12C0 18.6274 5.37258 24 12 24Z" fill="#F0F0F0"/>
<path d="M14.348 23.7695C19.0919 22.8285 22.8288 19.0915 23.7699 14.3477H14.348V23.7695Z" fill="#496E2D"/>
<path d="M0.230103 14.3477C1.17112 19.0915 4.90809 22.8285 9.65198 23.7695V14.3477H0.230103Z" fill="#496E2D"/>
<path d="M23.7699 9.65234C22.8288 4.9085 19.0919 1.17153 14.348 0.230469V9.65234H23.7699Z" fill="#496E2D"/>
<path d="M9.65234 0.230469C4.90845 1.17153 1.17148 4.9085 0.230469 9.65234H9.65234V0.230469Z" fill="#496E2D"/>
<path d="M11.2171 14.3481H9.65186V23.77C10.1627 23.8713 10.6852 23.9399 11.2171 23.9742V14.3481Z" fill="#FFDA44"/>
<path d="M11.2175 9.65267V0.0266113C10.6857 0.0608301 10.1631 0.129502 9.65234 0.230799V9.65267H11.2175Z" fill="#FFDA44"/>
<path d="M12.7823 0.0265977C12.5234 0.00986328 12.2627 0.000488281 11.9997 0.000488281C11.7366 0.000488281 11.4759 0.00986328 11.217 0.0265977V9.65271H12.7822V0.0265977H12.7823Z" fill="black"/>
<path d="M11.217 23.974C11.4759 23.9907 11.7366 24.0001 11.9997 24.0001C12.2627 24.0001 12.5234 23.9907 12.7823 23.974V14.3479H11.2171V23.974H11.217Z" fill="black"/>
<path d="M9.65206 11.2178V9.65259H0.230188C0.128845 10.1634 0.0602197 10.6859 0.026001 11.2178H9.65206Z" fill="#FFDA44"/>
<path d="M14.3478 11.2183H23.9739C23.9397 10.6864 23.871 10.1639 23.7697 9.65308H14.3478V11.2183H14.3478Z" fill="#FFDA44"/>
<path d="M14.348 12.783H23.9741C23.9908 12.5242 24.0002 12.2634 24.0002 12.0004C24.0002 11.7374 23.9908 11.4766 23.9741 11.2178H14.348V12.783Z" fill="black"/>
<path d="M0.0259873 11.2178C0.0092998 11.4766 -0.00012207 11.7374 -0.00012207 12.0004C-0.00012207 12.2634 0.0092998 12.5242 0.0259873 12.783H9.6521V11.2178H0.0259873V11.2178Z" fill="black"/>
<path d="M11.9999 17.739C15.1695 17.739 17.739 15.1695 17.739 11.9999C17.739 8.83024 15.1695 6.26074 11.9999 6.26074C8.83024 6.26074 6.26074 8.83024 6.26074 11.9999C6.26074 15.1695 8.83024 17.739 11.9999 17.739Z" fill="#D80027"/>
<path d="M13.3069 12.6407C12.88 11.7869 12.3252 10.9216 12.3252 10.9216C12.3252 10.9216 12.3389 10.5277 12.3389 10.2929C12.3389 9.93928 12.0522 9.65259 11.6986 9.65259C11.3636 9.65259 11.0891 9.90998 11.0611 10.2377C10.7977 10.2549 10.5892 10.4734 10.5892 10.7412C10.5892 10.9358 10.6995 11.1045 10.861 11.1889C10.9412 11.0012 11.0983 10.8547 11.2927 10.7879C11.3244 10.8138 11.3584 10.8369 11.3947 10.8566L11.4768 10.8959C11.4768 10.8959 11.1726 11.7532 11.1726 12.2138C11.1726 13.5087 12.0264 13.908 12.0264 13.908V13.9214L11.5995 14.3482H12.4532V13.4945L12.8801 13.9214C12.8839 13.9133 13.6887 13.4043 13.3069 12.6407Z" fill="#496E2D"/>
<path d="M11.9996 7.30444L12.1938 7.90229H12.8224L12.3139 8.2718L12.5082 8.86964L11.9996 8.50018L11.491 8.86964L11.6853 8.2718L11.1768 7.90229H11.8054L11.9996 7.30444Z" fill="#496E2D"/>
<path d="M9.23988 8.20171L9.74838 8.57122L10.257 8.20166L10.0627 8.7996L10.5713 9.16902L9.94268 9.16907L9.74843 9.76692L9.55413 9.16907L8.92554 9.16902L9.43408 8.79951L9.23988 8.20171Z" fill="#496E2D"/>
<path d="M7.53406 10.5493H8.1626L8.3569 9.95142L8.55115 10.5493L9.17979 10.5492L8.67124 10.9188L8.86554 11.5166L8.3569 11.1471L7.84835 11.5166L8.04256 10.9187L7.53406 10.5493Z" fill="#496E2D"/>
<path d="M7.53406 13.4512L8.04256 13.0818L7.84831 12.4839L8.3569 12.8534L8.86549 12.4839L8.67124 13.0817L9.17984 13.4512L8.55115 13.4513L8.3569 14.0491L8.1626 13.4512H7.53406Z" fill="#496E2D"/>
<path d="M9.23993 15.7991L9.43413 15.2013L8.92554 14.8318H9.55418L9.74847 14.2339L9.94272 14.8317H10.5714L10.0628 15.2013L10.257 15.7991L9.74843 15.4296L9.23993 15.7991Z" fill="#496E2D"/>
<path d="M11.9996 16.6963L11.8054 16.0986H11.1768L11.6853 15.729L11.491 15.1312L11.9996 15.5006L12.5081 15.1311L12.3139 15.729L12.8224 16.0985L12.1938 16.0986L11.9996 16.6963Z" fill="#496E2D"/>
<path d="M14.7603 15.799L14.2518 15.4296L13.7432 15.7991L13.9374 15.2013L13.4288 14.8318L14.0575 14.8317L14.2517 14.2339L14.446 14.8318H15.0746L14.5661 15.2013L14.7603 15.799Z" fill="#496E2D"/>
<path d="M16.466 13.4514H15.8374L15.6431 14.0493L15.4489 13.4515H14.8202L15.3288 13.0819L15.1345 12.4841L15.6431 12.8536L16.1516 12.4841L15.9575 13.082L16.466 13.4514Z" fill="#496E2D"/>
<path d="M16.466 10.5492L15.9575 10.9187L16.1517 11.5165L15.6431 11.1471L15.1345 11.5166L15.3288 10.9187L14.8202 10.5493L15.4489 10.5492L15.6431 9.95142L15.8374 10.5492H16.466Z" fill="#496E2D"/>
<path d="M14.7603 8.20166L14.5661 8.79946L15.0746 9.16898H14.446L14.2518 9.76687L14.0575 9.16902L13.4288 9.16907L13.9374 8.79946L13.7432 8.20171L14.2518 8.57113L14.7603 8.20166Z" fill="#496E2D"/>
</g>
<defs>
<clipPath id="clip0_845_13817">
<rect width="24" height="24" fill="white"/>
</clipPath>
</defs>
</svg>
