<svg width="24" height="24" viewBox="0 0 24 24" fill="none" xmlns="http://www.w3.org/2000/svg">
<g clip-path="url(#clip0_845_13823)">
<path d="M0 12C0 5.37263 5.37262 0 12 0C18.6274 0 24 5.37263 24 12L12 13.0435L0 12Z" fill="#FFDA44"/>
<path d="M1.60559 18.0009C3.68051 21.5876 7.5582 24.0009 11.9998 24.0009C16.4415 24.0009 20.3192 21.5876 22.3941 18.0009L11.9998 17.2183L1.60559 18.0009Z" fill="#D80027"/>
<path d="M22.3944 18.0002C23.4154 16.2352 24.0001 14.1861 24.0001 12.0002H0.00012207C0.00012207 14.1861 0.584841 16.2352 1.60587 18.0002H22.3944Z" fill="#0052B4"/>
<path d="M11.9997 16.1744C14.3049 16.1744 16.1736 14.3057 16.1736 12.0006C16.1736 9.69537 14.3049 7.82666 11.9997 7.82666C9.69452 7.82666 7.82581 9.69537 7.82581 12.0006C7.82581 14.3057 9.69452 16.1744 11.9997 16.1744Z" fill="#FFDA44"/>
<path d="M12.0003 14.6092C10.5618 14.6092 9.3916 13.439 9.3916 12.0005V10.4353C9.3916 8.99689 10.5619 7.82666 12.0003 7.82666C13.4387 7.82666 14.609 8.99694 14.609 10.4353V12.0005C14.609 13.439 13.4387 14.6092 12.0003 14.6092Z" fill="#338AF3"/>
<path d="M16.1737 5.74002H13.0432C13.0432 5.16374 12.576 4.69653 11.9997 4.69653C11.4235 4.69653 10.9563 5.16374 10.9563 5.74002H7.82581C7.82581 6.31635 8.32779 6.7835 8.90403 6.7835H8.86929C8.86929 7.35983 9.33645 7.82699 9.91278 7.82699C9.91278 8.40332 10.3799 8.87047 10.9563 8.87047H13.0432C13.6196 8.87047 14.0867 8.40332 14.0867 7.82699C14.663 7.82699 15.1302 7.35983 15.1302 6.7835H15.0955C15.6718 6.7835 16.1737 6.3163 16.1737 5.74002Z" fill="black"/>
</g>
<defs>
<clipPath id="clip0_845_13823">
<rect width="24" height="24" fill="white"/>
</clipPath>
</defs>
</svg>
