<svg width="24" height="24" viewBox="0 0 24 24" fill="none" xmlns="http://www.w3.org/2000/svg">
<g clip-path="url(#clip0_845_13835)">
<path d="M-0.00012207 12.0001C-0.00012207 13.468 0.263925 14.8741 0.746315 16.1741L11.9999 17.2175L23.2534 16.1741C23.7359 14.8741 23.9999 13.468 23.9999 12.0001C23.9999 10.5524 23.7434 9.16453 23.2736 7.87954L11.9999 6.78271L0.726159 7.87959C0.256331 9.16453 -0.00012207 10.5524 -0.00012207 12.0001Z" fill="#FFDA44"/>
<path d="M11.9998 24.0004C17.1594 24.0004 21.5579 20.7439 23.2534 16.1743H0.746216C2.44173 20.7439 6.84025 24.0004 11.9998 24.0004Z" fill="#D80027"/>
<path d="M11.9999 -0.000244141C6.84037 -0.000244141 2.44185 3.25626 0.746338 7.82587H23.2536C21.558 3.25626 17.1595 -0.000244141 11.9999 -0.000244141Z" fill="#6DA544"/>
<path d="M11.9998 17.7397C15.1694 17.7397 17.7389 15.1702 17.7389 12.0006C17.7389 8.83097 15.1694 6.26147 11.9998 6.26147C8.83012 6.26147 6.26062 8.83097 6.26062 12.0006C6.26062 15.1702 8.83012 17.7397 11.9998 17.7397Z" fill="#0052B4"/>
<path d="M11.9986 7.5564L13.0347 10.7449H16.3927L13.6749 12.7156L14.7191 15.9136L11.9986 13.9336L9.28232 15.9099L10.3223 12.7156L7.60706 10.7449H10.9626L11.9986 7.5564Z" fill="#FFDA44"/>
<path d="M16.1308 12.7939L12.8441 11.7259L14.8753 8.9303L14.0312 8.31689L11.9999 11.1127L9.96872 8.31694L9.1245 8.93025L11.1557 11.7261L7.86914 12.7939L8.19155 13.7864L11.4782 12.7185V16.1742H12.5217V12.7185L15.8082 13.7864L16.1308 12.7939Z" fill="#FFDA44"/>
</g>
<defs>
<clipPath id="clip0_845_13835">
<rect width="24" height="24" fill="white"/>
</clipPath>
</defs>
</svg>
