<svg width="24" height="24" viewBox="0 0 24 24" fill="none" xmlns="http://www.w3.org/2000/svg">
<rect x="0.25" y="0.25" width="23.5" height="23.5" rx="11.75" fill="#E1F9FF"/>
<rect x="0.25" y="0.25" width="23.5" height="23.5" rx="11.75" stroke="#F2F4F7" stroke-width="0.5"/>
<g clip-path="url(#clip0_845_14165)">
<path d="M18.6447 4.49493C18.4701 4.49493 18.252 4.53857 18.0774 4.5822C17.9029 4.66948 17.7283 4.75675 17.5974 4.88766L16.0701 6.32766C15.9829 6.41493 15.8956 6.5022 15.8519 6.63311C15.8519 6.76402 15.8956 6.85129 15.9392 6.9822C15.9829 7.28766 15.6338 7.54948 15.3283 7.54948C15.1538 7.54948 14.9792 7.4622 14.8483 7.37493C14.6738 7.24402 14.6301 7.02584 14.761 6.85129C14.8483 6.76402 14.9356 6.63311 14.9792 6.5022C15.0665 6.32766 14.9792 6.10948 14.761 6.0222L13.9756 5.76038C13.5829 5.62948 13.1901 5.49857 12.7974 5.58584C12.2301 5.71675 11.8374 6.24038 11.5319 6.76402C11.2265 7.28766 10.9647 7.85493 10.441 8.16038C10.2665 8.24766 10.092 8.33493 9.96104 8.4222C9.83013 8.50948 9.21922 9.25129 9.35013 9.51311C9.4374 9.68766 9.56831 9.77493 9.74286 9.77493C10.0483 9.81857 10.2665 9.64402 10.4847 9.46948C10.5283 9.42584 10.6156 9.46948 10.572 9.51311C10.5283 10.124 10.5283 11.0404 10.8774 11.0404C11.2701 11.084 11.7938 9.94948 11.7938 9.60038C11.7938 9.25129 11.4883 9.25129 11.5319 9.07675C11.5319 8.85857 11.6629 8.68402 11.7065 8.46584C11.8374 8.07311 11.881 7.59311 12.3174 7.33129C12.492 7.20039 12.7538 7.24402 12.9283 7.37493C13.1029 7.54948 13.0592 7.76766 12.972 7.9422C12.841 8.20402 12.6665 8.37857 12.5792 8.64039C12.492 8.9022 12.492 9.20766 12.7101 9.33857C12.972 9.46948 13.2338 9.29493 13.4956 9.16402C13.7574 9.03311 14.1065 8.94584 14.2374 9.20766C14.1501 9.60039 14.0629 9.99311 13.8447 10.3422C13.5829 10.6477 13.1465 10.8658 12.7974 10.6913C12.6229 10.7349 12.5356 10.9095 12.492 11.084C12.492 11.2586 12.5356 11.4331 12.492 11.6077C12.361 12.1313 11.7065 12.2186 11.2265 12.2622L10.2229 12.3058C10.1356 12.3058 10.092 12.3058 10.0047 12.2622C9.96104 12.2186 9.96104 12.1313 9.9174 12.044C9.9174 11.7822 10.0483 11.4331 9.87377 11.2149C9.74286 11.084 9.3065 11.1277 9.21922 11.3022C9.13195 11.4767 9.26286 11.8695 9.13195 12.044C9.00104 12.2186 8.60831 12.3058 8.39013 12.7422C8.3465 12.8731 8.25922 13.004 8.17195 13.0913C8.08468 13.1786 7.95377 13.2222 7.82286 13.2658C7.25559 13.4404 6.38286 13.0477 6.12104 13.3531C5.90286 13.6586 6.03377 14.0949 6.12104 14.444C6.25195 14.7931 6.33922 15.2731 6.03377 15.4913C5.77195 15.7095 5.37922 15.5786 5.07377 15.4477L4.37559 15.0986C4.15741 15.0113 3.93922 15.1422 3.89559 15.3167L3.59013 16.4077C3.5465 16.6258 3.45922 16.844 3.50286 17.1058C3.59013 17.4986 3.98286 17.7604 4.37559 17.8913C4.63741 17.9786 4.94286 18.0222 5.20468 18.0658C5.42286 18.1095 5.5974 17.9786 5.64104 17.804C5.68468 17.6295 5.72831 17.4549 5.85922 17.324C6.03377 17.0622 6.25195 16.844 6.5574 16.8004C6.68831 16.8004 6.9065 16.8004 6.99377 16.6695C7.08104 16.5822 7.0374 16.4513 7.08104 16.3204C7.16831 16.1458 7.47377 16.1458 7.69195 16.1895C8.04104 16.2331 8.43377 16.1895 8.73922 16.0149C8.91377 15.9277 9.08831 16.0149 9.17559 16.1458C9.43741 16.4949 9.56831 17.1495 9.83013 17.5422C10.0483 17.8913 10.1792 17.9786 10.2229 18.3713C10.2229 18.4149 10.2229 18.4586 10.1792 18.5022C10.1792 18.5458 10.1356 18.5895 10.092 18.5895C9.91741 18.7204 9.74286 18.8949 9.52468 18.8949C9.48104 18.8949 9.43741 18.9386 9.48104 19.0258C9.56831 19.1567 9.83013 19.4186 9.9174 19.4622C10.0483 19.5058 10.1792 19.5058 10.3101 19.4622C10.7465 19.3749 10.921 18.9822 10.9647 18.8949C11.0083 18.8077 11.2701 18.7204 11.2701 18.7204C11.3138 18.764 11.3574 18.764 11.401 18.7204C11.4447 18.6331 11.4447 18.5022 11.401 18.4149C11.3138 18.284 11.1829 18.1967 11.0519 18.1095C10.6156 17.804 10.572 17.0186 10.2665 16.5822C10.1792 16.4949 10.1356 16.364 10.1356 16.2331C10.092 16.0149 10.3101 15.884 10.4847 15.9713L11.881 16.8004C11.9683 16.844 12.0556 16.8877 12.0992 16.9749C12.2301 17.1931 12.0992 17.4549 12.1429 17.6731C12.1865 17.8477 12.361 17.9786 12.492 18.0658C12.6229 18.1967 12.5356 18.4586 12.6665 18.5458C12.7538 18.5895 12.841 18.5895 12.9283 18.5458C12.972 18.5022 13.0592 18.5022 13.1465 18.5022C13.321 18.5022 13.4956 18.4586 13.452 18.284C13.452 18.2404 13.4083 18.2404 13.4083 18.1967L13.1465 17.6295C13.1029 17.4549 13.2774 17.4549 13.4083 17.4549C13.4956 17.4549 13.7574 17.4549 13.8883 17.4549C14.0192 17.4549 14.6301 16.8877 14.6738 16.6258L14.8483 15.7095C14.892 15.5786 14.8919 15.4477 14.9792 15.3167C15.0665 15.2295 15.1974 15.404 15.3283 15.3167C15.5029 15.2295 15.4156 15.0113 15.6774 14.9677C15.7647 14.9677 15.8956 15.0113 15.9392 15.0986C15.9829 15.1422 15.9829 15.1422 16.0265 15.1422C16.0701 15.1422 16.0701 15.1422 16.1138 15.0986C16.332 14.9677 16.4629 14.7495 16.6374 14.5749C16.812 14.4004 17.161 14.2258 17.292 14.3567C17.3792 14.4877 17.5538 14.9677 16.7247 15.4477C16.5501 15.5349 16.5501 15.7095 16.6374 15.884C16.681 15.9713 16.7683 16.0149 16.8556 16.0149C17.0738 16.0149 17.3792 15.7095 17.7283 16.0149C17.772 16.0586 17.9465 16.5386 17.5538 16.6695C17.0301 16.8004 16.812 16.8004 16.1574 16.8877C15.852 16.9313 15.5465 16.9749 15.3283 17.1931C15.1974 17.3677 15.1101 17.5858 14.9356 17.6731C14.8483 17.7604 14.7174 17.7604 14.6301 17.8477C14.4992 17.9786 14.4556 18.1531 14.4992 18.3277C14.5429 18.5022 14.6738 18.6331 14.761 18.8077C14.8483 18.8949 14.8919 18.9822 14.9792 19.0258C15.0665 19.0695 15.1538 19.0695 15.241 19.0695C15.7647 19.0258 16.2883 18.6767 16.812 18.8077C16.8992 18.8513 17.0301 18.8949 17.1174 18.8949C17.292 18.8949 17.4229 18.8077 17.5101 18.7204C18.0338 18.3713 18.601 18.1095 19.2556 18.0222C19.3865 18.0222 19.561 17.9786 19.6047 17.8477C19.6483 17.804 19.6483 17.7167 19.6483 17.6731C19.6483 17.3677 19.6483 16.9749 19.3865 16.7567C19.2992 16.6695 19.1683 16.6258 19.0374 16.5822C18.6883 16.4077 18.601 15.8404 18.732 15.6222C18.8192 15.4477 19.6483 15.884 20.0847 16.1458C20.2156 16.2331 20.3901 16.1022 20.3901 15.9713V4.62584C20.3901 4.5822 20.3901 4.5822 20.3901 4.53857C20.3901 4.49493 20.3465 4.49493 20.3465 4.49493L20.3029 4.45129C20.2592 4.45129 20.2592 4.45129 20.2156 4.45129C19.8665 4.49493 18.8192 4.49493 18.6447 4.49493Z" fill="#40C4FF"/>
<path d="M10.9092 8.72748C11.1273 9.81839 10.9092 9.6002 11.3455 10.3421C11.3891 10.4293 11.411 10.473 11.4546 10.5166C11.2801 10.8221 11.0837 11.0839 10.8655 11.0839C10.5164 11.0402 10.5164 10.1239 10.5601 9.55661C10.5601 9.51297 10.5164 9.46934 10.4728 9.51297C10.2546 9.68752 9.99278 9.86206 9.68733 9.81843C9.51279 9.81843 9.33824 9.68752 9.2946 9.55661C9.20733 9.29479 9.7746 8.59661 9.90551 8.4657C10.0601 8.31109 10.2546 8.24748 10.3855 8.1602C10.9091 7.85475 11.171 7.33116 11.4764 6.80752C11.651 6.50207 11.9564 6.1093 12.2182 5.89111C12.3055 6.19657 12.1746 6.5457 12.0001 6.72025C11.4328 7.28752 11.3455 7.72384 10.9092 8.72748Z" fill="#00B0FF"/>
<path d="M11.057 12.6548C10.0534 12.7857 10.0534 13.7021 8.52613 13.9639C6.99886 14.2694 7.43522 15.753 5.64613 16.4512C4.33704 16.9748 4.31992 17.2365 4.36356 17.8911C3.97083 17.8038 3.59522 17.4985 3.50795 17.1057C3.49088 16.8002 3.48612 16.8002 3.59993 16.3638L3.88357 15.3603C3.92721 15.0985 4.1625 15.0112 4.38068 15.0985L5.16613 15.4039C5.47159 15.5348 5.80284 15.6221 6.06466 15.4039C6.37011 15.1857 6.20334 14.6518 6.10901 14.4002C5.9781 14.0511 5.8472 13.6148 6.10901 13.3093C6.41447 13.0039 7.34795 13.3966 7.91522 13.2221C8.04613 13.1785 8.11629 13.1348 8.20356 13.0475C8.29083 12.9603 8.30829 12.8294 8.39556 12.6985C8.61374 12.2621 8.98901 12.2184 9.11992 12.0002C9.25083 11.7821 9.13704 11.4228 9.22431 11.2483C9.31159 11.0737 9.83522 11.0403 9.96613 11.1712C10.1407 11.3894 10.0098 11.6948 10.0098 12.0003C10.0098 12.0876 10.0098 12.1748 10.0534 12.2185C10.097 12.2621 10.1843 12.2621 10.2716 12.2621L11.3189 12.2185C11.8425 12.1748 12.349 12.0875 12.4363 11.5639C12.4799 11.3893 12.4363 11.3021 12.4363 11.1275C12.4363 11.0839 12.6545 10.6912 12.8072 10.6912C12.6545 10.9093 13.0643 11.2585 13.1516 11.6076C13.457 12.6112 12.0607 12.4803 11.057 12.6548Z" fill="#00B0FF"/>
</g>
<defs>
<clipPath id="clip0_845_14165">
<rect width="17.0182" height="17.0182" fill="white" transform="translate(3.49097 3.49097)"/>
</clipPath>
</defs>
</svg>
