<svg width="24" height="24" viewBox="0 0 24 24" fill="none" xmlns="http://www.w3.org/2000/svg">
<g clip-path="url(#clip0_845_13837)">
<path d="M24 12C24 18.6274 18.6274 24 12 24C5.37262 24 0 18.6274 0 12C0 12.0029 12 0.0013125 12 0C18.6274 0 24 5.37262 24 12Z" fill="#0052B4"/>
<path d="M11.9672 12.0002H11.9993C11.9993 11.9894 11.9993 11.9789 11.9993 11.968C11.9886 11.9788 11.9779 11.9895 11.9672 12.0002Z" fill="#F0F0F0"/>
<path d="M11.9996 6.26062C11.9996 4.14913 11.9996 2.76562 11.9996 -0.000244141H11.9976C5.37113 0.000880859 -0.000366211 5.37299 -0.000366211 11.9998H6.26049V8.47424L9.78605 11.9998H11.9676C11.9783 11.9891 11.9889 11.9784 11.9997 11.9676C11.9997 11.1592 11.9997 10.4378 11.9997 9.78622L8.47407 6.26062H11.9996Z" fill="#F0F0F0"/>
<path d="M6.07063 1.56494C4.1938 2.63364 2.63352 4.19393 1.56482 6.07075V11.9997H4.69527V4.69549V4.69539H11.9996C11.9996 3.70807 11.9996 2.76747 11.9996 1.56494H6.07063Z" fill="#D80027"/>
<path d="M11.9997 10.5244L7.73629 6.26099H6.26062V6.26108L11.9996 12.0001H11.9997C11.9997 12.0001 11.9997 10.9826 11.9997 10.5244Z" fill="#D80027"/>
<path d="M19.3046 14.0864V14.6081H15.1307V14.0864H13.5654V16.1733H14.6089V16.6951H19.8263V16.1733H20.8698V14.0864H19.3046Z" fill="#FFDA44"/>
<path d="M13.5654 6.26147V12.0006C13.5654 14.7962 17.2176 15.6528 17.2176 15.6528C17.2176 15.6528 20.8698 14.7962 20.8698 12.0006V6.26147H13.5654Z" fill="#338AF3"/>
<path d="M17.218 10.543C16.305 10.543 16.305 11.3778 15.392 11.3778C14.479 11.3778 14.479 10.543 13.566 10.543V12.0038C14.479 12.0038 14.479 12.8386 15.392 12.8386C16.305 12.8386 16.305 12.0038 17.218 12.0038C18.1311 12.0038 18.1311 12.8386 19.0442 12.8386C19.9573 12.8386 19.9573 12.0038 20.8704 12.0038V10.543C19.9573 10.543 19.9573 11.3778 19.0442 11.3778C18.1311 11.3778 18.1311 10.543 17.218 10.543Z" fill="#F3F3F3"/>
<path d="M17.2176 7.61816C16.3046 7.61816 16.3046 8.45296 15.3916 8.45296C14.4787 8.45296 14.4787 7.61816 13.5657 7.61816V9.07902C14.4787 9.07902 14.4787 9.91382 15.3916 9.91382C16.3046 9.91382 16.3046 9.07902 17.2176 9.07902C18.1307 9.07902 18.1307 9.91382 19.0438 9.91382C19.9569 9.91382 19.9569 9.07902 20.87 9.07902V7.61816C19.9569 7.61816 19.9569 8.45296 19.0438 8.45296C18.1307 8.45296 18.1307 7.61816 17.2176 7.61816Z" fill="#F3F3F3"/>
</g>
<defs>
<clipPath id="clip0_845_13837">
<rect width="24" height="24" fill="white"/>
</clipPath>
</defs>
</svg>
