<svg width="24" height="24" viewBox="0 0 24 24" fill="none" xmlns="http://www.w3.org/2000/svg">
<g clip-path="url(#clip0_845_14254)">
<path d="M12 24C18.6274 24 24 18.6274 24 12C24 5.37258 18.6274 0 12 0C5.37258 0 0 5.37258 0 12C0 18.6274 5.37258 24 12 24Z" fill="#F0F0F0"/>
<rect x="9.92297" width="4.15385" height="24" fill="#D80027"/>
<rect x="24" y="9.92322" width="4.15385" height="24" transform="rotate(90 24 9.92322)" fill="#D80027"/>
<path d="M14.6769 5.96213C14.6769 5.23916 14.088 4.65305 13.3616 4.65305C13.0246 4.65305 12.7174 4.77929 12.4846 4.98665V4.21667H12.9231V3.34394H12.4846V2.90759H11.6077V3.34394H11.1693V4.21667H11.6077V4.98665C11.3749 4.77929 11.0677 4.65305 10.7308 4.65305C10.0043 4.65305 9.41541 5.23916 9.41541 5.96213C9.41541 6.34975 9.58484 6.69788 9.85385 6.93762V7.70759H14.2385V6.93762C14.5075 6.69788 14.6769 6.34975 14.6769 5.96213Z" fill="#FFDA44"/>
<path d="M13.3615 5.53845C13.2232 5.53845 13.1264 5.60026 13.0694 5.65205L12.4846 6.18481H11.6077L11.0229 5.65205C10.9659 5.60026 10.8691 5.53845 10.7308 5.53845C10.489 5.53845 10.2924 5.73859 10.2924 5.98459C10.2924 6.15788 10.3842 6.26735 10.4389 6.31725L10.7308 6.58325V6.87691H13.3616V6.58325L13.6535 6.31725C13.7082 6.26739 13.8001 6.15788 13.8001 5.98459C13.8 5.73859 13.6033 5.53845 13.3615 5.53845Z" fill="#D80027"/>
<path d="M12.0026 6.97236C12.0112 6.9559 12.0348 6.9559 12.0434 6.97236L13.3625 9.48422C13.3915 9.53943 13.4496 9.57302 13.5119 9.57052L16.3468 9.45691C16.3654 9.45617 16.3772 9.47658 16.3672 9.4923L14.8514 11.8905C14.8181 11.9433 14.8181 12.0104 14.8514 12.0632L16.3672 14.4614C16.3772 14.4771 16.3654 14.4975 16.3468 14.4968L13.5119 14.3832C13.4496 14.3807 13.3915 14.4143 13.3625 14.4695L12.0434 16.9813C12.0348 16.9978 12.0112 16.9978 12.0026 16.9813L10.6835 14.4695C10.6545 14.4143 10.5964 14.3807 10.534 14.3832L7.6992 14.4968C7.68061 14.4975 7.66883 14.4771 7.67876 14.4614L9.19458 12.0632C9.2279 12.0104 9.22789 11.9433 9.19458 11.8905L7.67876 9.4923C7.66883 9.47658 7.68061 9.45617 7.6992 9.45691L10.534 9.57052C10.5964 9.57302 10.6545 9.53943 10.6835 9.48422L12.0026 6.97236Z" fill="white" stroke="black" stroke-width="0.138462"/>
<path d="M11.1461 13.3384V14.3769H12.7845H12.8307V13.3384C13.1307 13.1999 13.2922 12.8308 13.3615 12.2308C13.4307 11.6308 13.7768 11.3538 13.7076 11.2385C13.4076 10.8461 12.9461 11.9769 12.8999 11.8615C12.8538 11.7461 12.8307 9.87692 12.8307 9.57692C12.8307 9.27692 12.4153 9.34615 12.4153 9.50768V10.7769C12.4153 10.8923 12.2999 11.0077 12.2999 10.8692V9.16153C12.2999 8.90769 11.9076 8.97691 11.9076 9.16153V10.9615C11.9076 11.0538 11.7922 11.1 11.7691 10.9615C11.7461 10.823 11.723 9.62306 11.723 9.41536C11.723 9.20767 11.423 9.23075 11.423 9.41536V10.9615C11.423 11.1 11.2615 11.1461 11.2615 10.9615V9.9692C11.2615 9.71535 10.9384 9.73843 10.9384 9.9692C10.9384 12.0923 10.5922 12.9461 11.1461 13.3384Z" fill="#D80027"/>
</g>
<defs>
<clipPath id="clip0_845_14254">
<rect width="24" height="24" fill="white"/>
</clipPath>
</defs>
</svg>
