<svg width="24" height="24" viewBox="0 0 24 24" fill="none" xmlns="http://www.w3.org/2000/svg">
<g clip-path="url(#clip0_845_14264)">
<path d="M12 24C18.6274 24 24 18.6274 24 12C24 5.37258 18.6274 0 12 0C5.37258 0 0 5.37258 0 12C0 18.6274 5.37258 24 12 24Z" fill="#6DA544"/>
<path d="M0 12C0 5.37262 5.37262 0 12 0C18.6274 0 24 5.37262 24 12" fill="#F0F0F0"/>
<path d="M7.70874 12.7602L8.6699 9.51462L7.70874 9.80702V9.25146L8.34951 9.04678V8.49123H8V8.78363H7.3301V8.49123H6.39806L7.8835 7.93567L8.08738 7.61404H9.60194L10.6505 7.11696V7.46784L11 7.49708L10.2136 8.14035L10.6505 9.01754H10.3301L10.6505 9.89474H10.3301L10.6505 10.6842H10.3301L10.7087 11.5614L11.6408 10.9474V10.0702L15.4272 7V9.07602L17.9029 7.38012V9.30994L14.9612 11.4444C15.0194 11.4932 15.1825 11.6257 15.3689 11.7661C16.9417 11.7661 18.7767 10.7427 18.8058 9.92398H18.2524L19.5049 8.14035L20 9.98246H19.4466C19.2835 11.7602 17.767 12.6725 17.0291 12.9064L18.3981 13.9006L17.7573 16.0351L18.3398 16.7368L17.5825 16.4444L15.7184 16.6491L15.1068 16.9708L15.2524 16.5614L15.7767 16.2398H15.3398L14.9029 16.4152L15.2524 15.8012H17.0291L17 14.2515L14.1456 13.4035L14.9029 14.6608L13.3592 16.0351L13.9126 16.7368L13.2136 16.4444L11.2913 16.6491L10.6505 17L10.8252 16.5614L11.3786 16.2105H10.8835L10.4757 16.386L10.8252 15.8012H12.7184L13.0971 15.1579L11.8447 14.2222H9.71845L8.5534 16.0351L9.1068 16.7368L8.37864 16.4444L6.48544 16.6491L5.84466 16.9708L6.04854 16.5322L6.54369 16.2398H6.1068L5.6699 16.386L6.01942 15.8012H7.67961L8.61165 14.2222H7.82524L7.38835 14.8655L5.84466 12.2924L5.05825 12.7602L5.52427 12L5.58252 11.0643L5 10.0117L5.5534 10.1287L5.84466 10.538V10.0702L5.72816 9.66082L6.25243 10.1287V10.538L6.71845 9.92398V10.8304L6.2233 11.2105L6.48544 12.1462L7.70874 12.7602Z" fill="#D80027"/>
</g>
<defs>
<clipPath id="clip0_845_14264">
<rect width="24" height="24" fill="white"/>
</clipPath>
</defs>
</svg>
