<svg width="24" height="24" viewBox="0 0 24 24" fill="none" xmlns="http://www.w3.org/2000/svg">
<g clip-path="url(#clip0_4_351)">
<path d="M0.75 12C0.75 18.225 5.775 23.25 12 23.25C16.3875 23.25 20.2125 20.7 22.05 17.025L1.95 6.97498C1.1625 8.47498 0.75 10.2 0.75 12Z" fill="#FFCE31"/>
<path d="M12 0.75C7.61251 0.75 3.78751 3.3 1.95001 6.975L22.0875 17.025C22.8375 15.525 23.2875 13.8 23.2875 12C23.25 5.775 18.225 0.75 12 0.75Z" fill="#699635"/>
<path d="M12 6.71252L13.2375 10.5H17.2125L13.9875 12.8625L15.225 16.65L12 14.325L8.77498 16.65L10.0125 12.8625L6.78748 10.5H10.7625L12 6.71252Z" fill="#DA121A"/>
</g>
<defs>
<clipPath id="clip0_4_351">
<rect width="24" height="24" fill="white"/>
</clipPath>
</defs>
</svg>
