<svg width="24" height="24" viewBox="0 0 24 24" fill="none" xmlns="http://www.w3.org/2000/svg">
<g clip-path="url(#clip0_845_14282)">
<path d="M24 12C24 18.6274 18.6274 24 12 24C5.37262 24 0 18.6274 0 12C0 12.0029 12 0.0013125 12 0C18.6274 0 24 5.37262 24 12Z" fill="#0052B4"/>
<path d="M11.9672 12.0002H11.9993C11.9993 11.9894 11.9993 11.9789 11.9993 11.968C11.9886 11.9788 11.9779 11.9895 11.9672 12.0002Z" fill="#F0F0F0"/>
<path d="M11.9996 6.26074C11.9996 4.14925 11.9996 2.76574 11.9996 -0.00012207H11.9976C5.37113 0.00100293 -0.000366211 5.37311 -0.000366211 11.9999H6.26049V8.47436L9.78605 11.9999H11.9676C11.9783 11.9892 11.9889 11.9785 11.9997 11.9678C11.9997 11.1593 11.9997 10.438 11.9997 9.78635L8.47407 6.26074H11.9996Z" fill="#F0F0F0"/>
<path d="M6.07063 1.56494C4.1938 2.63364 2.63352 4.19393 1.56482 6.07075V11.9997H4.69527V4.69549V4.69539H11.9996C11.9996 3.70807 11.9996 2.76747 11.9996 1.56494H6.07063Z" fill="#D80027"/>
<path d="M11.9997 10.5244L7.73629 6.26099H6.26062V6.26108L11.9996 12.0001H11.9997C11.9997 12.0001 11.9997 10.9826 11.9997 10.5244Z" fill="#D80027"/>
<path fill-rule="evenodd" clip-rule="evenodd" d="M15.0632 11.4C14.9073 11.4 14.781 11.5264 14.781 11.6822V12.216C14.7293 12.2055 14.6758 12.2 14.621 12.2C14.1792 12.2 13.821 12.5582 13.821 13V14.272C13.821 14.8685 14.3046 15.352 14.901 15.352H15.261C15.2691 15.352 15.2769 15.3514 15.2846 15.3503H15.2988C15.4547 15.3503 15.581 15.224 15.581 15.0681V11.6822C15.581 11.5264 15.4547 11.4 15.2988 11.4H15.0632Z" fill="#BDBCC1"/>
<path fill-rule="evenodd" clip-rule="evenodd" d="M18.8233 11.4C18.6675 11.4 18.5411 11.5264 18.5411 11.6822V15.0681C18.5411 15.224 18.6675 15.3503 18.8233 15.3503H18.9242C18.9321 15.3515 18.9402 15.3521 18.9484 15.3521H19.3084C19.9049 15.3521 20.3884 14.8686 20.3884 14.2721V13.0001C20.3884 12.5583 20.0303 12.2001 19.5884 12.2001C19.5021 12.2001 19.419 12.2138 19.3411 12.2391V11.6822C19.3411 11.5264 19.2148 11.4 19.059 11.4H18.8233Z" fill="black"/>
<path fill-rule="evenodd" clip-rule="evenodd" d="M16.5285 9.39206C16.4225 9.57263 16.1637 9.57887 16.0491 9.40361L15.8269 9.06389C15.7843 8.99867 15.6968 8.98038 15.6316 9.02302C15.5664 9.06566 15.5481 9.1531 15.5908 9.21831L15.9895 9.8281C16.0357 9.89877 16.0319 9.98972 16.0319 10.0742V10.3567C16.0319 10.3567 16.0319 10.3567 16.0319 10.3568C16.0319 10.3568 16.0319 10.3568 16.0319 10.3569L16.0319 10.921C16.0319 10.921 16.0319 10.9211 16.0319 10.9211C16.0319 10.9211 16.0319 10.9211 16.0319 10.9212V11.485C16.0319 11.6408 16.1583 11.7671 16.3141 11.7671C16.4699 11.7671 16.5963 11.6408 16.5963 11.485V11.2033C16.5963 11.0474 16.7226 10.9211 16.8784 10.9211H17.1606C17.3165 10.9211 17.4428 11.0474 17.4428 11.2033V11.4853C17.4428 11.6411 17.5691 11.7675 17.725 11.7675C17.8808 11.7675 18.0071 11.6411 18.0071 11.4853V10.6388C18.0071 10.483 17.8808 10.3566 17.725 10.3566H17.4429C17.4429 10.3566 17.4428 10.3567 17.4428 10.3567C17.4428 10.3567 17.4427 10.3568 17.4426 10.3568H16.8784C16.7226 10.3568 16.5963 10.2302 16.5963 10.0744C16.5963 9.97189 16.581 9.86006 16.6329 9.77168L16.9551 9.2228C16.9946 9.15561 16.9721 9.06916 16.9049 9.0297C16.8377 8.99025 16.7513 9.01274 16.7118 9.07993L16.5285 9.39206Z" fill="#FF9811"/>
<path d="M17.2894 15.433C17.2354 15.5664 17.0466 15.5664 16.9927 15.433L16.0175 13.02C15.975 12.9148 16.0524 12.8 16.1658 12.8L18.1162 12.8C18.2297 12.8 18.3071 12.9148 18.2646 13.02L17.2894 15.433Z" fill="#6DA544"/>
<path d="M14.2211 17C15.0211 15.9333 19.0211 15.9333 19.8211 17" stroke="#FFDA44" stroke-width="0.4" stroke-linecap="round"/>
</g>
<defs>
<clipPath id="clip0_845_14282">
<rect width="24" height="24" fill="white"/>
</clipPath>
</defs>
</svg>
