<svg width="24" height="24" viewBox="0 0 24 24" fill="none" xmlns="http://www.w3.org/2000/svg">
<g clip-path="url(#clip0_845_13869)">
<path d="M12 24C18.6274 24 24 18.6274 24 12C24 5.37258 18.6274 0 12 0C5.37258 0 0 5.37258 0 12C0 18.6274 5.37258 24 12 24Z" fill="#F0F0F0"/>
<path d="M23.9992 12.0004C23.9992 7.24291 21.2305 3.13216 17.2166 1.19116V22.8097C21.2305 20.8687 23.9992 16.7579 23.9992 12.0004Z" fill="#338AF3"/>
<path d="M-0.000366211 12.0002C-0.000366211 16.7577 2.76831 20.8685 6.78226 22.8095V1.19092C2.76831 3.13192 -0.000366211 7.24267 -0.000366211 12.0002Z" fill="#338AF3"/>
<path d="M15.1355 14.0285L13.1065 11.9995L15.0379 10.068L14.9503 9.0479L14.3974 8.49487L11.9997 10.8926L9.60191 8.49487L9.04897 9.0479L8.96146 10.068L10.8928 11.9995L8.86377 14.0285L9.97058 15.1352L11.9997 13.1062L14.0287 15.1352L15.1355 14.0285Z" fill="#ACABB1"/>
<path d="M14.9516 9.04907L13.8448 10.1558C14.3169 10.6279 14.6089 11.2801 14.6089 12.0005C14.6089 13.4412 13.4409 14.6092 12.0002 14.6092C10.5595 14.6092 9.3915 13.4412 9.3915 12.0005C9.3915 11.2801 9.68353 10.6279 10.1556 10.1558L9.04884 9.04907C8.29345 9.80432 7.82629 10.8478 7.82629 12.0005C7.82629 14.3057 9.69501 16.1744 12.0002 16.1744C14.3054 16.1744 16.1741 14.3056 16.1741 12.0005C16.1741 10.8479 15.7069 9.80437 14.9516 9.04907Z" fill="#6DA544"/>
</g>
<defs>
<clipPath id="clip0_845_13869">
<rect width="24" height="24" fill="white"/>
</clipPath>
</defs>
</svg>
