<svg width="24" height="24" viewBox="0 0 24 24" fill="none" xmlns="http://www.w3.org/2000/svg">
<g clip-path="url(#clip0_845_13877)">
<path d="M12 24C18.6274 24 24 18.6274 24 12C24 5.37258 18.6274 0 12 0C5.37258 0 0 5.37258 0 12C0 18.6274 5.37258 24 12 24Z" fill="#F0F0F0"/>
<path d="M12 -0.000976562C9.87837 -0.000976562 7.88581 0.550367 6.15649 1.51646V22.4816C7.88585 23.4477 9.87837 23.999 12 23.999C18.6274 23.999 24 18.6264 24 11.999C24 5.37165 18.6274 -0.000976562 12 -0.000976562Z" fill="#6DA544"/>
<path d="M6.1919 1.49829C5.43698 1.91665 4.73208 2.4139 4.08806 2.97921C4.15317 2.92212 4.21893 2.86568 4.28522 2.80999L13.4758 12.0006L4.28517 21.1912C4.21884 21.1355 4.15312 21.0791 4.08801 21.022C4.73203 21.5873 5.43698 22.0845 6.19186 22.5029L24.0001 12.0006L6.1919 1.49829Z" fill="#F0F0F0"/>
<path d="M5.17825 2.12695C4.81229 2.38036 4.46082 2.65303 4.1259 2.94445L12 11.9997L4.12585 21.0549C4.46078 21.3463 4.81225 21.619 5.1782 21.8724L21.9458 11.9997L5.17825 2.12695Z" fill="#FFDA44"/>
<path d="M4.28492 2.80981C4.01815 3.03397 3.76071 3.26896 3.51453 3.5151L10.9564 12.0004L3.51453 20.4857C3.76071 20.7319 4.0181 20.9669 4.28492 21.191L13.4755 12.0004L4.28492 2.80981Z" fill="black"/>
<path d="M3.51471 3.51416C-1.17157 8.20044 -1.17157 15.7985 3.51471 20.4848C5.45126 18.5482 7.31375 16.6858 12 11.9995L3.51471 3.51416Z" fill="#D80027"/>
</g>
<defs>
<clipPath id="clip0_845_13877">
<rect width="24" height="24" fill="white"/>
</clipPath>
</defs>
</svg>
