<svg width="24" height="24" viewBox="0 0 24 24" fill="none" xmlns="http://www.w3.org/2000/svg">
<g clip-path="url(#clip0_845_14377)">
<path d="M24 12C24 18.6274 18.6274 24 12 24C5.37262 24 0 18.6274 0 12C0 12.0028 12 0.00135937 12 0C18.6274 0 24 5.37262 24 12Z" fill="#0052B4"/>
<path d="M11.9678 12.0004H11.9999C11.9999 11.9895 11.9999 11.9791 11.9999 11.9683C11.9892 11.979 11.9785 11.9897 11.9678 12.0004Z" fill="#F0F0F0"/>
<path d="M11.9997 6.26171C11.9997 4.15023 11.9997 2.76662 11.9997 0.000854492H11.9977C5.37125 0.00193262 -0.000244141 5.37404 -0.000244141 12.0008H6.26061V8.47524L9.78617 12.0008H11.9677C11.9784 11.9901 11.9891 11.9794 11.9998 11.9687C11.9998 11.1602 11.9998 10.4389 11.9998 9.78732L8.47419 6.26171H11.9997Z" fill="#F0F0F0"/>
<path d="M6.07112 1.56567C4.19429 2.63438 2.63401 4.19466 1.56531 6.07149V12.0005H4.69576V4.69617V4.69613H12.0001C12.0001 3.7088 12.0001 2.76821 12.0001 1.56567H6.07112Z" fill="#D80027"/>
<path d="M12.0004 10.5249L7.73702 6.2615H6.26135C6.26135 6.26145 6.26135 6.2615 6.26135 6.2615L12.0004 12.0005H12.0004C12.0004 12.0005 12.0004 10.9831 12.0004 10.5249Z" fill="#D80027"/>
<path d="M7.23753 14.0864L7.89613 15.4635L9.38333 15.1198L8.71733 16.4933L9.9133 17.4417L8.42422 17.7774L8.42839 19.3038L7.23753 18.3488L6.04672 19.3038L6.05089 17.7774L4.56177 17.4417L5.75778 16.4933L5.09169 15.1198L6.57899 15.4635L7.23753 14.0864Z" fill="#F0F0F0"/>
<path d="M17.9671 16.6954L18.2964 17.384L19.04 17.2121L18.707 17.8989L19.305 18.3731L18.5605 18.5409L18.5625 19.3041L17.9671 18.8266L17.3717 19.3041L17.3738 18.5409L16.6293 18.3731L17.2273 17.8989L16.8943 17.2121L17.6378 17.384L17.9671 16.6954Z" fill="#F0F0F0"/>
<path d="M14.9035 9.39148L15.2327 10.0801L15.9763 9.90814L15.6433 10.5949L16.2413 11.0691L15.4968 11.2369L15.4988 12.0002L14.9035 11.5227L14.308 12.0002L14.3101 11.2369L13.5656 11.0691L14.1635 10.5949L13.8305 9.90814L14.5742 10.0801L14.9035 9.39148Z" fill="#F0F0F0"/>
<path d="M17.9671 5.21765L18.2964 5.90625L19.04 5.73436L18.707 6.42112L19.305 6.89531L18.5605 7.06317L18.5625 7.82639L17.9671 7.34887L17.3717 7.82639L17.3738 7.06317L16.6293 6.89531L17.2272 6.42112L16.8943 5.73436L17.6378 5.90625L17.9671 5.21765Z" fill="#F0F0F0"/>
<path d="M20.6422 8.34778L20.9715 9.03637L21.7151 8.86443L21.3821 9.5512L21.9801 10.0254L21.2355 10.1933L21.2376 10.9565L20.6422 10.479L20.0468 10.9565L20.0488 10.1933L19.3043 10.0254L19.9023 9.5512L19.5693 8.86443L20.3129 9.03637L20.6422 8.34778Z" fill="#F0F0F0"/>
<path d="M18.7292 12.0004L18.9881 12.7975H19.8264L19.1482 13.2902L19.4073 14.0873L18.7292 13.5947L18.0511 14.0873L18.3101 13.2902L17.632 12.7975H18.4701L18.7292 12.0004Z" fill="#F0F0F0"/>
</g>
<defs>
<clipPath id="clip0_845_14377">
<rect width="24" height="24" fill="white"/>
</clipPath>
</defs>
</svg>
