<svg width="24" height="24" viewBox="0 0 24 24" fill="none" xmlns="http://www.w3.org/2000/svg">
<g clip-path="url(#clip0_845_13889)">
<path d="M12 24C18.6274 24 24 18.6274 24 12C24 5.37258 18.6274 0 12 0C5.37258 0 0 5.37258 0 12C0 18.6274 5.37258 24 12 24Z" fill="#F0F0F0"/>
<path d="M12.0001 -0.000976562C7.24255 -0.000976562 3.1318 2.7677 1.1908 6.78165H22.8093C20.8684 2.7677 16.7576 -0.000976562 12.0001 -0.000976562Z" fill="#FF9811"/>
<path d="M12.0001 23.9997C16.7576 23.9997 20.8684 21.231 22.8094 17.217H1.1908C3.1318 21.231 7.24254 23.9997 12.0001 23.9997Z" fill="#6DA544"/>
<path d="M12.0003 16.1732C14.3055 16.1732 16.1742 14.3045 16.1742 11.9993C16.1742 9.69415 14.3055 7.82544 12.0003 7.82544C9.69513 7.82544 7.82642 9.69415 7.82642 11.9993C7.82642 14.3045 9.69513 16.1732 12.0003 16.1732Z" fill="#0052B4"/>
<path d="M12.0002 14.608C13.4409 14.608 14.6088 13.44 14.6088 11.9993C14.6088 10.5586 13.4409 9.39062 12.0002 9.39062C10.5594 9.39062 9.39148 10.5586 9.39148 11.9993C9.39148 13.44 10.5594 14.608 12.0002 14.608Z" fill="#F0F0F0"/>
<path d="M12.0003 8.78076L12.8051 10.606L14.7881 10.3903L13.6099 11.9999L14.7881 13.6094L12.8051 13.3937L12.0003 15.2189L11.1955 13.3937L9.21252 13.6094L10.3908 11.9999L9.21252 10.3903L11.1955 10.606L12.0003 8.78076Z" fill="#0052B4"/>
</g>
<defs>
<clipPath id="clip0_845_13889">
<rect width="24" height="24" fill="white"/>
</clipPath>
</defs>
</svg>
