<svg width="24" height="24" viewBox="0 0 24 24" fill="none" xmlns="http://www.w3.org/2000/svg">
<g clip-path="url(#clip0_845_14003)">
<path d="M12 24C18.6274 24 24 18.6274 24 12C24 5.37258 18.6274 0 12 0C5.37258 0 0 5.37258 0 12C0 18.6274 5.37258 24 12 24Z" fill="#F0F0F0"/>
<path d="M11.9999 -0.000244141C8.36285 -0.000244141 5.10396 1.61807 2.90332 4.17365H21.0965C18.8959 1.61807 15.637 -0.000244141 11.9999 -0.000244141Z" fill="#0052B4"/>
<path d="M21.0962 19.8269H2.90295C5.1036 22.3825 8.36249 24.0008 11.9996 24.0008C15.6366 24.0008 18.8955 22.3825 21.0962 19.8269Z" fill="#0052B4"/>
<path d="M22.2387 5.73853H1.76128C0.644297 7.56126 0 9.705 0 11.9994C0 14.2938 0.644297 16.4376 1.76128 18.2603H22.2387C23.3557 16.4376 24 14.2938 24 11.9994C24 9.705 23.3557 7.56126 22.2387 5.73853Z" fill="#D80027"/>
<path d="M7.38263 16.6183C9.93273 16.6183 12 14.551 12 12.0009C12 9.45082 9.93273 7.38354 7.38263 7.38354C4.83253 7.38354 2.76526 9.45082 2.76526 12.0009C2.76526 14.551 4.83253 16.6183 7.38263 16.6183Z" fill="#F0F0F0"/>
<path d="M7.38242 7.38354L8.41841 10.572H11.7764L9.05877 12.5428L10.1029 15.7408L7.38242 13.7607L4.66611 15.7371L5.70608 12.5428L2.99084 10.572H6.34639L7.38242 7.38354Z" fill="#D80027"/>
</g>
<defs>
<clipPath id="clip0_845_14003">
<rect width="24" height="24" fill="white"/>
</clipPath>
</defs>
</svg>
