<svg width="24" height="24" viewBox="0 0 24 24" fill="none" xmlns="http://www.w3.org/2000/svg">
<g clip-path="url(#clip0_845_13931)">
<path d="M12 24C18.6274 24 24 18.6274 24 12C24 5.37258 18.6274 0 12 0C5.37258 0 0 5.37258 0 12C0 18.6274 5.37258 24 12 24Z" fill="#F0F0F0"/>
<path d="M2.74292 4.36319H21.257C20.5732 3.53515 19.7801 2.80085 18.9003 2.1814H5.09965C4.21986 2.80076 3.42678 3.5351 2.74292 4.36319Z" fill="#F0F0F0"/>
<path d="M0 12.0005C0 12.3684 0.0174844 12.732 0.049875 13.0915H23.9501C23.9825 12.732 24 12.3684 24 12.0005C24 11.6327 23.9825 11.2691 23.9501 10.9097H0.049875C0.0174844 11.2691 0 11.6327 0 12.0005Z" fill="#F0F0F0"/>
<path d="M1.30884 17.4547H22.6917C23.0451 16.7635 23.3332 16.0336 23.5484 15.2729H0.452148C0.667258 16.0336 0.955539 16.7635 1.30884 17.4547Z" fill="#F0F0F0"/>
<path d="M5.09965 21.818H18.9003C19.7801 21.1986 20.5732 20.4643 21.257 19.6362H2.74292C3.42678 20.4642 4.21986 21.1986 5.09965 21.818Z" fill="#F0F0F0"/>
<path d="M0.452026 8.72794H23.5484C23.3332 7.96725 23.045 7.23731 22.6916 6.54614H1.30876C0.955464 7.23731 0.667183 7.96725 0.452026 8.72794Z" fill="#F0F0F0"/>
<path d="M5.73853 2.1818H18.8997C16.9478 0.807516 14.568 0 11.9994 0C10.4342 0 7.6904 0.807516 5.73853 2.1818Z" fill="#D80027"/>
<path d="M11.4783 6.54532H22.6914C22.2924 5.76471 21.8104 5.03351 21.257 4.36353H11.4783V6.54532Z" fill="#D80027"/>
<path d="M11.4783 10.9084H23.9501C23.8826 10.1592 23.747 9.42964 23.5482 8.72656H11.4783V10.9084Z" fill="#D80027"/>
<path d="M0.451439 15.2736H23.5477C23.7465 14.5706 23.8822 13.841 23.9497 13.0918H0.0494385C0.116938 13.841 0.252595 14.5705 0.451439 15.2736Z" fill="#D80027"/>
<path d="M2.7426 19.6369H21.2567C21.8101 18.9668 22.2921 18.2356 22.6911 17.4551H1.30823C1.70727 18.2357 2.18924 18.9669 2.7426 19.6369Z" fill="#D80027"/>
<path d="M11.9992 24.0004C14.5678 24.0004 16.9477 23.1929 18.8995 21.8186H5.09888C7.05075 23.1929 9.4306 24.0004 11.9992 24.0004Z" fill="#D80027"/>
<path d="M0.45188 8.72679C0.253036 9.42992 0.117427 10.1594 0.0499268 10.9086H12V-0.000488281C6.50724 -0.000488281 1.8765 3.69007 0.45188 8.72679Z" fill="#0052B4"/>
<path d="M7.14369 3.13062L7.92064 5.52194H10.4353L8.40102 7.00001L9.17792 9.39148L7.14369 7.91351L5.10936 9.39148L5.88645 7.00001L3.85217 5.52194H6.36669L7.14369 3.13062Z" fill="#F0F0F0"/>
</g>
<defs>
<clipPath id="clip0_845_13931">
<rect width="24" height="24" fill="white"/>
</clipPath>
</defs>
</svg>
