<svg width="24" height="24" viewBox="0 0 24 24" fill="none" xmlns="http://www.w3.org/2000/svg">
<rect x="0.25" y="0.25" width="23.5" height="23.5" rx="11.75" fill="#EBFFCA"/>
<rect x="0.25" y="0.25" width="23.5" height="23.5" rx="11.75" stroke="#F2F4F7" stroke-width="0.5"/>
<g clip-path="url(#clip0_845_14224)">
<mask id="mask0_845_14224" style="mask-type:luminance" maskUnits="userSpaceOnUse" x="3" y="3" width="18" height="18">
<path d="M20.5091 3.27234H3.49097V20.2905H20.5091V3.27234Z" fill="white"/>
</mask>
<g mask="url(#mask0_845_14224)">
<path d="M5.36733 5.80321L5.54188 6.02139C5.62915 6.1523 5.76006 6.19593 5.89097 6.19593H6.54551C6.63279 6.19593 6.72006 6.19593 6.76369 6.1523L7.63642 5.71593C7.72369 5.6723 7.76733 5.6723 7.8546 5.6723H8.68369C8.77097 5.6723 8.90188 5.71593 8.98915 5.75957L9.42551 6.10866C9.51278 6.19593 9.60006 6.19593 9.73097 6.19593H11.6946C11.8255 6.19593 11.9564 6.23957 12.0437 6.37048L13.091 7.50503C13.1782 7.5923 13.3091 7.67957 13.4401 7.67957H14.0946C14.2255 7.67957 14.3564 7.72321 14.4437 7.85412L14.9237 8.46503C15.011 8.59593 15.1419 8.63957 15.2728 8.63957H15.971C16.0582 8.63957 16.1455 8.59593 16.1891 8.59593L17.2801 7.94139C17.3673 7.89775 17.4982 7.85412 17.6291 7.89775L18.851 8.15957C18.9382 8.15957 19.0255 8.24684 19.1128 8.29048L19.8982 9.07593C20.0291 9.20684 20.0728 9.46866 19.9855 9.64321L19.5928 10.385C19.5491 10.5159 19.5055 10.6468 19.5491 10.7778L19.8546 11.6941C19.8546 11.7378 19.8982 11.7814 19.8982 11.825V12.4359C19.8982 12.5668 19.9419 12.6978 20.0292 12.785L20.3782 13.1341C20.5964 13.3087 20.5528 13.6578 20.3782 13.8323L20.1601 14.0505C20.0728 14.0941 20.0292 14.1814 20.0292 14.3123L19.9419 14.6178C19.8546 14.9232 19.5491 15.0541 19.2873 14.9232L18.3273 14.4432C18.1964 14.3996 18.1528 14.3123 18.1091 14.1814L17.9346 13.745C17.8473 13.5705 17.6728 13.4396 17.4982 13.4396H16.3201C16.1891 13.4396 16.1019 13.3959 16.0146 13.3087L15.0982 12.4359C14.9237 12.2614 14.6182 12.2614 14.4437 12.4359L14.3564 12.5232C14.1819 12.6978 14.1819 12.9596 14.3128 13.1341L15.5346 14.9668C15.6219 15.0541 15.7091 15.1414 15.8401 15.185L16.3637 15.2723C16.4946 15.3159 16.6255 15.2723 16.7564 15.185L16.8873 15.0541C17.0619 14.9232 17.3237 14.9232 17.4982 15.0541L18.5019 15.8832C18.6764 16.0578 18.7201 16.3196 18.5891 16.4941L17.6291 18.065C17.5855 18.1523 17.4982 18.2396 17.411 18.2396L12.3928 20.2905C12.131 20.3778 11.8691 20.2468 11.7819 20.0287L11.3891 18.9378C11.3455 18.8068 11.3455 18.7196 11.3891 18.5887L11.5637 18.1523C11.6073 18.0214 11.6073 17.8468 11.5201 17.7159L8.72733 13.4396C8.59642 13.265 8.37824 13.1778 8.16006 13.265C7.94188 13.3523 7.81097 13.6141 7.89824 13.8759L8.46551 15.4905C8.50915 15.665 8.46551 15.8396 8.37824 15.9705L7.8546 16.5378C7.76733 16.625 7.63642 16.6687 7.50551 16.6687H3.97097C3.70915 16.6687 3.49097 16.4505 3.49097 16.1887V11.825C3.49097 11.5196 3.75278 11.3014 4.05824 11.345L5.4546 11.5632C5.49824 11.5632 5.54188 11.5632 5.62915 11.5632L6.8946 11.345C6.93824 11.345 6.93824 11.345 6.98188 11.345H7.98551C8.20369 11.345 8.42188 11.1705 8.46551 10.9523L8.8146 9.42503C8.90188 9.07594 8.55278 8.72684 8.20369 8.85775L7.72369 9.0323C7.63642 9.07593 7.54915 9.07593 7.46188 9.0323L6.19642 8.81412C6.10915 8.81412 6.02188 8.81412 5.97824 8.81412L5.23642 8.98866C5.01824 9.0323 4.80006 8.98866 4.71279 8.81412L4.0146 7.76684C3.97097 7.67957 3.92733 7.54866 3.92733 7.46139V6.10866C3.92733 5.84684 4.14551 5.62866 4.40733 5.62866H5.01824C5.14915 5.62866 5.28006 5.71593 5.36733 5.80321Z" fill="#A2E62E"/>
</g>
<mask id="mask1_845_14224" style="mask-type:luminance" maskUnits="userSpaceOnUse" x="3" y="3" width="18" height="18">
<path d="M20.5091 3.27234H3.49097V20.2905H20.5091V3.27234Z" fill="white"/>
</mask>
<g mask="url(#mask1_845_14224)">
<path d="M7.89824 11.3014C7.68006 11.825 7.59278 11.4323 6.8946 11.9123C6.02188 12.5232 5.4546 11.9996 4.66915 12.2614C3.88369 12.5232 4.71279 13.2214 4.4946 13.8759C4.27642 14.5305 4.40733 15.3596 5.10551 16.0141C5.32369 16.2323 4.9746 16.4505 4.9746 16.6687H3.97097C3.70915 16.6687 3.49097 16.4505 3.49097 16.1887V11.825C3.49097 11.5196 3.75278 11.3014 4.05824 11.345L5.4546 11.5632C5.49824 11.5632 5.54188 11.5632 5.62915 11.5632L6.8946 11.345C6.93824 11.345 6.93824 11.345 6.98188 11.345H7.89824V11.3014Z" fill="#97D729"/>
</g>
<mask id="mask2_845_14224" style="mask-type:luminance" maskUnits="userSpaceOnUse" x="3" y="3" width="18" height="18">
<path d="M20.5091 3.27234H3.49097V20.2905H20.5091V3.27234Z" fill="white"/>
</mask>
<g mask="url(#mask2_845_14224)">
<path d="M11.0401 6.19593C10.8655 6.41412 10.5165 6.67598 10.0365 6.76325C8.90191 6.9378 7.89828 6.5887 6.76373 6.76325C5.62919 6.89416 5.54191 6.80689 5.54191 7.19961C5.54191 7.59234 6.41464 8.42143 6.98191 8.5087C6.98191 8.5087 6.98191 8.59593 7.63646 9.0323C7.54919 9.07593 7.46191 9.07593 7.37464 9.0323L6.10919 8.81412C6.02191 8.81412 5.93464 8.81412 5.891 8.81412L5.23646 8.98866C5.06191 9.0323 4.84373 8.98866 4.71282 8.81412L4.01464 7.76684C3.971 7.63593 3.92737 7.54866 3.92737 7.46139V6.10866C3.92737 5.84684 4.14555 5.62866 4.40737 5.62866H4.97464C5.10555 5.62866 5.23646 5.71593 5.36737 5.80321L5.54191 6.02139C5.62919 6.10866 5.7601 6.19593 5.891 6.19593H6.54555C6.63282 6.19593 6.7201 6.19593 6.76373 6.1523L7.63646 5.71593C7.72373 5.6723 7.76737 5.6723 7.85464 5.6723H8.68373C8.771 5.6723 8.90191 5.71593 8.98919 5.75957L9.42555 6.10866C9.51282 6.1523 9.6001 6.19593 9.731 6.19593H11.0401Z" fill="#97D729"/>
</g>
</g>
<defs>
<clipPath id="clip0_845_14224">
<rect width="17.0182" height="17.0182" fill="white" transform="translate(3.49097 3.27271)"/>
</clipPath>
</defs>
</svg>
