<svg width="24" height="24" viewBox="0 0 24 24" fill="none" xmlns="http://www.w3.org/2000/svg">
<g clip-path="url(#clip0_4_374)">
<path d="M12 23.25C16.9125 23.25 21.075 20.1375 22.6125 15.75H1.38745C2.92495 20.1375 7.08745 23.25 12 23.25Z" fill="#83BF4F"/>
<path d="M12 0.75C7.08745 0.75 2.92495 3.9 1.38745 8.25H22.6125C21.075 3.9 16.9125 0.75 12 0.75Z" fill="#2A5F9E"/>
<path d="M22.6125 15.75C23.025 14.5875 23.25 13.3125 23.25 12C23.25 10.6875 23.025 9.4125 22.6125 8.25H1.3875C0.975 9.4125 0.75 10.6875 0.75 12C0.75 13.3125 0.975 14.5875 1.3875 15.75H22.6125Z" fill="#ED4C5C"/>
<path d="M9.00005 18.6375C12.6658 18.6375 15.6375 15.6658 15.6375 12C15.6375 8.33426 12.6658 5.36255 9.00005 5.36255C5.33426 5.36255 2.36255 8.33426 2.36255 12C2.36255 15.6658 5.33426 18.6375 9.00005 18.6375Z" fill="#FFE62E"/>
<path d="M9 5.25C5.2875 5.25 2.25 8.2875 2.25 12C2.25 15.7125 5.2875 18.75 9 18.75C12.7125 18.75 15.75 15.7125 15.75 12C15.75 8.2875 12.7125 5.25 9 5.25ZM2.475 12C2.475 8.4375 5.325 5.55 8.85 5.475V6.9375C8.4375 7.125 8.1375 7.275 8.0625 7.65C8.0625 7.6875 8.025 8.175 8.025 8.325C8.025 8.325 8.1 8.325 8.25 8.2125C8.325 8.1375 8.55 8.1 8.85 7.95V8.7C8.4 8.775 8.1 9.15 8.1 9.6C8.1 10.05 8.4375 10.425 8.85 10.5V10.6875C8.5125 10.6875 8.2125 10.575 7.95 10.05C7.8 9.75 7.425 9.3 7.425 9.3C7.425 9.3 7.6125 9.7875 7.6125 10.3125C7.65 11.0625 8.325 11.1375 8.8125 11.1375V11.2875H7.875V11.55H8.85V11.7C8.4 11.7375 8.1 11.9625 8.1 12.2625C8.1 12.5625 8.4375 12.7875 8.85 12.825V12.975H7.875V13.125H8.85V13.275C8.1 13.3125 7.725 13.6125 7.6875 14.0625C7.6125 15 7.425 15.75 7.425 15.75C7.425 15.75 7.725 15.4125 8.025 14.5875C8.175 14.2125 8.5125 13.9875 8.85 13.9125V14.025C8.5125 14.1 8.25 14.55 8.25 15.075C8.25 15.6 8.5125 16.05 8.85 16.125V16.425C8.4 16.425 7.95 16.5375 7.725 16.725C7.425 16.9875 6.675 17.7 6.375 18C4.0875 16.9875 2.475 14.7 2.475 12ZM11.475 18.0375C11.2125 17.7375 10.5375 17.025 10.125 16.725C9.9 16.5375 9.525 16.4625 9.15 16.425V16.125C9.4875 16.05 9.75 15.6 9.75 15.075C9.75 14.55 9.4875 14.1 9.15 14.025V13.9125C9.4875 13.95 9.825 14.2125 9.975 14.5875C10.3125 15.4125 10.575 15.75 10.575 15.75C10.575 15.75 10.3875 15 10.3125 14.0625C10.275 13.6125 9.9 13.3125 9.15 13.275V13.125H10.125V12.8625H9.15V12.7125C9.6 12.675 9.9 12.45 9.9 12.15C9.9 11.85 9.5625 11.625 9.15 11.5875V11.4375H10.125V11.175H9.15V11.025C9.675 11.025 10.3125 10.95 10.35 10.2C10.3875 9.675 10.5375 9.1875 10.5375 9.1875C10.5375 9.1875 10.1625 9.6375 10.0125 9.9375C9.75 10.4625 9.45 10.575 9.1125 10.575V10.3875C9.5625 10.3125 9.8625 9.9375 9.8625 9.4875C9.8625 9.0375 9.525 8.6625 9.1125 8.5875V7.65C9.375 7.425 9.675 7.0875 9.975 6.5625C10.125 6.2625 10.05 6.15 10.05 6.15C10.05 6.15 10.05 6.1875 9.9375 6.2625C9.675 6.4875 9.375 6.6375 9.1125 6.7875V5.475C12.6375 5.55 15.4875 8.4375 15.4875 12C15.525 14.7375 13.8375 17.0625 11.475 18.0375Z" fill="#3E4347"/>
</g>
<defs>
<clipPath id="clip0_4_374">
<rect width="24" height="24" fill="white"/>
</clipPath>
</defs>
</svg>
