<svg width="24" height="24" viewBox="0 0 24 24" fill="none" xmlns="http://www.w3.org/2000/svg">
<g clip-path="url(#clip0_845_14001)">
<path d="M17.2169 1.19047C15.6392 0.427631 13.8694 -0.000244141 11.9995 -0.000244141C10.1296 -0.000244141 8.35976 0.427631 6.78213 1.19047L5.73865 11.9998L6.78213 22.809C8.35976 23.5719 10.1296 23.9998 11.9995 23.9998C13.8694 23.9998 15.6392 23.5719 17.2169 22.809L18.2604 11.9998L17.2169 1.19047Z" fill="#F0F0F0"/>
<path d="M6.7825 1.19116C2.76855 3.13207 -0.00012207 7.24249 -0.00012207 12C-0.00012207 16.7576 2.76855 20.868 6.7825 22.8089V1.19116Z" fill="#6DA544"/>
<path d="M17.2172 1.19116V22.8089C21.2311 20.868 23.9998 16.7575 23.9998 12C23.9998 7.24254 21.2311 3.13207 17.2172 1.19116Z" fill="#6DA544"/>
<path d="M15.1304 15.6516L12 5.73853L8.86951 15.6516H11.2173V18.2603H12.7826V15.6516H15.1304Z" fill="#6DA544"/>
</g>
<defs>
<clipPath id="clip0_845_14001">
<rect width="24" height="24" fill="white"/>
</clipPath>
</defs>
</svg>
