<svg width="24" height="24" viewBox="0 0 24 24" fill="none" xmlns="http://www.w3.org/2000/svg">
<g clip-path="url(#clip0_845_14059)">
<path d="M12 24C18.6274 24 24 18.6274 24 12C24 5.37258 18.6274 0 12 0C5.37258 0 0 5.37258 0 12C0 18.6274 5.37258 24 12 24Z" fill="#6DA544"/>
<path d="M6.78284 14.3477C6.78284 15.2121 7.48362 15.9129 8.34804 15.9129H13.0437C13.0437 16.6332 13.6277 17.2172 14.348 17.2172H15.9133C16.6336 17.2172 17.2176 16.6332 17.2176 15.9129V14.3477H6.78284Z" fill="#F0F0F0"/>
</g>
<path d="M3.75876 9.38218C3.80653 9.68844 3.99166 9.78454 4.15257 9.77197C4.34237 9.75725 4.50882 9.58372 4.50882 9.40041V8.34946C4.50882 8.29685 4.55166 8.2539 4.60438 8.2539C4.6571 8.2539 4.69994 8.29679 4.69994 8.34946V9.40492C4.69988 9.46736 4.71517 9.52885 4.74444 9.584C4.77371 9.63915 4.81608 9.68628 4.86782 9.72123C4.91953 9.75628 4.97905 9.77811 5.04116 9.7848C5.10328 9.79149 5.16608 9.78284 5.22407 9.75961L5.31957 9.72145C5.32836 10.6037 5.27471 11.379 5.27372 11.3932C5.27184 11.4194 5.27538 11.4457 5.28412 11.4705C5.29286 11.4952 5.30662 11.5179 5.32453 11.5372C5.34244 11.5564 5.36411 11.5717 5.38821 11.5821C5.4123 11.5926 5.43829 11.598 5.46456 11.5979C5.51286 11.5979 5.55935 11.5796 5.59468 11.5466C5.63001 11.5137 5.65157 11.4686 5.65501 11.4205C5.65946 11.3583 5.71833 10.5092 5.70065 9.569L5.75842 9.54594C5.78346 9.53598 5.81032 9.53142 5.83724 9.53255C5.86416 9.53367 5.89054 9.54046 5.91466 9.55247C6.01714 9.6037 6.13315 9.62139 6.24624 9.60303C6.35933 9.58467 6.46378 9.53119 6.54479 9.45017L6.57922 9.41579C6.65478 9.34067 6.70779 9.2459 6.73225 9.14221C6.75671 9.03851 6.75164 8.93004 6.71761 8.82908L6.55489 8.34094C6.59814 8.35409 6.64464 8.35155 6.68619 8.33376C6.72774 8.31598 6.76169 8.2841 6.78203 8.24375C6.8047 8.19841 6.80844 8.14593 6.79241 8.09785C6.77639 8.04977 6.74192 8.01002 6.69658 7.98735L6.31441 7.79625C6.2806 7.77934 6.24254 7.77284 6.20503 7.77756C6.16753 7.78229 6.13227 7.79803 6.10371 7.82279C6.07515 7.84756 6.05458 7.88023 6.0446 7.91669C6.03461 7.95314 6.03566 7.99174 6.04762 8.0276L6.3551 8.95006C6.36643 8.98371 6.36812 9.01986 6.35996 9.05442C6.35181 9.08898 6.33415 9.12057 6.30897 9.14561L6.27459 9.17999C6.25025 9.20425 6.21889 9.22026 6.18495 9.22575C6.15102 9.23124 6.11621 9.22593 6.08546 9.21057C5.96162 9.14869 5.82059 9.1371 5.68829 9.17082C5.66144 8.55747 5.59537 7.94671 5.45467 7.52447C5.44675 7.50065 5.43421 7.47862 5.41776 7.45966C5.40131 7.44069 5.38128 7.42515 5.35882 7.41393C5.33636 7.40272 5.31191 7.39604 5.28686 7.39429C5.26182 7.39253 5.23667 7.39574 5.21287 7.40372C5.18905 7.41163 5.16703 7.42417 5.14806 7.4406C5.1291 7.45704 5.11356 7.47705 5.10234 7.4995C5.09112 7.52195 5.08443 7.54639 5.08267 7.57142C5.0809 7.59646 5.08409 7.62159 5.09205 7.64539C5.22973 8.0583 5.2897 8.68757 5.31101 9.31326L5.08222 9.40475V8.34929C5.08222 8.08581 4.86787 7.87153 4.60443 7.87153C4.34099 7.87153 4.12665 8.08581 4.12665 8.34929V9.27433L3.93169 8.3114C3.92682 8.28675 3.91712 8.26331 3.90314 8.24243C3.88917 8.22155 3.87119 8.20364 3.85026 8.18975C3.82932 8.17585 3.80585 8.16624 3.78118 8.16146C3.75651 8.15668 3.73114 8.15684 3.70653 8.16192C3.68193 8.1669 3.65855 8.17668 3.63773 8.1907C3.61691 8.20472 3.59905 8.2227 3.58518 8.24361C3.57131 8.26453 3.56169 8.28798 3.55689 8.31261C3.55208 8.33724 3.55217 8.36258 3.55715 8.38718L3.75876 9.38218ZM4.1267 7.7762C4.17738 7.77619 4.22598 7.75605 4.26181 7.72021C4.29764 7.68437 4.31776 7.63577 4.31776 7.5851V7.39405C4.31819 7.36869 4.31357 7.34349 4.30416 7.31993C4.29475 7.29637 4.28074 7.27492 4.26296 7.25683C4.24517 7.23874 4.22396 7.22437 4.20056 7.21457C4.17716 7.20476 4.15205 7.19971 4.12668 7.19971C4.10131 7.19971 4.07619 7.20476 4.05279 7.21457C4.0294 7.22437 4.00819 7.23874 3.9904 7.25683C3.97261 7.27492 3.95861 7.29637 3.9492 7.31993C3.93979 7.34349 3.93516 7.36869 3.93559 7.39405V7.5851C3.93559 7.63578 3.95573 7.68439 3.99157 7.72023C4.02741 7.75607 4.07602 7.7762 4.1267 7.7762ZM6.03768 7.5851H6.22879C6.25416 7.58553 6.27936 7.5809 6.30292 7.57149C6.32648 7.56208 6.34793 7.54808 6.36602 7.53029C6.38411 7.51251 6.39848 7.4913 6.40829 7.4679C6.41809 7.44451 6.42315 7.41939 6.42315 7.39402C6.42315 7.36865 6.41809 7.34354 6.40829 7.32014C6.39848 7.29675 6.38411 7.27554 6.36602 7.25775C6.34793 7.23997 6.32648 7.22596 6.30292 7.21655C6.27936 7.20714 6.25416 7.20252 6.22879 7.20295H6.03768C5.987 7.20295 5.9384 7.22308 5.90256 7.25891C5.86672 7.29475 5.84659 7.34335 5.84659 7.39402C5.84659 7.4447 5.86672 7.4933 5.90256 7.52913C5.9384 7.56497 5.987 7.5851 6.03768 7.5851Z" fill="#F5F5F5"/>
<path d="M4.79298 10.0962L3.83747 10.6695C3.81566 10.6823 3.7966 10.6993 3.78139 10.7194C3.76618 10.7396 3.75513 10.7626 3.74887 10.7871C3.74261 10.8116 3.74127 10.8371 3.74493 10.8621C3.74859 10.8871 3.75717 10.9111 3.77018 10.9328C3.78318 10.9545 3.80036 10.9733 3.82071 10.9883C3.84106 11.0033 3.86418 11.0141 3.88874 11.0201C3.91329 11.0261 3.93879 11.0271 3.96375 11.0232C3.98872 11.0193 4.01266 11.0104 4.03418 10.9972L4.9897 10.4239C5.01151 10.4111 5.03057 10.3942 5.04577 10.374C5.06098 10.3538 5.07203 10.3308 5.07829 10.3063C5.08455 10.2818 5.08589 10.2563 5.08223 10.2313C5.07858 10.2063 5.06999 10.1823 5.05699 10.1606C5.04398 10.1389 5.0268 10.1201 5.00645 10.1051C4.9861 10.0901 4.96298 10.0793 4.93843 10.0733C4.91387 10.0673 4.88838 10.0663 4.86341 10.0702C4.83844 10.0741 4.81451 10.083 4.79298 10.0962Z" fill="#F5F5F5"/>
<path d="M7.36931 10.4346L7.37381 10.4316C7.38985 10.4961 7.41736 10.5586 7.46201 10.6111C7.53966 10.7026 7.65609 10.7485 7.78767 10.7377C7.97433 10.724 8.10119 10.6388 8.18522 10.5286C8.19801 10.5374 8.21147 10.5455 8.22553 10.5525C8.32883 10.6046 8.44828 10.6006 8.56201 10.5417C8.85082 10.393 8.91304 10.0489 8.90426 9.86896C8.8991 9.76407 8.80991 9.69004 8.70529 9.68796C8.65482 9.69027 8.60729 9.7124 8.57305 9.74956C8.53881 9.78671 8.52061 9.83587 8.52241 9.88636C8.52247 9.88878 8.52675 10.1155 8.38814 10.1997C8.36551 10.1682 8.33871 10.0972 8.32861 10.0386C8.31246 9.94029 8.22212 9.87181 8.12492 9.87966C8.07706 9.8836 8.03241 9.90536 7.99983 9.94064C7.96724 9.97592 7.94909 10.0221 7.94896 10.0702C7.94891 10.0979 7.9427 10.3432 7.7534 10.3637C7.73138 10.3336 7.73099 10.2071 7.75269 10.1136C7.7616 10.0761 7.75897 10.0368 7.74515 10.0008C7.73133 9.96488 7.70696 9.93393 7.67524 9.91206C7.64351 9.89019 7.60592 9.87842 7.56739 9.87829C7.52885 9.87817 7.49118 9.88969 7.45932 9.91135L7.35267 9.98389C7.30203 8.87571 7.18533 7.58439 7.1839 7.56786C7.18171 7.54285 7.17459 7.51851 7.16296 7.49625C7.15132 7.474 7.1354 7.45426 7.1161 7.43818C7.09681 7.42211 7.07452 7.41 7.05053 7.40257C7.02654 7.39514 7.00132 7.39253 6.97631 7.39488C6.95131 7.39715 6.92699 7.40433 6.90476 7.416C6.88253 7.42767 6.86281 7.4436 6.84674 7.4629C6.83067 7.48219 6.81856 7.50446 6.8111 7.52844C6.80364 7.55241 6.80098 7.57762 6.80327 7.60262C6.80492 7.62031 6.9399 9.11437 6.98148 10.2553C6.9717 10.2646 6.96165 10.2748 6.9521 10.2837C6.87653 10.0932 6.72671 9.97313 6.53379 9.9549C6.2615 9.93084 5.96649 10.1161 5.86071 10.3808C5.76955 10.6084 5.82694 10.8322 6.0068 10.9507C6.13613 11.0359 6.3313 11.0628 6.57673 10.9768C6.51682 11.1873 6.4077 11.4008 6.2659 11.5659C6.13887 11.7139 5.92678 11.8847 5.65538 11.877C5.49738 11.8708 5.37601 11.8191 5.28424 11.7188C5.06298 11.4771 5.08204 11.0397 5.0822 11.0351C5.08487 10.9845 5.06738 10.935 5.03358 10.8974C4.99978 10.8597 4.95243 10.837 4.90191 10.8342C4.79597 10.823 4.70634 10.9091 4.70052 11.0145C4.6992 11.0387 4.67147 11.6136 5.00059 11.975C5.1626 12.1532 5.37782 12.2486 5.64033 12.2589C5.65313 12.2594 5.66592 12.2596 5.67877 12.2596C5.99845 12.2596 6.30862 12.1028 6.5557 11.8149C6.78811 11.5443 6.94594 11.1767 6.99328 10.8355C6.99268 11.4892 6.5987 12.2264 6.07638 12.5513C5.85456 12.689 5.50875 12.8133 5.11922 12.6212C4.63901 12.3842 4.69624 11.8354 4.69876 11.813C4.70189 11.7881 4.70007 11.7628 4.69342 11.7386C4.68677 11.7144 4.67542 11.6918 4.66001 11.672C4.6446 11.6522 4.62544 11.6356 4.60363 11.6232C4.58181 11.6108 4.55776 11.6028 4.53286 11.5997C4.42862 11.587 4.33252 11.6607 4.31956 11.7656C4.31527 11.7998 4.22345 12.6054 4.95012 12.9638C5.13679 13.056 5.33197 13.1017 5.52868 13.1017C5.78136 13.1017 6.0364 13.0262 6.27814 12.8758C6.91409 12.4805 7.37568 11.6217 7.37568 10.8339C7.37536 10.7007 7.37323 10.5676 7.36931 10.4346ZM6.21702 10.6316C6.18286 10.6089 6.20955 10.5368 6.21532 10.5224C6.25557 10.4217 6.38145 10.3345 6.482 10.3345C6.48716 10.3345 6.49238 10.3347 6.49738 10.3352C6.52181 10.3375 6.58667 10.3436 6.61457 10.4879C6.61754 10.5032 6.62006 10.5189 6.62204 10.5349C6.40907 10.6599 6.26628 10.6639 6.21702 10.6316ZM4.2234 12.3891C4.17972 12.3636 4.12773 12.3564 4.07878 12.3691C4.02982 12.3818 3.98788 12.4134 3.9621 12.4569C3.95331 12.4716 3.94167 12.4877 3.92981 12.5022C3.9276 12.497 3.92553 12.4918 3.9236 12.4865C3.84392 12.2739 3.90065 11.9464 3.92931 11.8381C3.94224 11.7892 3.93523 11.7371 3.90983 11.6933C3.88442 11.6495 3.84269 11.6176 3.79377 11.6045C3.69207 11.5783 3.58745 11.6377 3.5601 11.7396C3.54621 11.7913 3.42874 12.2552 3.5657 12.6206C3.65341 12.8543 3.78806 12.9133 3.88565 12.9212C3.89433 12.9219 3.9029 12.9223 3.91141 12.9223C4.11713 12.9223 4.25404 12.715 4.29215 12.6493C4.31744 12.6056 4.3244 12.5538 4.31152 12.505C4.29863 12.4562 4.26694 12.4146 4.2234 12.3891Z" fill="#F5F5F5"/>
<path d="M7.74979 8.92277C7.79114 8.92277 7.83277 8.90949 7.8677 8.88192L8.83112 8.12558C8.84441 8.11514 8.85292 8.10147 8.86264 8.08862C9.00137 8.00493 9.09528 7.85424 9.09528 7.68077C9.09528 7.41729 8.88093 7.20301 8.61749 7.20301C8.35405 7.20301 8.13971 7.41723 8.13971 7.68077C8.13971 7.82822 8.20824 7.95853 8.31347 8.04623L7.63155 8.58154C7.60028 8.60608 7.57744 8.63977 7.56623 8.67791C7.55501 8.71606 7.55598 8.75674 7.569 8.79431C7.58201 8.83187 7.60643 8.86444 7.63884 8.88747C7.67125 8.9105 7.71003 8.92284 7.74979 8.92277ZM8.6176 7.58516C8.67032 7.58516 8.71316 7.62805 8.71316 7.68071C8.71316 7.73338 8.67032 7.77627 8.6176 7.77627C8.56488 7.77627 8.52204 7.73338 8.52204 7.68071C8.52204 7.62805 8.56488 7.58516 8.6176 7.58516ZM8.39139 8.74161C8.36759 8.73362 8.34244 8.7304 8.31739 8.73215C8.29234 8.7339 8.26789 8.74057 8.24542 8.75179C8.22296 8.76301 8.20293 8.77855 8.18648 8.79753C8.17004 8.8165 8.1575 8.83854 8.14959 8.86237C8.12916 8.92354 8.03674 9.23881 8.22406 9.4259C8.29672 9.49867 8.39227 9.53507 8.50958 9.53491C8.588 9.53491 8.67603 9.51887 8.77357 9.4862C8.79738 9.47828 8.8194 9.46575 8.83837 9.44931C8.85734 9.43288 8.87288 9.41286 8.8841 9.39041C8.89532 9.36797 8.902 9.34353 8.90377 9.31849C8.90554 9.29346 8.90235 9.26832 8.89439 9.24452C8.88648 9.22069 8.87394 9.19865 8.8575 9.17968C8.84105 9.1607 8.82102 9.14516 8.79856 9.13394C8.77609 9.12272 8.75163 9.11605 8.72659 9.1143C8.70154 9.11256 8.67639 9.11577 8.65258 9.12376C8.54582 9.15924 8.50068 9.15347 8.49656 9.15715C8.4853 9.12882 8.49272 9.04348 8.51232 8.98247C8.52819 8.93449 8.52436 8.88218 8.50169 8.83702C8.47902 8.79186 8.43935 8.75755 8.39139 8.74161ZM10.5785 7.95166C10.6026 7.9587 10.6279 7.96092 10.6528 7.95819C10.6778 7.95547 10.702 7.94786 10.724 7.93579C10.746 7.92373 10.7654 7.90745 10.7811 7.88787C10.7968 7.8683 10.8085 7.84583 10.8156 7.82173L10.9271 7.43958C10.9412 7.39093 10.9355 7.33864 10.9112 7.2942C10.8868 7.24976 10.8458 7.2168 10.7972 7.20257C10.7485 7.18839 10.6962 7.19411 10.6518 7.21846C10.6073 7.24281 10.5744 7.28381 10.5602 7.33244L10.4487 7.7146C10.4416 7.73869 10.4394 7.76394 10.4421 7.78889C10.4448 7.81384 10.4524 7.83802 10.4645 7.86003C10.4766 7.88205 10.4928 7.90147 10.5124 7.91719C10.532 7.93292 10.5545 7.94463 10.5785 7.95166ZM9.46465 7.92926C9.4863 7.94196 9.51024 7.95027 9.53511 7.9537C9.55997 7.95714 9.58527 7.95563 9.60955 7.94928C9.63384 7.94292 9.65663 7.93184 9.67662 7.91666C9.69661 7.90148 9.71341 7.88251 9.72606 7.86083C9.73873 7.83917 9.74701 7.81523 9.75043 7.79037C9.75384 7.76551 9.75233 7.74023 9.74597 7.71595C9.73961 7.69168 9.72853 7.6689 9.71336 7.6489C9.6982 7.62891 9.67924 7.61211 9.65758 7.59944C9.61914 7.57704 9.62435 7.51377 9.62578 7.50125C9.63149 7.45106 9.66142 7.38983 9.71349 7.37358C9.73745 7.36613 9.75971 7.35403 9.779 7.33797C9.79828 7.32192 9.81422 7.30222 9.82589 7.28001C9.83757 7.2578 9.84475 7.2335 9.84703 7.20851C9.84931 7.18352 9.84665 7.15833 9.83919 7.13437C9.82407 7.08598 9.79038 7.04557 9.7455 7.02199C9.70063 6.9984 9.64823 6.99357 9.5998 7.00856C9.4093 7.06787 9.27041 7.24425 9.24597 7.45776C9.22334 7.65644 9.30715 7.83711 9.46465 7.92926ZM7.9487 11.0248C7.90114 11.0248 7.8553 11.0426 7.82012 11.0746C7.78495 11.1066 7.76298 11.1505 7.75849 11.1979C7.75401 11.2452 7.76734 11.2926 7.79589 11.3306C7.82443 11.3686 7.86613 11.3947 7.91284 11.4036C7.92289 11.4183 7.94865 11.469 7.94865 11.5981C7.94865 11.6487 7.96878 11.6973 8.00462 11.7332C8.04046 11.769 8.08907 11.7892 8.13976 11.7892C8.19045 11.7892 8.23906 11.769 8.2749 11.7332C8.31074 11.6973 8.33087 11.6487 8.33087 11.5981C8.33093 11.0313 7.9643 11.0248 7.9487 11.0248ZM11.1908 10.2335C11.2148 10.2375 11.2387 10.2394 11.2627 10.2394C11.4129 10.2394 11.5645 10.1636 11.7148 10.0134C11.7325 9.99564 11.7466 9.97458 11.7562 9.9514C11.7658 9.92822 11.7708 9.90338 11.7708 9.87829C11.7708 9.8532 11.7658 9.82836 11.7562 9.80518C11.7466 9.782 11.7325 9.76094 11.7148 9.7432C11.6971 9.72546 11.676 9.71139 11.6528 9.70179C11.6296 9.69219 11.6048 9.68724 11.5797 9.68724C11.5546 9.68724 11.5298 9.69219 11.5066 9.70179C11.4834 9.71139 11.4623 9.72546 11.4446 9.7432C11.3303 9.85759 11.2688 9.86 11.253 9.85643C11.2166 9.85122 11.1835 9.80361 11.1762 9.79059C11.1648 9.76823 11.1491 9.74832 11.1301 9.732C11.111 9.71569 11.0889 9.70329 11.0651 9.69552C11.0169 9.67981 10.9644 9.68389 10.9193 9.70685C10.8741 9.72981 10.8399 9.76977 10.8242 9.81795C10.8085 9.86613 10.8125 9.91857 10.8355 9.96374C10.8473 9.98741 10.9576 10.1956 11.1908 10.2335ZM14.4392 8.89065C14.438 8.88787 14.4369 8.88507 14.4359 8.88225C14.402 8.78302 14.2937 8.72904 14.1947 8.76281C14.1708 8.77071 14.1488 8.78324 14.1298 8.79967C14.1108 8.8161 14.0953 8.83612 14.0841 8.85857C14.0728 8.88101 14.0661 8.90546 14.0644 8.9305C14.0626 8.95554 14.0658 8.98068 14.0737 9.00449C14.0886 9.04924 14.1738 9.27396 14.3847 9.30229C14.3987 9.30416 14.4128 9.30509 14.4267 9.30509C14.5591 9.30509 14.6833 9.21942 14.7963 9.04996C14.8244 9.00778 14.8346 8.95618 14.8246 8.90649C14.8147 8.8568 14.7854 8.8131 14.7432 8.78499C14.7224 8.77107 14.6989 8.76139 14.6743 8.75652C14.6497 8.75165 14.6244 8.75168 14.5998 8.75661C14.5751 8.76154 14.5518 8.77126 14.5309 8.78524C14.5101 8.79921 14.4922 8.81715 14.4783 8.83804C14.4632 8.86061 14.4501 8.8778 14.4392 8.89065Z" fill="#F5F5F5"/>
<path d="M14.0643 12.3623C14.0643 11.5474 14.0285 10.783 13.9788 10.1131C14.2501 10.5837 14.4942 11.0592 14.6498 11.474C14.6676 11.5215 14.7035 11.5599 14.7497 11.5809C14.7958 11.6018 14.8484 11.6036 14.8959 11.5858C14.9433 11.568 14.9818 11.5321 15.0027 11.4859C15.0237 11.4397 15.0255 11.3872 15.0076 11.3397C14.7657 10.6949 14.331 9.92697 13.9025 9.24525C13.798 8.21588 13.6811 7.5625 13.679 7.55086C13.6601 7.44696 13.5608 7.37678 13.4568 7.39704C13.407 7.40609 13.3628 7.43457 13.3339 7.47622C13.305 7.51786 13.2939 7.56927 13.3029 7.61912C13.3045 7.62741 13.3647 7.96398 13.4366 8.53043C13.3062 8.33687 13.1737 8.14481 13.0389 7.95426L13.0482 7.95723C13.072 7.96522 13.0972 7.96843 13.1222 7.96668C13.1473 7.96493 13.1717 7.95826 13.1942 7.94705C13.2167 7.93584 13.2367 7.92031 13.2531 7.90134C13.2696 7.88237 13.2821 7.86035 13.29 7.83653C13.298 7.81273 13.3012 7.78759 13.2994 7.76256C13.2976 7.73753 13.291 7.71309 13.2797 7.69064C13.2685 7.6682 13.253 7.64818 13.234 7.63175C13.2151 7.61531 13.193 7.60277 13.1692 7.59485L12.5959 7.40374C12.5573 7.39069 12.5155 7.39039 12.4767 7.4029C12.4379 7.4154 12.4041 7.44006 12.3804 7.47321C12.3674 7.49133 12.3585 7.51121 12.3525 7.5318C12.2381 7.44724 12.0914 7.37843 11.9536 7.43614C11.8703 7.47068 11.771 7.55761 11.771 7.77612C11.771 7.94388 11.835 8.12527 11.9029 8.31747C12.0154 8.63619 12.0859 8.87057 11.9667 8.98238C11.9008 9.0441 11.835 9.06744 11.7709 9.05124C11.653 9.02137 11.5364 8.86442 11.4586 8.63136C11.4552 8.62126 11.4482 8.6139 11.4434 8.60484C11.4836 8.30885 11.4661 7.95223 11.3851 7.54757C11.3802 7.52292 11.3705 7.49948 11.3566 7.4786C11.3426 7.45771 11.3247 7.43979 11.3038 7.42586C11.2829 7.41193 11.2594 7.40227 11.2348 7.39744C11.2101 7.39261 11.1848 7.3927 11.1602 7.3977C11.1356 7.40262 11.1121 7.41233 11.0913 7.4263C11.0704 7.44026 11.0525 7.4582 11.0386 7.47908C11.0247 7.49997 11.015 7.52339 11.0102 7.54801C11.0053 7.57263 11.0054 7.59797 11.0103 7.62258C11.1351 8.24657 11.0976 8.75569 10.9102 8.9843C10.8377 9.07277 10.7469 9.11379 10.6244 9.11379C10.5857 9.11379 10.5593 9.10149 10.5329 9.07123C10.3822 8.89748 10.3828 8.33691 10.4315 7.99408C10.4353 7.96698 10.4333 7.93938 10.4255 7.91313C10.4178 7.88688 10.4045 7.8626 10.3866 7.84194C10.3686 7.82127 10.3464 7.8047 10.3215 7.79334C10.2966 7.78199 10.2696 7.77612 10.2422 7.77612C9.91342 7.77612 9.7887 8.15004 9.6787 8.48002C9.63049 8.62505 9.54053 8.89468 9.47781 8.92268C9.36216 8.92268 9.28736 8.58304 9.2867 8.34921C9.28659 8.2986 9.2664 8.2501 9.23057 8.21434C9.19475 8.17859 9.1462 8.15851 9.09559 8.15849H9.09526C9.07019 8.1585 9.04537 8.16344 9.02221 8.17304C8.99905 8.18264 8.97801 8.19671 8.96029 8.21444C8.94257 8.23217 8.92852 8.25322 8.91893 8.27638C8.90934 8.29954 8.90441 8.32436 8.90442 8.34943C8.90442 8.79018 9.05456 9.30489 9.47776 9.30489C9.79288 9.30489 9.92051 8.96157 10.0274 8.6424C10.0459 8.89616 10.1033 9.15909 10.2441 9.32148C10.3432 9.4357 10.4746 9.49594 10.6244 9.49594C10.8603 9.49594 11.0613 9.4028 11.2057 9.22664C11.2319 9.19479 11.2544 9.15816 11.2766 9.1212C11.3876 9.27897 11.5237 9.38298 11.6771 9.4217C11.7221 9.43306 11.7673 9.43883 11.8121 9.43883C11.9596 9.43883 12.1038 9.37798 12.2283 9.26096C12.2541 9.23669 12.2724 9.21005 12.2921 9.18386C12.3388 9.1972 12.3862 9.20511 12.4333 9.20511C12.5881 9.20511 12.7371 9.14278 12.8296 9.08342C12.872 9.05618 12.902 9.01323 12.9128 8.96399C12.9237 8.91474 12.9146 8.8632 12.8875 8.82065C12.8603 8.77806 12.8175 8.74791 12.7682 8.73677C12.7189 8.72562 12.6672 8.73437 12.6244 8.76113C12.6227 8.76189 12.4951 8.83526 12.4081 8.81807C12.4083 8.60857 12.3325 8.38611 12.2633 8.19012C12.2239 8.07848 12.1836 7.96415 12.1644 7.87068C12.1802 7.88397 12.1956 7.89776 12.2094 7.91116C12.2271 7.9289 12.2482 7.94298 12.2713 7.95258C12.2945 7.96219 12.3194 7.96713 12.3444 7.96713C12.3695 7.96713 12.3944 7.96219 12.4175 7.95258C12.4407 7.94298 12.4618 7.9289 12.4795 7.91116C12.4919 7.8988 12.499 7.88381 12.5072 7.86937C12.7053 8.14224 13.1128 8.71566 13.5318 9.37661C13.6119 10.1891 13.682 11.2255 13.682 12.3622C13.682 12.3873 13.687 12.4122 13.6966 12.4353C13.7062 12.4585 13.7203 12.4796 13.738 12.4973C13.7558 12.5151 13.7768 12.5292 13.8 12.5388C13.8232 12.5484 13.8481 12.5533 13.8732 12.5533C13.8983 12.5533 13.9231 12.5484 13.9463 12.5388C13.9695 12.5293 13.9906 12.5152 14.0083 12.4975C14.0261 12.4797 14.0402 12.4586 14.0498 12.4355C14.0594 12.4123 14.0643 12.3874 14.0643 12.3623ZM14.2554 8.15833C14.2554 8.20901 14.2756 8.25762 14.3114 8.29346C14.3473 8.3293 14.3959 8.34943 14.4466 8.34943C14.4972 8.34943 14.5459 8.3293 14.5817 8.29346C14.6175 8.25762 14.6377 8.20901 14.6377 8.15833C14.6377 7.93345 14.4617 7.57014 14.4264 7.49957C14.4152 7.47712 14.3996 7.45711 14.3807 7.44067C14.3617 7.42423 14.3397 7.41168 14.3159 7.40374C14.2921 7.39581 14.2669 7.39264 14.2419 7.39442C14.2169 7.3962 14.1924 7.4029 14.17 7.41412C14.1475 7.42535 14.1275 7.44088 14.1111 7.45984C14.0946 7.4788 14.0821 7.50082 14.0742 7.52462C14.0662 7.54843 14.0631 7.57357 14.0648 7.5986C14.0666 7.62364 14.0733 7.64807 14.0845 7.67052C14.1535 7.80841 14.2554 8.05866 14.2554 8.15833ZM13.3859 12.3832C13.2922 12.3355 13.1771 12.3734 13.1294 12.4674C13.1079 12.5084 13.0812 12.5466 13.0502 12.5809C13.0417 12.5049 13.0619 12.3532 13.1005 12.2275C13.1129 12.1867 13.1114 12.1429 13.0961 12.103C13.0808 12.0632 13.0527 12.0296 13.0161 12.0076C12.9796 11.9856 12.9368 11.9765 12.8944 11.9816C12.8521 11.9868 12.8127 12.006 12.7826 12.0362L12.4004 12.4183C12.3827 12.4361 12.3686 12.4571 12.359 12.4803C12.3494 12.5035 12.3445 12.5283 12.3445 12.5534C12.3445 12.5785 12.3494 12.6034 12.359 12.6265C12.3686 12.6497 12.3827 12.6708 12.4004 12.6885C12.4182 12.7063 12.4392 12.7203 12.4624 12.7299C12.4856 12.7395 12.5104 12.7445 12.5355 12.7445C12.5606 12.7445 12.5855 12.7395 12.6086 12.7299C12.6318 12.7203 12.6529 12.7063 12.6706 12.6885L12.6803 12.6788C12.6969 12.7555 12.7285 12.8255 12.7827 12.8796C12.8543 12.9513 12.9409 12.9892 13.0309 12.9892C13.0484 12.9892 13.0659 12.9876 13.0835 12.9849C13.3 12.9498 13.4347 12.7111 13.4709 12.6389C13.4935 12.5937 13.4972 12.5414 13.4813 12.4935C13.4653 12.4456 13.431 12.4059 13.3859 12.3832Z" fill="#F5F5F5"/>
<path d="M13.3116 10.8458H11.9648C11.9767 10.7982 11.989 10.7528 12.0016 10.7098C12.5387 10.5981 12.8579 10.4247 12.9517 10.1934C12.9842 10.1132 13.0181 9.95105 12.8799 9.76462C12.7552 9.59663 12.5794 9.52129 12.3967 9.55858C12.1252 9.6136 11.8833 9.90619 11.7096 10.3746C11.1701 10.467 10.8248 10.6606 10.6062 10.8518C10.5287 10.0687 10.2246 9.6035 10.2099 9.58137C10.196 9.56047 10.1781 9.54252 10.1572 9.52854C10.1364 9.51457 10.113 9.50484 10.0884 9.49991C10.0638 9.49498 10.0384 9.49496 10.0138 9.49983C9.98918 9.5047 9.96576 9.51438 9.94489 9.52832C9.90273 9.55643 9.87346 9.60014 9.86352 9.64982C9.85357 9.6995 9.86375 9.7511 9.89184 9.79328C9.89529 9.7985 10.2419 10.3286 10.2419 11.216C10.2419 12.0882 9.5464 12.7447 9.09536 12.7447C8.8808 12.7447 8.78684 12.4897 8.74559 12.274C9.18724 11.9645 9.57694 11.6063 9.66299 11.2622C9.77947 10.7966 9.6329 10.4535 9.53591 10.2264C9.5311 10.2154 9.52638 10.2043 9.52174 10.1932C9.52586 10.1969 9.52976 10.2008 9.53366 10.2045C9.56949 10.2404 9.61808 10.2605 9.66875 10.2605C9.71942 10.2605 9.76801 10.2403 9.80383 10.2045C9.83965 10.1687 9.85977 10.1201 9.85977 10.0694C9.85976 10.0188 9.83963 9.97018 9.8038 9.93436C9.6921 9.82255 9.47517 9.64693 9.27796 9.72942C9.19465 9.76396 9.09531 9.85089 9.09531 10.0694C9.09531 10.1681 9.13655 10.2646 9.18433 10.3765C9.27039 10.5779 9.37742 10.8285 9.29213 11.1696C9.24166 11.3715 8.99377 11.6163 8.66662 11.8595C8.63153 11.8175 8.58089 11.7894 8.52202 11.7894H8.52169C8.47107 11.7894 8.42254 11.8096 8.38676 11.8454C8.35098 11.8812 8.33087 11.9297 8.33085 11.9803C8.33085 12.0147 8.33239 12.0514 8.33459 12.0892C7.92561 12.354 7.46282 12.5991 7.10509 12.7618C7.05966 12.7832 7.02448 12.8217 7.00718 12.8688C6.98988 12.916 6.99183 12.968 7.01263 13.0138C7.03342 13.0595 7.07138 13.0952 7.11829 13.1131C7.16521 13.1311 7.2173 13.1299 7.26331 13.1097C7.37073 13.0609 7.88075 12.8233 8.40466 12.4986C8.50115 12.8262 8.70561 13.1269 9.09525 13.1269C9.55371 13.1269 10.0738 12.752 10.374 12.1924C10.4103 12.2573 10.453 12.3184 10.5015 12.3748C10.9825 12.9295 11.922 12.9358 11.9618 12.9358C12.011 12.9354 12.0583 12.916 12.0936 12.8817C12.1289 12.8474 12.1496 12.8007 12.1513 12.7515C12.1531 12.7023 12.1358 12.6543 12.103 12.6175C12.0703 12.5808 12.0246 12.5581 11.9755 12.5542C11.9739 12.554 11.8216 12.5372 11.737 12.4382C11.6858 12.3785 11.6654 12.2965 11.6744 12.1873C11.694 11.9518 12.4536 11.7758 13.1231 11.7654C13.1621 11.7648 13.1999 11.7523 13.2316 11.7295C13.2633 11.7068 13.2872 11.675 13.3003 11.6383L13.4914 11.1009C13.5017 11.0721 13.5048 11.0412 13.5007 11.0109C13.4965 10.9806 13.4851 10.9518 13.4674 10.9268C13.4499 10.9018 13.4266 10.8813 13.3995 10.8672C13.3723 10.8531 13.3422 10.8457 13.3116 10.8458ZM12.4728 9.93326C12.4764 9.93255 12.4813 9.93139 12.4874 9.93139C12.5056 9.93139 12.5345 9.94034 12.5729 9.99224C12.5802 10.002 12.6035 10.0351 12.5976 10.0497C12.5757 10.1038 12.4437 10.1932 12.1688 10.2742C12.2897 10.0383 12.4079 9.94633 12.4728 9.93326ZM11.3187 12.4452C11.1246 12.3821 10.9267 12.2821 10.7897 12.1237C10.6392 11.9496 10.5836 11.7294 10.6201 11.4508C10.6256 11.4361 10.6381 11.4073 10.66 11.3698C10.9291 11.3451 11.648 11.4512 11.6978 11.657C11.476 11.7702 11.3127 11.9294 11.2938 12.1556C11.2843 12.2691 11.2959 12.3652 11.3187 12.4452ZM15.3921 8.09812L15.201 7.52481C15.1701 7.43266 15.0745 7.37758 14.9797 7.39845C14.9337 7.40825 14.893 7.43467 14.8652 7.47264C14.8375 7.51062 14.8248 7.55749 14.8295 7.60427C14.9613 8.92288 15.2108 11.4944 15.2108 11.7893C15.2108 12.0541 14.7398 12.5754 13.9787 12.956C13.9402 12.9752 13.9092 13.0069 13.891 13.0459C13.8727 13.085 13.8682 13.129 13.8781 13.1709C13.888 13.2129 13.9118 13.2502 13.9456 13.2769C13.9794 13.3036 14.0213 13.3181 14.0644 13.318C14.093 13.318 14.1223 13.3114 14.1497 13.2978C14.8449 12.9502 15.593 12.3299 15.593 11.7893C15.593 11.5069 15.3977 9.47549 15.2859 8.33436C15.33 8.31548 15.3654 8.28071 15.385 8.23695C15.4047 8.19319 15.4072 8.14364 15.3921 8.09812ZM16.9866 9.82244C17.0162 9.85206 17.0547 9.87113 17.0962 9.87673C17.1377 9.88232 17.1798 9.87413 17.2162 9.85341C17.2526 9.83268 17.2812 9.80059 17.2975 9.76206C17.3139 9.72354 17.3172 9.6807 17.3069 9.64012C17.2727 9.5058 17.2613 9.33782 17.2794 9.26918C17.3751 9.27214 17.464 9.20405 17.4781 9.10531C17.4816 9.08047 17.4802 9.05516 17.474 9.03085C17.4678 9.00654 17.4569 8.98369 17.4418 8.96361C17.4267 8.94353 17.4079 8.92661 17.3863 8.91381C17.3647 8.90102 17.3408 8.89261 17.3159 8.88906C17.1896 8.87192 17.0786 8.90899 17.0012 8.99521C16.951 9.05122 16.9211 9.12305 16.9049 9.20031L16.6836 8.97901C16.6477 8.94318 16.5991 8.92305 16.5485 8.92305C16.4978 8.92305 16.4492 8.94318 16.4134 8.97901C16.3775 9.01483 16.3574 9.06343 16.3574 9.1141C16.3574 9.16476 16.3775 9.21336 16.4134 9.24919L16.9866 9.82244ZM17.4165 10.0217L16.6999 10.5353C16.6795 10.5499 16.6622 10.5684 16.6489 10.5897C16.6356 10.611 16.6267 10.6347 16.6226 10.6595C16.6185 10.6843 16.6194 10.7096 16.6251 10.734C16.6308 10.7585 16.6412 10.7816 16.6558 10.802C16.6735 10.8267 16.6969 10.8468 16.724 10.8606C16.751 10.8745 16.781 10.8817 16.8114 10.8816C16.85 10.8816 16.8889 10.87 16.9226 10.8458L17.6392 10.3323C17.6804 10.3027 17.7081 10.2581 17.7164 10.2081C17.7247 10.158 17.7127 10.1068 17.6832 10.0656C17.6216 9.97972 17.502 9.95973 17.4165 10.0217ZM17.353 10.7403C17.3243 10.7773 17.3101 10.8235 17.3132 10.8702C17.3163 10.917 17.3364 10.9609 17.3698 10.9938C17.3779 11.0076 17.4152 11.0807 17.4085 11.2688C17.4076 11.2939 17.4116 11.3189 17.4204 11.3424C17.4292 11.366 17.4425 11.3875 17.4596 11.4059C17.4767 11.4243 17.4973 11.4391 17.5201 11.4495C17.5429 11.4599 17.5676 11.4657 17.5927 11.4666C17.595 11.4668 17.5973 11.4668 17.5996 11.4668C17.6491 11.4668 17.6966 11.4476 17.7322 11.4132C17.7678 11.3789 17.7887 11.3321 17.7905 11.2826C17.8044 10.8926 17.6768 10.7501 17.6213 10.7069C17.6015 10.6915 17.5788 10.6801 17.5546 10.6734C17.5304 10.6668 17.5051 10.6649 17.4802 10.668C17.4553 10.6711 17.4313 10.6791 17.4094 10.6915C17.3876 10.7039 17.3684 10.7205 17.353 10.7403Z" fill="#F5F5F5"/>
<path d="M19.0208 12.1472C19.0459 12.1472 19.0708 12.1423 19.094 12.1327C19.1172 12.1231 19.1383 12.109 19.156 12.0912C19.1737 12.0735 19.1878 12.0524 19.1974 12.0292C19.207 12.006 19.212 11.9812 19.212 11.9561C19.212 11.6741 19.1975 11.3594 19.1738 11.0319C19.3633 11.3424 19.5207 11.6287 19.6216 11.8641C19.6315 11.8872 19.6458 11.9081 19.6638 11.9257C19.6817 11.9432 19.7029 11.9571 19.7263 11.9664C19.7496 11.9757 19.7745 11.9804 19.7996 11.98C19.8247 11.9797 19.8495 11.9744 19.8726 11.9645C19.9191 11.9445 19.9558 11.9069 19.9746 11.8599C19.9935 11.8128 19.9928 11.7602 19.9728 11.7137C19.7979 11.3054 19.4709 10.7646 19.0985 10.2063C19.0235 9.50491 18.9256 8.81765 18.8495 8.32468C18.8915 8.32871 18.9336 8.31823 18.9688 8.29497C19.0292 8.25631 19.0575 8.18915 19.0534 8.12232C19.0583 8.1411 19.0636 8.15994 19.0746 8.17724C19.0758 8.1791 19.1987 8.3819 19.1442 8.64511C19.1345 8.69454 19.1446 8.74581 19.1725 8.78777C19.2004 8.82974 19.2437 8.85899 19.2931 8.86918C19.3424 8.87936 19.3938 8.86965 19.436 8.84216C19.4782 8.81467 19.5079 8.77162 19.5185 8.72237C19.6048 8.30491 19.4055 7.98547 19.397 7.97202C19.3697 7.92935 19.3266 7.89924 19.2772 7.88826C19.2277 7.87728 19.1759 7.88633 19.1331 7.91342C19.0725 7.95203 19.0439 8.01925 19.0478 8.08624C19.0428 8.06735 19.0373 8.04835 19.0262 8.03105L18.7037 7.52946C18.6798 7.49233 18.6438 7.4646 18.6019 7.45099C18.5599 7.43738 18.5145 7.43872 18.4733 7.45479C18.4322 7.47086 18.398 7.50066 18.3763 7.53914C18.3547 7.57762 18.3471 7.6224 18.3547 7.66587C18.3574 7.68092 18.5034 8.51946 18.6329 9.53017C18.4897 9.32811 18.3446 9.12737 18.1978 8.92797C18.1747 8.63885 18.1516 8.37158 18.1315 8.15055C18.1583 8.14261 18.183 8.1289 18.2039 8.11039C18.2248 8.09188 18.2414 8.06901 18.2525 8.0434C18.2636 8.01778 18.269 7.99004 18.2682 7.96213C18.2675 7.93422 18.2606 7.90682 18.2481 7.88185L18.057 7.4997C18.037 7.45976 18.0036 7.42807 17.9627 7.41014C17.9218 7.3922 17.8759 7.38915 17.833 7.40151C17.7901 7.41395 17.7528 7.44103 17.7278 7.47805C17.7028 7.51506 17.6915 7.55968 17.6959 7.60414C17.7187 7.83221 17.7424 8.08465 17.7657 8.34983C17.6569 8.2064 17.5475 8.06351 17.4373 7.92117C17.4612 7.90064 17.4797 7.87452 17.491 7.84513C17.5024 7.81574 17.5063 7.78399 17.5024 7.75272C17.4986 7.72145 17.487 7.69162 17.4688 7.66589C17.4506 7.64016 17.4264 7.61933 17.3982 7.60524L17.016 7.41414C16.977 7.39472 16.9326 7.38918 16.89 7.39841C16.8475 7.40765 16.8093 7.43111 16.7819 7.46494C16.7545 7.49883 16.7395 7.54106 16.7394 7.58464C16.7393 7.62821 16.7541 7.67051 16.7814 7.70453C16.7917 7.71738 17.2622 8.30716 17.8251 9.06839C17.9227 10.3309 17.9877 11.6443 17.8959 11.9197C17.8791 11.9701 17.8498 12.0294 17.8223 12.0315C17.7068 12.0475 17.4311 11.7893 17.2926 11.5125C17.2128 11.3532 17.0981 11.3366 17.0367 11.3393C16.8313 11.352 16.7512 11.578 16.6055 11.9882C16.5011 12.2821 16.3714 12.6475 16.2258 12.797C16.1468 12.7006 16.0448 12.3771 15.9881 12.0447C16.0147 12.1181 16.0836 12.1713 16.1662 12.1713C16.1913 12.1713 16.2162 12.1664 16.2394 12.1568C16.2626 12.1472 16.2836 12.1331 16.3014 12.1154C16.3191 12.0976 16.3332 12.0766 16.3428 12.0534C16.3524 12.0302 16.3573 12.0053 16.3573 11.9802C16.3573 11.6952 16.158 9.52495 16.0467 8.33555C16.0918 8.31736 16.1283 8.28266 16.1487 8.23852C16.169 8.19437 16.1718 8.14412 16.1564 8.09799L15.9653 7.52468C15.9504 7.48023 15.9197 7.44282 15.879 7.41955C15.8383 7.39629 15.7904 7.38879 15.7445 7.39849C15.6987 7.4082 15.658 7.43442 15.6302 7.47217C15.6024 7.50993 15.5894 7.55658 15.5938 7.60327C15.7236 8.96647 15.9671 11.5995 15.9747 11.9629C15.9742 11.9597 15.9736 11.9565 15.9731 11.9532C15.9583 11.8487 15.8608 11.777 15.7569 11.791C15.7068 11.7982 15.6615 11.8251 15.6311 11.8656C15.6007 11.9061 15.5877 11.9571 15.5948 12.0073C15.6506 12.3979 15.7932 13.0694 16.1216 13.1788C16.1475 13.1876 16.1825 13.1954 16.2234 13.1954C16.2988 13.1954 16.3945 13.1687 16.4924 13.0707C16.7005 12.8627 16.8414 12.4659 16.9657 12.116C16.9938 12.0369 17.027 11.9432 17.0583 11.863C17.2336 12.119 17.5396 12.4377 17.8495 12.4128C17.9584 12.405 18.1566 12.3464 18.2585 12.0407C18.3601 11.7359 18.32 10.6728 18.2515 9.65494C18.4132 9.88113 18.5718 10.1094 18.7275 10.3398C18.7871 10.9121 18.8298 11.4854 18.8298 11.9563C18.8298 12.0069 18.85 12.0555 18.8858 12.0913C18.9216 12.1271 18.9702 12.1472 19.0208 12.1472Z" fill="#F5F5F5"/>
<path d="M20.471 11.1419C20.3357 10.1334 20.1471 8.9652 20.0276 8.24823C20.0551 8.255 20.0838 8.25546 20.1116 8.24957C20.1393 8.24368 20.1653 8.23161 20.1877 8.21424C20.2077 8.19903 20.2244 8.18004 20.2371 8.15835C20.2497 8.13665 20.2579 8.11269 20.2612 8.08782C20.2646 8.06295 20.263 8.03766 20.2565 8.01341C20.2501 7.98916 20.2389 7.96641 20.2237 7.94648L19.8773 7.49261C19.8513 7.45868 19.8147 7.43445 19.7733 7.42378C19.7319 7.41311 19.6881 7.41662 19.6489 7.43374C19.6098 7.45087 19.5775 7.48063 19.5572 7.51826C19.5369 7.5559 19.5299 7.59924 19.5371 7.64137C19.5406 7.66092 19.8813 9.62258 20.0921 11.1926C20.1726 11.7925 20.0551 12.3287 19.7775 12.6265C19.5991 12.8179 19.3626 12.9044 19.0765 12.8878C18.9714 12.8822 18.8803 12.9612 18.8738 13.0665C18.8672 13.1718 18.9471 13.2625 19.0525 13.2691C19.0843 13.2712 19.1162 13.2721 19.1481 13.2721C19.5084 13.2721 19.8212 13.14 20.057 12.8869C20.4172 12.5008 20.5681 11.8646 20.471 11.1419ZM18.3687 12.4015C18.2985 12.4778 18.3039 12.598 18.3782 12.67C18.3886 12.6801 18.401 12.6999 18.401 12.7096C18.4011 12.715 18.3934 12.7311 18.3721 12.7523C18.3454 12.779 18.3271 12.8131 18.3197 12.8502C18.3123 12.8873 18.3161 12.9257 18.3306 12.9606C18.3451 12.9956 18.3696 13.0254 18.401 13.0464C18.4325 13.0674 18.4695 13.0786 18.5073 13.0785C18.5562 13.0785 18.6051 13.0599 18.6424 13.0225C18.7636 12.9014 18.7859 12.7784 18.7831 12.6965C18.7773 12.5202 18.6572 12.4063 18.6332 12.3852C18.5551 12.3174 18.4389 12.3255 18.3687 12.4015Z" fill="#F5F5F5"/>
<defs>
<clipPath id="clip0_845_14059">
<rect width="24" height="24" fill="white"/>
</clipPath>
</defs>
</svg>
