<svg width="24" height="24" viewBox="0 0 24 24" fill="none" xmlns="http://www.w3.org/2000/svg">
<g clip-path="url(#clip0_845_14088)">
<path d="M20.4861 20.4851C24.9866 15.9846 25.1643 8.79939 21.0211 4.08569L12.0005 11.9994L4.08667 21.0201C8.80036 25.1633 15.9855 24.9856 20.4861 20.4851Z" fill="#496E2D"/>
<path d="M3.51487 3.5144C8.01537 -0.986107 15.2006 -1.16381 19.9143 2.97942L12.0004 12.0001L2.97993 19.9138C-1.16334 15.2001 -0.985595 8.01491 3.51487 3.5144Z" fill="#0052B4"/>
<path d="M19.9139 2.98022L2.97949 19.9146C3.15068 20.1094 3.32843 20.3005 3.51448 20.4864C3.70048 20.6724 3.89158 20.8502 4.0864 21.0214L21.0207 4.08703C20.8495 3.89222 20.6717 3.70116 20.4856 3.51511C20.2997 3.32921 20.1086 3.15141 19.9139 2.98022Z" fill="#FFDA44"/>
<path d="M5.05667 4.17432L5.31575 4.97152H6.15392L5.47583 5.46413L5.73481 6.26133L5.05667 5.76863L4.37853 6.26133L4.63761 5.46413L3.95947 4.97152H4.79769L5.05667 4.17432Z" fill="#F0F0F0"/>
<path d="M9.33744 4.17358L9.59652 4.97079H10.4346L9.75655 5.46339L10.0156 6.2606L9.33744 5.76789L8.6593 6.2606L8.91837 5.46339L8.24023 4.97079H9.07841L9.33744 4.17358Z" fill="#F0F0F0"/>
<path d="M5.05631 8.34766L5.31539 9.14486H6.15356L5.47546 9.63751L5.73445 10.4347L5.05631 9.94201L4.37817 10.4347L4.63725 9.63751L3.95911 9.14486H4.79732L5.05631 8.34766Z" fill="#F0F0F0"/>
<path d="M9.33744 8.34766L9.59652 9.14486H10.4346L9.75655 9.63751L10.0156 10.4347L9.33744 9.94201L8.6593 10.4347L8.91837 9.63751L8.24023 9.14486H9.07841L9.33744 8.34766Z" fill="#F0F0F0"/>
<path d="M7.19698 6.26172L7.45606 7.05892H8.29418L7.61609 7.55157L7.87512 8.34877L7.19698 7.85607L6.51884 8.34877L6.77787 7.55157L6.09973 7.05892H6.93795L7.19698 6.26172Z" fill="#F0F0F0"/>
</g>
<defs>
<clipPath id="clip0_845_14088">
<rect width="24" height="24" fill="white"/>
</clipPath>
</defs>
</svg>
