<svg width="24" height="24" viewBox="0 0 24 24" fill="none" xmlns="http://www.w3.org/2000/svg">
<g clip-path="url(#clip0_845_14372)">
<path d="M12 24C18.6274 24 24 18.6274 24 12C24 5.37258 18.6274 0 12 0C5.37258 0 0 5.37258 0 12C0 18.6274 5.37258 24 12 24Z" fill="#F0F0F0"/>
<path d="M7.30437 7.82623H23.2536C21.5581 3.25662 17.1596 0.00012207 12 0.00012207C8.68625 0.00012207 5.68657 1.34351 3.51514 3.51523L7.30437 7.82623Z" fill="#D80027"/>
<path d="M7.30437 16.1744H23.2536C21.5581 20.7441 17.1596 24.0006 12 24.0006C8.68625 24.0006 5.68657 22.6572 3.51514 20.4854L7.30437 16.1744Z" fill="black"/>
<path d="M3.51471 3.51379C-1.17157 8.20008 -1.17157 15.7981 3.51471 20.4844C5.45126 18.5479 7.31375 16.6854 12 11.9991L3.51471 3.51379Z" fill="#6DA544"/>
</g>
<defs>
<clipPath id="clip0_845_14372">
<rect width="24" height="24" fill="white"/>
</clipPath>
</defs>
</svg>
