<svg width="24" height="24" viewBox="0 0 24 24" fill="none" xmlns="http://www.w3.org/2000/svg">
<g clip-path="url(#clip0_845_14078)">
<path d="M12 24C18.6274 24 24 18.6274 24 12C24 5.37258 18.6274 0 12 0C5.37258 0 0 5.37258 0 12C0 18.6274 5.37258 24 12 24Z" fill="#F0F0F0"/>
<path d="M0 12C0 5.37262 5.37262 0 12 0C18.6274 0 24 5.37262 24 12" fill="#D80027"/>
<path d="M7.3039 6.26101C7.3039 4.51267 8.53263 3.05214 10.1734 2.69378C9.92125 2.63875 9.65965 2.60889 9.39082 2.60889C7.37374 2.60889 5.73865 4.24398 5.73865 6.26106C5.73865 8.27814 7.37374 9.91323 9.39082 9.91323C9.65955 9.91323 9.92121 9.88337 10.1734 9.82829C8.53263 9.46993 7.3039 8.0094 7.3039 6.26101Z" fill="#F0F0F0"/>
<path d="M11.9996 2.87012L12.2587 3.66723H13.0968L12.4187 4.15993L12.6777 4.95704L11.9996 4.46443L11.3215 4.95704L11.5806 4.15993L10.9025 3.66723H11.7406L11.9996 2.87012Z" fill="#F0F0F0"/>
<path d="M9.96639 4.43481L10.2254 5.23197H11.0635L10.3855 5.72463L10.6445 6.52174L9.96639 6.02913L9.2882 6.52174L9.54728 5.72463L8.86914 5.23197H9.70731L9.96639 4.43481Z" fill="#F0F0F0"/>
<path d="M14.033 4.43481L14.292 5.23197H15.1302L14.452 5.72463L14.7111 6.52174L14.033 6.02913L13.3549 6.52174L13.6139 5.72463L12.9358 5.23197H13.7739L14.033 4.43481Z" fill="#F0F0F0"/>
<path d="M13.2505 6.78345L13.5095 7.5806H14.3476L13.6695 8.07326L13.9286 8.87037L13.2505 8.37776L12.5724 8.87037L12.8314 8.07326L12.1533 7.5806H12.9914L13.2505 6.78345Z" fill="#F0F0F0"/>
<path d="M10.7488 6.78345L11.0078 7.5806H11.846L11.1679 8.07326L11.427 8.87037L10.7488 8.37776L10.0707 8.87037L10.3297 8.07326L9.65161 7.5806H10.4898L10.7488 6.78345Z" fill="#F0F0F0"/>
</g>
<defs>
<clipPath id="clip0_845_14078">
<rect width="24" height="24" fill="white"/>
</clipPath>
</defs>
</svg>
