<svg width="24" height="24" viewBox="0 0 24 24" fill="none" xmlns="http://www.w3.org/2000/svg">
<rect x="0.25" y="0.25" width="23.5" height="23.5" rx="11.75" fill="#FFEEF2"/>
<rect x="0.25" y="0.25" width="23.5" height="23.5" rx="11.75" stroke="#F2F4F7" stroke-width="0.5"/>
<g clip-path="url(#clip0_845_14179)">
<path d="M17.2318 10.2018C16.7066 10.0855 16.5038 9.74644 16.3709 9.4074C16.331 9.43067 16.2911 9.45061 16.2479 9.47055C16.1714 9.50712 16.1083 9.56695 16.0684 9.64007L15.2142 11.1558C15.151 11.2688 14.9848 11.2688 14.9217 11.1558L14.0641 9.64007C14.0209 9.56695 13.9577 9.50712 13.8846 9.47055C13.1334 9.10493 12.575 8.39695 12.4155 7.55269C12.2958 7.62249 12.2327 7.68896 12.2327 7.68896C11.2621 8.64624 11.4682 7.45629 10.8732 7.65573C10.2782 7.85516 10.1486 7.13055 10.0788 6.7882C10.009 6.44584 9.55363 6.26303 8.77584 6.38933C7.99806 6.51564 8.03462 5.21601 7.87175 4.94345C7.70888 4.6709 7.24022 5.06976 6.89454 4.31192C6.69843 3.87982 6.16329 3.63717 5.73783 3.50754C5.51513 3.44107 5.30573 3.64715 5.37885 3.86984C5.60155 4.56453 5.65806 5.452 6.6253 6.44584C7.83519 7.69229 9.28107 7.32999 9.44394 7.83854C9.60681 8.34709 10.3115 8.21746 10.7801 8.79581C11.2488 9.37416 10.5076 9.78965 10.3646 10.8034C10.2217 11.8172 11.1424 12.1961 11.9003 12.6847C12.6581 13.1733 12.7678 13.8248 12.6049 14.33C12.4421 14.8353 12.5318 15.6662 12.6415 16.4075C12.7512 17.1487 12.5684 18.1259 12.4254 18.5946C12.2825 19.0632 12.4986 20.1867 13.3462 20.4526C14.1971 20.7218 14.5029 20.0571 13.9976 19.8942C13.4924 19.7313 13.529 18.9369 13.6553 17.9431C13.7816 16.9492 14.7588 17.5442 15.1743 16.2246C15.5898 14.9051 16.6733 15.5565 17.0356 14.0542C17.3979 12.5518 18.3918 12.246 18.5912 11.4516C18.784 10.6539 18.4416 10.471 17.2318 10.2018Z" fill="#EB224D"/>
<path d="M13.9944 19.8876C13.5922 19.758 13.5323 19.2295 13.5889 18.5215C13.4991 18.2024 13.4958 17.8866 13.5556 17.6839C13.7019 17.2152 13.8814 16.238 13.7717 15.4968C13.662 14.7556 13.5722 13.9246 13.7351 13.4194C13.898 12.9141 13.7883 12.2627 13.0304 11.774C12.2726 11.2854 11.3519 10.9065 11.4948 9.89274C11.6344 8.90555 12.3424 8.48675 11.9435 7.92834C11.2921 8.39035 11.3984 7.47297 10.8666 7.64913C10.2716 7.84857 10.142 7.12396 10.0722 6.7816C10.0024 6.43925 9.54704 6.25643 8.76925 6.38274C7.99147 6.50905 8.02803 5.20942 7.86516 4.93686C7.70229 4.6643 7.23363 5.06317 6.88794 4.30533C6.69184 3.87322 6.15669 3.63058 5.73124 3.50095C5.50854 3.43447 5.29914 3.64055 5.37226 3.86325C5.59496 4.55794 5.65147 5.44541 6.61871 6.43925C7.8286 7.6857 9.27448 7.32339 9.43735 7.83195C9.60022 8.3405 10.3049 8.21087 10.7735 8.78922C11.2422 9.36757 10.501 9.78305 10.3581 10.7968C10.2118 11.8073 11.1358 12.1895 11.8937 12.6781C12.6515 13.1667 12.7612 13.8182 12.5983 14.3235C12.4355 14.8287 12.5252 15.6596 12.6349 16.4009C12.7446 17.1421 12.5618 18.1193 12.4189 18.588C12.2726 19.0566 12.492 20.1801 13.3396 20.446C14.1938 20.7152 14.5029 20.0505 13.9944 19.8876ZM12.4654 6.30629C12.5884 5.87087 12.8177 5.472 13.1335 5.14959C13.0504 5.14959 12.9706 5.13297 12.9041 5.08643C12.5684 4.85044 11.4782 5.34237 10.5409 4.62442C9.60354 3.90646 9.61684 4.74408 9.91931 5.20609C9.91931 5.20609 9.99908 5.41217 10.5974 5.45206C11.199 5.49195 11.189 6.04371 11.5414 6.11018C11.784 6.15339 12.0499 6.32291 12.4654 6.30629Z" fill="#C10F35"/>
<path d="M16.3709 9.40741C16.3709 9.40741 16.2845 8.43684 15.5233 8.38366C14.7622 8.33047 13.8215 8.45678 13.8747 7.89505C13.9279 7.33331 15.1776 6.59209 14.9084 6.17329C14.6359 5.7578 13.1368 5.14954 13.1368 5.14954L12.4587 5.62817C12.3258 5.72124 12.2792 5.90073 12.3457 6.04698L12.4654 6.30624C12.4654 6.30624 13.529 6.56883 13.8747 6.84138C14.2204 7.11394 13.8215 7.5826 13.4226 7.5128C13.0238 7.443 12.5119 7.21033 12.4155 7.55269C12.3191 7.89505 12.4454 9.198 12.4454 9.198L14.3832 11.425L15.8491 11.5712L16.1948 10.3946L16.3709 9.40741Z" fill="#EB224D"/>
</g>
<defs>
<clipPath id="clip0_845_14179">
<rect width="17.0182" height="17.0182" fill="white" transform="translate(3.49097 3.49097)"/>
</clipPath>
</defs>
</svg>
