<svg width="24" height="24" viewBox="0 0 24 24" fill="none" xmlns="http://www.w3.org/2000/svg">
<g clip-path="url(#clip0_845_14117)">
<path d="M22.809 17.2165C23.5719 15.639 23.9998 13.869 23.9998 11.9992C23.9998 10.1293 23.5719 8.35936 22.809 6.78178L11.9998 6.26001L1.19047 6.78173C0.427631 8.35936 -0.000244141 10.1293 -0.000244141 11.9992C-0.000244141 13.869 0.427631 15.639 1.19047 17.2165L11.9998 17.7383L22.809 17.2165Z" fill="#FFDA44"/>
<path d="M12 0.000244141C7.24242 0.000244141 3.13167 2.76892 1.19067 6.78287H22.8092C20.8682 2.76892 16.7574 0.000244141 12 0.000244141Z" fill="black"/>
<path d="M12 23.9994C7.24242 23.9994 3.13167 21.2307 1.19067 17.2168H22.8092C20.8682 21.2307 16.7574 23.9994 12 23.9994Z" fill="#0052B4"/>
<path d="M23.4331 8.3479H0.566428C0.198834 9.49957 -0.000244141 10.7265 -0.000244141 12.0001C-0.000244141 13.2736 0.198834 14.5006 0.566428 15.6522H23.433C23.8007 14.5006 23.9998 13.2736 23.9998 12.0001C23.9998 10.7265 23.8007 9.49957 23.4331 8.3479Z" fill="#A2001D"/>
<path d="M19.826 11.479H4.17383V12.5225H19.826V11.479Z" fill="#FFDA44"/>
<path d="M17.739 9.39111H6.26074V10.4346H17.739V9.39111Z" fill="#FFDA44"/>
<path d="M17.8134 11.9996C17.8134 11.9996 15.1301 15.13 11.9997 15.13C8.86931 15.13 8.86926 11.9996 8.86926 11.9996C8.86926 11.9996 8.86926 8.86914 11.9997 8.86914C15.1302 8.86914 17.8134 11.9996 17.8134 11.9996Z" fill="#F0F0F0"/>
<path d="M11.9996 15.13C8.86913 15.13 6.18591 11.9996 6.18591 11.9996C6.18591 11.9996 8.86913 8.86914 11.9996 8.86914" fill="black"/>
<path d="M10.9567 10.957H9.91321V13.044H10.9567V10.957Z" fill="#F0F0F0"/>
<path d="M14.0867 10.957H13.0432V13.044H14.0867V10.957Z" fill="black"/>
<path d="M4.17398 13.0445C4.75028 13.0445 5.21746 12.5773 5.21746 12.001C5.21746 11.4247 4.75028 10.9575 4.17398 10.9575C3.59768 10.9575 3.13049 11.4247 3.13049 12.001C3.13049 12.5773 3.59768 13.0445 4.17398 13.0445Z" fill="#0052B4"/>
<path d="M19.8267 13.044C20.403 13.044 20.8702 12.5768 20.8702 12.0005C20.8702 11.4242 20.403 10.957 19.8267 10.957C19.2504 10.957 18.7832 11.4242 18.7832 12.0005C18.7832 12.5768 19.2504 13.044 19.8267 13.044Z" fill="#0052B4"/>
</g>
<defs>
<clipPath id="clip0_845_14117">
<rect width="24" height="24" fill="white"/>
</clipPath>
</defs>
</svg>
