<svg width="24" height="24" viewBox="0 0 24 24" fill="none" xmlns="http://www.w3.org/2000/svg">
<g clip-path="url(#clip0_845_14393)">
<path d="M24 12C24 18.6274 18.6274 24 12 24C5.37262 24 0 18.6274 0 12C0 12.0029 12 0.0013125 12 0C18.6274 0 24 5.37262 24 12Z" fill="#0052B4"/>
<g clip-path="url(#clip1_845_14393)">
<path d="M0 0H4V12H0V0Z" fill="#0052B4"/>
<path d="M4 0H8V12H4V0Z" fill="#F0F0F0"/>
<path d="M8 0H12V12H8V0Z" fill="#ED2939"/>
</g>
<path d="M13.6098 14.2229L13.7538 14.6659H14.2195L13.8427 14.9397L13.9866 15.3828L13.6098 15.1089L13.2329 15.3828L13.3769 14.9397L13 14.6659H13.4658L13.6098 14.2229Z" fill="#F0F0F0"/>
<path d="M14.7212 17.2794L14.8652 17.7225H15.331L14.9541 17.9962L15.0981 18.4393L14.7212 18.1655L14.3443 18.4393L14.4883 17.9962L14.1115 17.7225H14.5773L14.7212 17.2794Z" fill="#F0F0F0"/>
<path d="M21.3904 14.2229L21.5344 14.6659H22.0002L21.6233 14.9397L21.7673 15.3828L21.3904 15.1089L21.0135 15.3828L21.1575 14.9397L20.7806 14.6659H21.2465L21.3904 14.2229Z" fill="#F0F0F0"/>
<path d="M20.2787 17.2794L20.4227 17.7225H20.8885L20.5116 17.9962L20.6556 18.4393L20.2787 18.1655L19.9018 18.4393L20.0458 17.9962L19.6689 17.7225H20.1348L20.2787 17.2794Z" fill="#F0F0F0"/>
<path d="M17.5 19.2245L17.644 19.6675H18.1098L17.7329 19.9413L17.8769 20.3843L17.5 20.1105L17.1232 20.3843L17.2671 19.9413L16.8903 19.6675H17.3561L17.5 19.2245Z" fill="#F0F0F0"/>
<path d="M14.7696 12L15.3326 12.8994H16.9414V16.0365L15.7348 14.1499L14.1115 16.7385H14.9012L15.7348 15.2467L17.4459 18.318L19.1571 15.2467L19.9907 16.7385H20.7804L19.1571 14.1499L17.9505 16.0365V14.3034H18.6744L19.2119 13.4479H17.9505V12.8994H19.5592L20.1223 12H14.7696ZM16.6562 15.839H14.9012V16.4533H16.6562V15.839ZM19.9907 15.839H18.2357V16.4533H19.9907V15.839Z" fill="#F0F0F0"/>
</g>
<defs>
<clipPath id="clip0_845_14393">
<rect width="24" height="24" fill="white"/>
</clipPath>
<clipPath id="clip1_845_14393">
<path d="M0 12C0 5.37258 5.37258 0 12 0V12H0Z" fill="white"/>
</clipPath>
</defs>
</svg>
