<svg width="24" height="24" viewBox="0 0 24 24" fill="none" xmlns="http://www.w3.org/2000/svg">
<g clip-path="url(#clip0_845_14145)">
<path d="M11.9997 -0.000732422C11.1038 -0.000732422 10.231 0.0983145 9.3911 0.284502L8.86938 11.9992L9.3911 23.714C10.2311 23.9002 11.1038 23.9993 11.9997 23.9993C18.6272 23.9993 23.9997 18.6266 23.9997 11.9992C23.9997 5.37185 18.6272 -0.000732422 11.9997 -0.000732422Z" fill="#496E2D"/>
<path d="M3.13016 3.91699C1.1856 6.04962 -0.000244141 8.88602 -0.000244141 11.9996C-0.000244141 15.1131 1.18565 17.9495 3.13021 20.0822L3.65193 11.9996L3.13016 3.91699Z" fill="#496E2D"/>
<path d="M17.5514 9.05156C18.1418 7.40596 17.4785 5.61623 16.0551 4.72485C16.3111 4.75818 16.5674 4.81846 16.8204 4.90917C18.7189 5.59035 19.7058 7.68154 19.0247 9.58007C18.3435 11.4787 16.2523 12.4656 14.3537 11.7844C14.1007 11.6936 13.8645 11.5771 13.6458 11.4401C15.3112 11.657 16.961 10.6971 17.5514 9.05156Z" fill="#F0F0F0"/>
<path d="M14.277 4.27417L13.7639 4.93708L12.9751 4.654L13.4469 5.34672L12.934 6.00953L13.7386 5.77487L14.2105 6.46749L14.2358 5.62975L15.0405 5.39504L14.2516 5.11206L14.277 4.27417Z" fill="#F0F0F0"/>
<path d="M15.6623 6.4353L15.1492 7.09816L14.3603 6.81508L14.8322 7.5078L14.3192 8.17062L15.1238 7.93587L15.5958 8.62863L15.6212 7.79083L16.4258 7.55608L15.6369 7.27305L15.6623 6.4353Z" fill="#F0F0F0"/>
<path d="M11.8341 5.0603L11.3211 5.72312L10.5322 5.44013L11.0041 6.1328L10.4911 6.79566L11.2957 6.56096L11.7676 7.25363L11.793 6.41588L12.5976 6.18118L11.8087 5.8981L11.8341 5.0603Z" fill="#F0F0F0"/>
<path d="M11.778 7.53442L11.265 8.19728L10.4761 7.91425L10.948 8.60697L10.4349 9.26978L11.2396 9.03513L11.7115 9.72775L11.7369 8.89L12.5415 8.6553L11.7526 8.37222L11.778 7.53442Z" fill="#F0F0F0"/>
<path d="M14.132 8.37988L13.619 9.0427L12.8301 8.75966L13.302 9.45238L12.7889 10.1151L13.5936 9.88049L14.0655 10.5732L14.0909 9.73537L14.8956 9.50071L14.1066 9.21768L14.132 8.37988Z" fill="#F0F0F0"/>
<path d="M3.13013 3.91756V20.0827C4.76513 21.8759 6.93684 23.1708 9.39098 23.7148V0.2854C6.9368 0.829432 4.76517 2.12435 3.13013 3.91756Z" fill="#D80027"/>
<path d="M5.51949 6.31749L4.47131 5.53664V4.43241L5.51949 3.65161H7.00191L8.05008 4.43241V5.53664L7.00191 6.31749H5.51949Z" fill="#F0F0F0"/>
<path d="M6.26072 3.65161H5.51948L4.47131 4.43241V4.97227H6.26072V3.65161Z" fill="#FF9811"/>
<path d="M6.26074 6.31656H7.00193L8.0501 5.53571V4.97241H6.26074V6.31656Z" fill="#FF9811"/>
<path d="M5.51949 20.3485L4.47131 19.5676V18.4635L5.51949 17.6826H7.00191L8.05008 18.4635V19.5676L7.00191 20.3485H5.51949Z" fill="#F0F0F0"/>
<path d="M6.26072 17.6826H5.51948L4.47131 18.4635V19.0033H6.26072V17.6826Z" fill="#FF9811"/>
<path d="M6.26074 20.3492H7.00193L8.0501 19.5684V19.0051H6.26074V20.3492Z" fill="#FF9811"/>
<path d="M5.51936 13.3324L4.47119 12.5515V11.4473L5.51936 10.6665H7.00178L8.04995 11.4473V12.5515L7.00178 13.3324H5.51936Z" fill="#496E2D"/>
<path d="M8.0867 15.0514H7.63014V14.5949H6.82787L6.26059 14.0276L5.69335 14.5949H4.89109V15.0514H4.43457V15.9644H4.89109V16.4209H5.69331L6.26063 16.9883L6.82787 16.4209H7.63014V15.9644H8.0867V15.0514Z" fill="#496E2D"/>
<path d="M8.08694 8.03605H7.63038V7.57949H6.82811L6.26083 7.01221L5.6936 7.57949H4.89133V8.03605H4.43481V8.94908H4.89133V9.4056H5.69355L6.26088 9.97297L6.82811 9.4056H7.63038V8.94908H8.08694V8.03605Z" fill="#496E2D"/>
<path d="M6.78225 11.4792H5.73877V12.5227H6.78225V11.4792Z" fill="#D80027"/>
<path d="M6.26061 9.01487C6.54874 9.01487 6.78232 8.78129 6.78232 8.49315C6.78232 8.20502 6.54874 7.97144 6.26061 7.97144C5.97247 7.97144 5.73889 8.20502 5.73889 8.49315C5.73889 8.78129 5.97247 9.01487 6.26061 9.01487Z" fill="#D80027"/>
<path d="M6.26049 16.0307C6.54862 16.0307 6.7822 15.7972 6.7822 15.509C6.7822 15.2209 6.54862 14.9873 6.26049 14.9873C5.97235 14.9873 5.73877 15.2209 5.73877 15.509C5.73877 15.7972 5.97235 16.0307 6.26049 16.0307Z" fill="#D80027"/>
</g>
<defs>
<clipPath id="clip0_845_14145">
<rect width="24" height="24" fill="white"/>
</clipPath>
</defs>
</svg>
