<svg width="24" height="24" viewBox="0 0 24 24" fill="none" xmlns="http://www.w3.org/2000/svg">
<g clip-path="url(#clip0_845_14141)">
<path d="M12 24C18.6274 24 24 18.6274 24 12C24 5.37258 18.6274 0 12 0C5.37258 0 0 5.37258 0 12C0 18.6274 5.37258 24 12 24Z" fill="#D80027"/>
<path d="M11.9999 17.7388C15.1695 17.7388 17.739 15.1693 17.739 11.9996C17.739 8.83 15.1695 6.2605 11.9999 6.2605C8.83025 6.2605 6.26074 8.83 6.26074 11.9996C6.26074 15.1693 8.83025 17.7388 11.9999 17.7388Z" fill="#F0F0F0"/>
<path d="M12.7065 9.80493L13.691 11.1617L15.2856 10.6447L14.2995 12.0003L15.2839 13.3571L13.6899 12.8381L12.7038 14.1937L12.7048 12.5174L11.1108 11.9984L12.7054 11.4814L12.7065 9.80493Z" fill="#D80027"/>
<path d="M13.304 15.3904C11.4311 15.3904 9.91273 13.8721 9.91273 11.9991C9.91273 10.1262 11.4311 8.60782 13.304 8.60782C13.888 8.60782 14.4375 8.75548 14.9172 9.01545C14.1647 8.27946 13.1355 7.8252 11.9997 7.8252C9.69457 7.8252 7.82581 9.69391 7.82581 11.9991C7.82581 14.3043 9.69457 16.173 11.9997 16.173C13.1355 16.173 14.1647 15.7187 14.9172 14.9827C14.4375 15.2428 13.888 15.3904 13.304 15.3904Z" fill="#D80027"/>
</g>
<defs>
<clipPath id="clip0_845_14141">
<rect width="24" height="24" fill="white"/>
</clipPath>
</defs>
</svg>
