<svg width="24" height="24" viewBox="0 0 24 24" fill="none" xmlns="http://www.w3.org/2000/svg">
<g clip-path="url(#clip0_845_14143)">
<path d="M12 24C18.6274 24 24 18.6274 24 12C24 5.37258 18.6274 0 12 0C5.37258 0 0 5.37258 0 12C0 18.6274 5.37258 24 12 24Z" fill="#D80027"/>
<path d="M11.5088 9.80493L12.4934 11.1617L14.088 10.6447L13.1018 12.0003L14.0863 13.3571L12.4923 12.8381L11.5062 14.1937L11.5072 12.5174L9.91321 11.9984L11.5078 11.4814L11.5088 9.80493Z" fill="#F0F0F0"/>
<path d="M8.82186 15.3904C6.94893 15.3904 5.43055 13.8721 5.43055 11.9991C5.43055 10.1262 6.94893 8.60782 8.82186 8.60782C9.40583 8.60782 9.9553 8.75552 10.435 9.01545C9.68244 8.27941 8.65321 7.8252 7.51752 7.8252C5.2123 7.8252 3.34363 9.69391 3.34363 11.9991C3.34363 14.3043 5.21235 16.173 7.51752 16.173C8.6533 16.173 9.68249 15.7187 10.435 14.9827C9.9553 15.2427 9.40583 15.3904 8.82186 15.3904Z" fill="#F0F0F0"/>
</g>
<defs>
<clipPath id="clip0_845_14143">
<rect width="24" height="24" fill="white"/>
</clipPath>
</defs>
</svg>
