<svg width="24" height="24" viewBox="0 0 24 24" fill="none" xmlns="http://www.w3.org/2000/svg">
<g clip-path="url(#clip0_845_14149)">
<path d="M24 12C24 18.6274 18.6274 24 12 24C5.37263 24 0 18.6274 0 12C0 12.0029 12 0.0013125 12 0C18.6274 0 24 5.37262 24 12Z" fill="#338AF3"/>
<path d="M5.73938 12.001H9.78666L6.2611 7.82715L5.73938 9.39235V12.001Z" fill="#0052B4"/>
<path d="M12.0002 9.78659L7.82629 5.73926H12.0002L12.0002 9.78659Z" fill="#0052B4"/>
<path d="M11.9683 11.9995H12.0004C12.0004 11.9887 12.0004 11.9781 12.0004 11.9673C11.9897 11.978 11.979 11.9887 11.9683 11.9995Z" fill="#F0F0F0"/>
<path d="M12.0004 6.2611C12.0004 4.14962 12.0004 2.76606 12.0004 0.000244141H11.9984C5.37187 0.00136914 0.000366211 5.37348 0.000366211 12.0002H6.26127V8.47473L9.78679 12.0002H11.9683C11.979 11.9896 11.9897 11.9789 12.0005 11.9681C12.0005 11.1597 12.0005 10.4383 12.0005 9.78671L8.4748 6.2611H12.0004Z" fill="#F0F0F0"/>
<path d="M6.07124 1.56543C4.19441 2.63413 2.63413 4.19441 1.56543 6.07124V12.0002H4.69588V4.69598V4.69588H12.0002C12.0002 3.70856 12.0002 2.76796 12.0002 1.56543H6.07124Z" fill="#D80027"/>
<path d="M12.0005 10.5242L7.73698 6.26074H6.26135V6.26084L12.0004 11.9998H12.0005C12.0005 11.9998 12.0005 10.9823 12.0005 10.5242Z" fill="#D80027"/>
<path d="M13.0973 19.8252L13.3563 20.6224H14.1945L13.5164 21.115L13.7755 21.9121L13.0973 21.4195L12.4192 21.9121L12.6783 21.115L12.0001 20.6224H12.8382L13.0973 19.8252Z" fill="#FFDA44"/>
<path d="M19.7727 14.6091L20.0317 15.4063H20.8699L20.1918 15.899L20.4509 16.6961L19.7727 16.2035L19.0947 16.6961L19.3537 15.899L18.6755 15.4063H19.5137L19.7727 14.6091Z" fill="#FFDA44"/>
<path d="M21.4451 6.78247L21.7041 7.57963H22.5423L21.8642 8.07228L22.1232 8.86939L21.4451 8.37678L20.767 8.86939L21.026 8.07228L20.3479 7.57963H21.1861L21.4451 6.78247Z" fill="#FFDA44"/>
<path d="M21.8597 12.5212L22.1186 13.3184H22.9568L22.2788 13.8111L22.5378 14.6082L21.8597 14.1156L21.1816 14.6082L21.4406 13.8111L20.7625 13.3184H21.6006L21.8597 12.5212Z" fill="#FFDA44"/>
<path d="M14.2991 17.9513L15.0461 18.3319L15.6387 17.7393L15.5076 18.567L16.2544 18.9475L15.4265 19.0787L15.2954 19.9066L14.9149 19.1597L14.087 19.2909L14.6797 18.6983L14.2991 17.9513Z" fill="#FFDA44"/>
<path d="M14.2991 14.8212L15.0461 15.2018L15.6387 14.6091L15.5076 15.4369L16.2544 15.8174L15.4265 15.9486L15.2954 16.7764L14.9149 16.0296L14.087 16.1608L14.6797 15.5681L14.2991 14.8212Z" fill="#FFDA44"/>
<path d="M16.908 16.8271L17.6549 17.2076L18.2476 16.615L18.1165 17.4428L18.8633 17.8233L18.0354 17.9544L17.9043 18.7823L17.5238 18.0354L16.6959 18.1667L17.2886 17.574L16.908 16.8271Z" fill="#FFDA44"/>
<path d="M16.908 10.1247L17.6549 10.5052L18.2476 9.9126L18.1165 10.7404L18.8633 11.1209L18.0354 11.252L17.9043 12.0799L17.5238 11.3331L16.6959 11.4642L17.2886 10.8716L16.908 10.1247Z" fill="#FFDA44"/>
<path d="M19.4365 10.0444L20.1835 10.4249L20.7761 9.83228L20.645 10.6601L21.3918 11.0406L20.5639 11.1717L20.4328 11.9996L20.0524 11.2528L19.2245 11.3839L19.8171 10.7913L19.4365 10.0444Z" fill="#FFDA44"/>
</g>
<defs>
<clipPath id="clip0_845_14149">
<rect width="24" height="24" fill="white"/>
</clipPath>
</defs>
</svg>
