<svg width="24" height="24" viewBox="0 0 24 24" fill="none" xmlns="http://www.w3.org/2000/svg">
<g clip-path="url(#clip0_845_14151)">
<path d="M20.9431 20.0001C22.8435 17.8771 23.9996 15.0739 23.9996 12.0002C23.9996 8.92648 22.8435 6.12321 20.943 4.00015L11.9996 3.13062L3.05626 4.00015C1.15581 6.12321 -0.000366211 8.92648 -0.000366211 12.0002C-0.000366211 15.0739 1.15576 17.8771 3.05621 20.0001L11.9996 20.8697L20.9431 20.0001Z" fill="#FFDA44"/>
<path d="M3.05664 4.00047H20.9434C18.7462 1.54577 15.5537 0.000488281 12 0.000488281C8.44628 0.000488281 5.25386 1.54577 3.05664 4.00047Z" fill="black"/>
<path d="M-0.000366211 12.0008L11.9996 13.0442L23.9996 12.0008C23.9996 10.5981 23.7582 9.25192 23.3158 8.00073H0.683446C0.241087 9.25192 -0.000366211 10.5981 -0.000366211 12.0008Z" fill="#D80027"/>
<path d="M0.683446 15.9993H23.3159C23.7582 14.7481 23.9996 13.402 23.9996 11.9993H-0.000366211C-0.000366211 13.402 0.241087 14.7481 0.683446 15.9993Z" fill="black"/>
<path d="M20.9435 19.9995H3.05664C5.25386 22.4543 8.44628 23.9995 12.0001 23.9995C15.5538 23.9995 18.7463 22.4543 20.9435 19.9995Z" fill="#D80027"/>
<path d="M16.0042 12.0007C16.0042 14.2124 14.2115 16.005 11.9998 16.005C9.78813 16.005 7.99548 14.2124 7.99548 12.0007C7.99548 9.78898 9.78813 7.99634 11.9998 7.99634C14.2115 7.99634 16.0042 9.78898 16.0042 12.0007Z" fill="#F0F0F0"/>
<path d="M13.4665 12.2036L11.9995 11.568C11.9995 11.568 12.3428 10.4288 12.361 10.3508C12.3744 10.2939 12.3815 10.2345 12.3815 10.1734C12.3815 9.9573 12.2939 9.76164 12.1523 9.62008L12.5212 9.25117C12.2852 9.01516 11.959 8.86914 11.5989 8.86914C11.2387 8.86914 10.9126 9.01511 10.6765 9.25117L11.0454 9.62008C10.9038 9.76169 10.8162 9.95734 10.8162 10.1734C10.8162 10.2525 10.8282 10.3286 10.85 10.4006L10.2946 10.956H11.3041C11.3041 10.956 10.8867 11.5829 10.6588 12.0977C10.431 12.6125 10.662 13.2409 11.1886 13.475L11.4931 13.6104L11.9995 14.0864V14.6081L11.4778 15.1299H12.5213V14.0864L12.9974 13.6103H13.9822C13.9869 13.6005 13.9919 13.5909 13.9964 13.5809C14.2303 13.0543 13.9931 12.4376 13.4665 12.2036Z" fill="black"/>
</g>
<defs>
<clipPath id="clip0_845_14151">
<rect width="24" height="24" fill="white"/>
</clipPath>
</defs>
</svg>
