<svg width="421" height="158" viewBox="0 0 421 158" fill="none" xmlns="http://www.w3.org/2000/svg">
<path fill-rule="evenodd" clip-rule="evenodd" d="M288.037 127.07V91.799L350.201 1.26001H402.297V89.04H420.987V127.07H402.297V156.26H358.177V127.07H288.037ZM326.057 93.04H362.177V39.91L326.057 93.04Z" fill="white"/>
<path fill-rule="evenodd" clip-rule="evenodd" d="M0 127.07V91.799L62.1643 1.26001H114.26V89.04H132.95V127.07H114.26V156.26H70.14V127.07H0ZM38.02 93.04H74.14V39.91L38.02 93.04Z" fill="white"/>
<path fill-rule="evenodd" clip-rule="evenodd" d="M143.596 82.12V75.4C143.596 52.1581 150.393 33.2703 162.388 20.1486C174.41 6.99806 191.329 0 210.806 0C230.282 0 247.201 6.99806 259.223 20.1486C271.218 33.2703 278.016 52.1581 278.016 75.4V82.12C278.016 105.463 271.221 124.354 259.22 137.453C247.194 150.581 230.273 157.52 210.806 157.52C191.339 157.52 174.418 150.581 162.391 137.453C150.391 124.354 143.596 105.463 143.596 82.12ZM237.056 76.66V80.86C237.056 108.79 226.136 122.86 210.806 122.86C195.476 122.86 184.556 108.79 184.556 80.86V76.66C184.556 48.94 195.476 34.66 210.806 34.66C226.136 34.66 237.056 48.94 237.056 76.66Z" fill="white"/>
</svg>
