<svg width="180" height="180" viewBox="0 0 180 180" fill="none" xmlns="http://www.w3.org/2000/svg">
<rect width="180" height="180" rx="40" fill="black"/>
<path d="M47.0035 45H19.9995V139.951H47.0035V45Z" fill="white"/>
<path d="M129.642 45C120.754 45 107.349 46.9913 100.282 60.5905C95.5708 51.1682 85.9542 45 71.8211 45C65.4829 45 60.529 46.9428 55.9878 50.124V68.6042C57.3962 67.9243 59.5333 67.2929 62.3988 67.2929C74.3709 67.2929 77.9892 77.2494 77.9892 89.9502V139.975H104.799V90.1443C104.799 77.638 108.417 67.3172 120.195 67.3172C131.973 67.3172 135.785 77.2737 135.785 89.9742V140H162.789V89.4399C162.789 65.8844 155.723 45.0486 129.617 45.0486L129.642 45Z" fill="white"/>
</svg>
