<svg width="150" height="40" viewBox="0 0 97 26" fill="none" xmlns="http://www.w3.org/2000/svg">
    <path d="M46.451 3.561C46.451 3.561 46.451 2.626 47.382 2.626C48.269 2.626 48.225 3.605 48.225 3.605V6.142H49.156V3.605C49.156 3.605 49.2 1.825 47.693 1.825C46.717 1.825 46.363 2.582 46.363 2.582L46.319 1.914H45.477L45.521 3.116V6.142H46.452L46.451 3.561ZM88.401 3.561C88.401 3.561 88.401 2.626 89.332 2.626C90.219 2.626 90.175 3.605 90.175 3.605V6.142H91.106V3.605C91.106 3.605 91.15 1.825 89.643 1.825C88.667 1.825 88.401 2.582 88.401 2.582V0H87.47V6.142H88.401V3.561ZM52.039 22.387C57.05 22.387 57.05 13.486 52.305 13.486C50.132 13.486 49.378 15.088 49.378 15.088L49.289 13.664H47.604L47.693 15.578V25.681H49.6V21.185C49.6 21.185 50.176 22.387 52.039 22.387ZM51.684 14.999C54.655 14.999 54.655 20.918 51.64 20.918C49.645 20.918 49.6 18.826 49.6 18.826V17.268C49.6 17.268 49.644 14.999 51.684 14.999ZM37.361 4.006C37.361 1.113 33.281 1.113 33.281 4.051C33.281 7.033 37.361 6.944 37.361 4.006ZM36.385 4.006C36.385 6.053 34.212 6.098 34.212 4.051C34.212 2.048 36.385 2.004 36.385 4.006ZM57.183 4.006C57.183 1.113 53.103 1.113 53.103 4.051C53.103 7.033 57.183 6.944 57.183 4.006ZM56.207 4.006C56.207 6.053 54.034 6.098 54.034 4.051C54.034 2.048 56.207 2.004 56.207 4.006ZM77.227 3.561C77.227 3.561 77.227 2.626 78.158 2.626C79.045 2.626 79.001 3.605 79.001 3.605V6.142H79.932V3.605C79.932 3.605 79.976 1.825 78.469 1.825C77.493 1.825 77.139 2.582 77.139 2.582L77.095 1.914H76.252L76.296 3.116V6.142H77.227V3.561ZM36.252 22.209L32.438 10.371H30.088L26.274 22.21H28.225L29.289 18.739H33.147L34.211 22.21H36.251L36.252 22.209ZM32.793 17.269H29.645L31.197 12.062L32.793 17.269ZM42.239 22.387C47.25 22.387 47.25 13.486 42.505 13.486C40.332 13.486 39.578 15.088 39.578 15.088L39.489 13.664H37.804L37.893 15.711V25.68H39.8V21.185C39.8 21.185 40.376 22.387 42.239 22.387ZM41.884 14.999C44.9 14.999 44.9 20.918 41.84 20.918C39.844 20.918 39.8 18.826 39.8 18.826V17.268C39.8 17.268 39.844 14.999 41.884 14.999ZM62.505 22.387C64.944 22.387 66.762 21.185 66.762 18.871C66.762 17.002 65.432 16.067 63.791 15.4C62.727 14.955 61.529 14.51 61.529 13.308C61.529 12.284 62.46 11.75 63.569 11.75C64.855 11.75 65.831 12.284 65.831 12.284L66.319 10.771C66.319 10.771 65.343 10.192 63.614 10.192C61.441 10.192 59.623 11.438 59.623 13.53C59.623 14.999 60.643 16.156 62.727 16.913C63.88 17.313 64.856 17.848 64.856 19.049C64.856 20.25 63.88 20.829 62.594 20.829C60.953 20.829 59.889 20.072 59.889 20.072L59.446 21.63C59.446 21.63 60.376 22.387 62.505 22.387ZM69.068 19.405C69.068 21.319 69.733 22.387 71.463 22.387C72.394 22.387 72.926 22.164 72.926 22.164L72.882 20.74C72.882 20.74 72.527 20.829 72.039 20.829C71.285 20.829 70.93 20.295 70.93 19.227V15.088H73.014V13.664H70.93V11.528L69.068 12.107V13.665H67.826V15.089H69.068V19.405ZM82.416 17.892C82.416 11.973 74.079 11.928 74.079 18.025C74.079 23.944 82.416 23.855 82.416 17.892ZM80.465 17.936C80.465 22.031 75.986 22.075 75.986 17.98C75.986 13.93 80.465 13.841 80.465 17.936ZM85.964 17.491C85.964 17.491 86.008 15.266 87.959 15.266C88.1522 15.2668 88.345 15.2818 88.536 15.311V13.531C88.536 13.531 88.27 13.487 88.093 13.487C86.231 13.487 85.743 15.401 85.743 15.401L85.654 13.665H84.013L84.057 15.49V22.21H85.964V17.491ZM93.68 22.387C95.321 22.387 96.518 21.853 96.518 21.853L96.252 20.518C96.252 20.518 95.409 20.919 93.946 20.919C91.152 20.919 91.285 18.382 91.285 18.382H96.961C97.227 15.712 96.163 13.486 93.458 13.486C90.576 13.486 89.467 16.023 89.467 18.026C89.467 20.34 90.753 22.387 93.68 22.387ZM91.285 17.046C91.285 16.601 91.729 14.776 93.325 14.776C95.32 14.776 95.187 17.046 95.187 17.046H91.285ZM32.172 3.071C32.172 1.202 31.019 0.267 29.023 0.267C28.136 0.267 27.427 0.401 27.427 0.401V6.098C27.427 6.098 28.225 6.187 28.757 6.187C30.886 6.187 32.172 5.162 32.172 3.071ZM31.196 3.116C31.196 4.585 30.442 5.43 28.979 5.43C28.58 5.43 28.314 5.385 28.314 5.385V1.069C28.314 1.069 28.758 1.024 29.068 1.024C30.487 1.024 31.196 1.736 31.196 3.116ZM44.322 1.914H43.435L42.592 5.252L41.705 1.914H40.951L39.975 5.252L39.221 1.914H38.29L39.532 6.142H40.419L41.306 3.027L42.149 6.142H43.036L44.322 1.914ZM50.796 6.142H51.727V0H50.796V6.142ZM58.246 4.985C58.246 6.365 60.064 6.632 60.774 5.653L60.863 6.143H61.706L61.617 5.342V3.562C61.617 2.405 61.085 1.826 59.976 1.826C59.089 1.826 58.557 2.182 58.557 2.182L58.734 2.805C58.734 2.805 59.133 2.493 59.843 2.493C60.464 2.493 60.686 2.805 60.686 3.428C59.444 3.383 58.247 3.829 58.247 4.986L58.246 4.985ZM59.177 4.896C59.177 3.872 60.729 4.05 60.729 4.05V4.673C60.729 5.652 59.177 5.919 59.177 4.896ZM64.72 6.231C65.784 6.231 66.095 5.474 66.095 5.474L66.139 6.142H66.982C66.982 6.142 66.938 5.519 66.938 4.985V0H66.007V2.403C66.007 2.403 65.697 1.824 64.81 1.824C62.415 1.824 62.327 6.23 64.721 6.23L64.72 6.231ZM65.03 2.582C66.006 2.582 66.006 3.65 66.006 3.65V4.362C66.006 4.362 66.006 5.475 64.986 5.475C63.567 5.475 63.478 2.582 65.03 2.582ZM74.919 4.006C74.919 1.113 70.839 1.113 70.839 4.051C70.839 7.033 74.919 6.944 74.919 4.006ZM73.943 4.006C73.943 6.053 71.77 6.098 71.77 4.051C71.77 2.048 73.943 2.004 73.943 4.006ZM84.231 4.763C84.231 5.653 84.586 6.232 85.384 6.232C85.916 6.232 86.138 6.098 86.138 6.098L86.094 5.386C86.094 5.386 85.961 5.431 85.695 5.431C85.34 5.431 85.163 5.208 85.163 4.674V2.626H86.183V1.914H85.163V0.891L84.232 1.158V1.915H83.611V2.627H84.232L84.231 4.763ZM94.519 6.187C95.406 6.187 95.938 5.964 95.938 5.964L95.805 5.296C95.805 5.296 95.45 5.474 94.652 5.474C93.277 5.474 93.322 4.272 93.322 4.272H96.116C96.338 3.248 95.85 1.824 94.431 1.824C93.145 1.824 92.436 2.937 92.436 4.094C92.436 5.162 93.012 6.186 94.52 6.186L94.519 6.187ZM93.324 3.605C93.324 3.605 93.413 2.492 94.344 2.492C95.364 2.492 95.275 3.605 95.275 3.605H93.324Z" fill="black"></path>
    <path d="M13.37 6.474C16.386 6.474 17.849 8.744 17.849 8.744C14.035 11.148 14.922 16.266 18.425 17.69C17.982 19.203 15.898 23.698 13.37 23.698C11.862 23.698 11.374 22.808 9.645 22.808C7.916 22.808 7.295 23.743 5.876 23.743C3.615 23.743 0.555 18.847 0.0669998 14.53C-0.465 9.723 2.284 6.563 5.61 6.563C7.339 6.563 8.315 7.542 9.379 7.542C10.266 7.542 11.685 6.474 13.37 6.474Z" fill="black"></path>
    <path d="M13.725 1C11.286 1.178 8.936 3.581 9.202 6.252C11.818 6.341 13.991 3.671 13.725 1Z" fill="black"></path>
</svg>