<svg width="77" height="77" viewBox="0 0 77 77" fill="none" xmlns="http://www.w3.org/2000/svg">
<rect width="77" height="77" rx="14" fill="#2657D4"/>
<path d="M38.5 56C48.165 56 56 48.165 56 38.5C56 28.835 48.165 21 38.5 21C28.835 21 21 28.835 21 38.5C21 40.8278 21.4545 43.0494 22.2796 45.081C22.4375 45.4698 22.5164 45.6642 22.5517 45.8214C22.5861 45.9751 22.5987 46.0889 22.5987 46.2464C22.5988 46.4075 22.5695 46.5829 22.511 46.9337L21.358 53.8519C21.2373 54.5763 21.1769 54.9385 21.2893 55.2005C21.3876 55.4297 21.5703 55.6124 21.7995 55.7107C22.0615 55.8231 22.4237 55.7627 23.1481 55.642L30.0663 54.489C30.4171 54.4305 30.5925 54.4012 30.7536 54.4013C30.9111 54.4013 31.0249 54.4139 31.1786 54.4483C31.3358 54.4836 31.5302 54.5625 31.919 54.7204C33.9506 55.5455 36.1722 56 38.5 56Z" fill="white"/>
<path d="M30.7222 33.6389H38.5M30.7222 40.4444H44.3333M38.5 56C48.165 56 56 48.165 56 38.5C56 28.835 48.165 21 38.5 21C28.835 21 21 28.835 21 38.5C21 40.8278 21.4545 43.0494 22.2796 45.081C22.4375 45.4698 22.5164 45.6642 22.5517 45.8214C22.5861 45.9751 22.5987 46.0889 22.5987 46.2464C22.5988 46.4075 22.5695 46.5829 22.511 46.9337L21.358 53.8519C21.2373 54.5763 21.1769 54.9385 21.2893 55.2005C21.3876 55.4297 21.5703 55.6124 21.7995 55.7107C22.0615 55.8231 22.4237 55.7627 23.1481 55.642L30.0663 54.489C30.4171 54.4305 30.5925 54.4012 30.7536 54.4013C30.9111 54.4013 31.0249 54.4139 31.1786 54.4483C31.3358 54.4836 31.5302 54.5625 31.919 54.7204C33.9506 55.5455 36.1722 56 38.5 56Z" stroke="#2657D4" stroke-width="3" stroke-linecap="round" stroke-linejoin="round"/>
</svg>
