<svg width="130" height="130" viewBox="0 0 130 130" fill="none" xmlns="http://www.w3.org/2000/svg">
<rect width="130" height="130" rx="30" fill="#1F2424"/>
<g clip-path="url(#clip0_127_8560)">
<path d="M106.914 53.0711L88.1585 34.3157C87.2572 33.4323 86.0455 32.9375 84.7835 32.9375C83.5215 32.9375 82.3097 33.4323 81.4085 34.3157L78.7888 36.9354C77.9467 37.7978 77.4581 38.9444 77.4194 40.1492C77.3807 41.3541 77.7948 42.5296 78.5799 43.4443C77.4228 44.416 76.0777 45.1387 74.6288 45.5674C73.1798 45.996 71.658 46.1212 70.1585 45.9354C67.3521 45.599 64.5093 46.1082 61.9942 47.3979H61.8817L55.4531 46.5782C54.734 46.4901 54.0657 46.1617 53.5567 45.6461L51.4192 43.5086C52.2178 42.5959 52.6431 41.4158 52.6103 40.2035C52.5775 38.9912 52.0891 37.8358 51.2424 36.9675L48.6228 34.3479C47.7215 33.4645 46.5098 32.9696 45.2478 32.9696C43.9857 32.9696 42.774 33.4645 41.8728 34.3479L23.0853 53.0711C22.2019 53.9724 21.707 55.1841 21.707 56.4461C21.707 57.7081 22.2019 58.9198 23.0853 59.8211L25.7049 62.4407C26.5731 63.2875 27.7286 63.7759 28.9409 63.8086C30.1532 63.8414 31.3333 63.4161 32.246 62.6175L36.3603 66.7157C36.9863 67.3584 37.4397 68.149 37.6781 69.014C38.5262 72.1596 40.1893 75.0257 42.4996 77.3229C42.0668 78.1358 41.8519 79.0469 41.8756 79.9676C41.8994 80.8882 42.161 81.787 42.635 82.5766C43.1091 83.3662 43.7795 84.0196 44.5809 84.4733C45.3823 84.927 46.2875 85.1656 47.2085 85.1657C47.2042 85.8697 47.3397 86.5676 47.6072 87.2188C47.8746 87.8701 48.2687 88.4617 48.7665 88.9595C49.2643 89.4574 49.856 89.8514 50.5072 90.1188C51.1584 90.3863 51.8563 90.5218 52.5603 90.5175C52.5755 91.9441 53.153 93.3071 54.1674 94.3104C54.9757 95.1207 56.0245 95.6478 57.1571 95.8129C58.2897 95.978 59.4453 95.7723 60.4513 95.2265L60.7406 95.5157C61.3719 96.1519 62.1538 96.6182 63.0135 96.8715C63.8732 97.1247 64.783 97.1566 65.6584 96.9642C66.5338 96.7718 67.3463 96.3614 68.0207 95.771C68.695 95.1806 69.2092 94.4294 69.5156 93.5872L70.1746 94.2461C70.6705 94.7451 71.2601 95.1412 71.9097 95.4114C72.5593 95.6817 73.2558 95.8208 73.9594 95.8208C74.6629 95.8208 75.3595 95.6817 76.009 95.4114C76.6586 95.1412 77.2483 94.7451 77.7442 94.2461C78.2754 93.6997 78.6765 93.0405 78.9174 92.3175L79.7049 93.105C80.7087 94.1088 82.0701 94.6728 83.4897 94.6728C84.9093 94.6728 86.2708 94.1088 87.2746 93.105C88.2783 92.1012 88.8423 90.7398 88.8423 89.3202C88.8423 87.9006 88.2783 86.5392 87.2746 85.5354L86.487 84.7479C87.2088 84.4907 87.8627 84.0731 88.3996 83.5265C88.9049 83.0353 89.3073 82.4483 89.5833 81.7998C89.8592 81.1514 90.0032 80.4544 90.0067 79.7497C90.0028 78.9032 89.7932 78.0704 89.396 77.3229L89.7013 77.0015C91.7897 74.9336 93.2066 72.2846 93.7674 69.3997C94.2072 67.1175 95.3278 65.0219 96.9817 63.389L97.8013 62.5693C98.714 63.3679 99.8941 63.7932 101.106 63.7604C102.319 63.7277 103.474 63.2392 104.342 62.3925L106.962 59.7729C107.825 58.8676 108.302 57.6626 108.293 56.4122C108.284 55.1619 107.789 53.9639 106.914 53.0711ZM27.9228 60.1747L25.3031 57.6193C25.0038 57.3182 24.8358 56.9109 24.8358 56.4863C24.8358 56.0617 25.0038 55.6544 25.3031 55.3532L44.1067 36.5336C44.2568 36.3756 44.4376 36.2497 44.6379 36.1637C44.8382 36.0777 45.0539 36.0334 45.2719 36.0334C45.4899 36.0334 45.7056 36.0777 45.9059 36.1637C46.1062 36.2497 46.2869 36.3756 46.4371 36.5336L48.9281 39.1532C49.0862 39.3034 49.212 39.4841 49.298 39.6844C49.384 39.8847 49.4283 40.1004 49.4283 40.3184C49.4283 40.5364 49.384 40.7521 49.298 40.9524C49.212 41.1527 49.0862 41.3335 48.9281 41.4836L30.2531 60.1747C30.103 60.3327 29.9223 60.4586 29.722 60.5446C29.5216 60.6306 29.3059 60.6749 29.0879 60.6749C28.87 60.6749 28.6543 60.6306 28.4539 60.5446C28.2536 60.4586 28.0729 60.3327 27.9228 60.1747ZM45.7138 81.4211C45.498 81.2128 45.3264 80.9631 45.2092 80.687C45.0919 80.4108 45.0315 80.1139 45.0315 79.814C45.0315 79.514 45.0919 79.2171 45.2092 78.941C45.3264 78.6649 45.498 78.4152 45.7138 78.2068C46.1317 77.7956 46.6945 77.5651 47.2808 77.5651C47.8671 77.5651 48.4299 77.7956 48.8478 78.2068C49.0588 78.4126 49.2273 78.6579 49.3435 78.9288C49.4598 79.1997 49.5215 79.4908 49.5252 79.7855C49.529 80.0803 49.4746 80.3729 49.3653 80.6466C49.2559 80.9204 49.0937 81.1699 48.8879 81.3809C48.6822 81.592 48.4368 81.7604 48.166 81.8767C47.8951 81.9929 47.604 82.0547 47.3092 82.0584C47.0145 82.0621 46.7219 82.0078 46.4481 81.8984C46.1744 81.7891 45.9249 81.6269 45.7138 81.4211ZM51.0656 86.7729C50.7506 86.4608 50.5364 86.0614 50.4506 85.6263C50.3649 85.1912 50.4115 84.7404 50.5845 84.3321C50.7576 83.9238 51.049 83.5767 51.4212 83.3357C51.7935 83.0947 52.2294 82.9708 52.6728 82.98C52.9704 82.9712 53.2667 83.0237 53.5432 83.1342C53.8197 83.2448 54.0705 83.4112 54.2799 83.6229C54.4937 83.8324 54.6636 84.0824 54.7795 84.3584C54.8955 84.6344 54.9552 84.9307 54.9552 85.23C54.9552 85.5294 54.8955 85.8257 54.7795 86.1017C54.6636 86.3776 54.4937 86.6277 54.2799 86.8372C54.0638 87.0573 53.8049 87.231 53.5193 87.3476C53.2336 87.4642 52.9272 87.5212 52.6187 87.5152C52.3103 87.5092 52.0063 87.4402 51.7254 87.3126C51.4445 87.185 51.1927 87.0013 50.9853 86.7729H51.0656ZM56.4174 92.1247C56.1996 91.9175 56.0261 91.6682 55.9076 91.3919C55.7891 91.1157 55.7279 90.8182 55.7279 90.5175C55.7279 90.2169 55.7891 89.9194 55.9076 89.6431C56.0261 89.3669 56.1996 89.1176 56.4174 88.9104C56.847 88.4919 57.4249 88.2607 58.0246 88.2675C58.3868 88.2751 58.7417 88.3713 59.0582 88.5477C59.3747 88.7241 59.6432 88.9753 59.8401 89.2795C60.037 89.5837 60.1565 89.9314 60.1879 90.2924C60.2194 90.6534 60.1619 91.0166 60.0205 91.3502C59.8791 91.6838 59.6582 91.9777 59.377 92.2062C59.0957 92.4347 58.7628 92.5908 58.4073 92.6609C58.0518 92.731 57.6845 92.7129 57.3377 92.6082C56.9908 92.5035 56.6748 92.3154 56.4174 92.0604V92.1247ZM86.2781 81.3729C85.8487 81.793 85.2718 82.0283 84.671 82.0283C84.0702 82.0283 83.4933 81.793 83.0638 81.3729L66.7513 64.9961C66.6224 64.7926 66.4493 64.6208 66.2449 64.4932C66.0406 64.3657 65.8101 64.2857 65.5707 64.2592C65.3313 64.2327 65.0889 64.2604 64.8616 64.3401C64.6343 64.4199 64.4279 64.5498 64.2575 64.7201C64.0872 64.8905 63.9573 65.097 63.8775 65.3243C63.7977 65.5516 63.7701 65.7939 63.7966 66.0333C63.823 66.2728 63.903 66.5032 64.0306 66.7076C64.1581 66.9119 64.33 67.085 64.5335 67.214L85.0567 87.8015C85.2683 88.0118 85.4356 88.2623 85.5488 88.5384C85.6619 88.8144 85.7187 89.1103 85.7156 89.4086C85.7215 89.7073 85.666 90.004 85.5527 90.2804C85.4393 90.5569 85.2705 90.8071 85.0567 91.0157C84.6388 91.427 84.076 91.6575 83.4897 91.6575C82.9034 91.6575 82.3406 91.427 81.9228 91.0157L61.3995 70.4122C61.0911 70.2166 60.7253 70.132 60.3623 70.1722C59.9994 70.2123 59.6609 70.3749 59.4027 70.6331C59.1444 70.8914 58.9819 71.2298 58.9417 71.5928C58.9015 71.9558 58.9862 72.3216 59.1817 72.63L75.4942 88.9265C75.9204 89.3527 76.1599 89.9308 76.1599 90.5336C76.1599 91.1364 75.9204 91.7145 75.4942 92.1407C75.0679 92.567 74.4898 92.8064 73.887 92.8064C73.2843 92.8064 72.7061 92.567 72.2799 92.1407L56.0478 75.764C55.7393 75.5684 55.3735 75.4838 55.0105 75.524C54.6476 75.5641 54.3091 75.7267 54.0509 75.9849C53.7926 76.2431 53.6301 76.5816 53.5899 76.9446C53.5497 77.3076 53.6344 77.6734 53.8299 77.9818L66.0442 90.1961C66.2552 90.4072 66.4227 90.6577 66.5369 90.9335C66.6511 91.2092 66.7099 91.5048 66.7099 91.8032C66.7099 92.1017 66.6511 92.3973 66.5369 92.673C66.4227 92.9488 66.2552 93.1993 66.0442 93.4104C65.8331 93.6214 65.5826 93.7889 65.3068 93.9031C65.0311 94.0173 64.7355 94.0761 64.437 94.0761C64.1386 94.0761 63.843 94.0173 63.5673 93.9031C63.2915 93.7889 63.041 93.6214 62.8299 93.4104L62.5406 93.1211C62.9794 92.3099 63.1991 91.3984 63.178 90.4764C63.1569 89.5544 62.8957 88.6538 62.4203 87.8635C61.9449 87.0733 61.2716 86.4207 60.4669 85.9701C59.6622 85.5196 58.7539 85.2866 57.8317 85.2943C57.8405 84.5913 57.7077 83.8937 57.4412 83.2431C57.1748 82.5925 56.7801 82.0022 56.2807 81.5074C55.7814 81.0125 55.1875 80.6232 54.5345 80.3626C53.8815 80.1021 53.1828 79.9756 52.4799 79.9907C52.5027 79.0608 52.2813 78.1412 51.8377 77.3235C51.3942 76.5059 50.7439 75.8189 49.952 75.331C49.16 74.8431 48.2539 74.5714 47.3241 74.5431C46.3943 74.5147 45.4734 74.7306 44.6531 75.1693C42.7436 73.2397 41.3795 70.8386 40.6996 68.2104C40.3334 66.808 39.5949 65.5308 38.5621 64.514L34.4638 60.4318L49.1853 45.7104L51.3067 47.8318C52.3106 48.8293 53.6155 49.4677 55.0192 49.6479L58.3299 50.0657L50.4228 57.9729C49.8306 58.5246 49.3557 59.19 49.0263 59.9293C48.6969 60.6686 48.5198 61.4666 48.5055 62.2758C48.4912 63.0851 48.6401 63.8889 48.9432 64.6393C49.2463 65.3897 49.6975 66.0714 50.2698 66.6437C50.8421 67.216 51.5238 67.6672 52.2742 67.9703C53.0247 68.2734 53.8285 68.4223 54.6377 68.408C55.4469 68.3937 56.245 68.2166 56.9842 67.8872C57.7235 67.5578 58.3889 67.0829 58.9406 66.4907L64.2603 61.1711C64.7369 60.7048 65.3121 60.3515 65.9436 60.1373C66.575 59.9231 67.2465 59.8535 67.9085 59.9336L86.1978 78.2229C86.4072 78.434 86.572 78.6851 86.6824 78.9612C86.7929 79.2372 86.8467 79.5327 86.8406 79.83C86.834 80.4081 86.6036 80.9612 86.1978 81.3729H86.2781ZM90.7138 68.8372C90.2636 71.1157 89.1446 73.2083 87.4995 74.8479L87.387 74.9604L74.9638 62.5693C76.5399 62.978 78.1576 63.2045 79.7853 63.2443C79.9935 63.2601 80.2028 63.2321 80.3996 63.162C80.5963 63.0919 80.7762 62.9814 80.9276 62.8376C81.0791 62.6937 81.1987 62.5197 81.2787 62.3268C81.3588 62.1339 81.3975 61.9263 81.3924 61.7175C81.3924 61.2913 81.2231 60.8825 80.9217 60.5811C80.6203 60.2797 80.2115 60.1104 79.7853 60.1104C76.7379 60.0285 73.7553 59.2125 71.0906 57.7318C69.6462 56.9182 67.9766 56.5959 66.3331 56.8133C64.6897 57.0307 63.1613 57.776 61.9781 58.9372L56.6585 64.2568C56.4071 64.5863 56.0879 64.8579 55.7225 65.0534C55.357 65.2488 54.9539 65.3634 54.5403 65.3894C54.1267 65.4155 53.7123 65.3524 53.3252 65.2043C52.9382 65.0563 52.5874 64.8269 52.2967 64.5315C52.006 64.2362 51.7822 63.8818 51.6403 63.4925C51.4985 63.1031 51.4419 62.6878 51.4745 62.2746C51.5072 61.8615 51.6281 61.4602 51.8293 61.0979C52.0305 60.7356 52.3072 60.4208 52.6406 60.1747L60.6763 52.139C61.8653 50.962 63.3066 50.071 64.891 49.5336C66.4754 48.9962 68.1613 48.8265 69.821 49.0372C71.7764 49.2774 73.7605 49.1055 75.6455 48.5326C77.5305 47.9596 79.2747 46.9982 80.7656 45.7104L95.5353 60.4318L94.7317 61.2193C92.6622 63.3007 91.2628 65.9538 90.7138 68.8372ZM104.744 57.5872L102.076 60.1747C101.926 60.3327 101.745 60.4586 101.545 60.5446C101.345 60.6306 101.129 60.6749 100.911 60.6749C100.693 60.6749 100.477 60.6306 100.277 60.5446C100.077 60.4586 99.8961 60.3327 99.746 60.1747L81.071 41.4836C80.9129 41.3335 80.7871 41.1527 80.7011 40.9524C80.6151 40.7521 80.5707 40.5364 80.5707 40.3184C80.5707 40.1004 80.6151 39.8847 80.7011 39.6844C80.7871 39.4841 80.9129 39.3034 81.071 39.1532L83.6906 36.5336C83.8408 36.3756 84.0215 36.2497 84.2218 36.1637C84.4221 36.0777 84.6378 36.0334 84.8558 36.0334C85.0738 36.0334 85.2895 36.0777 85.4898 36.1637C85.6901 36.2497 85.8708 36.3756 86.021 36.5336L104.696 55.3532C104.995 55.6544 105.163 56.0617 105.163 56.4863C105.163 56.9109 104.995 57.3182 104.696 57.6193L104.744 57.5872Z" fill="white"/>
</g>
<defs>
<clipPath id="clip0_127_8560">
<rect width="90" height="90" fill="white" transform="translate(20 20)"/>
</clipPath>
</defs>
</svg>
