<svg width="130" height="130" viewBox="0 0 130 130" fill="none" xmlns="http://www.w3.org/2000/svg">
<rect width="130" height="130" rx="30" fill="#1F2424"/>
<path d="M47.546 40.8428L42.2554 54.8218L59.4619 61.3476L64.7525 47.3686L47.546 40.8428Z" stroke="white" stroke-width="3.76" stroke-linecap="round" stroke-linejoin="round"/>
<path d="M42.2551 54.8228L41.1582 57.7215L40.8149 58.6295L40.6385 59.0979C40.2032 60.2459 40.7861 61.5436 41.9348 61.9794L54.9673 66.9226C56.1141 67.3564 57.4104 66.7748 57.8438 65.6249L58.0202 65.1565L58.3654 64.2485L59.4623 61.3497L42.2551 54.8228Z" stroke="white" stroke-width="3.76" stroke-linecap="round" stroke-linejoin="round"/>
<path d="M65.2038 40.2215L52.1694 35.2783C51.0226 34.8425 49.7282 35.4261 49.2929 36.576L49.1164 37.0444L48.7732 37.9524L47.6763 40.8512L64.7895 47.3378L65.8864 44.4371L66.2431 43.4965L66.4196 43.0281C66.8549 41.8782 66.3524 40.6573 65.2057 40.2215H65.2038Z" stroke="white" stroke-width="3.76" stroke-linecap="round" stroke-linejoin="round"/>
<path d="M63.0429 51.8799L98.8534 65.4003C100 65.8361 100.585 67.1319 100.15 68.2818L99.9024 68.9345C99.4671 70.0843 98.1726 70.6679 97.0259 70.2322L61.2153 56.7118L63.0429 51.8818V51.8799Z" stroke="white" stroke-width="3.76" stroke-linecap="round" stroke-linejoin="round"/>
<path d="M70.9914 76.5594V76.2984C70.9914 75.0698 69.9866 74.0638 68.7612 74.0638H36.7956C35.5683 74.0638 34.5653 75.0698 34.5653 76.2984V79.2297H32.6995C31.4721 79.2297 30.4673 80.2357 30.4673 81.4643V83.5299C30.4673 84.7585 31.4721 85.7644 32.6995 85.7644H69.0393C68.8859 85.0042 68.8053 84.2171 68.8053 83.4128C68.8053 80.8576 69.6165 78.4945 70.9934 76.5614L70.9914 76.5594Z" stroke="white" stroke-width="3.76" stroke-linecap="round" stroke-linejoin="round"/>
<path d="M80.6141 71.5854C76.6427 71.5854 73.1314 73.5493 70.9913 76.5574C69.6144 78.4906 68.8032 80.8537 68.8032 83.4088C68.8032 84.2151 68.8838 85.0002 69.0372 85.7604C70.1264 91.1644 74.8957 95.2322 80.6141 95.2322C87.138 95.2322 92.427 89.9377 92.427 83.4088C92.427 76.8799 87.138 71.5835 80.6141 71.5835V71.5854Z" stroke="white" stroke-width="3.76" stroke-linecap="round" stroke-linejoin="round"/>
<path d="M74.4819 83.5721L78.7353 87.8319L87.3572 79.2009" stroke="white" stroke-width="3.76" stroke-linecap="round" stroke-linejoin="round"/>
</svg>
