<svg width="130" height="130" viewBox="0 0 130 130" fill="none" xmlns="http://www.w3.org/2000/svg">
<rect width="130" height="130" rx="30" fill="#1F2424"/>
<g clip-path="url(#clip0_127_8614)">
<path d="M90.6657 41.0441C89.404 40.8398 87.6641 40.2982 85.3461 39.3887C82.9677 38.455 80.0445 37.1523 76.6586 35.5165C72.0506 33.2906 67.8339 31.0493 66.2349 30.1889C66.0236 30.0755 65.7848 30.0105 65.545 30.001C65.5164 30 65.4883 30 65.456 30.001C65.2151 30.0105 64.9763 30.076 64.7656 30.1895C63.1671 31.0493 58.952 33.2895 54.3419 35.517C50.9554 37.1528 48.0327 38.4555 45.6543 39.3893C43.3363 40.2993 41.5965 40.8408 40.3348 41.0446C39.5617 41.1697 39.0005 41.8274 39.0005 42.6081V69.7778C39.0005 73.3856 40.5089 77.0773 43.484 80.7506C45.6591 83.4362 48.6008 86.0987 52.2283 88.6645C57.7194 92.5495 63.2899 95.1554 64.8662 95.8617C65.0552 95.9467 65.2548 95.9926 65.4602 95.9994C65.473 95.9994 65.4851 96 65.5053 96H65.5407C65.7462 95.9926 65.9458 95.9461 66.1348 95.8617C67.7116 95.1554 73.2821 92.5489 78.7733 88.6645C82.4001 86.0987 85.3424 83.4362 87.5175 80.7506C90.4926 77.0773 92.001 73.3856 92.001 69.7778V42.6081C92.001 41.8274 91.4398 41.1697 90.6668 41.0446L90.6657 41.0441ZM88.8221 69.7772C88.8221 72.6777 87.5275 75.7313 84.9744 78.853C82.9926 81.2763 80.287 83.7075 76.9333 86.0802C72.2179 89.4162 67.3806 91.7909 65.5 92.6661C63.6193 91.7915 58.7836 89.4172 54.0666 86.0802C50.7129 83.7075 48.0078 81.2763 46.026 78.853C43.4729 75.7313 42.1784 72.6772 42.1784 69.7772V43.8912C43.4475 43.5724 44.966 43.0636 46.8187 42.3367C49.2712 41.374 52.2685 40.0385 55.7275 38.3674C59.8119 36.3943 63.5949 34.4075 65.5005 33.3919C67.4061 34.408 71.1902 36.3948 75.2735 38.3674C78.7304 40.0375 81.7277 41.3729 84.1823 42.3367C86.0344 43.0641 87.5529 43.5724 88.8226 43.8912V69.7772H88.8221Z" fill="white"/>
<path d="M74.3951 55.7983V49.8485C74.3951 44.9527 70.3997 40.9696 65.4888 40.9696C60.578 40.9696 56.5826 44.9522 56.5826 49.8474L56.5784 55.7909C54.919 56.2385 53.4201 57.2193 52.3394 58.5695C51.181 60.0174 50.5684 61.7614 50.5684 63.6125V71.5523C50.5684 76.019 54.2138 79.6532 58.6941 79.6532H72.2518C76.7321 79.6532 80.3776 76.019 80.3776 71.5523V63.6125C80.3776 61.7661 79.7681 60.0258 78.6149 58.5801C77.5401 57.2319 76.0475 56.2502 74.3945 55.7983H74.3951ZM59.7594 49.8485C59.7594 46.6988 62.3295 44.1367 65.4888 44.1367C68.6482 44.1367 71.2182 46.6988 71.2182 49.8485V55.5117H59.7557L59.7594 49.8485ZM77.2013 71.5523C77.2013 74.2729 74.9812 76.4861 72.2523 76.4861H58.6947C55.9658 76.4861 53.7457 74.2729 53.7457 71.5523V63.6125C53.7457 60.892 55.9658 58.6788 58.6947 58.6788H72.2523C74.9812 58.6788 77.2013 60.892 77.2013 63.6125V71.5523Z" fill="white"/>
<path d="M65.4998 60.843C63.2516 60.843 61.4229 62.6662 61.4229 64.9074C61.4229 66.53 62.4103 68.009 63.8997 68.6451L63.8589 71.4828C63.8526 71.9056 64.0125 72.3057 64.3079 72.6092C64.6039 72.9127 65 73.0832 65.4241 73.089H65.4479C66.3109 73.089 67.0236 72.3891 67.0358 71.5287L67.0771 68.6556C68.5797 68.0254 69.5772 66.5416 69.5772 64.9074C69.5772 62.6662 67.7484 60.843 65.5003 60.843H65.4998ZM65.4998 65.8047C65.0037 65.8047 64.5997 65.402 64.5997 64.9074C64.5997 64.4128 65.0037 64.0101 65.4998 64.0101C65.9959 64.0101 66.3999 64.4128 66.3999 64.9074C66.3999 65.402 65.9959 65.8047 65.4998 65.8047Z" fill="white"/>
</g>
<defs>
<clipPath id="clip0_127_8614">
<rect width="53" height="66" fill="white" transform="translate(39 30)"/>
</clipPath>
</defs>
</svg>
