<svg width="130" height="130" viewBox="0 0 130 130" fill="none" xmlns="http://www.w3.org/2000/svg">
<rect width="130" height="130" rx="30" fill="#1F2424"/>
<g clip-path="url(#clip0_127_8573)">
<path d="M65.0086 49.151C60.0441 49.151 55.9829 53.2122 55.9829 58.1767C55.9829 63.1411 60.0441 67.2023 65.0086 67.2023C69.973 67.2023 74.0343 63.1411 74.0343 58.1767C74.0343 53.2122 69.973 49.151 65.0086 49.151ZM65.0086 64.1929C61.6994 64.1929 58.9924 61.4859 58.9924 58.1767C58.9924 54.8675 61.6994 52.1604 65.0086 52.1604C68.3178 52.1604 71.0248 54.8675 71.0248 58.1767C71.0248 61.4859 68.3178 64.1929 65.0086 64.1929Z" fill="white"/>
<path d="M64.9994 71.2596C59.3956 71.2596 54.0187 73.5913 50.183 77.6897L49.167 78.7799L51.3475 80.8477L52.3634 79.7574C55.6726 76.2228 60.1477 74.2664 64.9994 74.2664C69.8511 74.2664 74.3261 76.2214 77.6353 79.7574L78.6513 80.8477L80.8318 78.7799L79.8158 77.6897C75.9801 73.6285 70.6031 71.2596 64.9994 71.2596Z" fill="white"/>
<path d="M65.0061 30C86.0165 29.9934 103.165 47.1773 102.999 68.3084C102.834 89.2007 85.6995 106.172 64.6745 105.999C43.7981 105.825 26.8171 88.6994 27.0015 67.6572C27.1845 46.8484 44.1775 29.9894 65.0061 30ZM100.726 67.7513C100.611 47.9214 84.1597 31.7707 64.0697 32.2813C44.513 32.7787 28.7774 49.1045 29.2814 68.9278C29.7775 88.462 46.0821 104.223 65.9293 103.716C85.3348 103.22 100.878 87.186 100.727 67.7513H100.726Z" fill="white" stroke="white"/>
<path d="M63.8643 39.6252C63.8643 39.5284 63.8643 39.4422 63.8643 39.356C63.8643 38.5429 63.8842 37.7286 63.859 36.9155C63.8338 36.0707 64.4505 35.6277 65.0063 35.633C65.6787 35.6396 66.1363 36.1516 66.1363 36.9036C66.1363 37.7246 66.1363 38.5456 66.1363 39.3666C66.1363 39.4462 66.1363 39.5258 66.1363 39.6239C73.4895 40.0284 79.8386 42.7421 85.0458 47.948C90.2503 53.1511 92.964 59.4923 93.3751 66.8627C93.4481 66.8627 93.5263 66.8627 93.6046 66.8627C94.4548 66.8627 95.3049 66.8627 96.1551 66.8627C96.8594 66.8627 97.3714 67.3495 97.3661 68.0087C97.3608 68.6586 96.8554 69.1347 96.1591 69.1361C95.3156 69.1387 94.4733 69.1361 93.6298 69.1361C93.5502 69.1361 93.4706 69.1361 93.3738 69.1361C92.9719 76.4945 90.253 82.8423 85.0471 88.0482C79.8452 93.2501 73.5027 95.9677 66.1363 96.3722C66.1363 96.4518 66.1363 96.5301 66.1363 96.6083C66.1363 97.481 66.1416 98.3524 66.135 99.2252C66.131 99.7942 65.7517 100.24 65.2026 100.345C64.6933 100.443 64.1627 100.17 63.9678 99.6814C63.9014 99.517 63.8723 99.326 63.8709 99.1469C63.8617 98.3047 63.867 97.4611 63.867 96.6176V96.3722C56.5005 95.9677 50.1527 93.2474 44.9469 88.0389C39.7477 82.8357 37.0327 76.4932 36.6281 69.1347C36.5406 69.1347 36.4623 69.1347 36.3828 69.1347C35.5326 69.1347 34.6824 69.1374 33.8322 69.1347C33.1399 69.1321 32.6359 68.6493 32.6372 67.9954C32.6372 67.3455 33.1465 66.8627 33.8375 66.8614C34.6877 66.8601 35.5379 66.8614 36.3881 66.8614C36.4663 66.8614 36.5459 66.8614 36.6268 66.8614C37.0353 59.5003 39.7477 53.1591 44.9482 47.9546C50.1514 42.7501 56.4912 40.0337 63.8643 39.6226V39.6252ZM63.8643 94.0976C63.8643 93.9795 63.8643 93.9013 63.8643 93.823C63.8643 93.1705 63.863 92.5179 63.8643 91.8654C63.867 91.1889 64.3471 90.6863 64.9904 90.6823C65.6442 90.6783 66.1323 91.1836 66.135 91.8707C66.1376 92.5232 66.135 93.1758 66.135 93.8283V94.1002C73.0345 93.6864 78.9248 91.0948 83.7208 86.1595C88.3099 81.4391 90.7132 75.7359 91.0965 69.1387C90.9771 69.1387 90.8989 69.1387 90.8206 69.1387C90.1681 69.1387 89.5155 69.1414 88.863 69.1387C88.1839 69.1347 87.6852 68.6546 87.6812 68.01C87.6759 67.3574 88.1812 66.8694 88.8696 66.8667C89.5221 66.8641 90.1747 66.8667 90.8273 66.8667C90.9055 66.8667 90.9824 66.8667 91.1005 66.8667C90.6814 59.9022 88.0459 53.9708 83.0324 49.1589C78.3306 44.6467 72.6698 42.2832 66.135 41.9065C66.135 42.0246 66.135 42.1028 66.135 42.1811C66.135 42.8336 66.1376 43.4862 66.135 44.1387C66.1323 44.8165 65.6522 45.3178 65.0089 45.3231C64.3564 45.3284 63.867 44.8218 63.8656 44.1334C63.863 43.4809 63.8656 42.8283 63.8656 42.1758C63.8656 42.0975 63.859 42.0193 63.8537 41.9052C57.1053 42.3031 51.3026 44.8072 46.5411 49.5767C41.7915 54.3342 39.298 60.1263 38.9028 66.8654C39.0222 66.8654 39.1004 66.8654 39.1787 66.8654C39.8312 66.8654 40.4838 66.8587 41.135 66.8707C41.3074 66.8733 41.4891 66.9052 41.647 66.9702C42.1377 67.1731 42.4056 67.7116 42.2982 68.2342C42.1921 68.7514 41.7451 69.1294 41.1973 69.1374C40.5236 69.148 39.8485 69.14 39.1747 69.14C39.0964 69.14 39.0182 69.14 38.9015 69.14C39.314 76.029 41.9003 81.9139 46.8263 86.7086C51.5507 91.307 57.2579 93.7143 63.8656 94.0989L63.8643 94.0976Z" fill="white" stroke="white"/>
</g>
<defs>
<clipPath id="clip0_127_8573">
<rect width="90" height="90" fill="white" transform="translate(20 20)"/>
</clipPath>
</defs>
</svg>
