<svg width="130" height="130" viewBox="0 0 130 130" fill="none" xmlns="http://www.w3.org/2000/svg">
<rect width="130" height="130" rx="30" fill="#1F2424"/>
<path d="M104.698 83.4894C104.459 83.5924 104.205 83.6877 103.953 83.7804L93.2795 57.254L95.575 57.0847L95.5711 55.4512L92.4347 55.2308L92.2555 55.0867C92.1593 55.0134 92.0558 54.9589 91.9411 54.9269L91.525 54.8404C91.3781 54.8404 91.2365 54.8699 91.1534 54.904L90.9139 54.9142L90.7571 55.1035L67.9381 53.4544L67.9438 53.0376C67.9438 49.8116 67.7318 39.2852 65.0024 39.2852C62.2669 39.2852 62.053 49.8116 62.053 53.0376L62.0597 53.4864L39.27 55.1381L39.2096 55.087C39.1124 55.01 39.0063 54.9594 38.8927 54.9272L38.4759 54.8407C38.3545 54.8407 38.2347 54.8639 38.1208 54.9044L37.8846 54.9146L37.6441 55.1833L34.8706 55.452L34.8677 57.0855L36.734 57.2262L26.0483 83.7809C25.7953 83.6884 25.5434 83.593 25.302 83.4899L23.2148 82.5742L24.2423 84.6075C26.3754 88.843 32.099 91.6854 38.4761 91.6854C44.8496 91.6854 50.5731 88.8429 52.7149 84.6103L53.7462 82.5737L51.6551 83.4861C51.4117 83.5926 51.1628 83.6879 50.9077 83.7808L40.3295 57.4881L62.3003 59.0823C62.9563 66.7919 64.4312 66.7919 65.0025 66.7919C65.566 66.7919 67.0407 66.7919 67.6936 59.1174L89.6618 57.5202L79.0977 83.7808C78.8393 83.688 78.5853 83.5927 78.346 83.4861L76.2576 82.5737L77.2861 84.6103C79.4277 88.8427 85.1486 91.6854 91.525 91.6854C97.9053 91.6854 103.626 88.8427 105.76 84.6075L106.786 82.574L104.698 83.4894ZM48.5246 84.6287C42.1542 86.6201 34.7994 86.6201 28.4301 84.6287L38.4758 59.6586L48.5246 84.6287ZM81.4759 84.6287L91.5247 59.6586L101.57 84.6287C95.2028 86.6201 87.8438 86.6201 81.4759 84.6287Z" fill="white"/>
</svg>
