<svg width="130" height="130" viewBox="0 0 130 130" fill="none" xmlns="http://www.w3.org/2000/svg">
<rect width="130" height="130" rx="30" fill="#1F2424"/>
<path d="M98.68 103.463H28.9528L53.7499 78.6328L64.6217 89.5046C64.7847 89.6653 64.9788 89.7909 65.1921 89.8737C65.6006 90.0415 66.0588 90.0415 66.4672 89.8737C66.6806 89.7909 66.8747 89.6653 67.0377 89.5046L96.2976 60.1776V71.0158C96.2976 71.4608 96.4744 71.8876 96.789 72.2022C97.1036 72.5168 97.5304 72.6936 97.9753 72.6936C98.4203 72.6936 98.847 72.5168 99.1617 72.2022C99.4763 71.8876 99.6531 71.4608 99.6531 71.0158V56.1174C99.6531 55.6725 99.4763 55.2457 99.1617 54.9311C98.847 54.6165 98.4203 54.4397 97.9753 54.4397H83.1105C82.6655 54.4397 82.2388 54.6165 81.9241 54.9311C81.6095 55.2457 81.4327 55.6725 81.4327 56.1174C81.4327 56.5624 81.6095 56.9892 81.9241 57.3038C82.2388 57.6184 82.6655 57.7952 83.1105 57.7952H93.9487L65.7961 85.9478L54.9243 75.076C54.7683 74.9187 54.5828 74.7939 54.3783 74.7088C54.1739 74.6236 53.9546 74.5797 53.7331 74.5797C53.5116 74.5797 53.2923 74.6236 53.0879 74.7088C52.8834 74.7939 52.6979 74.9187 52.5419 75.076L26.5704 101.081V31.3203C26.5704 30.8754 26.3936 30.4486 26.079 30.134C25.7643 29.8193 25.3376 29.6426 24.8926 29.6426C24.4477 29.6426 24.0209 29.8193 23.7063 30.134C23.3916 30.4486 23.2149 30.8754 23.2149 31.3203V105.141C23.2122 105.579 23.3808 106 23.6846 106.316C23.8416 106.459 24.0236 106.573 24.2215 106.651C24.4315 106.752 24.6598 106.809 24.8926 106.819H98.7135C99.1585 106.819 99.5853 106.642 99.8999 106.328C100.215 106.013 100.391 105.586 100.391 105.141C100.391 104.696 100.215 104.27 99.8999 103.955C99.5853 103.64 99.1585 103.463 98.7135 103.463H98.68Z" fill="white"/>
</svg>
