<svg width="130" height="130" viewBox="0 0 130 130" fill="none" xmlns="http://www.w3.org/2000/svg">
<rect width="130" height="130" rx="20" fill="#1F2424"/>
<path d="M76.25 27.5V32.75C76.25 34.8502 76.25 35.9003 75.8413 36.7025C75.4817 37.4081 74.9081 37.9817 74.2025 38.3413C73.4003 38.75 72.3502 38.75 70.25 38.75H59.75C57.6498 38.75 56.5997 38.75 55.7975 38.3413C55.0919 37.9817 54.5183 37.4081 54.1587 36.7025C53.75 35.9003 53.75 34.8502 53.75 32.75V27.5M50.75 102.5H79.25C83.4504 102.5 85.5506 102.5 87.1549 101.683C88.5661 100.963 89.7135 99.8161 90.4325 98.4049C91.25 96.8006 91.25 94.7004 91.25 90.5V39.5C91.25 35.2996 91.25 33.1994 90.4325 31.5951C89.7135 30.1839 88.5661 29.0365 87.1549 28.3175C85.5506 27.5 83.4504 27.5 79.25 27.5H50.75C46.5496 27.5 44.4494 27.5 42.8451 28.3175C41.4339 29.0365 40.2865 30.1839 39.5675 31.5951C38.75 33.1994 38.75 35.2996 38.75 39.5V90.5C38.75 94.7004 38.75 96.8006 39.5675 98.4049C40.2865 99.8161 41.4339 100.963 42.8451 101.683C44.4494 102.5 46.5496 102.5 50.75 102.5Z" stroke="white" stroke-width="4" stroke-linecap="round" stroke-linejoin="round"/>
<path d="M58.792 58.7818C58.792 57.8511 58.792 57.3857 58.986 57.1292C59.1551 56.9057 59.4135 56.7675 59.6932 56.7508C60.0143 56.7316 60.4015 56.9897 61.1759 57.506L71.2533 64.2242C71.8931 64.6508 72.2131 64.8641 72.3246 65.1329C72.422 65.368 72.422 65.6321 72.3246 65.8672C72.2131 66.136 71.8931 66.3493 71.2533 66.7759L61.1759 73.4941C60.4015 74.0104 60.0143 74.2685 59.6932 74.2494C59.4135 74.2327 59.1551 74.0944 58.986 73.8709C58.792 73.6144 58.792 73.149 58.792 72.2183V58.7818Z" stroke="white" stroke-width="2.5" stroke-linecap="round" stroke-linejoin="round"/>
</svg>
