<svg width="150" height="40" viewBox="0 0 102 26" fill="none" xmlns="http://www.w3.org/2000/svg">
    <path d="M33.2577 3.45436C33.2577 4.09931 33.0825 4.66364 32.6443 5.06673C32.1186 5.55044 31.5052 5.7923 30.7165 5.7923C29.9278 5.7923 29.3144 5.55044 28.7887 5.06673C28.2629 4.58302 28 4.01869 28 3.29312C28 2.56755 28.2629 2.00322 28.7887 1.51951C29.3144 1.0358 29.9278 0.793945 30.7165 0.793945C31.067 0.793945 31.4175 0.874564 31.768 1.0358C32.1186 1.19704 32.3814 1.35828 32.5567 1.60013L32.1186 2.00322C31.768 1.60013 31.3299 1.43889 30.7165 1.43889C30.1907 1.43889 29.6649 1.60013 29.3144 2.00322C28.8763 2.3257 28.701 2.80941 28.701 3.37374C28.701 3.93807 28.8763 4.42178 29.3144 4.74426C29.7526 5.06673 30.1907 5.30859 30.7165 5.30859C31.3299 5.30859 31.768 5.14735 32.2062 4.74426C32.4691 4.5024 32.6443 4.17993 32.6443 3.77683H30.7165V3.13188H33.2577V3.45436ZM37.2887 1.43889H34.9227V2.97065H37.1134V3.53498H34.9227V5.06673H37.2887V5.71168H34.2216V0.874564H37.2887V1.43889ZM40.1804 5.71168H39.4794V1.43889H37.9897V0.874564H41.6701V1.43889H40.1804V5.71168ZM44.2113 5.71168V0.874564H44.9124V5.71168H44.2113ZM47.8918 5.71168H47.1907V1.43889H45.701V0.874564H49.2938V1.43889H47.8041V5.71168H47.8918ZM56.2165 5.06673C55.6907 5.55044 55.0773 5.7923 54.2887 5.7923C53.5 5.7923 52.8866 5.55044 52.3608 5.06673C51.8351 4.58302 51.5722 4.01869 51.5722 3.29312C51.5722 2.56755 51.8351 2.00322 52.3608 1.51951C52.8866 1.0358 53.5 0.793945 54.2887 0.793945C55.0773 0.793945 55.6907 1.0358 56.2165 1.51951C56.7423 2.00322 57.0052 2.56755 57.0052 3.29312C57.0052 4.01869 56.7423 4.58302 56.2165 5.06673ZM52.8866 4.66364C53.2371 4.98611 53.7629 5.22797 54.2887 5.22797C54.8144 5.22797 55.3402 5.06673 55.6907 4.66364C56.0412 4.34116 56.3041 3.85745 56.3041 3.29312C56.3041 2.72879 56.1289 2.24508 55.6907 1.92261C55.3402 1.60013 54.8144 1.35828 54.2887 1.35828C53.7629 1.35828 53.2371 1.51951 52.8866 1.92261C52.5361 2.24508 52.2732 2.72879 52.2732 3.29312C52.2732 3.85745 52.4485 4.34116 52.8866 4.66364ZM57.9691 5.71168V0.874564H58.7577L61.299 4.66364V0.874564H62V5.71168H61.299L58.5825 1.76137V5.71168H57.9691Z" fill="#000000"></path>
    <path d="M50.9362 13.9612C48.8085 13.9612 47.1241 15.5583 47.1241 17.7765C47.1241 19.906 48.8085 21.5919 50.9362 21.5919C53.0638 21.5919 54.7482 19.9948 54.7482 17.7765C54.7482 15.4696 53.0638 13.9612 50.9362 13.9612ZM50.9362 19.9948C49.7837 19.9948 48.8085 19.0187 48.8085 17.6878C48.8085 16.3569 49.7837 15.3809 50.9362 15.3809C52.0887 15.3809 53.0638 16.2682 53.0638 17.6878C53.0638 19.0187 52.0887 19.9948 50.9362 19.9948ZM42.6915 13.9612C40.5638 13.9612 38.8794 15.5583 38.8794 17.7765C38.8794 19.906 40.5638 21.5919 42.6915 21.5919C44.8191 21.5919 46.5035 19.9948 46.5035 17.7765C46.5035 15.4696 44.8191 13.9612 42.6915 13.9612ZM42.6915 19.9948C41.539 19.9948 40.5638 19.0187 40.5638 17.6878C40.5638 16.3569 41.539 15.3809 42.6915 15.3809C43.844 15.3809 44.8192 16.2682 44.8192 17.6878C44.8192 19.0187 43.844 19.9948 42.6915 19.9948ZM32.8511 15.1147V16.7118H36.6631C36.5745 17.5991 36.2199 18.3089 35.7766 18.7526C35.2447 19.2849 34.3582 19.906 32.8511 19.906C30.4574 19.906 28.6844 18.0427 28.6844 15.6471C28.6844 13.2514 30.5461 11.3881 32.8511 11.3881C34.0922 11.3881 35.0674 11.9205 35.7766 12.5416L36.9291 11.3881C35.9539 10.5008 34.7128 9.79102 32.9397 9.79102C29.7482 9.79102 27 12.4529 27 15.6471C27 18.8413 29.7482 21.5031 32.9397 21.5031C34.7128 21.5031 35.9539 20.9708 37.0177 19.8173C38.0816 18.7526 38.4362 17.2442 38.4362 16.0907C38.4362 15.7358 38.4362 15.3809 38.3475 15.1147H32.8511ZM73.0993 16.3569C72.7447 15.4696 71.8582 13.9612 69.9078 13.9612C67.9574 13.9612 66.3617 15.4696 66.3617 17.7765C66.3617 19.906 67.9574 21.5919 70.0851 21.5919C71.7695 21.5919 72.8333 20.5271 73.1879 19.906L71.9468 19.0187C71.5036 19.6398 70.9716 20.0835 70.0851 20.0835C69.1986 20.0835 68.6667 19.7286 68.2234 18.93L73.2766 16.8005L73.0993 16.3569ZM67.9575 17.5991C67.9575 16.1794 69.1099 15.3809 69.9078 15.3809C70.5284 15.3809 71.1489 15.7358 71.3262 16.1794L67.9575 17.5991ZM63.7908 21.2369H65.4752V10.1459H63.7908V21.2369ZM61.1312 14.7598C60.6879 14.3162 59.9787 13.8725 59.0922 13.8725C57.2305 13.8725 55.4574 15.5583 55.4574 17.6878C55.4574 19.8173 57.1419 21.4144 59.0922 21.4144C59.9787 21.4144 60.6879 20.9708 61.0426 20.5271H61.1312V21.0595C61.1312 22.4791 60.3333 23.2777 59.0922 23.2777C58.117 23.2777 57.4078 22.5679 57.2305 21.9468L55.8121 22.5679C56.2553 23.5439 57.3192 24.7861 59.1809 24.7861C61.1312 24.7861 62.727 23.6326 62.727 20.882V14.1387H61.1312V14.7598ZM59.1809 19.9948C58.0284 19.9948 57.0532 19.0187 57.0532 17.6878C57.0532 16.3569 58.0284 15.3809 59.1809 15.3809C60.3333 15.3809 61.2199 16.3569 61.2199 17.6878C61.2199 19.0187 60.3333 19.9948 59.1809 19.9948ZM80.8121 10.1459H76.8227V21.2369H78.5071V17.0667H80.8121C82.6738 17.0667 84.4468 15.7358 84.4468 13.6063C84.4468 11.4768 82.6738 10.1459 80.8121 10.1459ZM80.9007 15.4696H78.5071V11.6543H80.9007C82.1418 11.6543 82.8511 12.719 82.8511 13.5176C82.7624 14.4936 82.0532 15.4696 80.9007 15.4696ZM91.0957 13.8725C89.8546 13.8725 88.6135 14.4049 88.1702 15.5583L89.6773 16.1794C90.0319 15.5583 90.5638 15.3809 91.1844 15.3809C92.0709 15.3809 92.8688 15.9133 92.9575 16.8005V16.8893C92.6915 16.7118 91.9823 16.4456 91.273 16.4456C89.6773 16.4456 88.0816 17.3329 88.0816 18.93C88.0816 20.4384 89.4113 21.4144 90.8298 21.4144C91.9823 21.4144 92.5142 20.882 92.9575 20.3497H93.0461V21.2369H94.6418V16.978C94.4645 15.026 92.9575 13.8725 91.0957 13.8725ZM90.9184 19.9948C90.3865 19.9948 89.5887 19.7286 89.5887 19.0187C89.5887 18.1315 90.5638 17.8653 91.3617 17.8653C92.0709 17.8653 92.4255 18.0427 92.8688 18.2202C92.6915 19.2849 91.805 19.9948 90.9184 19.9948ZM100.227 14.1387L98.3652 18.93H98.2766L96.3262 14.1387H94.5532L97.4787 20.882L95.7943 24.6086H97.4787L102 14.1387H100.227ZM85.3333 21.2369H87.0177V10.1459H85.3333V21.2369Z" fill="#000000"></path>
    <path d="M0.351834 3.41153C0.0879581 3.67532 0 4.11496 0 4.64254V24.0749C0 24.6025 0.175917 25.0421 0.439792 25.3059L0.527751 25.3938L11.4346 14.4906V14.3148L0.351834 3.41153Z" fill="url(#paint0_linear_1_2816)"></path>
    <path d="M14.953 18.1831L11.3467 14.578V14.3142L14.953 10.7091L15.0409 10.797L19.3509 13.2591C20.5823 13.9625 20.5823 15.1056 19.3509 15.809L14.953 18.1831V18.1831Z" fill="url(#paint1_linear_1_2816)"></path>
    <path d="M15.0406 18.0949L11.3464 14.4019L0.351562 25.393C0.791355 25.8327 1.40706 25.8327 2.19869 25.481L15.0406 18.0949" fill="url(#paint2_linear_1_2816)"></path>
    <path d="M15.0406 10.7094L2.19869 3.41124C1.40706 2.97159 0.791355 3.05952 0.351562 3.49917L11.3464 14.4024L15.0406 10.7094V10.7094Z" fill="url(#paint3_linear_1_2816)"></path>
    <path opacity="0.2" d="M14.9527 18.0071L2.19869 25.2173C1.49502 25.6569 0.879314 25.569 0.439521 25.2173L0.351562 25.3052L0.439521 25.3931C0.879314 25.7448 1.49502 25.8328 2.19869 25.3931L14.9527 18.0071Z" fill="#000000"></path>
    <path opacity="0.2" d="M0.351834 25.2172C0.0879581 24.9534 0 24.5137 0 23.9862V24.0741C0 24.6017 0.175917 25.0413 0.439792 25.3051V25.2172H0.351834ZM19.3509 15.5449L14.9529 18.007L15.0409 18.0949L19.3509 15.6329C19.9666 15.2812 20.2305 14.8415 20.2305 14.4019C20.2305 14.8415 19.8786 15.1932 19.3509 15.5449V15.5449Z" fill="#000000"></path>
    <path opacity="0.2" d="M2.19896 1.49935L19.3509 11.2595C19.8786 11.6112 20.2305 11.9629 20.2305 12.4025C20.2305 11.9629 19.9666 11.5232 19.3509 11.1715L2.19896 1.41142C0.967543 0.707987 0 1.23556 0 2.64242V2.73035C0 1.41142 0.967543 0.795915 2.19896 1.49935Z" fill="#000000"></path>
    <defs>
        <linearGradient id="paint0_linear_1_2816" x1="10.3791" y1="4.47547" x2="-4.37806" y2="19.2367" gradientUnits="userSpaceOnUse">
            <stop stop-color="#00A0FF"></stop>
            <stop offset="0.007" stop-color="#00A1FF"></stop>
            <stop offset="0.26" stop-color="#00BEFF"></stop>
            <stop offset="0.512" stop-color="#00D2FF"></stop>
            <stop offset="0.76" stop-color="#00DFFF"></stop>
            <stop offset="1" stop-color="#00E3FF"></stop>
        </linearGradient>
        <linearGradient id="paint1_linear_1_2816" x1="20.9641" y1="14.403" x2="-0.319246" y2="14.403" gradientUnits="userSpaceOnUse">
            <stop stop-color="#FFE000"></stop>
            <stop offset="0.409" stop-color="#FFBD00"></stop>
            <stop offset="0.775" stop-color="#FFA500"></stop>
            <stop offset="1" stop-color="#FF9C00"></stop>
        </linearGradient>
        <linearGradient id="paint2_linear_1_2816" x1="13.0413" y1="16.4207" x2="-6.96964" y2="36.4383" gradientUnits="userSpaceOnUse">
            <stop stop-color="#FF3A44"></stop>
            <stop offset="1" stop-color="#C31162"></stop>
        </linearGradient>
        <linearGradient id="paint3_linear_1_2816" x1="-2.37779" y1="-3.02871" x2="6.55847" y2="5.91052" gradientUnits="userSpaceOnUse">
            <stop stop-color="#32A071"></stop>
            <stop offset="0.069" stop-color="#2DA771"></stop>
            <stop offset="0.476" stop-color="#15CF74"></stop>
            <stop offset="0.801" stop-color="#06E775"></stop>
            <stop offset="1" stop-color="#00F076"></stop>
        </linearGradient>
    </defs>
</svg>