<svg width="130" height="130" viewBox="0 0 130 130" fill="none" xmlns="http://www.w3.org/2000/svg">
<rect width="130" height="130" rx="30" fill="#1F2424"/>
<path d="M64.9994 51.7422C57.0441 51.7422 50.5352 58.2511 50.5352 66.2065C50.5352 74.1618 57.0441 80.6708 64.9994 80.6708C72.9548 80.6708 79.4637 74.1618 79.4637 66.2065C79.4637 58.2511 72.9548 51.7422 64.9994 51.7422ZM64.9994 75.8493C59.6959 75.8493 55.3566 71.51 55.3566 66.2065C55.3566 60.9029 59.6959 56.5636 64.9994 56.5636C70.303 56.5636 74.6423 60.9029 74.6423 66.2065C74.6423 71.51 70.303 75.8493 64.9994 75.8493Z" fill="white"/>
<path d="M64.986 87.1738C56.0061 87.1738 47.3878 90.9104 41.2405 97.4796L39.6133 99.2274L43.1088 102.542L44.736 100.794C50.0396 95.1292 57.2115 91.9953 64.986 91.9953C72.7606 91.9953 79.9325 95.1292 85.236 100.794L86.8633 102.542L90.3588 99.2274L88.7316 97.4796C82.5843 90.9707 73.966 87.1738 64.986 87.1738Z" fill="white"/>
<path d="M84.8906 55.2949V60.1164C90.5558 60.1164 95.7991 62.4065 99.7165 66.565L103.212 63.2503C98.5112 58.1878 91.8214 55.2949 84.8906 55.2949Z" fill="white"/>
<path d="M96.3856 38.4799C96.3856 32.1518 91.2026 26.9688 84.8744 26.9688C78.5463 26.9688 73.3633 32.1518 73.3633 38.4799C73.3633 44.808 78.5463 49.9911 84.8744 49.9911C91.2026 49.9911 96.3856 44.808 96.3856 38.4799ZM78.1847 38.4799C78.1847 34.8036 81.1981 31.7902 84.8744 31.7902C88.5508 31.7902 91.5642 34.8036 91.5642 38.4799C91.5642 42.1562 88.5508 45.1696 84.8744 45.1696C81.1981 45.1696 78.1847 42.1562 78.1847 38.4799Z" fill="white"/>
<path d="M45.1027 55.2949C38.1719 55.2949 31.4821 58.1878 26.7812 63.2503L30.2768 66.565C34.1339 62.4065 39.4375 60.1164 45.1027 60.1164V55.2949Z" fill="white"/>
<path d="M56.6083 38.4799C56.6083 32.1518 51.4252 26.9688 45.0971 26.9688C38.769 26.9688 33.5859 32.1518 33.5859 38.4799C33.5859 44.808 38.769 49.9911 45.0971 49.9911C51.4252 49.9911 56.6083 44.808 56.6083 38.4799ZM45.0971 45.1696C41.4208 45.1696 38.4074 42.1562 38.4074 38.4799C38.4074 34.8036 41.4208 31.7902 45.0971 31.7902C48.7734 31.7902 51.7868 34.8036 51.7868 38.4799C51.7868 42.1562 48.7734 45.1696 45.0971 45.1696Z" fill="white"/>
</svg>
