<svg width="24" height="24" viewBox="0 0 24 24" fill="none" xmlns="http://www.w3.org/2000/svg">
<g clip-path="url(#clip0_518_1864)">
<path d="M23.6719 12.0471C23.6719 13.7252 23.6766 15.4033 23.6719 17.0861C23.6625 19.5236 22.5281 21.3283 20.5031 22.6033C19.3172 23.3439 18 23.6721 16.6031 23.6721C13.5469 23.6721 10.4953 23.6861 7.43906 23.6674C5.31562 23.6533 3.4875 22.9033 2.03906 21.3283C1.14375 20.3533 0.609371 19.2049 0.454683 17.8783C0.421871 17.5971 0.417183 17.3205 0.417183 17.0392C0.417183 13.6971 0.412496 10.3549 0.417183 7.01268C0.431246 4.57049 1.56562 2.7658 3.59062 1.4908C4.78593 0.745492 6.10781 0.422055 7.51406 0.422055C10.5609 0.422055 13.6078 0.407992 16.6547 0.426742C18.7875 0.440805 20.6203 1.19549 22.0687 2.77987C22.9547 3.75018 23.4844 4.89862 23.6344 6.21112C23.6953 6.72674 23.6672 7.24237 23.6719 7.7533C23.6766 9.18768 23.6719 10.6174 23.6719 12.0471ZM2.15625 12.0471C2.15625 13.7674 2.15156 15.483 2.15625 17.2033C2.16093 18.3846 2.59218 19.4017 3.39843 20.2455C4.48125 21.3752 5.83125 21.9236 7.38281 21.933C10.4625 21.9517 13.5375 21.9377 16.6172 21.9377C17.6109 21.9377 18.5578 21.7221 19.4203 21.2252C21.0328 20.3017 21.9422 18.9424 21.9422 17.0392C21.9422 13.6549 21.9422 10.2752 21.9422 6.89081C21.9422 5.71893 21.5156 4.70643 20.7141 3.86737C19.6406 2.73299 18.2859 2.17518 16.7391 2.1658C13.6266 2.14237 10.5187 2.15643 7.40625 2.15643C6.43593 2.15643 5.51718 2.38612 4.67343 2.86424C3.06562 3.79237 2.15156 5.15174 2.15625 7.05487C2.15625 8.71893 2.15625 10.383 2.15625 12.0471Z" fill="#727272"/>
<path d="M12.0609 17.0156C9.03282 17.0156 6.60469 14.5969 6.60938 11.5781C6.61407 8.63907 9.07501 6.22969 12.0797 6.23438C15.0984 6.23438 17.5359 8.65782 17.5313 11.6484C17.5266 14.6109 15.075 17.0156 12.0609 17.0156ZM12.0609 15.2813C14.1188 15.2813 15.7969 13.6453 15.7969 11.6344C15.7969 9.61407 14.1328 7.96876 12.0797 7.96876C10.0219 7.96876 8.34376 9.60469 8.34376 11.6156C8.34376 13.6359 10.0078 15.2813 12.0609 15.2813Z" fill="#727272"/>
<path d="M17.0156 5.79375C17.0156 5.12812 17.5266 4.59375 18.1641 4.59375C18.8016 4.59375 19.3125 5.13281 19.3125 5.79375C19.3125 6.44531 18.8016 6.97969 18.1734 6.98438C17.5359 6.98906 17.0156 6.45937 17.0156 5.79375Z" fill="#727272"/>
</g>
<defs>
<clipPath id="clip0_518_1864">
<rect width="24" height="24" fill="white"/>
</clipPath>
</defs>
</svg>
