<svg width="130" height="130" viewBox="0 0 130 130" fill="none" xmlns="http://www.w3.org/2000/svg">
<rect width="130" height="130" rx="30" fill="#1F2424"/>
<path d="M106.957 90.8786L102.756 73.0378C102.668 72.6515 102.448 72.3065 102.134 72.0598C101.819 71.8132 101.429 71.6797 101.027 71.6815H93.4026L89.5199 55.1971C89.4314 54.8107 89.2118 54.4657 88.8973 54.2191C88.5828 53.9724 88.1922 53.839 87.7903 53.8408H80.1661L76.2833 37.3563C76.1963 36.9758 75.9819 36.6351 75.6746 36.3891C75.3673 36.1431 74.985 36.0061 74.5891 36H56.4815C56.0796 35.9982 55.689 36.1317 55.3745 36.3783C55.06 36.625 54.8404 36.97 54.752 37.3563L50.8692 53.8408H43.245C42.8431 53.839 42.4525 53.9724 42.138 54.2191C41.8235 54.4657 41.6039 54.8107 41.5154 55.1971L37.6327 71.6815H30.0085C29.6065 71.6797 29.216 71.8132 28.9015 72.0598C28.587 72.3065 28.3674 72.6515 28.2789 73.0378L24.0432 90.8786C23.9848 91.1337 23.9856 91.3985 24.0455 91.6533C24.1053 91.908 24.2227 92.1462 24.3889 92.3501C24.5552 92.554 24.7659 92.7183 25.0055 92.8308C25.2451 92.9433 25.5074 93.0012 25.7728 93H105.227C105.493 93.0012 105.755 92.9433 105.994 92.8308C106.234 92.7183 106.445 92.554 106.611 92.3501C106.777 92.1462 106.895 91.908 106.955 91.6533C107.014 91.3985 107.015 91.1337 106.957 90.8786ZM89.7669 71.6815H67.7414L71.2711 57.3185H86.5549L89.7669 71.6815ZM78.7542 83.5406L76.7775 75.1592H80.6955L78.7542 83.5406ZM65.5177 65.6998L63.541 57.3185H67.459L65.5177 65.6998ZM57.8581 39.4777H73.1419L76.6716 53.8408H54.5049L57.8581 39.4777ZM44.6216 57.3185H59.9054L63.4351 71.6815H41.2684L44.6216 57.3185ZM52.2811 83.5406L50.3045 75.1592H54.2578L52.2811 83.5406ZM28.0318 89.5223L31.5616 75.1592H46.7042L50.2339 89.5223H28.0318ZM54.5049 89.5223L58.0346 75.1592H73.3184L76.8481 89.5223H54.5049ZM80.9779 89.5223L84.5076 75.1592H99.7914L103.321 89.5223H80.9779Z" fill="white"/>
</svg>
