<svg width="130" height="130" viewBox="0 0 130 130" fill="none" xmlns="http://www.w3.org/2000/svg">
<rect width="130" height="130" rx="20" fill="#1F2424"/>
<path d="M57.5003 68.7499C59.1107 70.9029 61.1653 72.6843 63.5248 73.9734C65.8843 75.2625 68.4934 76.0291 71.1752 76.2211C73.857 76.4132 76.5487 76.0262 79.0678 75.0866C81.5869 74.1469 83.8744 72.6764 85.7753 70.7749L97.0253 59.5249C100.441 55.9886 102.331 51.2523 102.288 46.3361C102.245 41.4199 100.273 36.7172 96.7969 33.2408C93.3205 29.7644 88.6177 27.7925 83.7015 27.7497C78.7853 27.707 74.0491 29.5969 70.5128 33.0124L64.0628 39.4249M72.5003 61.2499C70.8898 59.0969 68.8352 57.3154 66.4757 56.0263C64.1162 54.7373 61.5071 53.9707 58.8253 53.7786C56.1435 53.5866 53.4518 53.9735 50.9327 54.9132C48.4136 55.8529 46.1261 57.3234 44.2253 59.2249L32.9753 70.4749C29.5598 74.0112 27.6699 78.7475 27.7126 83.6636C27.7553 88.5798 29.7273 93.2826 33.2037 96.759C36.6801 100.235 41.3828 102.207 46.299 102.25C51.2152 102.293 55.9515 100.403 59.4878 96.9874L65.9003 90.5749" stroke="white" stroke-width="4" stroke-linecap="round" stroke-linejoin="round"/>
</svg>
