<svg width="130" height="130" viewBox="0 0 130 130" fill="none" xmlns="http://www.w3.org/2000/svg">
<rect width="130" height="130" rx="20" fill="#1F2424"/>
<path d="M62 50L77 65M77 65L62 80M77 65H28.25" stroke="white" stroke-width="4" stroke-linecap="round" stroke-linejoin="round"/>
<path d="M83.25 27.5V32.75C83.25 34.8502 83.25 35.9003 82.8413 36.7025C82.4817 37.4081 81.9081 37.9817 81.2025 38.3413C80.4003 38.75 79.3502 38.75 77.25 38.75H66.75C64.6498 38.75 63.5997 38.75 62.7975 38.3413C62.0919 37.9817 61.5183 37.4081 61.1587 36.7025C60.75 35.9003 60.75 34.8502 60.75 32.75V27.5M45.75 90.5C45.75 94.7004 45.75 96.8006 46.5675 98.4049C47.2865 99.8161 48.4339 100.963 49.8451 101.683C51.4494 102.5 53.5496 102.5 57.75 102.5H86.25C90.4504 102.5 92.5506 102.5 94.1549 101.683C95.5661 100.963 96.7135 99.8161 97.4325 98.4049C98.25 96.8006 98.25 94.7004 98.25 90.5V39.5C98.25 35.2996 98.25 33.1994 97.4325 31.5951C96.7135 30.1839 95.5661 29.0365 94.1549 28.3175C92.5506 27.5 90.4504 27.5 86.25 27.5H57.75C53.5496 27.5 51.4494 27.5 49.8451 28.3175C48.4339 29.0365 47.2865 30.1839 46.5675 31.5951C45.75 33.1994 45.75 35.2996 45.75 39.5" stroke="white" stroke-width="4" stroke-linecap="round" stroke-linejoin="round"/>
</svg>
