<svg width="78" height="78" viewBox="0 0 78 78" fill="none" xmlns="http://www.w3.org/2000/svg">
<rect width="77.49" height="77.49" rx="14" fill="#2657D4"/>
<path d="M32.2654 32.1721C33.6079 34.9682 35.438 37.5888 37.7556 39.9065C40.0733 42.2242 42.694 44.0543 45.4901 45.3968C45.7306 45.5123 45.8508 45.57 46.003 45.6143C46.5438 45.772 47.2078 45.6588 47.6658 45.3308C47.7946 45.2385 47.9049 45.1283 48.1254 44.9078C48.7997 44.2335 49.1369 43.8963 49.476 43.6758C50.7546 42.8445 52.4029 42.8445 53.6816 43.6758C54.0206 43.8963 54.3578 44.2335 55.0321 44.9078L55.408 45.2837C56.4331 46.3088 56.9456 46.8213 57.2241 47.3718C57.7778 48.4665 57.7778 49.7594 57.2241 50.8541C56.9456 51.4046 56.4331 51.9171 55.408 52.9422L55.104 53.2462C54.0824 54.2678 53.5716 54.7786 52.8771 55.1687C52.1066 55.6016 50.9097 55.9128 50.0259 55.9102C49.2293 55.9078 48.685 55.7533 47.5962 55.4443C41.7452 53.7836 36.2241 50.6502 31.618 46.0441C27.0119 41.438 23.8786 35.9169 22.2179 30.0659C21.9088 28.9772 21.7543 28.4328 21.752 27.6363C21.7493 26.7525 22.0606 25.5556 22.4935 24.785C22.8836 24.0906 23.3944 23.5798 24.4159 22.5582L24.72 22.2542C25.7451 21.2291 26.2576 20.7165 26.8081 20.4381C27.9028 19.8844 29.1957 19.8844 30.2904 20.4381C30.8409 20.7165 31.3534 21.2291 32.3785 22.2542L32.7544 22.63C33.4287 23.3044 33.7659 23.6415 33.9863 23.9806C34.8176 25.2592 34.8177 26.9076 33.9863 28.1862C33.7659 28.5253 33.4287 28.8624 32.7544 29.5368C32.5339 29.7573 32.4236 29.8675 32.3313 29.9964C32.0034 30.4544 31.8902 31.1184 32.0478 31.6592C32.0922 31.8113 32.1499 31.9316 32.2654 32.1721Z" fill="white"/>
</svg>
