<svg width="130" height="130" viewBox="0 0 130 130" fill="none" xmlns="http://www.w3.org/2000/svg">
<rect width="130" height="130" rx="30" fill="#1F2424"/>
<path d="M101.965 42.0497H80.4618V34.464C80.4618 33.1853 79.9539 31.9589 79.0497 31.0547C78.1455 30.1505 76.9191 29.6426 75.6404 29.6426H54.3618C53.0831 29.6426 51.8568 30.1505 50.9526 31.0547C50.0484 31.9589 49.5404 33.1853 49.5404 34.464V42.0497H28.0368C27.6106 42.0497 27.2018 42.219 26.9004 42.5204C26.599 42.8218 26.4297 43.2306 26.4297 43.6569V62.9426C26.4305 64.5054 26.887 66.0341 27.7434 67.3415C28.5997 68.6489 29.8187 69.6781 31.2511 70.3033V95.0854C31.2511 95.5117 31.4204 95.9204 31.7218 96.2218C32.0232 96.5232 32.432 96.6926 32.8583 96.6926H97.144C97.5702 96.6926 97.979 96.5232 98.2804 96.2218C98.5818 95.9204 98.7511 95.5117 98.7511 95.0854V70.3033C100.184 69.6781 101.403 68.6489 102.259 67.3415C103.115 66.0341 103.572 64.5054 103.573 62.9426V43.6569C103.573 43.2306 103.403 42.8218 103.102 42.5204C102.8 42.219 102.392 42.0497 101.965 42.0497ZM52.7547 34.464C52.7547 34.0378 52.924 33.629 53.2254 33.3276C53.5268 33.0262 53.9356 32.8569 54.3618 32.8569H75.6725C76.0988 32.8569 76.5076 33.0262 76.809 33.3276C77.1104 33.629 77.2797 34.0378 77.2797 34.464V42.0497H52.7547V34.464ZM95.5368 93.4783H34.4654V70.9783H42.5011V72.9069C42.484 73.5454 42.594 74.1809 42.8246 74.7766C43.0552 75.3723 43.4019 75.9162 43.8445 76.3767C44.2871 76.8373 44.8168 77.2053 45.4028 77.4594C45.9889 77.7135 46.6196 77.8486 47.2583 77.8569H50.4725C51.1221 77.8658 51.7667 77.7433 52.3677 77.4969C52.9687 77.2504 53.5137 76.8851 53.97 76.4228C54.4263 75.9605 54.7845 75.4107 55.0231 74.8065C55.2616 74.2024 55.3756 73.5562 55.3583 72.9069V70.9783H74.644V72.9069C74.644 74.1856 75.1519 75.4119 76.0561 76.3161C76.9603 77.2203 78.1867 77.7283 79.4654 77.7283H82.6797C83.9584 77.7283 85.1848 77.2203 86.0889 76.3161C86.9931 75.4119 87.5011 74.1856 87.5011 72.9069V70.9783H95.5368V93.4783ZM45.7154 69.3711V66.7676H52.144V72.8747C52.144 73.301 51.9746 73.7097 51.6733 74.0111C51.3719 74.3125 50.9631 74.4819 50.5368 74.4819H47.3225C46.8963 74.4819 46.4875 74.3125 46.1861 74.0111C45.8847 73.7097 45.7154 73.301 45.7154 72.8747V69.3711ZM84.2868 72.9069C84.2868 73.3331 84.1175 73.7419 83.8161 74.0433C83.5147 74.3447 83.1059 74.514 82.6797 74.514H79.4654C79.0392 74.514 78.6304 74.3447 78.329 74.0433C78.0276 73.7419 77.8583 73.3331 77.8583 72.9069V66.7997H84.2868V72.9069ZM100.358 62.9426C100.358 64.2213 99.8503 65.4476 98.9461 66.3518C98.0419 67.256 96.8156 67.764 95.5368 67.764H87.5011V65.1604C87.5011 64.7342 87.3318 64.3254 87.0304 64.024C86.729 63.7226 86.3202 63.5533 85.894 63.5533H76.2511C75.8249 63.5533 75.4161 63.7226 75.1147 64.024C74.8133 64.3254 74.644 64.7342 74.644 65.1604V67.764H55.3583V65.1604C55.3583 64.7342 55.1889 64.3254 54.8875 64.024C54.5861 63.7226 54.1774 63.5533 53.7511 63.5533H44.1083C43.682 63.5533 43.2732 63.7226 42.9718 64.024C42.6704 64.3254 42.5011 64.7342 42.5011 65.1604V67.764H34.4654C33.1867 67.764 31.9603 67.256 31.0561 66.3518C30.1519 65.4476 29.644 64.2213 29.644 62.9426V45.264H100.358V62.9426Z" fill="white"/>
</svg>
