<svg width="180" height="180" viewBox="0 0 180 180" fill="none" xmlns="http://www.w3.org/2000/svg">
<g clip-path="url(#clip0_359_3441)">
<path d="M55.937 6.31197V3.04716C55.937 1.30593 54.4134 0 52.6722 0C50.9309 0 49.625 1.30593 49.625 3.04716V6.09432H55.937V6.31197Z" fill="white"/>
<path d="M68.3443 0H65.2972C63.5559 0 62.25 1.30593 62.25 3.04716C62.25 4.78839 63.5559 6.09432 65.2972 6.09432H68.3443V0Z" fill="white"/>
<path d="M74.437 3.04716V6.09432H68.125V0H71.1722C73.131 0 74.437 1.30593 74.437 3.04716Z" fill="white"/>
<path d="M74.4375 3.04688V6.09403H77.4847C75.7434 6.31169 74.4375 4.78811 74.4375 3.04688Z" fill="white"/>
<path d="M80.75 3.04716C80.75 4.78839 82.0559 6.09432 83.7972 6.09432C85.5384 6.09432 86.8443 4.78839 86.8443 3.04716C86.8443 1.30593 85.5384 0 83.7972 0C82.0559 0 80.75 1.30593 80.75 3.04716Z" fill="white"/>
<path d="M93.1562 3.04716C93.1562 4.78839 94.4622 6.09432 96.2034 6.09432C97.9446 6.09432 99.2506 4.78839 99.2506 3.04716C99.2506 1.30593 97.9446 0 96.2034 0C94.4622 0 93.1562 1.30593 93.1562 3.04716Z" fill="white"/>
<path d="M117.969 0H114.922C113.181 0 111.875 1.30593 111.875 3.04716C111.875 4.78839 113.181 6.09432 114.922 6.09432H117.969V0Z" fill="white"/>
<path d="M124.281 0H117.969V6.31197H124.281V0Z" fill="white"/>
<path d="M124.062 6.31197H127.11C128.851 6.31197 130.157 5.00605 130.157 3.26481C130.157 1.52358 128.851 0 127.11 0H124.062V6.31197Z" fill="white"/>
<path d="M55.937 6.3125H49.625V12.6245H55.937V6.3125Z" fill="white"/>
<path d="M55.9375 9.35938V12.4065H58.9847C57.2434 12.4065 55.9375 11.1006 55.9375 9.35938Z" fill="white"/>
<path d="M68.344 9.35966V6.3125H65.2969C66.8205 6.3125 68.344 7.61843 68.344 9.35966Z" fill="white"/>
<path d="M71.3898 12.4068H74.437V6.3125H68.125V9.35966C68.3427 11.1009 69.6486 12.4068 71.3898 12.4068Z" fill="white"/>
<path d="M80.7506 9.35966V12.4068H74.6562V6.3125H77.7034C79.227 6.3125 80.7506 7.61843 80.7506 9.35966Z" fill="white"/>
<path d="M80.75 9.35938V12.4065H83.7972C82.0559 12.4065 80.75 11.1006 80.75 9.35938Z" fill="white"/>
<path d="M86.8438 9.35966C86.8438 11.1009 88.1497 12.4068 89.8909 12.4068C91.6321 12.4068 92.9381 11.1009 92.9381 9.35966C92.9381 7.61843 91.6321 6.3125 89.8909 6.3125C88.1497 6.3125 86.8438 7.61843 86.8438 9.35966Z" fill="white"/>
<path d="M96.2031 12.4065H99.2503V9.35938C99.2503 11.1006 97.9444 12.4065 96.2031 12.4065Z" fill="white"/>
<path d="M99.25 9.35966V12.4068H105.344V6.3125H102.297C100.556 6.3125 99.25 7.61843 99.25 9.35966Z" fill="white"/>
<path d="M105.562 12.4068H108.61C110.351 12.4068 111.657 11.1009 111.657 9.35966C111.657 7.61843 110.351 6.3125 108.61 6.3125H105.562V12.4068Z" fill="white"/>
<path d="M117.969 9.35966V6.3125H114.922C116.445 6.3125 117.969 7.61843 117.969 9.35966Z" fill="white"/>
<path d="M124.281 6.3125H117.969V12.6245H124.281V6.3125Z" fill="white"/>
<path d="M124.062 9.35966V6.3125H127.11C125.368 6.3125 124.062 7.61843 124.062 9.35966Z" fill="white"/>
<path d="M124.062 9.35938V12.4065H127.11C125.368 12.4065 124.062 11.1006 124.062 9.35938Z" fill="white"/>
<path d="M52.673 18.7182H55.7202V12.4062H49.4082V15.4534C49.6259 17.1946 50.9318 18.7182 52.673 18.7182Z" fill="white"/>
<path d="M55.9375 18.7174H58.9847C60.7259 18.7174 62.0318 17.4114 62.0318 15.6702C62.0318 13.929 60.7259 12.623 58.9847 12.623H55.9375V18.7174Z" fill="white"/>
<path d="M74.4377 15.4534V12.4062H71.3906C73.1318 12.4062 74.4377 13.7122 74.4377 15.4534Z" fill="white"/>
<path d="M77.4847 18.7182H80.5318V12.4062H74.4375V15.4534C74.4375 17.1946 75.7434 18.7182 77.4847 18.7182Z" fill="white"/>
<path d="M86.8432 15.4534V18.5006H80.5312V12.4062H83.5784C85.5373 12.4062 86.8432 13.7122 86.8432 15.4534Z" fill="white"/>
<path d="M89.8906 18.7179H92.9378V15.4531C93.1554 17.1944 91.6319 18.7179 89.8906 18.7179Z" fill="white"/>
<path d="M86.8438 15.4531V18.5003H89.8909C88.1497 18.7179 86.8438 17.1944 86.8438 15.4531Z" fill="white"/>
<path d="M93.1562 15.4534V18.5006H99.4682V12.4062H96.4211C94.4622 12.4062 93.1562 13.7122 93.1562 15.4534Z" fill="white"/>
<path d="M102.297 18.7182H99.25V12.4062H105.344V15.4534C105.562 17.1946 104.038 18.7182 102.297 18.7182Z" fill="white"/>
<path d="M105.562 15.4534V12.4062H108.61C106.868 12.4062 105.562 13.7122 105.562 15.4534Z" fill="white"/>
<path d="M121.016 18.7182H124.063V12.4062H117.969V15.4534C117.969 17.1946 119.275 18.7182 121.016 18.7182Z" fill="white"/>
<path d="M130.374 15.4534V18.5006H124.062V12.4062H127.11C128.851 12.4062 130.374 13.7122 130.374 15.4534Z" fill="white"/>
<path d="M58.9844 24.8128H62.0315V21.7656C62.0315 23.5069 60.7256 24.8128 58.9844 24.8128Z" fill="white"/>
<path d="M62.0312 21.7659V24.8131H68.3432V18.7188H65.2961C63.3372 18.7188 62.0312 20.0247 62.0312 21.7659Z" fill="white"/>
<path d="M68.3438 24.8131H71.3909C73.1321 24.8131 74.4381 23.5071 74.4381 21.7659C74.4381 20.0247 73.1321 18.7188 71.3909 18.7188H68.3438V24.8131Z" fill="white"/>
<path d="M80.7503 21.7659V18.7188H77.7031C79.2267 18.7188 80.7503 20.0247 80.7503 21.7659Z" fill="white"/>
<path d="M77.4844 24.8128H80.5315V21.7656C80.7492 23.5069 79.2256 24.8128 77.4844 24.8128Z" fill="white"/>
<path d="M87.062 18.7188H80.75V25.0307H87.062V18.7188Z" fill="white"/>
<path d="M93.1557 18.7188H86.8438V25.0307H93.1557V18.7188Z" fill="white"/>
<path d="M96.2034 24.8131H93.1562V18.7188H99.4682V21.7659C99.2506 23.5071 97.9446 24.8131 96.2034 24.8131Z" fill="white"/>
<path d="M99.25 21.7659V18.7188H102.297C100.556 18.7188 99.25 20.0247 99.25 21.7659Z" fill="white"/>
<path d="M111.657 18.7188H108.61C106.868 18.7188 105.562 20.0247 105.562 21.7659C105.562 23.5071 106.868 24.8131 108.61 24.8131H111.657V18.7188Z" fill="white"/>
<path d="M117.969 21.7659V24.8131H111.875V18.7188H114.922C116.446 18.7188 117.969 20.0247 117.969 21.7659Z" fill="white"/>
<path d="M124.063 21.7659V18.7188H121.016C122.757 18.7188 124.063 20.0247 124.063 21.7659Z" fill="white"/>
<path d="M124.062 18.7188V21.7659C124.062 23.5071 125.368 24.8131 127.11 24.8131C128.851 24.8131 130.157 23.5071 130.157 21.7659V18.7188H124.062Z" fill="white"/>
<path d="M62.0318 24.8125H58.9847C57.2434 24.8125 55.9375 26.1184 55.9375 27.8597C55.9375 29.6009 57.2434 30.9068 58.9847 30.9068H62.0318V24.8125Z" fill="white"/>
<path d="M68.3432 24.8125H62.0312V31.1245H68.3432V24.8125Z" fill="white"/>
<path d="M68.3438 27.8597V24.8125H71.3909C69.6497 24.8125 68.3438 26.1184 68.3438 27.8597Z" fill="white"/>
<path d="M74.4375 27.8605V30.9077H80.5318V24.5957H77.4847C75.7434 24.8134 74.4375 26.1193 74.4375 27.8605Z" fill="white"/>
<path d="M87.062 24.8125H80.75V31.1245H87.062V24.8125Z" fill="white"/>
<path d="M86.8438 27.8597V24.8125H89.8909C88.1497 24.8125 86.8438 26.1184 86.8438 27.8597Z" fill="white"/>
<path d="M86.8438 27.8594V30.9065H89.8909C88.1497 31.1242 86.8438 29.6006 86.8438 27.8594Z" fill="white"/>
<path d="M111.657 27.8597V24.8125H108.609C110.351 24.8125 111.657 26.1184 111.657 27.8597Z" fill="white"/>
<path d="M117.968 24.8125H111.656V31.1245H117.968V24.8125Z" fill="white"/>
<path d="M55.9381 37.2193V34.1722C55.9381 32.4309 54.6321 31.125 52.8909 31.125C51.1497 31.125 49.8438 32.4309 49.8438 34.1722V37.2193H55.9381Z" fill="white"/>
<path d="M62.0315 34.1722V31.125H58.9844C60.7256 31.125 62.0315 32.4309 62.0315 34.1722Z" fill="white"/>
<path d="M68.3432 31.125H62.0312V37.437H68.3432V31.125Z" fill="white"/>
<path d="M80.7495 31.125H74.4375V37.437H80.7495V31.125Z" fill="white"/>
<path d="M87.062 31.125H80.75V37.437H87.062V31.125Z" fill="white"/>
<path d="M93.1557 31.125H86.8438V37.437H93.1557V31.125Z" fill="white"/>
<path d="M93.1562 37.2193H96.2034C97.9446 37.2193 99.2506 35.9134 99.2506 34.1722C99.2506 32.4309 97.9446 31.125 96.2034 31.125H93.1562V37.2193Z" fill="white"/>
<path d="M117.968 31.125H111.656V37.437H117.968V31.125Z" fill="white"/>
<path d="M130.376 37.2193V34.1722C130.376 32.4309 129.07 31.125 127.328 31.125C125.587 31.125 124.281 32.4309 124.281 34.1722V37.2193H130.376Z" fill="white"/>
<path d="M55.937 37.2188H49.625V43.5307H55.937V37.2188Z" fill="white"/>
<path d="M55.9375 40.2656V43.5304H58.9847C57.2434 43.5304 55.9375 42.0069 55.9375 40.2656Z" fill="white"/>
<path d="M62.0312 37.2188V40.2659C62.0312 42.0071 63.3372 43.3131 65.0784 43.3131C66.8196 43.3131 68.1256 42.0071 68.1256 40.2659V37.2188H62.0312Z" fill="white"/>
<path d="M74.4375 37.2188V40.2659C74.4375 42.0071 75.7434 43.3131 77.4847 43.3131C79.2259 43.3131 80.5318 42.0071 80.5318 40.2659V37.2188H74.4375Z" fill="white"/>
<path d="M80.75 40.2659V37.2188H83.7972C82.0559 37.2188 80.75 38.5247 80.75 40.2659Z" fill="white"/>
<path d="M86.844 40.2659V37.2188H83.7969C85.5381 37.2188 86.844 38.5247 86.844 40.2659Z" fill="white"/>
<path d="M83.7969 43.5315H86.844V40.4844C86.844 42.008 85.5381 43.5315 83.7969 43.5315Z" fill="white"/>
<path d="M93.1557 37.2188H86.8438V43.5307H93.1557V37.2188Z" fill="white"/>
<path d="M93.1562 40.2659V37.2188H96.2034C94.4622 37.2188 93.1562 38.5247 93.1562 40.2659Z" fill="white"/>
<path d="M96.2031 43.5315H99.2503V40.4844C99.2503 42.008 97.9444 43.5315 96.2031 43.5315Z" fill="white"/>
<path d="M93.1562 40.2656V43.5304H96.2034C94.4622 43.5304 93.1562 42.0069 93.1562 40.2656Z" fill="white"/>
<path d="M105.563 43.5299V40.4827C105.563 38.7415 104.257 37.4355 102.516 37.4355C100.775 37.4355 99.4688 38.7415 99.4688 40.4827V43.5299H105.563Z" fill="white"/>
<path d="M117.968 37.2188H111.656V43.5307H117.968V37.2188Z" fill="white"/>
<path d="M121.016 43.5315H124.063V40.4844C124.063 42.008 122.757 43.5315 121.016 43.5315Z" fill="white"/>
<path d="M117.969 40.2656V43.5304H121.016C119.275 43.5304 117.969 42.0069 117.969 40.2656Z" fill="white"/>
<path d="M130.374 37.2188H124.062V43.5307H130.374V37.2188Z" fill="white"/>
<path d="M55.937 43.5312H49.625V49.8432H55.937V43.5312Z" fill="white"/>
<path d="M62.0318 46.5784V49.6256H55.9375V43.5312H58.9847C60.7259 43.5312 62.0318 44.8372 62.0318 46.5784Z" fill="white"/>
<path d="M62.0312 46.5781V49.6253H65.0784C63.3372 49.6253 62.0312 48.3194 62.0312 46.5781Z" fill="white"/>
<path d="M77.4844 49.6253H80.5315V46.5781C80.7492 48.3194 79.2256 49.6253 77.4844 49.6253Z" fill="white"/>
<path d="M80.75 46.5784V49.6256H87.062V43.5312H84.0148C82.0559 43.5312 80.75 44.8372 80.75 46.5784Z" fill="white"/>
<path d="M93.1557 43.5312H86.8438V49.8432H93.1557V43.5312Z" fill="white"/>
<path d="M99.4682 43.5312H93.1562V49.8432H99.4682V43.5312Z" fill="white"/>
<path d="M102.297 49.6256H99.25V43.5312H105.344V46.5784C105.562 48.3196 104.038 49.6256 102.297 49.6256Z" fill="white"/>
<path d="M117.968 43.5312H111.656V49.8432H117.968V43.5312Z" fill="white"/>
<path d="M124.281 43.5312H117.969V49.8432H124.281V43.5312Z" fill="white"/>
<path d="M127.11 49.6256H124.062V43.5312H130.374V46.5784C130.374 48.3196 128.851 49.6256 127.11 49.6256Z" fill="white"/>
<path d="M9.35938 55.9378H12.4065V52.8906C12.4065 54.4142 11.1006 55.9378 9.35938 55.9378Z" fill="white"/>
<path d="M12.4062 52.673V55.7202H18.5006V49.4082H15.4534C13.7122 49.6259 12.4062 50.9318 12.4062 52.673Z" fill="white"/>
<path d="M25.0307 49.625H18.7188V55.937H25.0307V49.625Z" fill="white"/>
<path d="M31.1245 52.673V55.7202H24.8125V49.4082H27.8597C29.6009 49.6259 31.1245 50.9318 31.1245 52.673Z" fill="white"/>
<path d="M31.125 52.6719V55.719H34.1722C32.4309 55.9367 31.125 54.4131 31.125 52.6719Z" fill="white"/>
<path d="M37.2188 52.6722C37.2188 54.4134 38.5247 55.7193 40.2659 55.7193C42.0071 55.7193 43.3131 54.4134 43.3131 52.6722C43.3131 50.9309 42.0071 49.625 40.2659 49.625C38.5247 49.625 37.2188 50.9309 37.2188 52.6722Z" fill="white"/>
<path d="M55.937 49.625H49.625V55.937H55.937V49.625Z" fill="white"/>
<path d="M62.2495 49.625H55.9375V55.937H62.2495V49.625Z" fill="white"/>
<path d="M68.3432 49.625H62.0312V55.937H68.3432V49.625Z" fill="white"/>
<path d="M74.6557 49.625H68.3438V55.937H74.6557V49.625Z" fill="white"/>
<path d="M80.7495 49.625H74.4375V55.937H80.7495V49.625Z" fill="white"/>
<path d="M87.062 49.625H80.75V55.937H87.062V49.625Z" fill="white"/>
<path d="M93.1557 49.625H86.8438V55.937H93.1557V49.625Z" fill="white"/>
<path d="M93.1562 52.6722V49.625H96.2034C94.4622 49.625 93.1562 50.9309 93.1562 52.6722Z" fill="white"/>
<path d="M93.1562 52.6719V55.719H96.2034C94.4622 55.9367 93.1562 54.4131 93.1562 52.6719Z" fill="white"/>
<path d="M108.609 55.9378H111.657V52.8906C111.657 54.4142 110.351 55.9378 108.609 55.9378Z" fill="white"/>
<path d="M117.968 49.625H111.656V55.937H117.968V49.625Z" fill="white"/>
<path d="M117.969 52.6722V49.625H121.016C119.275 49.625 117.969 50.9309 117.969 52.6722Z" fill="white"/>
<path d="M117.969 52.6719V55.719H121.016C119.275 55.9367 117.969 54.4131 117.969 52.6719Z" fill="white"/>
<path d="M130.375 52.673V55.7202H136.469V49.4082H133.422C131.681 49.6259 130.375 50.9318 130.375 52.673Z" fill="white"/>
<path d="M142.781 49.625H136.469V55.937H142.781V49.625Z" fill="white"/>
<path d="M142.781 55.9381H145.828C147.57 55.9381 148.876 54.6321 148.876 52.8909C148.876 51.1497 147.57 49.8438 145.828 49.8438H142.781V55.9381Z" fill="white"/>
<path d="M167.594 49.625H164.547C162.806 49.625 161.5 50.9309 161.5 52.6722C161.5 54.4134 162.806 55.7193 164.547 55.7193H167.594V49.625Z" fill="white"/>
<path d="M173.906 49.625H167.594V55.937H173.906V49.625Z" fill="white"/>
<path d="M179.999 52.673V55.7202H173.688V49.4082H176.735C178.476 49.6259 179.999 50.9318 179.999 52.673Z" fill="white"/>
<path d="M6.31197 55.9375H3.04716C1.30593 55.9375 0 57.2434 0 58.9847C0 60.7259 1.30593 62.0318 3.04716 62.0318H6.09432V55.9375H6.31197Z" fill="white"/>
<path d="M12.6245 55.9375H6.3125V62.2495H12.6245V55.9375Z" fill="white"/>
<path d="M15.4534 62.0318H12.4062V55.9375H18.5006V58.9847C18.7182 60.7259 17.1946 62.0318 15.4534 62.0318Z" fill="white"/>
<path d="M18.7188 58.9847V55.9375H21.7659C20.0247 55.9375 18.7188 57.2434 18.7188 58.9847Z" fill="white"/>
<path d="M24.8128 58.9847V55.9375H21.7656C23.5069 55.9375 24.8128 57.2434 24.8128 58.9847Z" fill="white"/>
<path d="M31.1245 55.9375H24.8125V62.2495H31.1245V55.9375Z" fill="white"/>
<path d="M37.2193 58.9847V62.0318H31.125V55.9375H34.1722C35.9134 55.9375 37.2193 57.2434 37.2193 58.9847Z" fill="white"/>
<path d="M37.2188 58.9844V62.0315H40.2659C38.5247 62.0315 37.2188 60.7256 37.2188 58.9844Z" fill="white"/>
<path d="M46.5781 62.0315H49.6253V58.9844C49.6253 60.7256 48.3194 62.0315 46.5781 62.0315Z" fill="white"/>
<path d="M55.937 55.9375H49.625V62.2495H55.937V55.9375Z" fill="white"/>
<path d="M55.9375 58.9847V55.9375H58.9847C57.2434 55.9375 55.9375 57.2434 55.9375 58.9847Z" fill="white"/>
<path d="M62.0315 58.9847V55.9375H58.9844C60.7256 55.9375 62.0315 57.2434 62.0315 58.9847Z" fill="white"/>
<path d="M65.0793 62.0318H68.1264V55.9375H61.8145V58.9847C62.0321 60.7259 63.338 62.0318 65.0793 62.0318Z" fill="white"/>
<path d="M71.3909 62.0318H68.3438V55.9375H74.6557V58.9847C74.4381 60.7259 73.1321 62.0318 71.3909 62.0318Z" fill="white"/>
<path d="M74.4375 58.9847V55.9375H77.4847C75.7434 55.9375 74.4375 57.2434 74.4375 58.9847Z" fill="white"/>
<path d="M80.7503 58.9847V55.9375H77.7031C79.2267 55.9375 80.7503 57.2434 80.7503 58.9847Z" fill="white"/>
<path d="M83.7961 62.0318H86.8432V55.9375H80.5312V58.9847C80.7489 60.7259 82.0548 62.0318 83.7961 62.0318Z" fill="white"/>
<path d="M93.1557 55.9375H86.8438V62.2495H93.1557V55.9375Z" fill="white"/>
<path d="M99.4682 55.9375H93.1562V62.2495H99.4682V55.9375Z" fill="white"/>
<path d="M105.562 55.9375H99.25V62.2495H105.562V55.9375Z" fill="white"/>
<path d="M111.874 55.9375H105.562V62.2495H111.874V55.9375Z" fill="white"/>
<path d="M117.968 55.9375H111.656V62.2495H117.968V55.9375Z" fill="white"/>
<path d="M124.063 58.9847V62.0318H117.969V55.9375H121.016C122.757 55.9375 124.063 57.2434 124.063 58.9847Z" fill="white"/>
<path d="M124.062 58.9844V62.0315H127.11C125.368 62.0315 124.062 60.7256 124.062 58.9844Z" fill="white"/>
<path d="M133.422 62.0318H136.469V55.9375H130.375V58.9847C130.375 60.7259 131.681 62.0318 133.422 62.0318Z" fill="white"/>
<path d="M139.516 62.0318H136.469V55.9375H142.563V58.9847C142.781 60.7259 141.257 62.0318 139.516 62.0318Z" fill="white"/>
<path d="M142.781 58.9847V55.9375H145.828C144.087 55.9375 142.781 57.2434 142.781 58.9847Z" fill="white"/>
<path d="M148.875 58.9847C148.875 60.7259 150.181 62.0318 151.922 62.0318C153.663 62.0318 154.969 60.7259 154.969 58.9847C154.969 57.2434 153.663 55.9375 151.922 55.9375C150.181 55.9375 148.875 57.2434 148.875 58.9847Z" fill="white"/>
<path d="M167.594 58.9847V55.9375H164.547C166.07 55.9375 167.594 57.2434 167.594 58.9847Z" fill="white"/>
<path d="M170.641 62.0318H173.688V55.9375H167.594V58.9847C167.594 60.7259 168.9 62.0318 170.641 62.0318Z" fill="white"/>
<path d="M176.735 62.0318H173.688V55.9375H179.999V58.9847C179.999 60.7259 178.476 62.0318 176.735 62.0318Z" fill="white"/>
<path d="M6.31169 65.0784V62.0312H3.04688C4.78811 62.0312 6.31169 63.3372 6.31169 65.0784Z" fill="white"/>
<path d="M6.3125 62.0312V65.0784C6.3125 66.8196 7.61843 68.1256 9.35966 68.1256C11.1009 68.1256 12.4068 66.8196 12.4068 65.0784V62.0312H6.3125Z" fill="white"/>
<path d="M12.4062 65.0784V62.0312H15.4534C13.7122 62.0312 12.4062 63.3372 12.4062 65.0784Z" fill="white"/>
<path d="M21.7656 68.344H24.8128V65.2969C24.8128 66.8205 23.5069 68.344 21.7656 68.344Z" fill="white"/>
<path d="M31.1245 62.0312H24.8125V68.3432H31.1245V62.0312Z" fill="white"/>
<path d="M37.437 62.0312H31.125V68.3432H37.437V62.0312Z" fill="white"/>
<path d="M43.5307 62.0312H37.2188V68.3432H43.5307V62.0312Z" fill="white"/>
<path d="M49.8432 62.0312H43.5312V68.3432H49.8432V62.0312Z" fill="white"/>
<path d="M52.6722 68.3432H49.625V62.0312H55.937V65.0784C55.937 66.8196 54.4134 68.3432 52.6722 68.3432Z" fill="white"/>
<path d="M117.969 65.0784V62.0312H114.922C116.445 62.0312 117.969 63.3372 117.969 65.0784Z" fill="white"/>
<path d="M121.016 68.3432H124.063V62.0312H117.969V65.0784C117.969 66.8196 119.275 68.3432 121.016 68.3432Z" fill="white"/>
<path d="M130.374 65.0793V68.1264H124.062V61.8145H127.11C128.851 62.0321 130.374 63.338 130.374 65.0793Z" fill="white"/>
<path d="M158.234 68.344H161.282V65.2969C161.282 66.8205 159.976 68.344 158.234 68.344Z" fill="white"/>
<path d="M167.594 68.3443V65.2972C167.594 63.5559 166.288 62.25 164.547 62.25C162.806 62.25 161.5 63.5559 161.5 65.2972V68.3443H167.594Z" fill="white"/>
<path d="M24.8131 68.3438H21.7659C20.0247 68.3438 18.7188 69.6497 18.7188 71.3909C18.7188 73.1321 20.0247 74.4381 21.7659 74.4381H24.8131V68.3438Z" fill="white"/>
<path d="M31.1245 68.3438H24.8125V74.6557H31.1245V68.3438Z" fill="white"/>
<path d="M37.437 68.3438H31.125V74.6557H37.437V68.3438Z" fill="white"/>
<path d="M37.2188 71.3909V68.3438H40.2659C38.5247 68.3438 37.2188 69.6497 37.2188 71.3909Z" fill="white"/>
<path d="M37.2188 71.3906V74.4378H40.2659C38.5247 74.4378 37.2188 73.1319 37.2188 71.3906Z" fill="white"/>
<path d="M55.9375 71.3909C55.9375 73.1321 57.2434 74.4381 58.9847 74.4381C60.7259 74.4381 62.0318 73.1321 62.0318 71.3909C62.0318 69.6497 60.7259 68.3438 58.9847 68.3438C57.2434 68.3438 55.9375 69.6497 55.9375 71.3909Z" fill="white"/>
<path d="M124.063 71.3909V68.3438H121.016C122.757 68.3438 124.063 69.6497 124.063 71.3909Z" fill="white"/>
<path d="M130.374 68.3438H124.062V74.6557H130.374V68.3438Z" fill="white"/>
<path d="M130.375 71.3906V74.4378H133.422C131.681 74.4378 130.375 73.1319 130.375 71.3906Z" fill="white"/>
<path d="M142.782 68.3438H139.735C137.993 68.3438 136.688 69.6497 136.688 71.3909C136.688 73.1321 137.993 74.4381 139.735 74.4381H142.782V68.3438Z" fill="white"/>
<path d="M149.093 68.3438H142.781V74.6557H149.093V68.3438Z" fill="white"/>
<path d="M155.187 68.3438H148.875V74.6557H155.187V68.3438Z" fill="white"/>
<path d="M161.499 68.3438H155.188V74.6557H161.499V68.3438Z" fill="white"/>
<path d="M167.593 68.3438H161.281V74.6557H167.593V68.3438Z" fill="white"/>
<path d="M167.594 71.3906V74.4378H170.641C168.9 74.4378 167.594 73.1319 167.594 71.3906Z" fill="white"/>
<path d="M6.31197 74.4375H3.04716C1.30593 74.4375 0 75.7434 0 77.4847C0 79.2259 1.30593 80.5318 3.04716 80.5318H6.09432V74.4375H6.31197Z" fill="white"/>
<path d="M12.6245 74.4375H6.3125V80.7495H12.6245V74.4375Z" fill="white"/>
<path d="M12.4062 80.7506H15.4534C17.1946 80.7506 18.5006 79.4446 18.5006 77.7034C18.5006 75.9622 17.1946 74.6562 15.4534 74.6562H12.4062V80.7506Z" fill="white"/>
<path d="M31.1253 77.4847V74.4375H28.0781C29.6017 74.4375 31.1253 75.7434 31.1253 77.4847Z" fill="white"/>
<path d="M34.1722 80.7506H37.2193V74.6562H31.125V77.7034C31.125 79.227 32.4309 80.7506 34.1722 80.7506Z" fill="white"/>
<path d="M37.2188 80.7506H40.2659C42.0071 80.7506 43.3131 79.4446 43.3131 77.7034C43.3131 75.9622 42.0071 74.6562 40.2659 74.6562H37.2188V80.7506Z" fill="white"/>
<path d="M121.016 80.7503H124.063V77.7031C124.063 79.2267 122.757 80.7503 121.016 80.7503Z" fill="white"/>
<path d="M130.374 74.4375H124.062V80.7495H130.374V74.4375Z" fill="white"/>
<path d="M130.375 80.7506H133.422C135.163 80.7506 136.469 79.4446 136.469 77.7034C136.469 75.9622 135.163 74.6562 133.422 74.6562H130.375V80.7506Z" fill="white"/>
<path d="M148.875 77.4847V74.4375H145.828C147.569 74.4375 148.875 75.7434 148.875 77.4847Z" fill="white"/>
<path d="M155.187 74.4375H148.875V80.7495H155.187V74.4375Z" fill="white"/>
<path d="M155.188 77.4847V74.4375H158.235C156.493 74.4375 155.188 75.7434 155.188 77.4847Z" fill="white"/>
<path d="M161.282 77.4847V74.4375H158.234C159.976 74.4375 161.282 75.7434 161.282 77.4847Z" fill="white"/>
<path d="M155.188 77.4844V80.5315H158.235C156.493 80.7492 155.188 79.2256 155.188 77.4844Z" fill="white"/>
<path d="M164.33 80.7506H167.595V74.6562H161.5V77.7034C161.283 79.227 162.589 80.7506 164.33 80.7506Z" fill="white"/>
<path d="M167.594 80.7506H170.641C172.382 80.7506 173.688 79.4446 173.688 77.7034C173.688 75.9622 172.382 74.6562 170.641 74.6562H167.594V80.7506Z" fill="white"/>
<path d="M40.2656 86.844H43.5304V83.7969C43.5304 85.5381 42.0069 86.844 40.2656 86.844Z" fill="white"/>
<path d="M43.5312 83.7961V86.8432H49.8432V80.5312H46.7961C44.8372 80.7489 43.5312 82.0548 43.5312 83.7961Z" fill="white"/>
<path d="M55.937 83.7961V86.8432H49.625V80.5312H52.6722C54.4134 80.7489 55.937 82.0548 55.937 83.7961Z" fill="white"/>
<path d="M117.969 83.7961V86.8432H124.063V80.5312H121.016C119.275 80.7489 117.969 82.0548 117.969 83.7961Z" fill="white"/>
<path d="M127.11 86.8432H124.062V80.5312H130.374V83.5784C130.374 85.5373 128.851 86.8432 127.11 86.8432Z" fill="white"/>
<path d="M130.375 83.7972V80.75H133.422C131.681 80.75 130.375 82.0559 130.375 83.7972Z" fill="white"/>
<path d="M136.469 83.7972C136.469 85.5384 137.775 86.8443 139.516 86.8443C141.257 86.8443 142.563 85.5384 142.563 83.7972C142.563 82.0559 141.257 80.75 139.516 80.75C137.775 80.75 136.469 82.0559 136.469 83.7972Z" fill="white"/>
<path d="M151.923 86.8432H154.97V80.5312H148.658V83.5784C148.876 85.5373 150.182 86.8432 151.923 86.8432Z" fill="white"/>
<path d="M155.188 86.8443H158.235C159.976 86.8443 161.282 85.5384 161.282 83.7972C161.282 82.0559 159.976 80.75 158.235 80.75H155.188V86.8443Z" fill="white"/>
<path d="M180.001 86.8443V83.7972C180.001 82.0559 178.695 80.75 176.953 80.75C175.212 80.75 173.906 82.0559 173.906 83.7972V86.8443H180.001Z" fill="white"/>
<path d="M0 89.8909V92.9381H6.09432V86.8438H3.04716C1.30593 86.8438 0 88.1497 0 89.8909Z" fill="white"/>
<path d="M6.3125 93.1568H9.35966C11.1009 93.1568 12.4068 91.8509 12.4068 90.1097C12.4068 88.3684 11.1009 87.0625 9.35966 87.0625H6.3125V93.1568Z" fill="white"/>
<path d="M18.7188 89.8909C18.7188 91.6321 20.0247 92.9381 21.7659 92.9381C23.5071 92.9381 24.8131 91.6321 24.8131 89.8909C24.8131 88.1497 23.5071 86.8438 21.7659 86.8438C20.0247 86.8438 18.7188 88.1497 18.7188 89.8909Z" fill="white"/>
<path d="M43.5299 86.8438H40.4827C38.7415 86.8438 37.4355 88.1497 37.4355 89.8909C37.4355 91.6321 38.7415 92.9381 40.4827 92.9381H43.5299V86.8438Z" fill="white"/>
<path d="M49.8432 86.8438H43.5312V93.1557H49.8432V86.8438Z" fill="white"/>
<path d="M52.6722 93.1568H49.625V87.0625H55.937V90.1097C55.937 91.6332 54.4134 93.1568 52.6722 93.1568Z" fill="white"/>
<path d="M124.281 86.8438H117.969V93.1557H124.281V86.8438Z" fill="white"/>
<path d="M124.062 89.8909V86.8438H127.11C125.368 86.8438 124.062 88.1497 124.062 89.8909Z" fill="white"/>
<path d="M139.516 93.1565H142.563V90.1094C142.78 91.633 141.257 93.1565 139.516 93.1565Z" fill="white"/>
<path d="M148.876 93.1568V90.1097C148.876 88.3684 147.57 87.0625 145.828 87.0625C144.087 87.0625 142.781 88.3684 142.781 90.1097V93.1568H148.876Z" fill="white"/>
<path d="M148.875 89.8906V92.9378H151.922C150.181 93.1554 148.875 91.6319 148.875 89.8906Z" fill="white"/>
<path d="M167.594 93.1568V90.1097C167.594 88.3684 166.288 87.0625 164.547 87.0625C162.806 87.0625 161.5 88.3684 161.5 90.1097V93.1568H167.594Z" fill="white"/>
<path d="M170.641 93.1565H173.688V90.1094C173.688 91.633 172.382 93.1565 170.641 93.1565Z" fill="white"/>
<path d="M167.594 89.8906V92.9378H170.641C168.9 93.1554 167.594 91.6319 167.594 89.8906Z" fill="white"/>
<path d="M179.999 86.8438H173.688V93.1557H179.999V86.8438Z" fill="white"/>
<path d="M0 93.1562V96.2034C0 97.9446 1.30593 99.2506 3.04716 99.2506C4.78839 99.2506 6.09432 97.9446 6.09432 96.2034V93.1562H0Z" fill="white"/>
<path d="M6.3125 96.2034V93.1562H9.35966C7.61843 93.1562 6.3125 94.4622 6.3125 96.2034Z" fill="white"/>
<path d="M12.4062 96.2034C12.4062 97.9446 13.7122 99.2506 15.4534 99.2506C17.1946 99.2506 18.5006 97.9446 18.5006 96.2034C18.5006 94.4622 17.1946 93.1562 15.4534 93.1562C13.7122 93.1562 12.4062 94.4622 12.4062 96.2034Z" fill="white"/>
<path d="M27.8594 99.2503H30.9065V96.2031C31.1242 97.9444 29.6006 99.2503 27.8594 99.2503Z" fill="white"/>
<path d="M37.2193 99.2506V96.2034C37.2193 94.4622 35.9134 93.1562 34.1722 93.1562C32.4309 93.1562 31.125 94.4622 31.125 96.2034V99.2506H37.2193Z" fill="white"/>
<path d="M43.5315 96.2034V93.1562H40.4844C42.008 93.1562 43.5315 94.4622 43.5315 96.2034Z" fill="white"/>
<path d="M40.2656 99.2503H43.5304V96.2031C43.5304 97.9444 42.0069 99.2503 40.2656 99.2503Z" fill="white"/>
<path d="M37.2188 96.2031V99.2503H40.2659C38.5247 99.2503 37.2188 97.9444 37.2188 96.2031Z" fill="white"/>
<path d="M49.8432 93.1562H43.5312V99.4682H49.8432V93.1562Z" fill="white"/>
<path d="M49.625 96.2034V93.1562H52.6722C50.9309 93.1562 49.625 94.4622 49.625 96.2034Z" fill="white"/>
<path d="M49.625 96.2031V99.2503H52.6722C50.9309 99.2503 49.625 97.9444 49.625 96.2031Z" fill="white"/>
<path d="M117.969 93.1562V96.2034C117.969 97.9446 119.275 99.2506 121.016 99.2506C122.757 99.2506 124.063 97.9446 124.063 96.2034V93.1562H117.969Z" fill="white"/>
<path d="M127.109 99.2503H130.157V96.2031C130.374 97.9444 128.851 99.2503 127.109 99.2503Z" fill="white"/>
<path d="M130.375 96.2023V99.2495H136.469V92.9375H133.422C131.681 93.1552 130.375 94.4611 130.375 96.2023Z" fill="white"/>
<path d="M142.781 93.1562H136.469V99.4682H142.781V93.1562Z" fill="white"/>
<path d="M149.093 93.1562H142.781V99.4682H149.093V93.1562Z" fill="white"/>
<path d="M148.875 99.2506H151.922C153.663 99.2506 154.969 97.9446 154.969 96.2034C154.969 94.4622 153.663 93.1562 151.922 93.1562H148.875V99.2506Z" fill="white"/>
<path d="M164.33 99.2495H167.595V92.9375H161.5V95.9847C161.283 97.9435 162.589 99.2495 164.33 99.2495Z" fill="white"/>
<path d="M173.906 93.1562H167.594V99.4682H173.906V93.1562Z" fill="white"/>
<path d="M176.735 99.2495H173.688V92.9375H179.999V95.9847C179.999 97.9435 178.476 99.2495 176.735 99.2495Z" fill="white"/>
<path d="M3.04688 105.562H6.09403V102.297C6.31169 104.038 4.78811 105.562 3.04688 105.562Z" fill="white"/>
<path d="M12.4068 105.562V102.297C12.4068 100.556 11.1009 99.25 9.35966 99.25C7.61843 99.25 6.3125 100.556 6.3125 102.297V105.344H12.4068V105.562Z" fill="white"/>
<path d="M18.7188 102.297V105.344H25.0307V99.25H21.7659C20.0247 99.25 18.7188 100.556 18.7188 102.297Z" fill="white"/>
<path d="M31.1245 99.25H24.8125V105.562H31.1245V99.25Z" fill="white"/>
<path d="M37.437 99.25H31.125V105.562H37.437V99.25Z" fill="white"/>
<path d="M43.5307 99.25H37.2188V105.562H43.5307V99.25Z" fill="white"/>
<path d="M49.8432 99.25H43.5312V105.562H49.8432V99.25Z" fill="white"/>
<path d="M55.937 102.297V105.344H49.625V99.25H52.6722C54.4134 99.25 55.937 100.556 55.937 102.297Z" fill="white"/>
<path d="M55.9375 102.297V105.344H58.9847C57.2434 105.562 55.9375 104.038 55.9375 102.297Z" fill="white"/>
<path d="M130.376 99.25H127.328C125.587 99.25 124.281 100.556 124.281 102.297C124.281 104.038 125.587 105.344 127.328 105.344H130.376V99.25Z" fill="white"/>
<path d="M133.422 105.563H130.375V99.4688H136.469V102.298C136.469 104.039 135.163 105.563 133.422 105.563Z" fill="white"/>
<path d="M136.469 102.297V99.25H139.516C137.775 99.25 136.469 100.556 136.469 102.297Z" fill="white"/>
<path d="M142.782 102.297V99.25H139.734C141.258 99.25 142.782 100.556 142.782 102.297Z" fill="white"/>
<path d="M139.516 105.562H142.563V102.297C142.78 104.038 141.257 105.562 139.516 105.562Z" fill="white"/>
<path d="M149.093 99.25H142.781V105.562H149.093V99.25Z" fill="white"/>
<path d="M148.875 102.297V99.25H151.922C150.181 99.25 148.875 100.556 148.875 102.297Z" fill="white"/>
<path d="M0 108.609V111.656H6.09432V105.344H3.04716C1.30593 105.561 0 106.867 0 108.609Z" fill="white"/>
<path d="M9.35966 111.656H6.3125V105.344H12.4068V108.391C12.4068 110.35 11.1009 111.656 9.35966 111.656Z" fill="white"/>
<path d="M15.4531 111.657H18.5003V108.609C18.7179 110.351 17.1944 111.657 15.4531 111.657Z" fill="white"/>
<path d="M25.0307 105.562H18.7188V111.874H25.0307V105.562Z" fill="white"/>
<path d="M24.8125 108.61V105.562H27.8597C26.1184 105.562 24.8125 106.868 24.8125 108.61Z" fill="white"/>
<path d="M31.1253 108.61V105.562H28.0781C29.6017 105.562 31.1253 106.868 31.1253 108.61Z" fill="white"/>
<path d="M24.8126 108.609V111.657H27.8597C26.1185 111.657 24.8126 110.351 24.8126 108.609Z" fill="white"/>
<path d="M31.125 105.562V108.61C31.125 110.351 32.4309 111.657 34.1722 111.657C35.9134 111.657 37.2193 110.351 37.2193 108.61V105.562H31.125Z" fill="white"/>
<path d="M37.2188 108.61V105.562H40.2659C38.5247 105.562 37.2188 106.868 37.2188 108.61Z" fill="white"/>
<path d="M43.5315 108.61V105.562H40.4844C42.008 105.562 43.5315 106.868 43.5315 108.61Z" fill="white"/>
<path d="M40.2656 111.657H43.5304V108.609C43.5304 110.351 42.0069 111.657 40.2656 111.657Z" fill="white"/>
<path d="M49.8432 105.562H43.5312V111.874H49.8432V105.562Z" fill="white"/>
<path d="M55.937 105.562H49.625V111.874H55.937V105.562Z" fill="white"/>
<path d="M62.0318 108.609V111.656H55.9375V105.344H58.9847C60.7259 105.561 62.0318 106.867 62.0318 108.609Z" fill="white"/>
<path d="M117.969 108.61C117.969 110.351 119.275 111.657 121.016 111.657C122.757 111.657 124.063 110.351 124.063 108.61C124.063 106.868 122.757 105.562 121.016 105.562C119.275 105.562 117.969 106.868 117.969 108.61Z" fill="white"/>
<path d="M142.782 105.562H139.735C137.993 105.562 136.688 106.868 136.688 108.61C136.688 110.351 137.993 111.657 139.735 111.657H142.782V105.562Z" fill="white"/>
<path d="M145.828 111.656H142.781V105.344H148.876V108.391C148.876 110.35 147.57 111.656 145.828 111.656Z" fill="white"/>
<path d="M155.188 108.61C155.188 110.351 156.493 111.657 158.235 111.657C159.976 111.657 161.282 110.351 161.282 108.61C161.282 106.868 159.976 105.562 158.235 105.562C156.493 105.562 155.188 106.868 155.188 108.61Z" fill="white"/>
<path d="M167.594 108.61C167.594 110.351 168.9 111.657 170.641 111.657C172.382 111.657 173.688 110.351 173.688 108.61C173.688 106.868 172.382 105.562 170.641 105.562C168.9 105.562 167.594 106.868 167.594 108.61Z" fill="white"/>
<path d="M6.31197 111.656H0V117.968H6.31197V111.656Z" fill="white"/>
<path d="M6.3125 114.703V111.656H9.35966C7.61843 111.656 6.3125 112.962 6.3125 114.703Z" fill="white"/>
<path d="M18.7182 111.656H15.4534C13.7122 111.656 12.4062 112.962 12.4062 114.703C12.4062 116.445 13.7122 117.751 15.4534 117.751H18.5006V111.656H18.7182Z" fill="white"/>
<path d="M25.0307 111.656H18.7188V117.968H25.0307V111.656Z" fill="white"/>
<path d="M24.8125 117.969H27.8597C29.6009 117.969 30.9068 116.663 30.9068 114.922C30.9068 113.181 29.6009 111.875 27.8597 111.875H24.8125V117.969Z" fill="white"/>
<path d="M43.5299 111.656H40.4827C38.7415 111.656 37.4355 112.962 37.4355 114.703C37.4355 116.445 38.7415 117.751 40.4827 117.751H43.5299V111.656Z" fill="white"/>
<path d="M49.8432 111.656H43.5312V117.968H49.8432V111.656Z" fill="white"/>
<path d="M55.937 111.656H49.625V117.968H55.937V111.656Z" fill="white"/>
<path d="M58.9847 117.969H55.9375V111.875H62.0318V114.922C62.0318 116.446 60.7259 117.969 58.9847 117.969Z" fill="white"/>
<path d="M124.062 114.703V117.751H130.374V111.656H127.327C125.368 111.656 124.062 112.962 124.062 114.703Z" fill="white"/>
<path d="M130.375 117.969H133.422C135.163 117.969 136.469 116.663 136.469 114.922C136.469 113.181 135.163 111.875 133.422 111.875H130.375V117.969Z" fill="white"/>
<path d="M161.281 114.703C161.281 116.445 162.587 117.751 164.328 117.751C166.07 117.751 167.376 116.445 167.376 114.703C167.376 112.962 166.07 111.656 164.328 111.656C162.587 111.656 161.281 112.962 161.281 114.703Z" fill="white"/>
<path d="M6.31197 117.969H0V124.281H6.31197V117.969Z" fill="white"/>
<path d="M31.125 121.016C31.125 122.757 32.4309 124.063 34.1722 124.063C35.9134 124.063 37.2193 122.757 37.2193 121.016C37.2193 119.275 35.9134 117.969 34.1722 117.969C32.4309 117.969 31.125 119.275 31.125 121.016Z" fill="white"/>
<path d="M71.3906 124.063H74.4377V121.016C74.4377 122.757 73.1318 124.063 71.3906 124.063Z" fill="white"/>
<path d="M74.4375 121.016V124.063H80.5318V117.969H77.4847C75.7434 117.969 74.4375 119.275 74.4375 121.016Z" fill="white"/>
<path d="M86.8432 121.016V124.063H80.5312V117.969H83.5784C85.5373 117.969 86.8432 119.275 86.8432 121.016Z" fill="white"/>
<path d="M99.2506 124.063V121.016C99.2506 119.275 97.9446 117.969 96.2034 117.969C94.4622 117.969 93.1562 119.275 93.1562 121.016V124.063H99.2506Z" fill="white"/>
<path d="M105.562 121.016C105.562 122.757 106.868 124.063 108.61 124.063C110.351 124.063 111.657 122.757 111.657 121.016C111.657 119.275 110.351 117.969 108.61 117.969C106.868 117.969 105.562 119.275 105.562 121.016Z" fill="white"/>
<path d="M130.374 117.969H124.062V124.281H130.374V117.969Z" fill="white"/>
<path d="M130.375 121.016V117.969H133.422C131.681 117.969 130.375 119.275 130.375 121.016Z" fill="white"/>
<path d="M133.422 124.063H136.469V121.016C136.469 122.757 135.163 124.063 133.422 124.063Z" fill="white"/>
<path d="M130.375 121.016V124.063H133.422C131.681 124.063 130.375 122.757 130.375 121.016Z" fill="white"/>
<path d="M142.782 124.063V121.016C142.782 119.275 141.476 117.969 139.735 117.969C137.993 117.969 136.688 119.275 136.688 121.016V124.063H142.782Z" fill="white"/>
<path d="M145.828 124.063H148.875V121.016C148.875 122.757 147.569 124.063 145.828 124.063Z" fill="white"/>
<path d="M142.781 121.016V124.063H145.828C144.087 124.063 142.781 122.757 142.781 121.016Z" fill="white"/>
<path d="M148.875 121.016V124.063H155.187V117.969H152.14C150.181 117.969 148.875 119.275 148.875 121.016Z" fill="white"/>
<path d="M155.188 124.063H158.235C159.976 124.063 161.282 122.757 161.282 121.016C161.282 119.275 159.976 117.969 158.235 117.969H155.188V124.063Z" fill="white"/>
<path d="M167.594 121.016V124.063H173.688V117.969H170.641C168.9 117.969 167.594 119.275 167.594 121.016Z" fill="white"/>
<path d="M179.999 121.016V124.063H173.688V117.969H176.735C178.476 117.969 179.999 119.275 179.999 121.016Z" fill="white"/>
<path d="M0 124.062V127.11C0 128.851 1.30593 130.157 3.04716 130.157C4.78839 130.157 6.09432 128.851 6.09432 127.11V124.062H0Z" fill="white"/>
<path d="M18.7182 124.062H15.4534C13.7122 124.062 12.4062 125.368 12.4062 127.11C12.4062 128.851 13.7122 130.157 15.4534 130.157H18.5006V124.062H18.7182Z" fill="white"/>
<path d="M18.7188 130.376H21.7659C23.5071 130.376 24.8131 129.07 24.8131 127.328C24.8131 125.587 23.5071 124.281 21.7659 124.281H18.7188V130.376Z" fill="white"/>
<path d="M37.2188 127.11C37.2188 128.851 38.5247 130.157 40.2659 130.157C42.0071 130.157 43.3131 128.851 43.3131 127.11C43.3131 125.368 42.0071 124.062 40.2659 124.062C38.5247 124.062 37.2188 125.368 37.2188 127.11Z" fill="white"/>
<path d="M74.4381 124.062H71.3909C69.6497 124.062 68.3438 125.368 68.3438 127.11C68.3438 128.851 69.6497 130.157 71.3909 130.157H74.4381V124.062Z" fill="white"/>
<path d="M80.7495 124.062H74.4375V130.374H80.7495V124.062Z" fill="white"/>
<path d="M87.062 124.062H80.75V130.374H87.062V124.062Z" fill="white"/>
<path d="M89.8906 130.375H92.9378V127.328C93.1554 128.852 91.6319 130.375 89.8906 130.375Z" fill="white"/>
<path d="M86.8438 127.109V130.157H89.8909C88.1497 130.374 86.8438 128.851 86.8438 127.109Z" fill="white"/>
<path d="M99.4682 124.062H93.1562V130.374H99.4682V124.062Z" fill="white"/>
<path d="M99.25 127.109V130.157H102.297C100.556 130.374 99.25 128.851 99.25 127.109Z" fill="white"/>
<path d="M108.609 130.375H111.657V127.328C111.657 128.852 110.351 130.375 108.609 130.375Z" fill="white"/>
<path d="M117.969 130.376V127.328C117.969 125.587 116.663 124.281 114.922 124.281C113.181 124.281 111.875 125.587 111.875 127.328V130.376H117.969Z" fill="white"/>
<path d="M121.016 130.375H124.063V127.328C124.063 128.852 122.757 130.375 121.016 130.375Z" fill="white"/>
<path d="M117.969 127.109V130.157H121.016C119.275 130.374 117.969 128.851 117.969 127.109Z" fill="white"/>
<path d="M130.374 124.062H124.062V130.374H130.374V124.062Z" fill="white"/>
<path d="M136.687 124.062H130.375V130.374H136.687V124.062Z" fill="white"/>
<path d="M142.781 124.062H136.469V130.374H142.781V124.062Z" fill="white"/>
<path d="M149.093 124.062H142.781V130.374H149.093V124.062Z" fill="white"/>
<path d="M155.187 124.062H148.875V130.374H155.187V124.062Z" fill="white"/>
<path d="M155.188 127.11V124.062H158.235C156.493 124.062 155.188 125.368 155.188 127.11Z" fill="white"/>
<path d="M155.188 127.109V130.157H158.235C156.493 130.374 155.188 128.851 155.188 127.109Z" fill="white"/>
<path d="M170.641 130.374H173.688V124.062H167.594V127.11C167.594 128.851 168.9 130.374 170.641 130.374Z" fill="white"/>
<path d="M179.999 124.062H173.688V130.374H179.999V124.062Z" fill="white"/>
<path d="M55.9381 130.375H52.8909C51.1497 130.375 49.8438 131.681 49.8438 133.422C49.8438 135.163 51.1497 136.469 52.8909 136.469H55.9381V130.375Z" fill="white"/>
<path d="M62.0318 133.422V136.469H55.9375V130.375H58.9847C60.7259 130.375 62.0318 131.681 62.0318 133.422Z" fill="white"/>
<path d="M74.4378 133.422V130.375H71.3906C73.1319 130.375 74.4378 131.681 74.4378 133.422Z" fill="white"/>
<path d="M77.4847 136.469H80.5318V130.375H74.4375V133.422C74.4375 135.163 75.7434 136.469 77.4847 136.469Z" fill="white"/>
<path d="M87.062 130.375H80.75V136.687H87.062V130.375Z" fill="white"/>
<path d="M93.1557 130.375H86.8438V136.687H93.1557V130.375Z" fill="white"/>
<path d="M99.4682 130.375H93.1562V136.687H99.4682V130.375Z" fill="white"/>
<path d="M105.562 130.375H99.25V136.687H105.562V130.375Z" fill="white"/>
<path d="M111.874 130.375H105.562V136.687H111.874V130.375Z" fill="white"/>
<path d="M117.968 130.375H111.656V136.687H117.968V130.375Z" fill="white"/>
<path d="M124.281 130.375H117.969V136.687H124.281V130.375Z" fill="white"/>
<path d="M130.374 130.375H124.062V136.687H130.374V130.375Z" fill="white"/>
<path d="M130.375 133.422V130.375H133.422C131.681 130.375 130.375 131.681 130.375 133.422Z" fill="white"/>
<path d="M148.875 133.422V130.375H145.828C147.569 130.375 148.875 131.681 148.875 133.422Z" fill="white"/>
<path d="M155.187 130.375H148.875V136.687H155.187V130.375Z" fill="white"/>
<path d="M161.282 133.422V136.469H155.188V130.375H158.235C159.976 130.375 161.282 131.681 161.282 133.422Z" fill="white"/>
<path d="M161.281 133.422V136.469H164.328C162.587 136.469 161.281 135.163 161.281 133.422Z" fill="white"/>
<path d="M173.688 133.422V130.375H170.641C172.382 130.375 173.688 131.681 173.688 133.422Z" fill="white"/>
<path d="M173.688 130.375V133.422C173.688 135.163 174.993 136.469 176.735 136.469C178.476 136.469 179.782 135.163 179.782 133.422V130.375H173.688Z" fill="white"/>
<path d="M55.9378 139.516V136.469H52.8906C54.4142 136.469 55.9378 137.775 55.9378 139.516Z" fill="white"/>
<path d="M55.9375 136.469V139.516C55.9375 141.257 57.2434 142.563 58.9847 142.563C60.7259 142.563 62.0318 141.257 62.0318 139.516V136.469H55.9375Z" fill="white"/>
<path d="M86.844 139.516V136.469H83.7969C85.5381 136.469 86.844 137.775 86.844 139.516Z" fill="white"/>
<path d="M93.1557 136.469H86.8438V142.781H93.1557V136.469Z" fill="white"/>
<path d="M93.1562 139.516V136.469H96.2034C94.4622 136.469 93.1562 137.775 93.1562 139.516Z" fill="white"/>
<path d="M117.969 139.516V136.469H114.922C116.445 136.469 117.969 137.775 117.969 139.516Z" fill="white"/>
<path d="M114.703 142.782H117.75V139.734C117.968 141.258 116.444 142.782 114.703 142.782Z" fill="white"/>
<path d="M124.281 136.469H117.969V142.781H124.281V136.469Z" fill="white"/>
<path d="M130.374 136.469H124.062V142.781H130.374V136.469Z" fill="white"/>
<path d="M136.469 139.516C136.469 141.257 137.775 142.563 139.516 142.563C141.257 142.563 142.563 141.257 142.563 139.516C142.563 137.775 141.257 136.469 139.516 136.469C137.775 136.469 136.469 137.775 136.469 139.516Z" fill="white"/>
<path d="M155.187 136.469H148.875V142.781H155.187V136.469Z" fill="white"/>
<path d="M161.499 136.469H155.188V142.781H161.499V136.469Z" fill="white"/>
<path d="M167.593 136.469H161.281V142.781H167.593V136.469Z" fill="white"/>
<path d="M173.688 139.516V142.563H167.594V136.469H170.641C172.382 136.469 173.688 137.775 173.688 139.516Z" fill="white"/>
<path d="M173.688 139.516V142.563H176.735C174.993 142.78 173.688 141.257 173.688 139.516Z" fill="white"/>
<path d="M62.0312 145.828C62.0312 147.57 63.3372 148.876 65.0784 148.876C66.8196 148.876 68.1256 147.57 68.1256 145.828C68.1256 144.087 66.8196 142.781 65.0784 142.781C63.3372 142.781 62.0312 144.087 62.0312 145.828Z" fill="white"/>
<path d="M83.7969 148.875H86.844V145.828C86.844 147.569 85.5381 148.875 83.7969 148.875Z" fill="white"/>
<path d="M93.1557 142.781H86.8438V149.093H93.1557V142.781Z" fill="white"/>
<path d="M93.1562 145.828V148.875H96.2034C94.4622 148.875 93.1562 147.569 93.1562 145.828Z" fill="white"/>
<path d="M117.969 142.781H114.922C113.181 142.781 111.875 144.087 111.875 145.828C111.875 147.57 113.181 148.876 114.922 148.876H117.969V142.781Z" fill="white"/>
<path d="M124.281 142.781H117.969V149.093H124.281V142.781Z" fill="white"/>
<path d="M130.374 142.781H124.062V149.093H130.374V142.781Z" fill="white"/>
<path d="M130.375 145.828V148.875H133.422C131.681 148.875 130.375 147.569 130.375 145.828Z" fill="white"/>
<path d="M145.828 148.875H148.875V145.828C148.875 147.569 147.569 148.875 145.828 148.875Z" fill="white"/>
<path d="M155.187 142.781H148.875V149.093H155.187V142.781Z" fill="white"/>
<path d="M158.235 148.876H155.188V142.781H161.282V145.828C161.282 147.57 159.976 148.876 158.235 148.876Z" fill="white"/>
<path d="M161.281 145.828V142.781H164.328C162.587 142.781 161.281 144.087 161.281 145.828Z" fill="white"/>
<path d="M167.594 145.828V142.781H164.547C166.07 142.781 167.594 144.087 167.594 145.828Z" fill="white"/>
<path d="M170.641 148.876H173.688V142.781H167.594V145.828C167.594 147.57 168.9 148.876 170.641 148.876Z" fill="white"/>
<path d="M173.688 148.876H176.735C178.476 148.876 179.782 147.57 179.782 145.828C179.782 144.087 178.476 142.781 176.735 142.781H173.688V148.876Z" fill="white"/>
<path d="M49.625 151.923V154.97H55.937V148.658H52.8898C50.9309 148.876 49.625 150.182 49.625 151.923Z" fill="white"/>
<path d="M62.0318 151.923V154.97H55.9375V148.658H58.9847C60.7259 148.876 62.0318 150.182 62.0318 151.923Z" fill="white"/>
<path d="M68.3438 151.922C68.3438 153.663 69.6497 154.969 71.3909 154.969C73.1321 154.969 74.4381 153.663 74.4381 151.922C74.4381 150.181 73.1321 148.875 71.3909 148.875C69.6497 148.875 68.3438 150.181 68.3438 151.922Z" fill="white"/>
<path d="M80.75 151.923V154.97H87.062V148.658H84.0148C82.0559 148.876 80.75 150.182 80.75 151.923Z" fill="white"/>
<path d="M93.1557 148.875H86.8438V155.187H93.1557V148.875Z" fill="white"/>
<path d="M99.2495 151.923V154.97H92.9375V148.658H95.9847C97.9435 148.876 99.2495 150.182 99.2495 151.923Z" fill="white"/>
<path d="M117.969 151.922V148.875H114.922C116.445 148.875 117.969 150.181 117.969 151.922Z" fill="white"/>
<path d="M121.016 155.187H124.063V148.875H117.969V151.922C117.969 153.663 119.275 155.187 121.016 155.187Z" fill="white"/>
<path d="M130.374 148.875H124.062V155.187H130.374V148.875Z" fill="white"/>
<path d="M136.687 148.875H130.375V155.187H136.687V148.875Z" fill="white"/>
<path d="M142.781 148.875H136.469V155.187H142.781V148.875Z" fill="white"/>
<path d="M149.093 148.875H142.781V155.187H149.093V148.875Z" fill="white"/>
<path d="M155.187 148.875H148.875V155.187H155.187V148.875Z" fill="white"/>
<path d="M155.188 151.922V148.875H158.235C156.493 148.875 155.188 150.181 155.188 151.922Z" fill="white"/>
<path d="M155.188 151.922V154.969H158.235C156.493 155.187 155.188 153.663 155.188 151.922Z" fill="white"/>
<path d="M55.937 155.188H49.625V161.499H55.937V155.188Z" fill="white"/>
<path d="M62.2495 155.188H55.9375V161.499H62.2495V155.188Z" fill="white"/>
<path d="M77.4844 161.282H80.5315V158.234C80.7492 159.976 79.2256 161.282 77.4844 161.282Z" fill="white"/>
<path d="M87.062 155.188H80.75V161.499H87.062V155.188Z" fill="white"/>
<path d="M86.8438 158.235V155.188H89.8909C88.1497 155.188 86.8438 156.493 86.8438 158.235Z" fill="white"/>
<path d="M93.1565 158.235V155.188H90.1094C91.633 155.188 93.1565 156.493 93.1565 158.235Z" fill="white"/>
<path d="M89.8906 161.282H92.9378V158.234C93.1554 159.976 91.6319 161.282 89.8906 161.282Z" fill="white"/>
<path d="M86.8438 158.234V161.282H89.8909C88.1497 161.282 86.8438 159.976 86.8438 158.234Z" fill="white"/>
<path d="M99.4682 155.188H93.1562V161.499H99.4682V155.188Z" fill="white"/>
<path d="M102.297 161.282H105.344V158.234C105.562 159.976 104.038 161.282 102.297 161.282Z" fill="white"/>
<path d="M99.25 158.234V161.282H102.297C100.556 161.282 99.25 159.976 99.25 158.234Z" fill="white"/>
<path d="M105.562 158.235V161.282H111.874V155.188H108.827C106.868 155.187 105.562 156.493 105.562 158.235Z" fill="white"/>
<path d="M117.969 158.235V161.282H111.875V155.188H114.922C116.446 155.187 117.969 156.493 117.969 158.235Z" fill="white"/>
<path d="M124.063 158.235V155.188H121.016C122.757 155.188 124.063 156.493 124.063 158.235Z" fill="white"/>
<path d="M127.11 161.282H130.157V155.188H124.062V158.235C124.062 159.976 125.368 161.282 127.11 161.282Z" fill="white"/>
<path d="M136.687 155.188H130.375V161.499H136.687V155.188Z" fill="white"/>
<path d="M142.781 155.188H136.469V161.499H142.781V155.188Z" fill="white"/>
<path d="M142.781 158.235V155.188H145.828C144.087 155.188 142.781 156.493 142.781 158.235Z" fill="white"/>
<path d="M148.875 158.235V155.188H145.828C147.569 155.188 148.875 156.493 148.875 158.235Z" fill="white"/>
<path d="M145.828 161.282H148.875V158.234C148.875 159.976 147.569 161.282 145.828 161.282Z" fill="white"/>
<path d="M142.781 158.234V161.282H145.828C144.087 161.282 142.781 159.976 142.781 158.234Z" fill="white"/>
<path d="M155.187 155.188H148.875V161.499H155.187V155.188Z" fill="white"/>
<path d="M155.187 161.282H158.235C159.976 161.282 161.282 159.976 161.282 158.235C161.282 156.493 159.976 155.188 158.235 155.188H155.187V161.282Z" fill="white"/>
<path d="M52.673 167.594H55.7202V161.5H49.4082V164.547C49.6259 166.071 50.9318 167.594 52.673 167.594Z" fill="white"/>
<path d="M62.2495 161.281H55.9375V167.593H62.2495V161.281Z" fill="white"/>
<path d="M68.3438 164.33V167.595H74.6557V161.5H71.6086C69.6497 161.283 68.3438 162.589 68.3438 164.33Z" fill="white"/>
<path d="M80.7495 161.281H74.4375V167.593H80.7495V161.281Z" fill="white"/>
<path d="M87.062 161.281H80.75V167.593H87.062V161.281Z" fill="white"/>
<path d="M93.1557 161.281H86.8438V167.593H93.1557V161.281Z" fill="white"/>
<path d="M99.4682 161.281H93.1562V167.593H99.4682V161.281Z" fill="white"/>
<path d="M105.562 161.281H99.25V167.593H105.562V161.281Z" fill="white"/>
<path d="M111.874 161.281H105.562V167.593H111.874V161.281Z" fill="white"/>
<path d="M117.968 161.281H111.656V167.593H117.968V161.281Z" fill="white"/>
<path d="M117.969 164.328V167.593H121.016C119.275 167.593 117.969 166.069 117.969 164.328Z" fill="white"/>
<path d="M130.375 164.328V161.281H127.328C128.852 161.281 130.375 162.587 130.375 164.328Z" fill="white"/>
<path d="M133.422 167.594H136.469V161.5H130.375V164.547C130.375 166.071 131.681 167.594 133.422 167.594Z" fill="white"/>
<path d="M142.781 161.281H136.469V167.593H142.781V161.281Z" fill="white"/>
<path d="M149.093 161.281H142.781V167.593H149.093V161.281Z" fill="white"/>
<path d="M151.922 167.594H148.875V161.5H155.187V164.547C155.187 166.071 153.663 167.594 151.922 167.594Z" fill="white"/>
<path d="M155.188 164.328V161.281H158.235C156.493 161.281 155.188 162.587 155.188 164.328Z" fill="white"/>
<path d="M167.594 161.281H164.547C162.806 161.281 161.5 162.587 161.5 164.328C161.5 166.07 162.806 167.376 164.547 167.376H167.594V161.281Z" fill="white"/>
<path d="M167.594 167.594H170.641C172.382 167.594 173.688 166.288 173.688 164.547C173.688 162.806 172.382 161.5 170.641 161.5H167.594V167.594Z" fill="white"/>
<path d="M55.9378 170.641V167.594H52.8906C54.4142 167.594 55.9378 168.9 55.9378 170.641Z" fill="white"/>
<path d="M55.9375 167.594V170.641C55.9375 172.382 57.2434 173.688 58.9847 173.688C60.7259 173.688 62.0318 172.382 62.0318 170.641V167.594H55.9375Z" fill="white"/>
<path d="M65.0781 173.688H68.1253V170.641C68.3429 172.382 66.8194 173.688 65.0781 173.688Z" fill="white"/>
<path d="M74.6557 167.594H68.3438V173.906H74.6557V167.594Z" fill="white"/>
<path d="M77.4847 173.688H74.4375V167.594H80.5318V170.641C80.7495 172.382 79.2259 173.688 77.4847 173.688Z" fill="white"/>
<path d="M80.75 170.641V167.594H83.7972C82.0559 167.594 80.75 168.9 80.75 170.641Z" fill="white"/>
<path d="M86.844 170.641V167.594H83.7968C85.5381 167.594 86.844 168.9 86.844 170.641Z" fill="white"/>
<path d="M93.1557 167.594H86.8438V173.906H93.1557V167.594Z" fill="white"/>
<path d="M93.1562 170.641V167.594H96.2034C94.4622 167.594 93.1562 168.9 93.1562 170.641Z" fill="white"/>
<path d="M99.2503 170.641V167.594H96.2032C97.9444 167.594 99.2503 168.9 99.2503 170.641Z" fill="white"/>
<path d="M102.297 173.688H105.344V167.594H99.25V170.641C99.25 172.382 100.556 173.688 102.297 173.688Z" fill="white"/>
<path d="M111.874 167.594H105.562V173.906H111.874V167.594Z" fill="white"/>
<path d="M117.968 167.594H111.656V173.906H117.968V167.594Z" fill="white"/>
<path d="M124.281 167.594H117.969V173.906H124.281V167.594Z" fill="white"/>
<path d="M124.062 173.688H127.11C128.851 173.688 130.157 172.382 130.157 170.641C130.157 168.9 128.851 167.594 127.11 167.594H124.062V173.688Z" fill="white"/>
<path d="M142.782 170.641V167.594H139.734C141.258 167.594 142.782 168.9 142.782 170.641Z" fill="white"/>
<path d="M139.516 173.688H142.563V170.641C142.78 172.382 141.257 173.688 139.516 173.688Z" fill="white"/>
<path d="M149.093 167.594H142.781V173.906H149.093V167.594Z" fill="white"/>
<path d="M148.875 170.641V167.594H151.922C150.181 167.594 148.875 168.9 148.875 170.641Z" fill="white"/>
<path d="M151.922 173.688H154.969V170.641C155.187 172.382 153.663 173.688 151.922 173.688Z" fill="white"/>
<path d="M148.875 170.641V173.688H151.922C150.181 173.688 148.875 172.382 148.875 170.641Z" fill="white"/>
<path d="M161.282 173.688V170.641C161.282 168.9 159.976 167.594 158.235 167.594C156.493 167.594 155.187 168.9 155.187 170.641V173.688H161.282Z" fill="white"/>
<path d="M173.688 170.641C173.688 172.382 174.993 173.688 176.735 173.688C178.476 173.688 179.782 172.382 179.782 170.641C179.782 168.9 178.476 167.594 176.735 167.594C174.993 167.594 173.688 168.9 173.688 170.641Z" fill="white"/>
<path d="M68.3443 173.688H65.2972C63.5559 173.688 62.25 174.993 62.25 176.735C62.25 178.476 63.5559 179.782 65.2972 179.782H68.3443V173.688Z" fill="white"/>
<path d="M71.3909 179.999H68.3438V173.688H74.6557V176.735C74.4381 178.476 73.1321 179.999 71.3909 179.999Z" fill="white"/>
<path d="M74.4375 176.735V173.688H77.4847C75.7434 173.688 74.4375 174.993 74.4375 176.735Z" fill="white"/>
<path d="M86.8438 173.688V176.735C86.8438 178.476 88.1497 179.782 89.8909 179.782C91.6321 179.782 92.9381 178.476 92.9381 176.735V173.688H86.8438Z" fill="white"/>
<path d="M105.562 176.735V173.688H102.297C104.038 173.688 105.562 174.993 105.562 176.735Z" fill="white"/>
<path d="M108.609 179.999H111.656V173.688H105.344V176.735C105.561 178.476 106.867 179.999 108.609 179.999Z" fill="white"/>
<path d="M117.968 173.688H111.656V179.999H117.968V173.688Z" fill="white"/>
<path d="M121.016 179.999H117.969V173.688H124.063V176.735C124.063 178.476 122.757 179.999 121.016 179.999Z" fill="white"/>
<path d="M124.062 176.735V173.688H127.11C125.368 173.688 124.062 174.993 124.062 176.735Z" fill="white"/>
<path d="M136.469 173.688H133.422C131.681 173.688 130.375 174.993 130.375 176.735C130.375 178.476 131.681 179.782 133.422 179.782H136.469V173.688Z" fill="white"/>
<path d="M142.781 173.688H136.469V179.999H142.781V173.688Z" fill="white"/>
<path d="M149.093 173.688H142.781V179.999H149.093V173.688Z" fill="white"/>
<path d="M155.187 173.688H148.875V179.999H155.187V173.688Z" fill="white"/>
<path d="M158.235 179.999H155.188V173.688H161.282V176.735C161.282 178.476 159.976 179.999 158.235 179.999Z" fill="white"/>
<path d="M1.30593 0C0.652963 0 0 0.652963 0 1.30593V6.09432V12.1886V18.2829V24.5949V30.6892V37.0012V41.7896C0 42.8779 0.652963 43.5308 1.30593 43.5308H42.0073C42.6602 43.5308 43.3132 42.8779 43.3132 42.2249V37.4365V31.1245V25.0302V18.7183V12.4063V6.31197V1.30593C43.5308 0.652963 42.8779 0 42.0073 0H1.30593ZM37.2189 12.4063V18.5006V24.8126V30.9069V36.3483C37.2189 36.7836 36.7836 37.0012 36.5659 37.0012H6.96493C6.52963 37.0012 6.31197 36.5659 6.31197 36.3483V30.9069V24.8126V18.7183V12.4063V6.96493C6.31197 6.52963 6.52963 6.31197 6.96493 6.31197H36.5659C37.0012 6.31197 37.2189 6.74728 37.2189 6.96493V12.4063Z" fill="white"/>
<path d="M31.1245 24.8125V18.7182V13.7122C31.1245 13.0592 30.4716 12.4062 29.8186 12.4062H13.7122C13.0592 12.4062 12.4063 13.0592 12.4063 13.7122V18.5006V24.8125V29.6009C12.4063 30.2539 13.0592 30.9069 13.7122 30.9069H29.601C30.2539 30.9069 30.9069 30.2539 30.9069 29.6009V24.8125H31.1245Z" fill="white"/>
<path d="M137.775 0C137.122 0 136.469 0.652963 136.469 1.30593V6.09432V12.1886V18.2829V24.5949V30.6892V37.0012V41.7896C136.469 42.4426 137.122 43.0955 137.775 43.0955H178.476C179.129 43.0955 179.782 42.4426 179.782 41.7896V37.0012V30.6892V24.5949V18.7183V12.4063V6.31197V1.30593C180 0.652963 179.347 0 178.476 0H137.775ZM173.688 12.4063V18.5006V24.8126V30.9069V36.3483C173.688 36.7836 173.252 37.0012 173.035 37.0012H143.434C142.998 37.0012 142.781 36.5659 142.781 36.3483V30.9069V24.8126V18.7183V12.4063V6.96493C142.781 6.52963 143.216 6.31197 143.434 6.31197H173.035C173.47 6.31197 173.688 6.74728 173.688 6.96493V12.4063Z" fill="white"/>
<path d="M167.593 24.8125V18.7182V13.7122C167.593 13.0592 166.94 12.4062 166.287 12.4062H150.181C149.528 12.4062 148.875 13.0592 148.875 13.7122V18.5006V24.8125V29.6009C148.875 30.2539 149.528 30.9069 150.181 30.9069H166.07C166.723 30.9069 167.376 30.2539 167.376 29.6009V24.8125H167.593Z" fill="white"/>
<path d="M1.30593 136.469C0.652963 136.469 0 137.122 0 137.775V142.563V148.657V154.969V161.064V167.593V173.688V178.476C0 179.129 0.652963 179.782 1.30593 179.782H42.0073C42.6602 179.782 43.3132 179.129 43.3132 178.476V173.688V167.593V161.499V155.405V149.093V142.998V138.21C43.3132 137.557 42.6602 136.904 42.0073 136.904C42.0073 136.469 1.30593 136.469 1.30593 136.469ZM37.2189 148.875V155.187V161.281V167.593V173.035C37.2189 173.47 36.7836 173.688 36.5659 173.688H6.96493C6.52963 173.688 6.31197 173.252 6.31197 173.035V167.593V161.499V155.405V149.093V143.651C6.31197 143.216 6.74728 142.998 6.96493 142.998H36.5659C37.0012 142.998 37.2189 143.434 37.2189 143.651V148.875Z" fill="white"/>
<path d="M31.1245 161.281V155.187V150.181C31.1245 149.528 30.4715 148.875 29.8186 148.875H13.7122C13.0592 148.875 12.4062 149.528 12.4062 150.181V154.969V161.064V165.852C12.4062 166.94 13.0592 167.593 13.7122 167.593H29.6009C30.2539 167.593 30.9069 166.94 30.9069 166.287V161.281H31.1245Z" fill="white"/>
<g clip-path="url(#clip1_359_3441)">
<path d="M80.283 81H75V100H80.283V81Z" fill="white"/>
<path d="M96.4526 81C94.7151 81 92.091 81.3991 90.7081 84.1181C89.7859 82.2328 87.9067 81 85.1409 81C83.9013 81 82.9324 81.3869 82.0443 82.024V85.7209C82.3221 85.5865 82.7385 85.4602 83.2973 85.4602C85.638 85.4602 86.3465 87.4548 86.3465 89.9925V100H91.5947V90.0289C91.5947 87.5268 92.3039 85.4602 94.609 85.4602C96.9141 85.4602 97.6582 87.4548 97.6582 89.9925V100H102.942V89.8832C102.941 85.1696 101.558 81 96.4526 81Z" fill="white"/>
</g>
</g>
<defs>
<clipPath id="clip0_359_3441">
<rect width="180" height="180" fill="white"/>
</clipPath>
<clipPath id="clip1_359_3441">
<rect width="27.9412" height="19" fill="white" transform="translate(75 81)"/>
</clipPath>
</defs>
</svg>
