<svg width="130" height="130" viewBox="0 0 130 130" fill="none" xmlns="http://www.w3.org/2000/svg">
<rect width="130" height="130" rx="20" fill="#1F2424"/>
<path d="M46.25 65H65V83.75M31.2875 65H31.25M50.0375 83.75H50M65.0375 98.75H65M98.7875 65H98.75M31.25 83.75H36.875M78.125 65H85.625M31.25 98.75H50M65 27.5V50M86 98.75H92.75C94.8502 98.75 95.9003 98.75 96.7025 98.3413C97.4081 97.9817 97.9817 97.4081 98.3413 96.7025C98.75 95.9003 98.75 94.8502 98.75 92.75V86C98.75 83.8998 98.75 82.8497 98.3413 82.0475C97.9817 81.3419 97.4081 80.7683 96.7025 80.4087C95.9003 80 94.8502 80 92.75 80H86C83.8998 80 82.8497 80 82.0475 80.4087C81.3419 80.7683 80.7682 81.3419 80.4087 82.0475C80 82.8497 80 83.8998 80 86V92.75C80 94.8502 80 95.9003 80.4087 96.7025C80.7682 97.4081 81.3419 97.9817 82.0475 98.3413C82.8497 98.75 83.8998 98.75 86 98.75ZM86 50H92.75C94.8502 50 95.9003 50 96.7025 49.5913C97.4081 49.2317 97.9817 48.6581 98.3413 47.9525C98.75 47.1503 98.75 46.1002 98.75 44V37.25C98.75 35.1498 98.75 34.0997 98.3413 33.2975C97.9817 32.5919 97.4081 32.0183 96.7025 31.6587C95.9003 31.25 94.8502 31.25 92.75 31.25H86C83.8998 31.25 82.8497 31.25 82.0475 31.6587C81.3419 32.0183 80.7682 32.5919 80.4087 33.2975C80 34.0997 80 35.1498 80 37.25V44C80 46.1002 80 47.1503 80.4087 47.9525C80.7682 48.6581 81.3419 49.2317 82.0475 49.5913C82.8497 50 83.8998 50 86 50ZM37.25 50H44C46.1002 50 47.1503 50 47.9525 49.5913C48.6581 49.2317 49.2317 48.6581 49.5913 47.9525C50 47.1503 50 46.1002 50 44V37.25C50 35.1498 50 34.0997 49.5913 33.2975C49.2317 32.5919 48.6581 32.0183 47.9525 31.6587C47.1503 31.25 46.1002 31.25 44 31.25H37.25C35.1498 31.25 34.0997 31.25 33.2975 31.6587C32.5919 32.0183 32.0183 32.5919 31.6587 33.2975C31.25 34.0997 31.25 35.1498 31.25 37.25V44C31.25 46.1002 31.25 47.1503 31.6587 47.9525C32.0183 48.6581 32.5919 49.2317 33.2975 49.5913C34.0997 50 35.1498 50 37.25 50Z" stroke="white" stroke-width="4" stroke-linecap="round" stroke-linejoin="round"/>
</svg>
