<svg width="77" height="77" viewBox="0 0 77 77" fill="none" xmlns="http://www.w3.org/2000/svg">
<rect width="77" height="77" rx="14" fill="#2657D4"/>
<path d="M31.3 21H43.7C46.9553 21 48.583 21 49.8263 21.6358C50.92 22.1951 51.8092 23.0874 52.3665 24.1851C53 25.4329 53 27.0664 53 30.3333V56L47.6719 52.1111L42.8281 56L37.5 52.1111L32.1719 56L27.3281 52.1111L22 56V30.3333C22 27.0664 22 25.4329 22.6335 24.1851C23.1908 23.0874 24.08 22.1951 25.1737 21.6358C26.417 21 28.0447 21 31.3 21Z" fill="white"/>
<path d="M31.6875 35.5833L35.5625 39.4722L44.2813 30.7222M53 56V30.3333C53 27.0664 53 25.4329 52.3665 24.1851C51.8092 23.0874 50.92 22.1951 49.8263 21.6358C48.583 21 46.9553 21 43.7 21H31.3C28.0447 21 26.417 21 25.1737 21.6358C24.08 22.1951 23.1908 23.0874 22.6335 24.1851C22 25.4329 22 27.0664 22 30.3333V56L27.3281 52.1111L32.1719 56L37.5 52.1111L42.8281 56L47.6719 52.1111L53 56Z" stroke="#2657D4" stroke-width="3" stroke-linecap="round" stroke-linejoin="round"/>
</svg>
