<svg width="78" height="78" viewBox="0 0 78 78" fill="none" xmlns="http://www.w3.org/2000/svg">
<g clip-path="url(#clip0_873_3431)">
<path d="M63.49 0H14C6.26801 0 0 6.26801 0 14V63.49C0 71.222 6.26801 77.49 14 77.49H63.49C71.222 77.49 77.49 71.222 77.49 63.49V14C77.49 6.26801 71.222 0 63.49 0Z" fill="#2657D4"/>
<path d="M32.2654 32.1727C33.6079 34.9688 35.438 37.5895 37.7556 39.9071C40.0733 42.2248 42.694 44.0549 45.4901 45.3974C45.7306 45.5129 45.8508 45.5706 46.003 45.615C46.5438 45.7726 47.2078 45.6594 47.6658 45.3314C47.7946 45.2392 47.9049 45.1289 48.1254 44.9084C48.7997 44.2341 49.1369 43.8969 49.476 43.6765C50.7546 42.8451 52.4029 42.8451 53.6816 43.6765C54.0206 43.8969 54.3578 44.2341 55.0321 44.9084L55.408 45.2843C56.4331 46.3094 56.9456 46.8219 57.2241 47.3724C57.7778 48.4671 57.7778 49.76 57.2241 50.8547C56.9456 51.4052 56.4331 51.9177 55.408 52.9428L55.104 53.2469C54.0824 54.2684 53.5716 54.7792 52.8771 55.1693C52.1066 55.6022 50.9097 55.9135 50.0259 55.9108C49.2293 55.9085 48.685 55.7539 47.5962 55.4449C41.7452 53.7842 36.2241 50.6508 31.618 46.0448C27.0119 41.4387 23.8786 35.9176 22.2179 30.0666C21.9088 28.9778 21.7543 28.4334 21.752 27.6369C21.7493 26.7531 22.0606 25.5562 22.4935 24.7856C22.8836 24.0912 23.3944 23.5804 24.4159 22.5588L24.72 22.2548C25.7451 21.2297 26.2576 20.7172 26.8081 20.4387C27.9028 19.885 29.1957 19.885 30.2904 20.4387C30.8409 20.7172 31.3534 21.2297 32.3785 22.2548L32.7544 22.6307C33.4287 23.305 33.7659 23.6422 33.9863 23.9812C34.8176 25.2598 34.8177 26.9082 33.9863 28.1868C33.7659 28.5259 33.4287 28.8631 32.7544 29.5374C32.5339 29.7579 32.4236 29.8681 32.3313 29.997C32.0034 30.455 31.8902 31.119 32.0478 31.6598C32.0922 31.812 32.1499 31.9322 32.2654 32.1727Z" fill="white"/>
</g>
<defs>
<clipPath id="clip0_873_3431">
<rect width="78" height="78" fill="white"/>
</clipPath>
</defs>
</svg>
