<svg width="130" height="130" viewBox="0 0 130 130" fill="none" xmlns="http://www.w3.org/2000/svg">
<rect width="130" height="130" rx="20" fill="#1F2424"/>
<path d="M102.5 57.5H27.5M61.25 72.5H42.5M27.5 50.75L27.5 79.25C27.5 83.4504 27.5 85.5506 28.3175 87.1549C29.0365 88.5661 30.1839 89.7135 31.5951 90.4325C33.1994 91.25 35.2996 91.25 39.5 91.25L90.5 91.25C94.7004 91.25 96.8006 91.25 98.4049 90.4325C99.8161 89.7135 100.964 88.5661 101.683 87.1549C102.5 85.5506 102.5 83.4504 102.5 79.25V50.75C102.5 46.5496 102.5 44.4494 101.683 42.8451C100.964 41.4339 99.8161 40.2865 98.4049 39.5675C96.8006 38.75 94.7004 38.75 90.5 38.75L39.5 38.75C35.2996 38.75 33.1994 38.75 31.5951 39.5675C30.1839 40.2865 29.0365 41.4339 28.3175 42.8451C27.5 44.4494 27.5 46.5496 27.5 50.75Z" stroke="white" stroke-width="4" stroke-linecap="round" stroke-linejoin="round"/>
</svg>
