<svg width="130" height="130" viewBox="0 0 130 130" fill="none" xmlns="http://www.w3.org/2000/svg">
<rect width="130" height="130" rx="20" fill="#1F2424"/>
<path d="M102.5 51.875H27.5M27.5 66.875H40.8C42.8258 66.875 43.8386 66.875 44.818 67.0496C45.6873 67.2045 46.5354 67.4613 47.3447 67.8146C48.2564 68.2126 49.0991 68.7744 50.7846 69.8981L52.9654 71.3519C54.6509 72.4756 55.4936 73.0374 56.4053 73.4354C57.2146 73.7887 58.0627 74.0455 58.932 74.2004C59.9114 74.375 60.9242 74.375 62.95 74.375H67.05C69.0758 74.375 70.0886 74.375 71.068 74.2004C71.9373 74.0455 72.7854 73.7887 73.5946 73.4354C74.5064 73.0374 75.3491 72.4756 77.0346 71.3519L79.2154 69.8981C80.9008 68.7744 81.7436 68.2126 82.6554 67.8146C83.4646 67.4613 84.3127 67.2045 85.182 67.0496C86.1614 66.875 87.1742 66.875 89.2 66.875H102.5M27.5 47L27.5 83C27.5 87.2004 27.5 89.3006 28.3175 90.9049C29.0365 92.3161 30.1839 93.4635 31.5951 94.1825C33.1994 95 35.2996 95 39.5 95L90.5 95C94.7004 95 96.8006 95 98.4049 94.1826C99.8161 93.4635 100.964 92.3161 101.683 90.9049C102.5 89.3006 102.5 87.2004 102.5 83V47C102.5 42.7996 102.5 40.6994 101.683 39.0951C100.964 37.6839 99.8161 36.5365 98.4049 35.8175C96.8006 35 94.7004 35 90.5 35L39.5 35C35.2996 35 33.1994 35 31.5951 35.8175C30.1839 36.5365 29.0365 37.6839 28.3175 39.0951C27.5 40.6994 27.5 42.7996 27.5 47Z" stroke="white" stroke-width="4" stroke-linecap="round" stroke-linejoin="round"/>
</svg>
