<svg width="133" height="28" viewBox="0 0 133 28" fill="none" xmlns="http://www.w3.org/2000/svg">
<g clip-path="url(#clip0_446_524)">
<path d="M77.6183 4.20483C82.2667 4.20483 86.3584 7.55299 86.3584 12.4797C86.3584 17.4064 82.2667 20.7878 77.6183 20.7878C72.9699 20.7878 68.8782 17.4728 68.8782 12.4797C68.8782 7.48653 72.999 4.20483 77.6183 4.20483ZM77.6183 16.8207C79.9113 16.8207 81.8637 14.9597 81.8637 12.4797C81.8637 9.99972 79.9113 8.17194 77.6183 8.17194C75.3253 8.17194 73.3729 9.99972 73.3729 12.4797C73.3729 14.9597 75.3585 16.8207 77.6183 16.8207Z" fill="#0E1414"/>
<path d="M87.5714 4.20483H92.1907V6.71388C93.5242 4.85286 95.1982 4.20483 97.1216 4.20483C101.587 4.20483 102.796 7.769 102.796 11.7984V20.4471H98.1767V11.8898C98.1767 9.68817 97.3708 8.01409 95.2315 8.01409C93.0921 8.01409 92.1949 9.71725 92.1949 11.9189V20.443H87.5756V4.20483H87.5714Z" fill="#0E1414"/>
<path d="M109.505 4.24218H113.908V7.86866H109.505V15.6159C109.505 16.2972 109.783 17.0117 110.685 17.0117C111.586 17.0117 111.893 16.2681 111.893 15.5246C111.893 15.0593 111.769 14.4071 111.677 14.162H115.337C115.615 14.7519 115.711 15.4955 115.711 16.0521C115.711 18.4075 114.161 20.796 110.41 20.796C107.619 20.796 104.894 19.8032 104.894 15.1839L104.865 0.644775H109.513V4.24633L109.505 4.24218Z" fill="#0E1414"/>
<path d="M4.6193 4.20483H0V20.4471H4.6193V4.20483Z" fill="#0E1414"/>
<path d="M18.7555 4.20483C17.2351 4.20483 14.9421 4.54547 13.7332 6.87173C12.9273 5.25996 11.2823 4.20483 8.86469 4.20483C7.78048 4.20483 6.93306 4.53716 6.15625 5.08134V8.24256C6.39718 8.12625 6.76274 8.01825 7.25292 8.01825C9.30086 8.01825 9.91981 9.7214 9.91981 11.894V20.4513H14.5059V11.9272C14.5059 9.78787 15.1248 8.0224 17.1395 8.0224C19.1543 8.0224 19.8064 9.72556 19.8064 11.8981V20.4555H24.4257V11.8067C24.4257 7.77731 23.2169 4.21314 18.7513 4.21314L18.7555 4.20483Z" fill="#0E1414"/>
<path d="M48.1994 4.20483H43.5801V20.4471H48.1994V4.20483Z" fill="#0E1414"/>
<path d="M62.3314 4.20483C60.811 4.20483 58.518 4.54547 57.3092 6.87173C56.5033 5.25996 54.8583 4.20483 52.4406 4.20483C51.3564 4.20483 50.509 4.53716 49.7322 5.08134V8.24256C49.9731 8.12625 50.3387 8.01825 50.8288 8.01825C52.8768 8.01825 53.4957 9.7214 53.4957 11.894V20.4513H58.0818V11.9272C58.0818 9.78787 58.7008 8.0224 60.7155 8.0224C62.7302 8.0224 63.3824 9.72556 63.3824 11.8981V20.4555H68.0017V11.8067C68.0017 7.77731 66.7928 4.21314 62.3272 4.21314L62.3314 4.20483Z" fill="#0E1414"/>
<path d="M31.712 11.599L28.4884 4.20483H23.8691L29.3525 16.9079L31.712 11.599Z" fill="#0E1414"/>
<path d="M37.2576 4.20483L26.9639 27.3595H31.5956L41.8893 4.20483H37.2576Z" fill="#0E1414"/>
<path d="M122.823 11.599L119.599 4.20483H114.98L120.467 16.9079L122.823 11.599Z" fill="#0E1414"/>
<path d="M128.368 4.20483L118.079 27.3595H122.71L133 4.20483H128.368Z" fill="#0E1414"/>
</g>
<defs>
<clipPath id="clip0_446_524">
<rect width="133" height="26.7188" fill="white" transform="translate(0 0.640625)"/>
</clipPath>
</defs>
</svg>
