<svg width="24" height="24" viewBox="0 0 24 24" fill="none" xmlns="http://www.w3.org/2000/svg">
<rect x="0.25" y="0.25" width="23.5" height="23.5" rx="11.75" fill="#E1F9FF"/>
<rect x="0.25" y="0.25" width="23.5" height="23.5" rx="11.75" stroke="#F2F4F7" stroke-width="0.5"/>
<path d="M4.74074 7.94499C4.62108 7.83198 4.44159 7.83862 4.32858 7.95164C4.20892 8.07129 4.12915 8.23749 4.33523 8.40368C4.72744 8.71612 4.72744 9.18147 4.72744 9.65345C4.72744 10.1254 4.88034 10.4312 5.42545 10.4312C5.97057 10.4312 6.59545 11.0561 6.20324 11.681C5.81102 12.3059 5.11301 13.1635 6.05034 13.549C6.98767 13.9346 5.81767 14.9517 7.06079 15.2641C8.31057 15.5766 8.07125 16.7466 9.08835 16.5139C10.1055 16.2812 10.6439 15.6564 10.6439 15.191C10.6439 14.7257 10.3315 13.5557 10.8766 13.5557C11.4217 13.5557 11.2688 14.5661 12.1995 14.8054C13.1302 15.0448 12.1197 15.9754 12.8244 16.6735C13.529 17.3715 11.887 18.3088 12.5119 18.9337C13.1368 19.5586 13.3695 18.6212 15.0846 18.9337C16.7997 19.2461 17.1122 18.701 17.4246 17.9232C17.737 17.1454 18.6744 16.9859 18.907 16.0552C19.1397 15.1179 18.7541 14.3401 19.2993 13.4825C19.8444 12.625 20.077 11.6145 19.2993 10.8301C18.5215 10.0457 18.2822 9.95925 18.5148 8.94215C18.7475 7.92504 18.0495 6.44925 16.9593 6.44925C16.9593 6.44925 16.2945 6.48914 15.4369 6.09692C14.5794 5.7047 14.114 4.84715 13.0969 5.23936C12.0798 5.63158 11.2289 4.92692 10.2118 5.93737C9.19472 6.94783 9.12824 7.81203 9.43403 8.66959C9.73983 9.52715 8.18426 10.6174 7.48625 9.91936C6.82148 9.24794 5.87085 9.00862 4.74074 7.94499Z" fill="#4DDDFF"/>
<path d="M14.2205 18.8605C13.2632 18.9204 13.0106 19.4189 12.512 18.9204C11.8871 18.2955 13.5224 17.3581 12.8244 16.6601C12.1264 15.9621 13.1369 15.0248 12.1995 14.7921C11.2622 14.5594 11.4218 13.5423 10.8766 13.5423C10.3315 13.5423 10.644 14.7123 10.644 15.1777C10.644 15.643 10.0989 16.2679 9.08176 16.5006C8.0713 16.7333 8.30398 15.5633 7.0542 15.2508C5.80443 14.9384 6.97443 13.9279 6.04375 13.5357C5.10642 13.1435 5.81108 12.2859 6.19665 11.6677C6.58221 11.0494 5.96397 10.4179 5.41886 10.4179C4.87375 10.4179 4.72085 10.1055 4.72085 9.64013C4.72085 9.17479 4.72085 8.7028 4.32863 8.39035C4.12255 8.22416 4.20233 8.05797 4.32199 7.93831C4.435 7.8253 4.62113 7.81865 4.73415 7.93166C5.86426 8.9953 6.81488 9.24126 7.4863 9.90604C8.18432 10.604 9.74653 9.51382 9.43409 8.65626C9.12829 7.812 9.20142 6.96774 10.172 5.97058C10.2052 6.68189 10.5243 7.34666 10.7636 8.76927C11.096 10.7171 9.69335 9.34098 8.41034 10.5043C7.12733 11.6677 7.14727 10.4578 6.9146 11.9801C6.67528 13.5025 7.57937 13.6952 9.24795 14.2869C10.9165 14.8785 10.0324 13.2365 10.6307 12.3125C11.229 11.3818 12.6316 11.8339 12.984 13.077C13.343 14.3135 13.5823 15.1976 14.3401 16.813C14.8254 17.8634 14.7323 18.3486 14.2205 18.8605Z" fill="#DAE6F1"/>
<path d="M14.2205 18.8605C13.2632 18.9204 13.0106 19.4189 12.512 18.9204C11.8871 18.2955 13.5224 17.3581 12.8244 16.6601C12.1264 15.9621 13.1369 15.0248 12.1995 14.7921C11.2622 14.5594 11.4218 13.5423 10.8766 13.5423C10.3315 13.5423 10.644 14.7123 10.644 15.1777C10.644 15.643 10.0989 16.2679 9.08176 16.5006C8.0713 16.7333 8.30398 15.5633 7.0542 15.2508C5.80443 14.9384 6.97443 13.9279 6.04375 13.5357C5.10642 13.1435 5.81108 12.2859 6.19665 11.6677C6.58221 11.0494 5.96397 10.4179 5.41886 10.4179C4.87375 10.4179 4.72085 10.1055 4.72085 9.64013C4.72085 9.17479 4.72085 8.7028 4.32863 8.39035C4.12255 8.22416 4.20233 8.05797 4.32199 7.93831C4.435 7.8253 4.62113 7.81865 4.73415 7.93166C5.86426 8.9953 6.81488 9.24126 7.4863 9.90604C8.18432 10.604 9.74653 9.51382 9.43409 8.65626C9.12829 7.812 9.20142 6.96774 10.172 5.97058C10.2052 6.68189 10.5243 7.34666 10.7636 8.76927C11.096 10.7171 9.69335 9.34098 8.41034 10.5043C7.12733 11.6677 7.14727 10.4578 6.9146 11.9801C6.67528 13.5025 7.57937 13.6952 9.24795 14.2869C10.9165 14.8785 10.0324 13.2365 10.6307 12.3125C11.229 11.3818 12.6316 11.8339 12.984 13.077C13.343 14.3135 13.5823 15.1976 14.3401 16.813C14.8254 17.8634 14.7323 18.3486 14.2205 18.8605Z" fill="#1CC1F5"/>
</svg>
