<svg width="24" height="24" viewBox="0 0 24 24" fill="none" xmlns="http://www.w3.org/2000/svg">
<g clip-path="url(#clip0_845_13695)">
<path d="M0 12C0 5.37262 5.37262 0 12 0C18.6274 0 24 5.37262 24 12C23.4783 12 12 13.5652 12 13.5652L0 12Z" fill="#D80027"/>
<path d="M23.9999 12.0002C23.9999 18.6276 18.6273 24.0002 11.9999 24.0002C5.3725 24.0002 -0.00012207 18.6276 -0.00012207 12.0002" fill="black"/>
<path d="M10.354 9.54365L11.3713 10.2819L10.9836 11.4776L12.0002 10.7381L13.0175 11.4764L12.6284 10.2811L13.6448 9.54168L12.3879 9.54243L11.9987 8.34717L11.611 9.54286L10.354 9.54365Z" fill="#FFDA44"/>
<path d="M14.9998 6.80332C14.0542 6.25736 13.0202 5.99969 11.9998 6.00147V7.56635C12.754 7.56499 13.5182 7.7553 14.2172 8.1589C16.3349 9.38158 17.0631 12.0992 15.8403 14.2169C14.6177 16.3346 11.9001 17.0628 9.78236 15.8402C9.16539 15.484 8.66734 15.0003 8.30022 14.4422L6.99353 15.3048C7.49026 16.06 8.16508 16.7137 8.99978 17.1956C11.865 18.8498 15.5417 17.8646 17.1959 14.9995C18.8501 12.1343 17.865 8.45754 14.9998 6.80332Z" fill="#FFDA44"/>
<path d="M8.53959 10.9561C8.12475 11.7144 8.40328 12.6656 9.16162 13.0804L14.2452 15.8582C13.8995 16.4902 14.0831 17.2593 14.715 17.605L16.0882 18.3562C16.7201 18.702 17.5128 18.4698 17.8585 17.8379L18.6097 16.4647L8.53959 10.9561Z" fill="#FFDA44"/>
</g>
<defs>
<clipPath id="clip0_845_13695">
<rect width="24" height="24" fill="white"/>
</clipPath>
</defs>
</svg>
