<svg width="24" height="24" viewBox="0 0 24 24" fill="none" xmlns="http://www.w3.org/2000/svg">
<g clip-path="url(#clip0_845_14345)">
<path d="M12 24C18.6274 24 24 18.6274 24 12C24 5.37258 18.6274 0 12 0C5.37258 0 0 5.37258 0 12C0 18.6274 5.37258 24 12 24Z" fill="#338AF3"/>
<path d="M6.73869 11.542C6.62621 11.3065 6.62621 11.3065 6.62621 11.071C6.56836 11.071 6.56193 11.08 6.52979 11.071C6.49444 11.0619 6.48158 11.2883 6.37553 11.2461C6.35946 11.2219 6.45266 11.0589 6.35303 10.9894C6.32089 10.9683 6.35946 10.8324 6.3466 10.7721C6.3466 10.7721 6.21805 10.8445 6.12163 10.597C6.07342 10.5305 6.00915 10.6573 6.00915 10.6573C6.00915 10.6573 6.03807 10.7298 5.98665 10.7479C5.91595 10.6936 5.86131 10.7238 5.77132 10.6453C5.68133 10.5698 5.79061 10.4822 5.61706 10.4188C5.72954 10.1229 5.72954 10.1803 6.00915 10.0626C5.84203 9.9418 5.84203 9.9418 5.72954 9.76668C5.56242 9.7063 5.50457 9.64592 5.33745 9.53119C5.11248 9.23229 5 8.64054 5 8.22691C5.14141 8.08803 5.33745 8.70092 5.61706 8.87905L6.00915 9.05718C6.23412 9.17493 6.28875 9.29268 6.45909 9.41042L6.96045 9.59157C7.18541 9.76668 7.2979 10.0022 7.46502 10.0626C7.64821 10.0626 7.68356 9.95085 7.74141 9.94481C8.07243 9.9267 8.23955 9.88443 8.30383 9.77876C8.37132 9.69422 8.5288 9.82707 8.97874 9.64894L8.9241 9.41042C8.9241 9.41042 9.04302 9.30777 9.20371 9.35004C9.20049 9.24437 9.18764 8.95755 9.34833 8.8247C9.25192 8.71903 9.40618 8.55298 9.41261 8.50165C9.36761 8.24201 9.4576 8.23899 9.47688 8.16049C9.49617 8.08501 9.39975 8.10916 9.42546 8.00349C9.45439 7.89782 9.61829 7.87367 9.63758 7.78611C9.66007 7.69856 9.60222 7.35437 9.5958 7.27889C9.8979 7.19435 9.99431 6.93471 10.1004 7.0434C10.155 6.68713 10.2129 6.56637 10.5503 6.56637C10.5953 6.45768 10.425 6.36408 10.4925 6.32785C10.6049 6.31276 10.6885 6.32182 10.8203 6.49995C10.8621 6.56033 10.8717 6.41843 10.9135 6.40333C10.9553 6.38824 11.0549 6.38824 11.071 6.3188C11.087 6.24634 11.1095 6.14972 11.1674 6.03198C11.2124 5.93536 11.2477 6.07122 11.2895 6.25841C11.5273 6.26747 12.0608 6.32182 12.2858 6.38824C12.4529 6.43352 12.5654 6.34295 12.7261 6.32182C12.845 6.44862 12.9575 6.35201 13.0218 6.62373C13.1085 6.76865 13.2564 6.63581 13.2885 6.67808C13.4749 7.22455 14.1177 6.85621 14.1691 6.86527C14.2494 6.86527 14.3491 7.1068 14.4166 7.10378C14.5194 7.08566 14.4905 7.01019 14.5837 7.04038C14.558 7.24568 14.7637 7.48118 14.7637 7.63515C14.7637 7.63515 14.8119 7.66233 14.8601 7.61704C14.9051 7.56873 14.9468 7.454 14.9886 7.45702C15.085 7.47212 15.6957 7.63817 15.8178 7.69554C15.8724 7.80121 15.9239 7.85555 16.0363 7.83744C16.1263 7.90084 16.0621 7.9884 16.1135 7.99141C16.226 7.93103 16.2645 7.87065 16.377 7.92801C16.4895 7.9884 16.602 8.10614 16.6566 8.22389C16.6566 8.28427 16.5988 8.51977 16.6566 8.87603C16.6855 8.99378 16.9684 9.85122 16.9684 9.93878C16.9684 10.0595 16.8816 10.1199 16.8237 10.2377C17.0487 10.4158 16.8237 10.7117 16.7112 10.8898C17.5533 11.0679 17.1612 11.4212 17.8329 11.2431C17.6658 11.6597 17.7236 11.6265 17.8907 12.0401C17.5565 12.2756 17.8843 12.3481 17.6625 12.6439C17.6465 12.6651 17.7943 12.9036 18 12.9036C17.9454 13.3746 17.775 13.1995 17.8329 13.909C17.3926 13.8999 17.5693 14.4404 17.2737 14.383C17.2897 14.7211 17.4408 14.7513 17.3829 15.0925C17.158 15.1529 17.158 15.1529 17.0487 15.331L16.8816 15.2706C16.8237 15.5665 16.7112 15.6269 16.8816 15.9228C16.8816 15.9228 16.663 15.9288 16.5988 15.9228C16.5955 16.0254 16.6952 16.0526 16.7112 16.1583C16.7048 16.2005 16.3931 16.3877 16.152 16.3968C16.0878 16.5417 16.3192 16.6987 16.3063 16.7711C16.0428 16.8255 15.9271 17.1636 15.9271 17.1636C15.9271 17.1636 16.0621 17.224 16.0396 17.2844C15.9689 17.2301 15.9271 17.224 15.8146 17.224C15.7599 17.2391 15.6218 17.224 15.4932 17.4565C15.3486 17.5048 15.2811 17.4867 15.1718 17.6377C15.1236 17.4958 15.0529 17.6407 14.9693 17.698C14.8826 17.7524 14.7701 17.8943 14.754 17.8882C14.7572 17.846 14.8054 17.698 14.8054 17.698L14.4937 17.7675C14.4712 17.7705 14.4776 17.5954 14.423 17.6014C14.3684 17.6075 14.2173 17.8218 14.1659 17.8279C14.1145 17.8339 14.0984 17.7614 14.0534 17.7675C14.0084 17.7735 13.9248 17.9939 13.8927 18C13.8606 18.003 13.732 17.8641 13.626 17.8852C13.0764 18.0905 12.9864 17.4807 12.9028 17.8248C12.7871 17.7584 12.8064 17.7946 12.6875 17.8279C12.6136 17.849 12.6072 17.7252 12.5397 17.7252C12.4079 17.7312 12.4111 17.8641 12.3404 17.8248C12.2826 17.5471 11.9226 17.5954 11.8905 17.4776C11.8583 17.3569 12.0447 17.3569 12.1026 17.2723C12.1476 17.1516 12.0544 17.1033 12.2408 16.9885C12.4818 16.8164 12.4593 16.3907 12.3983 16.2247C12.3983 16.2247 12.2087 15.6903 12.1733 15.6903C12.0608 15.6601 12.0608 15.8865 11.8969 15.9499C11.5595 16.0707 10.9649 15.651 10.8621 15.651C10.7688 15.651 10.3318 15.7597 10.3478 15.5303C10.2836 15.7537 10.0425 15.5816 10.0265 15.5816C9.80148 15.5816 9.88826 15.7658 9.73721 15.7597C9.66972 15.7356 8.97874 15.6903 8.97874 15.6903V15.8111L8.13993 15.4548C7.80247 15.334 7.96959 15.0412 7.41038 15.2193V14.863H7.13078C7.24326 14.1505 7.13078 14.5068 7.07293 13.8546L6.84796 13.915C6.62299 13.595 7.16292 13.6554 6.68084 13.441C6.68084 13.441 6.69048 13.0878 6.56836 13.2055C6.54586 13.2206 6.62621 13.3806 6.62621 13.3806C6.17627 13.3202 6.067 13.2055 6.067 12.7315C6.067 12.7315 6.43337 12.7859 6.40124 12.7315C6.34981 12.6409 6.28232 12.0673 6.29197 12.025C6.28875 11.9465 6.63585 11.7533 6.56836 11.5661C6.61335 11.548 6.73869 11.545 6.73869 11.545" fill="#F0F0F0"/>
</g>
<defs>
<clipPath id="clip0_845_14345">
<rect width="24" height="24" fill="white"/>
</clipPath>
</defs>
</svg>
