<svg width="24" height="24" viewBox="0 0 24 24" fill="none" xmlns="http://www.w3.org/2000/svg">
<g clip-path="url(#clip0_845_13757)">
<path d="M0.567113 8.34765C0.19952 9.49932 0.000441415 10.7262 0.00048829 11.9998C0.000441415 13.2734 0.19952 14.5003 0.56716 15.652L12.0005 16.1738L23.4338 15.652C23.8013 14.5003 24.0004 13.2733 24.0004 11.9999C24.0004 10.7263 23.8014 9.49932 23.4338 8.34765L12.0004 7.82593L0.567113 8.34765Z" fill="#F0F0F0"/>
<path d="M24.0004 12.0006C24.0004 11.2887 23.938 10.5914 23.8191 9.91357H0.181679C0.06271 10.5914 0.000366211 11.2886 0.000366211 12.0005C0.000366211 12.7125 0.0627568 13.4097 0.181679 14.0875H23.8191C23.938 13.4096 24.0004 12.7124 24.0004 12.0006Z" fill="black"/>
<path d="M11.9999 23.9995C17.3537 23.9995 21.888 20.4931 23.4331 15.6516H0.566528C2.11176 20.493 6.64603 23.9994 11.9999 23.9995Z" fill="#338AF3"/>
<path d="M12.0004 -0.00073242C6.64656 -0.00073242 2.11234 3.50566 0.567017 8.347L23.4336 8.34705C21.8884 3.50566 17.3542 -0.00082617 12.0004 -0.00073242Z" fill="#338AF3"/>
</g>
<defs>
<clipPath id="clip0_845_13757">
<rect width="24" height="24" fill="white"/>
</clipPath>
</defs>
</svg>
