<svg width="24" height="24" viewBox="0 0 24 24" fill="none" xmlns="http://www.w3.org/2000/svg">
<g clip-path="url(#clip0_845_13781)">
<path d="M12 24C18.6274 24 24 18.6274 24 12C24 5.37258 18.6274 0 12 0C5.37258 0 0 5.37258 0 12C0 18.6274 5.37258 24 12 24Z" fill="#F0F0F0"/>
<path d="M22.5405 6.26023C20.9898 3.41825 18.3234 1.27283 15.13 0.412109L14.6083 6.26023H22.5405Z" fill="#0052B4"/>
<path d="M1.45898 6.26048H9.39117L8.86945 0.412354C5.676 1.27307 3.00966 3.41854 1.45898 6.26048Z" fill="#0052B4"/>
<path d="M14.6083 12.0017V17.7408H22.5405C23.4707 16.036 23.9996 14.0806 23.9996 12.0017H14.6083Z" fill="#6DA544"/>
<path d="M9.39119 12.0007H-0.00012207C-0.00012207 14.0796 0.528769 16.035 1.45896 17.7399H9.39114V12.0007H9.39119Z" fill="#6DA544"/>
<path d="M1.45911 17.7395C3.00978 20.5815 5.67612 22.7269 8.86957 23.5876L9.39129 18.4731L1.45911 17.7395Z" fill="#FFDA44"/>
<path d="M15.1301 23.5881C18.3236 22.7274 20.99 20.582 22.5406 17.74L14.6084 18.4735L15.1301 23.5881Z" fill="#FFDA44"/>
<path d="M14.6084 18.4735L22.5406 17.74H14.6084V18.4735Z" fill="#FFDA44"/>
<path d="M9.39134 17.7395H1.45911L9.39134 18.473V17.7395Z" fill="#FFDA44"/>
<path d="M12.0001 0.000488281C10.9169 0.000488281 9.86779 0.144863 8.86963 0.413879V23.5871C9.86779 23.8561 10.9169 24.0005 12.0001 24.0005C13.0832 24.0005 14.1324 23.8561 15.1305 23.5871V0.413879C14.1324 0.144863 13.0832 0.000488281 12.0001 0.000488281Z" fill="#D80027"/>
<path d="M6.45426 2.60913L6.77798 3.60555H7.82577L6.97818 4.2214L7.30195 5.21782L6.45426 4.60202L5.60662 5.21782L5.93048 4.2214L5.08289 3.60555H6.13059L6.45426 2.60913Z" fill="#FFDA44"/>
</g>
<defs>
<clipPath id="clip0_845_13781">
<rect width="24" height="24" fill="white"/>
</clipPath>
</defs>
</svg>
