<svg width="24" height="24" viewBox="0 0 24 24" fill="none" xmlns="http://www.w3.org/2000/svg">
<g clip-path="url(#clip0_845_14315)">
<path d="M12 24C18.6274 24 24 18.6274 24 12C24 5.37258 18.6274 0 12 0C5.37258 0 0 5.37258 0 12C0 18.6274 5.37258 24 12 24Z" fill="#FFDA44"/>
<mask id="mask0_845_14315" style="mask-type:alpha" maskUnits="userSpaceOnUse" x="0" y="0" width="24" height="24">
<path d="M12 24C18.6274 24 24 18.6274 24 12C24 5.37258 18.6274 0 12 0C5.37258 0 0 5.37258 0 12C0 18.6274 5.37258 24 12 24Z" fill="#FFDA44"/>
</mask>
<g mask="url(#mask0_845_14315)">
<path fill-rule="evenodd" clip-rule="evenodd" d="M-7 -8V24.3333L25.3333 -8H-7Z" fill="#6DA544"/>
<path fill-rule="evenodd" clip-rule="evenodd" d="M4.16675 25.3333H36.5001V-7L4.16675 25.3333Z" fill="#D80027"/>
</g>
</g>
<defs>
<clipPath id="clip0_845_14315">
<rect width="24" height="24" fill="white"/>
</clipPath>
</defs>
</svg>
