<svg width="24" height="24" viewBox="0 0 24 24" fill="none" xmlns="http://www.w3.org/2000/svg">
<g clip-path="url(#clip0_845_13787)">
<path d="M12 24C18.6274 24 24 18.6274 24 12C24 5.37258 18.6274 0 12 0C5.37258 0 0 5.37258 0 12C0 18.6274 5.37258 24 12 24Z" fill="#D80027"/>
<path d="M6.56731 7.30151L7.60325 10.489H10.9548L8.24543 12.4624L9.28137 15.6499L6.56731 13.6812L3.85325 15.6499L4.89387 12.4624L2.17981 10.489H5.53137L6.56731 7.30151Z" fill="#FFDA44"/>
<path d="M14.2262 18.5845L13.434 17.6095L12.2622 18.0642L12.9418 17.0095L12.1497 16.0298L13.3637 16.3533L14.0481 15.2986L14.1137 16.5548L15.3325 16.8783L14.1559 17.3283L14.2262 18.5845Z" fill="#FFDA44"/>
<path d="M15.8017 15.7252L16.1767 14.5251L15.1501 13.7986L16.4064 13.7798L16.7767 12.5798L17.1845 13.7705L18.4408 13.7564L17.433 14.5064L17.8361 15.697L16.8095 14.9705L15.8017 15.7252Z" fill="#FFDA44"/>
<path d="M17.9253 8.80649L17.3722 9.93618L18.2722 10.8127L17.03 10.6346L16.4769 11.7596L16.2613 10.5221L15.0144 10.344L16.13 9.75806L15.9144 8.51587L16.8144 9.39243L17.9253 8.80649Z" fill="#FFDA44"/>
<path d="M14.2592 5.38501L14.1654 6.63657L15.3326 7.11001L14.1092 7.41001L14.0201 8.66626L13.3592 7.59751L12.1357 7.89751L12.9467 6.93657L12.2811 5.87251L13.4482 6.34595L14.2592 5.38501Z" fill="#FFDA44"/>
</g>
<defs>
<clipPath id="clip0_845_13787">
<rect width="24" height="24" fill="white"/>
</clipPath>
</defs>
</svg>
