<svg width="24" height="24" viewBox="0 0 24 24" fill="none" xmlns="http://www.w3.org/2000/svg">
<g clip-path="url(#clip0_751_3077)">
<path d="M12 24C18.6274 24 24 18.6274 24 12C24 5.37258 18.6274 0 12 0C5.37258 0 0 5.37258 0 12C0 18.6274 5.37258 24 12 24Z" fill="#0052B4"/>
<path d="M12 3L12.4787 4.4733H14.0277L12.7745 5.38382L13.2532 6.85712L12 5.94654L10.7467 6.85712L11.2254 5.38382L9.97217 4.4733H11.5212L12 3Z" fill="#FFDA44"/>
<path d="M5.63638 5.63619L7.01675 6.33943L8.11209 5.24414L7.86969 6.7741L9.25 7.47739L7.71998 7.71974L7.47764 9.24981L6.77434 7.8695L5.24438 8.1119L6.33973 7.01656L5.63638 5.63619Z" fill="#FFDA44"/>
<path d="M3.00024 11.9997L4.47354 11.521V9.97192L5.38401 11.2252L6.85737 10.7465L5.94673 11.9997L6.85737 13.253L5.38401 12.7743L4.47354 14.0276V12.4785L3.00024 11.9997Z" fill="#FFDA44"/>
<path d="M5.63638 18.3638L6.33967 16.9834L5.24438 15.8881L6.7744 16.1306L7.47758 14.7502L7.71998 16.2803L9.24994 16.5226L7.8698 17.2259L8.11209 18.7559L7.01675 17.6605L5.63638 18.3638Z" fill="#FFDA44"/>
<path d="M12 20.9998L11.5212 19.5265H9.97217L11.2255 18.616L10.7467 17.1428L12 18.0533L13.2532 17.1428L12.7745 18.616L14.0277 19.5265H12.4787L12 20.9998Z" fill="#FFDA44"/>
<path d="M18.364 18.3638L16.9837 17.6606L15.8883 18.7559L16.1307 17.2258L14.7505 16.5226L16.2804 16.2803L16.5228 14.7502L17.226 16.1306L18.756 15.8881L17.6606 16.9836L18.364 18.3638Z" fill="#FFDA44"/>
<path d="M21.0001 11.9997L19.5268 12.4785V14.0276L18.6163 12.7742L17.1431 13.253L18.0536 11.9997L17.1431 10.7465L18.6163 11.2252L19.5268 9.97192V11.5211L21.0001 11.9997Z" fill="#FFDA44"/>
<path d="M18.364 5.63613L17.6607 7.0165L18.756 8.11185L17.226 7.86939L16.5228 9.2497L16.2804 7.71968L14.7505 7.47728L16.1307 6.77404L15.8883 5.24414L16.9837 6.33943L18.364 5.63613Z" fill="#FFDA44"/>
</g>
<defs>
<clipPath id="clip0_751_3077">
<rect width="24" height="24" fill="white"/>
</clipPath>
</defs>
</svg>
