<svg width="24" height="24" viewBox="0 0 24 24" fill="none" xmlns="http://www.w3.org/2000/svg">
<g clip-path="url(#clip0_845_14364)">
<circle cx="12" cy="12" r="12" fill="#0052B4"/>
<path d="M20.4855 20.486C20.9889 19.9826 21.4378 19.4455 21.8331 18.8821L5.11816 2.16711C4.55477 2.56232 4.01763 3.01129 3.51424 3.51468C3.01084 4.01807 2.56188 4.55521 2.16663 5.11865L18.8815 21.8335C19.4449 21.4383 19.9821 20.9894 20.4855 20.486Z" fill="#F0F0F0"/>
<path d="M3.51424 20.4858C4.01763 20.9892 4.55477 21.4382 5.11816 21.8334L21.8331 5.11852C21.4379 4.55513 20.989 4.01799 20.4856 3.5146C19.9822 3.01121 19.445 2.56224 18.8816 2.16699L2.16672 18.8819C2.56193 19.4453 3.01085 19.9824 3.51424 20.4858Z" fill="#F0F0F0"/>
</g>
<defs>
<clipPath id="clip0_845_14364">
<rect width="24" height="24" fill="white"/>
</clipPath>
</defs>
</svg>
