<svg width="24" height="24" viewBox="0 0 24 24" fill="none" xmlns="http://www.w3.org/2000/svg">
<rect x="0.25" y="0.25" width="23.5" height="23.5" rx="11.75" stroke="#F2F4F7" stroke-width="0.5"/>
<path d="M11.9851 21.97C17.4997 21.97 21.9701 17.4996 21.9701 11.985C21.9701 6.47044 17.4997 2 11.9851 2C6.47056 2 2.00012 6.47044 2.00012 11.985C2.00012 17.4996 6.47056 21.97 11.9851 21.97Z" fill="#BAF2FF"/>
<path d="M11.9925 2C12.6334 1.99993 13.2728 2.06127 13.902 2.18317C9.30097 3.07432 5.82649 7.12358 5.82649 11.985C5.82649 16.8464 9.30097 20.8957 13.902 21.7868C13.2728 21.9087 12.6334 21.9701 11.9925 21.97C6.47789 21.97 2.00746 17.4996 2.00746 11.985C2.00746 6.47043 6.47789 2 11.9925 2Z" fill="#9FE8FA"/>
<path d="M9.19509 9.6742L8.1174 11.1965C7.5982 11.93 7.77185 12.9454 8.50527 13.4646L8.7792 13.6585C8.99978 13.8146 9.17799 14.0233 9.29773 14.2656C9.41748 14.5079 9.47498 14.7762 9.46506 15.0463L9.30717 19.3385C9.30022 19.5278 9.34613 19.7153 9.43975 19.88C9.53337 20.0446 9.67101 20.18 9.83723 20.2708C10.0034 20.3617 10.1917 20.4044 10.3808 20.3943C10.57 20.3842 10.7526 20.3216 10.9082 20.2135L13.8605 18.1624C14.2883 17.8653 14.6609 17.4958 14.9619 17.0708L16.8642 14.3835C17.274 13.8046 17.137 13.0032 16.5581 12.5934L11.8041 9.22796C10.9604 8.63081 9.79232 8.83056 9.19509 9.6742ZM11.3757 2.95955C11.1445 2.69444 11.1123 2.32133 11.2713 2.02625C9.54343 2.14839 7.93706 2.71003 6.56317 3.60027L5.16404 4.9994C4.80148 5.36196 4.59779 5.85369 4.59778 6.36643V7.92495C4.59778 8.32966 5.05258 8.56753 5.385 8.33672L6.53461 7.53857C6.90852 7.27898 7.35283 7.13986 7.80802 7.13985H9.28755C9.52756 7.13985 9.76523 7.09257 9.98697 7.00072C10.2087 6.90887 10.4102 6.77424 10.5799 6.60452L12.0399 5.14453C12.4132 4.77124 12.4336 4.17264 12.0866 3.77475L11.3757 2.95955Z" fill="#00BA66"/>
<path d="M18.6238 4.52698L18.0522 6.51635C17.8274 7.29889 17.8871 8.13577 18.2207 8.87847L18.8448 10.2678C18.9495 10.5008 19.1038 10.7082 19.2969 10.8754C19.4901 11.0426 19.7174 11.1656 19.963 11.2358C20.2086 11.3059 20.4666 11.3217 20.719 11.2818C20.9713 11.2419 21.2119 11.1474 21.4239 11.0049L21.8872 10.6933C21.5718 8.25114 20.3738 6.08591 18.6238 4.52698Z" fill="#00BA66"/>
</svg>
