<svg width="24" height="24" viewBox="0 0 24 24" fill="none" xmlns="http://www.w3.org/2000/svg">
<g clip-path="url(#clip0_845_13851)">
<path d="M12 24C18.6274 24 24 18.6274 24 12C24 5.37258 18.6274 0 12 0C5.37258 0 0 5.37258 0 12C0 18.6274 5.37258 24 12 24Z" fill="#F0F0F0"/>
<path d="M12.0004 0.000732422C7.0394 0.000732422 2.78183 3.01133 0.954224 7.30508H23.0466C21.219 3.01133 16.9614 0.000732422 12.0004 0.000732422Z" fill="#A2001D"/>
<path d="M12.0004 24.0006C16.9614 24.0006 21.219 20.99 23.0466 16.6963H0.954224C2.78183 20.99 7.0394 24.0006 12.0004 24.0006Z" fill="#496E2D"/>
<path d="M23.5865 8.86963H0.413269C0.144253 9.86774 -0.00012207 10.9169 -0.00012207 12.0001C-0.00012207 13.0832 0.144253 14.1324 0.413269 15.1305H23.5865C23.8555 14.1324 23.9999 13.0832 23.9999 12.0001C23.9999 10.9169 23.8555 9.86774 23.5865 8.86963Z" fill="#0052B4"/>
</g>
<defs>
<clipPath id="clip0_845_13851">
<rect width="24" height="24" fill="white"/>
</clipPath>
</defs>
</svg>
