<svg width="24" height="24" viewBox="0 0 24 24" fill="none" xmlns="http://www.w3.org/2000/svg">
<g clip-path="url(#clip0_845_13883)">
<path d="M12 24C18.6274 24 24 18.6274 24 12C24 5.37258 18.6274 0 12 0C5.37258 0 0 5.37258 0 12C0 18.6274 5.37258 24 12 24Z" fill="#D80027"/>
<path d="M13.2391 9.07764C12.9664 10.212 12.4818 9.99564 12.244 10.9849C10.8433 10.6481 9.98058 9.2395 10.3174 7.83864C10.654 6.43787 12.0628 5.57519 13.4636 5.91198C12.9879 7.89044 13.4831 8.06312 13.2391 9.07764Z" fill="#F0F0F0"/>
<path d="M9.6042 9.91773C10.5987 10.5276 10.2432 10.9217 11.1105 11.4535C10.3573 12.6817 8.75117 13.0668 7.52295 12.3137C6.29478 11.5605 5.9096 9.95424 6.66279 8.72607C8.39745 9.78976 8.71456 9.37225 9.6042 9.91773Z" fill="#F0F0F0"/>
<path d="M9.27995 13.635C10.1673 12.8776 10.4321 13.3375 11.206 12.677C12.1414 13.7728 12.0113 15.4194 10.9155 16.3548C9.81967 17.2902 8.17304 17.1599 7.23779 16.0642C8.78532 14.7432 8.48621 14.3124 9.27995 13.635Z" fill="#F0F0F0"/>
<path d="M12.7151 15.0917C12.2689 14.0137 12.7881 13.9038 12.399 12.9638C13.7303 12.4129 15.2561 13.0454 15.8071 14.3767C16.358 15.7079 15.7254 17.2337 14.3942 17.7847C13.6162 15.9045 13.1142 16.0559 12.7151 15.0917Z" fill="#F0F0F0"/>
<path d="M15.162 12.2741C13.9989 12.3653 14.0547 11.8375 13.0406 11.9171C12.9279 10.4809 14.0011 9.22507 15.4374 9.11234C16.8736 8.99988 18.1294 10.0729 18.242 11.5093C16.2134 11.6683 16.2022 12.1925 15.162 12.2741Z" fill="#F0F0F0"/>
</g>
<defs>
<clipPath id="clip0_845_13883">
<rect width="24" height="24" fill="white"/>
</clipPath>
</defs>
</svg>
