<svg width="24" height="24" viewBox="0 0 24 24" fill="none" xmlns="http://www.w3.org/2000/svg">
<g clip-path="url(#clip0_845_13773)">
<path d="M0.000244141 12.0009C0.000244141 14.0798 0.529135 16.0351 1.45932 17.74L12.0002 18.7835L22.5412 17.74C23.4714 16.0351 24.0002 14.0798 24.0002 12.0009C24.0002 9.92198 23.4714 7.96664 22.5412 6.26175L12.0002 5.21826L1.45932 6.26175C0.529135 7.96664 0.000244141 9.92198 0.000244141 12.0009Z" fill="#D80027"/>
<path d="M1.45911 6.26135H22.5409C20.5057 2.53122 16.5485 0.000488281 12 0.000488281C7.45151 0.000488281 3.49437 2.53122 1.45911 6.26135Z" fill="#0052B4"/>
<path d="M12 24.0008C16.5485 24.0008 20.5057 21.4701 22.5409 17.74H1.45911C3.49437 21.4701 7.45151 24.0008 12 24.0008Z" fill="#0052B4"/>
<path d="M16.1744 14.3473V12.7821H15.1309V10.6951L14.0874 9.65167L13.0439 10.6951V8.60818L12.0005 7.5647L10.957 8.60818V10.6951L9.91349 9.65167L8.87 10.6951V12.7821H7.82657V14.3473H6.78308V15.9125H17.2178V14.3473H16.1744Z" fill="#F0F0F0"/>
</g>
<defs>
<clipPath id="clip0_845_13773">
<rect width="24" height="24" fill="white"/>
</clipPath>
</defs>
</svg>
