<svg width="24" height="24" viewBox="0 0 24 24" fill="none" xmlns="http://www.w3.org/2000/svg">
<g clip-path="url(#clip0_845_13779)">
<path d="M24 12C24 18.6274 18.6274 24 12 24C5.37262 24 0 18.6274 0 12C0 12.0029 12 0.0013125 12 0C18.6274 0 24 5.37262 24 12Z" fill="#0052B4"/>
<path d="M11.9686 12.0004H12.0008C12.0008 11.9896 12.0008 11.9791 12.0008 11.9683C11.9901 11.979 11.9794 11.9897 11.9686 12.0004Z" fill="#F0F0F0"/>
<path d="M12.0002 6.26037C12.0002 4.14889 12.0002 2.76537 12.0002 -0.000488281H11.9982C5.3717 0.000636719 0.000244141 5.37275 0.000244141 11.9995H6.2611V8.474L9.78662 11.9995H11.9682C11.9789 11.9888 11.9896 11.9781 12.0003 11.9674C12.0003 11.1589 12.0003 10.4376 12.0003 9.78598L8.47468 6.26037H12.0002Z" fill="#F0F0F0"/>
<path d="M17.2173 8.86925C18.3699 8.86925 19.3043 7.93489 19.3043 6.78228C19.3043 5.62968 18.3699 4.69531 17.2173 4.69531C16.0647 4.69531 15.1304 5.62968 15.1304 6.78228C15.1304 7.93489 16.0647 8.86925 17.2173 8.86925Z" fill="#6DA544"/>
<path d="M6.07063 1.56519C4.1938 2.63389 2.63348 4.19417 1.56482 6.071V12H4.69527V4.69573V4.69564H11.9996C11.9996 3.70831 11.9996 2.76772 11.9996 1.56519H6.07063Z" fill="#D80027"/>
<path d="M11.9993 10.5237L7.73576 6.26025H6.26013V6.26035L11.9992 11.9993H11.9993C11.9993 11.9993 11.9993 10.9818 11.9993 10.5237Z" fill="#D80027"/>
<path d="M20.8692 6.26025H13.5648V9.3907H20.8692V6.26025Z" fill="#D80027"/>
<path d="M13.5652 14.0869V16.1739H14.6632C15.3215 16.8191 16.2227 17.2174 17.2174 17.2174C18.212 17.2174 19.1132 16.8191 19.7715 16.1739H19.826H20.8695V14.0869H13.5652Z" fill="#FFDA44"/>
<path d="M13.5652 8.86914V11.9996C13.5652 14.7952 17.2174 15.6518 17.2174 15.6518C17.2174 15.6518 20.8695 14.7952 20.8695 11.9996V8.86914H13.5652Z" fill="#338AF3"/>
<path d="M17.2172 10.5403C16.3043 10.5403 16.3043 11.3751 15.3913 11.3751C14.4783 11.3751 14.4783 10.5403 13.5653 10.5403V12.0011C14.4783 12.0011 14.4783 12.8359 15.3913 12.8359C16.3043 12.8359 16.3043 12.0011 17.2172 12.0011C18.1303 12.0011 18.1303 12.8359 19.0434 12.8359C19.9566 12.8359 19.9565 12.0011 20.8696 12.0011V10.5403C19.9566 10.5403 19.9566 11.3751 19.0434 11.3751C18.1303 11.3751 18.1303 10.5403 17.2172 10.5403Z" fill="#F3F3F3"/>
<path d="M17.2171 7.6167C16.3041 7.6167 16.3041 8.4515 15.3912 8.4515C14.4782 8.4515 14.4782 7.6167 13.5652 7.6167V9.07756C14.4782 9.07756 14.4782 9.91236 15.3912 9.91236C16.3041 9.91236 16.3041 9.07756 17.2171 9.07756C18.1302 9.07756 18.1302 9.91236 19.0433 9.91236C19.9565 9.91236 19.9564 9.07756 20.8695 9.07756V7.6167C19.9565 7.6167 19.9565 8.4515 19.0433 8.4515C18.1302 8.4515 18.1302 7.6167 17.2171 7.6167Z" fill="#F3F3F3"/>
</g>
<defs>
<clipPath id="clip0_845_13779">
<rect width="24" height="24" fill="white"/>
</clipPath>
</defs>
</svg>
