<svg width="24" height="24" viewBox="0 0 24 24" fill="none" xmlns="http://www.w3.org/2000/svg">
<g clip-path="url(#clip0_845_13933)">
<path d="M1.19084 6.78274C0.427997 8.36037 0.00012207 10.1302 0.00012207 12.0001C0.00012207 13.87 0.427997 15.6399 1.19084 17.2175L12.0001 18.261L22.8094 17.2175C23.5722 15.6399 24.0001 13.87 24.0001 12.0001C24.0001 10.1302 23.5722 8.36037 22.8094 6.78274L12.0001 5.73926L1.19084 6.78274Z" fill="black"/>
<path d="M1.19141 17.2168C3.13231 21.2307 7.24273 23.9994 12.0003 23.9994C16.7577 23.9994 20.8682 21.2307 22.8091 17.2168H1.19141Z" fill="#496E2D"/>
<path d="M1.19141 6.78287H22.8091C20.8682 2.76892 16.7577 0.000244141 12.0003 0.000244141C7.24273 0.000244141 3.13231 2.76892 1.19141 6.78287Z" fill="#D80027"/>
<path d="M14.7933 9.80469L15.7779 11.1615L17.3724 10.6445L16.3863 12.0001L17.3707 13.3568L15.7768 12.8378L14.7906 14.1935L14.7917 12.5172L13.1976 11.9982L14.7922 11.4811L14.7933 9.80469Z" fill="#F0F0F0"/>
<path d="M12.1064 15.3904C10.2335 15.3904 8.7151 13.8721 8.7151 11.9991C8.7151 10.1262 10.2335 8.60782 12.1064 8.60782C12.6904 8.60782 13.2399 8.75548 13.7196 9.01545C12.967 8.27946 11.9378 7.8252 10.8021 7.8252C8.49685 7.8252 6.62817 9.69391 6.62817 11.9991C6.62817 14.3043 8.49689 16.173 10.8021 16.173C11.9378 16.173 12.967 15.7187 13.7196 14.9827C13.2398 15.2428 12.6904 15.3904 12.1064 15.3904Z" fill="#F0F0F0"/>
</g>
<defs>
<clipPath id="clip0_845_13933">
<rect width="24" height="24" fill="white"/>
</clipPath>
</defs>
</svg>
