<svg width="24" height="24" viewBox="0 0 24 24" fill="none" xmlns="http://www.w3.org/2000/svg">
<g clip-path="url(#clip0_845_13961)">
<path d="M1.45862 6.26037L11.9995 7.30386L22.5405 6.26037C20.5052 2.53025 16.5481 -0.000488281 11.9995 -0.000488281C7.45102 -0.000488281 3.49388 2.53025 1.45862 6.26037Z" fill="#D80027"/>
<path d="M1.45883 17.7384L11.9998 18.7819L22.5407 17.7384C23.4709 16.0335 23.9998 14.0782 23.9998 11.9993L11.9998 10.9558L-0.000244141 11.9993C-0.000244141 14.0782 0.528647 16.0335 1.45883 17.7384Z" fill="#FFDA44"/>
<path d="M1.45883 6.26099C0.528647 7.96588 -0.000244141 9.92122 -0.000244141 12.0001H23.9998C23.9998 9.92122 23.4709 7.96588 22.5407 6.26099H11.9998H1.45883Z" fill="#0052B4"/>
<path d="M11.9995 23.9996C16.5481 23.9996 20.5052 21.4689 22.5405 17.7388H1.45862C3.49388 21.4689 7.45102 23.9996 11.9995 23.9996Z" fill="#6DA544"/>
</g>
<defs>
<clipPath id="clip0_845_13961">
<rect width="24" height="24" fill="white"/>
</clipPath>
</defs>
</svg>
