<svg width="24" height="24" viewBox="0 0 24 24" fill="none" xmlns="http://www.w3.org/2000/svg">
<rect x="0.25" y="0.25" width="23.5" height="23.5" rx="11.75" fill="#E6FFF4"/>
<rect x="0.25" y="0.25" width="23.5" height="23.5" rx="11.75" stroke="#F2F4F7" stroke-width="0.5"/>
<g clip-path="url(#clip0_845_14186)">
<path d="M13.5623 3.76016C13.5623 3.76016 13.3994 3.92303 13.5623 4.35513C13.7252 4.78723 13.1468 5.09635 13.4892 5.6182C13.8315 6.14005 14.3567 5.89076 14.719 6.32286C15.0813 6.75496 14.8819 7.20701 15.6231 7.33331C16.3643 7.45962 15.9854 7.78536 16.5438 7.78536C17.1022 7.78536 16.8695 7.38649 17.4845 7.54936C18.0994 7.71223 17.1055 6.95439 16.7632 6.30291C16.4208 5.65144 17.0158 4.96672 16.5272 4.38837C16.0386 3.81334 14.267 3.09206 13.5623 3.76016Z" fill="#43CB8E"/>
<path d="M16.607 6.65851C15.8657 6.5322 16.0652 6.08015 15.7029 5.64805C15.3406 5.21595 14.8187 5.46856 14.473 4.94339C14.1274 4.41822 14.709 4.11243 14.5462 3.68033C14.5229 3.6205 14.5063 3.56067 14.493 3.49751C14.124 3.47757 13.7883 3.54737 13.5623 3.76342C13.5623 3.76342 13.3994 3.92629 13.5623 4.35839C13.7252 4.7905 13.1468 5.09961 13.4892 5.62146C13.8315 6.14331 14.3567 5.89402 14.719 6.32612C15.0813 6.75822 14.8819 7.21027 15.6231 7.33658C16.3643 7.46288 15.9854 7.78862 16.5438 7.78862C17.1055 7.78862 16.8695 7.38976 17.4845 7.55263C17.8434 7.64902 17.654 7.42632 17.3615 7.09726C17.0457 7.0341 17.2584 6.77152 16.607 6.65851Z" fill="#00BA66"/>
<path d="M12.2593 6.12339C12.0034 5.75776 12.02 5.59157 11.774 5.30572C11.6577 5.17276 11.651 5.03316 11.6776 4.92347C11.7142 4.75728 11.5281 4.62765 11.3851 4.72072C11.1458 4.87361 10.9298 5.22262 10.9796 5.45529C11.0594 5.82091 10.6539 6.0137 10.6705 6.19651C10.6871 6.37932 11.3718 6.27628 11.5447 6.55216C11.7175 6.82804 11.9602 6.48236 12.1729 6.53887C12.3856 6.59205 12.5152 6.48901 12.2593 6.12339ZM18.0295 10.604C18.1558 10.2649 18.2722 10.1984 18.3486 9.90262C18.3852 9.76302 18.4716 9.69654 18.5547 9.6633C18.681 9.61344 18.681 9.42731 18.5547 9.37412C18.342 9.2877 18.0096 9.30432 17.88 9.44393C17.6739 9.66662 17.3581 9.48381 17.2451 9.5802C17.1321 9.6766 17.5143 10.0821 17.4146 10.3247C17.3116 10.5674 17.6506 10.5674 17.7138 10.7369C17.7769 10.9064 17.9032 10.943 18.0295 10.604ZM17.6772 20.2232C17.6307 19.5485 16.1349 19.934 15.7992 19.5983C15.4635 19.2626 14.9816 18.6577 13.9445 18.8039C12.9075 18.9469 13.2465 18.179 13.0039 18.0561C12.7612 17.9331 11.9203 18.6344 11.7042 17.7669C11.4882 16.8994 12.4754 16.0817 13.2232 16.4407C13.9711 16.7996 14.1373 16.0784 14.4996 16.2977C14.8619 16.5138 15.1511 17.0456 15.51 16.7298C15.869 16.4141 14.7622 15.839 15.0779 15.3571C15.3904 14.8751 15.633 14.5128 15.51 14.0076C15.3871 13.5024 16.1615 13.0636 16.0385 12.4753C15.9189 11.887 16.8329 11.7407 16.7598 11.3817C16.6867 11.0228 16.1083 10.707 16.1083 10.4178C16.1083 10.1286 16.5903 9.86273 16.1316 9.38077C15.6729 8.89881 15.1444 8.37032 14.8552 8.80242C14.7023 9.03509 14.5461 8.99188 14.36 8.94867C14.576 9.33756 14.699 9.78296 14.699 10.2583C14.699 11.3252 14.0808 12.2459 13.1833 12.6847C13.1069 12.7213 13.0437 12.7811 13.0039 12.8542L12.1496 14.3699C12.0865 14.4829 11.9203 14.4829 11.8571 14.3699L11.0029 12.8542C10.9597 12.7811 10.8965 12.7213 10.8234 12.6847C9.94257 12.2559 9.33098 11.3618 9.30771 10.3247C9.28112 9.27773 9.84286 8.36367 10.6938 7.89501C10.5808 7.84515 10.4644 7.7687 10.3448 7.65901C9.74979 7.11722 8.80914 7.56927 8.30391 6.15995C7.79536 4.75395 5.89411 5.54836 5.4886 6.39594C5.4886 6.39594 5.17615 6.90117 5.4886 7.16708C5.80104 7.43299 5.22269 7.91495 6.74169 8.01134C8.2607 8.10773 6.93448 9.79293 7.97152 11.2621C9.00857 12.7312 6.96107 13.3328 7.77874 14.9948C8.59641 16.6567 8.71939 17.501 9.29774 17.6439C9.8761 17.7868 9.68331 17.1852 9.97249 17.3315C10.2617 17.4777 10.501 19.236 11.9236 19.2826C13.3462 19.3324 13.3927 19.934 14.1871 19.7878C14.9816 19.6415 14.7156 20.7019 15.8989 20.4127C17.0756 20.1268 17.7271 20.898 17.6772 20.2232Z" fill="#43CB8E"/>
<path d="M15.7992 19.5984C15.4635 19.2627 14.9815 18.6577 13.9445 18.804C12.9074 18.9502 13.2465 18.1791 13.0038 18.0561C12.7612 17.9331 11.9202 18.6345 11.7042 17.767C11.6477 17.5376 11.6743 17.3149 11.7574 17.1122C11.4748 16.69 11.3386 16.2546 11.1923 16.1815C10.9031 16.0385 11.0959 16.6402 10.5176 16.4939C9.93922 16.3477 9.81956 15.5067 8.99857 13.8448C8.41024 12.6482 9.30436 12.0034 9.46723 11.1857C9.36752 10.9098 9.31101 10.6206 9.30436 10.3248C9.30436 10.3115 9.30436 10.2982 9.30436 10.2883C9.27112 10.2284 9.23124 10.1686 9.19135 10.1121C8.15431 8.64295 9.48053 6.95775 7.96152 6.86136C6.44584 6.76164 7.02419 6.27968 6.71175 6.0171C6.54556 5.87749 6.55553 5.67141 6.60206 5.50854C6.11013 5.68471 5.66473 6.03704 5.49189 6.39934C5.49189 6.39934 5.17945 6.90457 5.49189 7.17048C5.80433 7.43639 5.22598 7.91835 6.74499 8.01474C8.26399 8.11113 6.93777 9.79633 7.97482 11.2655C9.01186 12.7346 6.96436 13.3362 7.78203 14.9982C8.5997 16.6601 8.72269 17.5044 9.30104 17.6473C9.87939 17.7902 9.68661 17.1886 9.97578 17.3349C10.265 17.4811 10.5043 19.2394 11.9269 19.286C13.3495 19.3358 13.396 19.9374 14.1904 19.7912C14.9848 19.6483 14.7189 20.7052 15.9022 20.4161C17.0822 20.1269 17.7337 20.898 17.6838 20.2233C17.6306 19.5485 16.1349 19.9341 15.7992 19.5984Z" fill="#00BA66"/>
<path d="M14.0077 8.45359C14.3235 8.427 14.6425 8.03478 14.5727 7.83202C14.4963 7.59935 14.2204 7.56279 14.0409 7.33012C13.9578 7.22376 13.8216 7.1041 13.6952 7.00771C13.5423 6.89137 13.3296 6.89802 13.1867 7.02765C13.0305 7.16725 12.8576 7.58606 12.9773 7.7456C13.3795 7.8985 13.7285 8.14447 14.0077 8.45359Z" fill="#43CB8E"/>
<path d="M10.6939 7.89522C10.6939 7.89522 13.3097 9.40093 14.3667 8.94889C15.4237 8.49684 14.4731 13.004 14.4731 13.004L12.2195 15.0149L10.3149 13.9613L9.46736 11.1858C9.46736 11.1858 9.30117 11.5614 9.30449 10.2884C9.30782 9.01537 9.65682 7.86531 10.6939 7.89522Z" fill="#43CB8E"/>
</g>
<defs>
<clipPath id="clip0_845_14186">
<rect width="17.0182" height="17.0182" fill="white" transform="translate(3.49097 3.49097)"/>
</clipPath>
</defs>
</svg>
