<svg width="24" height="24" viewBox="0 0 24 24" fill="none" xmlns="http://www.w3.org/2000/svg">
<g clip-path="url(#clip0_845_13987)">
<path d="M12 24C18.6274 24 24 18.6274 24 12C24 5.37258 18.6274 0 12 0C5.37258 0 0 5.37258 0 12C0 18.6274 5.37258 24 12 24Z" fill="#F0F0F0"/>
<path d="M23.9299 13.3046L23.9296 13.3042L23.9296 13.3046H23.9299Z" fill="#0052B4"/>
<path d="M23.9292 13.3042C23.9292 13.3041 23.9293 13.304 23.9293 13.3038L10.7693 0.0622559C10.1757 0.122771 9.59475 0.226553 9.02986 0.370412C3.83897 1.69205 0 11.9999 0 11.9999C0 11.9999 16.7999 23.2421 18.7165 21.9451C19.1 21.6856 19.4677 21.4044 19.8177 21.1035L12.0185 13.3042H23.9292Z" fill="#0052B4"/>
<path d="M20.8697 11.9996L9.19911 0.329102C3.923 1.59084 0.00012207 6.33674 0.00012207 11.9996C0.00012207 18.627 5.37275 23.9996 12.0001 23.9996C14.514 23.9996 16.8469 23.2261 18.7749 21.9048L8.86967 11.9996H20.8697Z" fill="#D80027"/>
<path d="M11.4126 17.7174L9.94704 17.028L10.7275 15.6087L9.13605 15.9131L8.9344 14.3054L7.82595 15.4878L6.71749 14.3054L6.51579 15.9131L4.92443 15.6086L5.70485 17.028L4.23926 17.7174L5.70485 18.4067L4.92443 19.826L6.51588 19.5216L6.71745 21.1292L7.82595 19.9468L8.9344 21.1292L9.13605 19.5216L10.7274 19.8261L9.94699 18.4067L11.4126 17.7174Z" fill="#F0F0F0"/>
<path d="M10.4343 6.6549L9.3684 6.15357L9.93601 5.12124L8.77853 5.34268L8.63186 4.17334L7.82565 5.03335L7.01945 4.17334L6.87273 5.34268L5.71525 5.12124L6.2829 6.15357L5.21692 6.6549L7.82565 7.17671L10.4343 6.6549Z" fill="#F0F0F0"/>
<path d="M10.9567 6.65527C10.9567 8.38416 9.55514 9.78572 7.82625 9.78572C6.09736 9.78572 4.6958 8.38416 4.6958 6.65527" fill="#F0F0F0"/>
</g>
<defs>
<clipPath id="clip0_845_13987">
<rect width="24" height="24" fill="white"/>
</clipPath>
</defs>
</svg>
