<svg width="24" height="24" viewBox="0 0 24 24" fill="none" xmlns="http://www.w3.org/2000/svg">
<g clip-path="url(#clip0_845_13985)">
<path d="M12 24C18.6274 24 24 18.6274 24 12C24 5.37258 18.6274 0 12 0C5.37258 0 0 5.37258 0 12C0 18.6274 5.37258 24 12 24Z" fill="#0052B4"/>
<path d="M12 24C18.6274 24 24 18.6274 24 12C24 5.37258 18.6274 0 12 0C5.37258 0 0 5.37258 0 12C0 18.6274 5.37258 24 12 24Z" fill="#FFDA44"/>
<path d="M12.001 -0.000488281C5.72524 -0.000488281 0.575644 4.81737 0.0467529 10.956H23.9554C23.4265 4.81737 18.2769 -0.000488281 12.001 -0.000488281Z" fill="#0052B4"/>
<path d="M11.9998 24.0002C18.2756 24.0002 23.4252 19.1824 23.9542 13.0437H0.0455322C0.574423 19.1824 5.72402 24.0002 11.9998 24.0002Z" fill="#0052B4"/>
<path d="M9.91324 16.1746L8.56859 16.8071L9.2846 18.1094L7.82449 17.83L7.63948 19.3051L6.62243 18.2202L5.60543 19.3051L5.42042 17.83L3.96026 18.1093L4.67632 16.8071L3.33167 16.1746L4.67637 15.5421L3.96026 14.2399L5.42037 14.5192L5.60548 13.0442L6.62243 14.129L7.63953 13.0442L7.82449 14.5192L9.28465 14.2399L8.56863 15.5422L9.91324 16.1746Z" fill="#F0F0F0"/>
</g>
<defs>
<clipPath id="clip0_845_13985">
<rect width="24" height="24" fill="white"/>
</clipPath>
</defs>
</svg>
