<svg width="24" height="24" viewBox="0 0 24 24" fill="none" xmlns="http://www.w3.org/2000/svg">
<path d="M0 12C0 5.37258 5.37258 0 12 0V0C18.6274 0 24 5.37258 24 12V12C24 18.6274 18.6274 24 12 24V24C5.37258 24 0 18.6274 0 12V12Z" fill="#3366FF"/>
<path d="M0 11.1V12.9L24 11.1V12.9L0 11.1Z" fill="#FFFF00"/>
<path d="M12 12L11.4 0H12.6L12 12Z" fill="#FFFF00"/>
<path d="M12 12L3 4L3.5 3.5L4 3L12 12ZM12 12L20 3L20.5 3.5L21 4L12 12Z" fill="#FFFF00"/>
<path d="M20.4853 20.4853C18.2348 22.7357 15.1826 24 12 24C8.8174 24 5.76516 22.7357 3.51472 20.4853L12 12L20.4853 20.4853Z" fill="#D64242"/>
</svg>
