<svg width="24" height="24" viewBox="0 0 24 24" fill="none" xmlns="http://www.w3.org/2000/svg">
<g clip-path="url(#clip0_845_14072)">
<path d="M12 24C18.6274 24 24 18.6274 24 12C24 5.37258 18.6274 0 12 0C5.37258 0 0 5.37258 0 12C0 18.6274 5.37258 24 12 24Z" fill="#F0F0F0"/>
<path d="M12 0C5.37262 0 0 5.37262 0 12C0 13.4678 0.264047 14.874 0.746391 16.1739H23.2537C23.736 14.874 24 13.4678 24 12C24 5.37262 18.6274 0 12 0Z" fill="#0052B4"/>
<path d="M12.0003 0C6.84074 0 2.44222 3.2565 0.746704 7.82611H23.254C21.5584 3.2565 17.1599 0 12.0003 0Z" fill="#D80027"/>
<path d="M3.10339 6.78296V12.7692C3.10339 16.1744 7.55188 17.2178 7.55188 17.2178C7.55188 17.2178 12.0003 16.1744 12.0003 12.7692V6.78296H3.10339Z" fill="#D80027"/>
<path d="M4.94226 7.82625H10.1597V5.73928L9.1162 6.261L7.551 4.6958L5.98575 6.261L4.94226 5.73928V7.82625Z" fill="#FFDA44"/>
<path d="M10.9561 13.6025L7.56477 10.2112L4.17346 13.6025L5.28023 14.7093L7.56477 12.4247L9.84932 14.7093L10.9561 13.6025Z" fill="#FFDA44"/>
<path d="M10.956 10.434H9.37365C9.46262 10.2804 9.51437 10.1026 9.51437 9.91238C9.51437 9.33601 9.04717 8.8689 8.47089 8.8689C8.07268 8.8689 7.72689 9.09193 7.55096 9.41982C7.37504 9.09197 7.02925 8.8689 6.63104 8.8689C6.05476 8.8689 5.58756 9.33601 5.58756 9.91238C5.58756 10.1026 5.63931 10.2805 5.72828 10.434H4.17334C4.17334 11.0103 4.67532 11.4775 5.25156 11.4775H5.21682C5.21682 12.0538 5.68398 12.521 6.26031 12.521C6.26031 13.0313 6.62678 13.4552 7.11076 13.5459L6.28857 15.4023C6.68261 15.5625 7.1132 15.6514 7.5647 15.6514C8.0162 15.6514 8.44679 15.5625 8.84082 15.4023L8.01864 13.5459C8.50262 13.4553 8.86909 13.0313 8.86909 12.521C9.44542 12.521 9.91257 12.0538 9.91257 11.4775H9.87784C10.454 11.4775 10.956 11.0103 10.956 10.434Z" fill="#F0F0F0"/>
</g>
<defs>
<clipPath id="clip0_845_14072">
<rect width="24" height="24" fill="white"/>
</clipPath>
</defs>
</svg>
