<svg width="24" height="24" viewBox="0 0 24 24" fill="none" xmlns="http://www.w3.org/2000/svg">
<g clip-path="url(#clip0_845_14119)">
<path d="M12 24C18.6274 24 24 18.6274 24 12C24 5.37258 18.6274 0 12 0C5.37258 0 0 5.37258 0 12C0 18.6274 5.37258 24 12 24Z" fill="#FFDA44"/>
<path d="M9.39079 10.435H23.8979C23.1308 4.54721 18.0963 0.000244141 11.9994 0.000244141C11.1035 0.000244141 10.2307 0.099291 9.39075 0.285479V10.435H9.39079Z" fill="#0052B4"/>
<path d="M6.26073 10.4349V1.45923C2.96569 3.25707 0.606894 6.55478 0.10144 10.4349H6.26073V10.4349Z" fill="#0052B4"/>
<path d="M6.26068 13.5657H0.10144C0.606894 17.4458 2.96569 20.7436 6.26073 22.5414L6.26068 13.5657Z" fill="#0052B4"/>
<path d="M9.39075 13.5657V23.7152C10.2307 23.9014 11.1035 24.0005 11.9994 24.0005C18.0963 24.0005 23.1308 19.4535 23.8979 13.5657H9.39075V13.5657Z" fill="#0052B4"/>
</g>
<defs>
<clipPath id="clip0_845_14119">
<rect width="24" height="24" fill="white"/>
</clipPath>
</defs>
</svg>
