<svg width="24" height="24" viewBox="0 0 24 24" fill="none" xmlns="http://www.w3.org/2000/svg">
<g clip-path="url(#clip0_845_14271)">
<path d="M24 12C24 18.6274 18.6274 24 12 24C5.37262 24 0 18.6274 0 12C0 12.0029 12 0.0013125 12 0C18.6274 0 24 5.37262 24 12Z" fill="#0052B4"/>
<path d="M11.9672 12.0002H11.9993C11.9993 11.9894 11.9993 11.9789 11.9993 11.968C11.9886 11.9788 11.9779 11.9895 11.9672 12.0002Z" fill="#F0F0F0"/>
<path d="M11.9996 6.26074C11.9996 4.14925 11.9996 2.76574 11.9996 -0.00012207H11.9976C5.37113 0.00100293 -0.000366211 5.37311 -0.000366211 11.9999H6.26049V8.47436L9.78605 11.9999H11.9676C11.9783 11.9892 11.9889 11.9785 11.9997 11.9678C11.9997 11.1593 11.9997 10.438 11.9997 9.78635L8.47407 6.26074H11.9996Z" fill="#F0F0F0"/>
<path d="M6.07063 1.56494C4.1938 2.63364 2.63352 4.19393 1.56482 6.07075V11.9997H4.69527V4.69549V4.69539H11.9996C11.9996 3.70807 11.9996 2.76747 11.9996 1.56494H6.07063Z" fill="#D80027"/>
<path d="M11.9997 10.5244L7.73629 6.26099H6.26062V6.26108L11.9996 12.0001H11.9997C11.9997 12.0001 11.9997 10.9826 11.9997 10.5244Z" fill="#D80027"/>
<path d="M13.5654 6.2616V12.0007C13.5654 14.7963 17.2176 15.6529 17.2176 15.6529C17.2176 15.6529 20.8698 14.7963 20.8698 12.0007V6.2616H13.5654Z" fill="#FFDA44"/>
<path d="M13.5654 9.26172V12.0009C13.5654 14.7964 17.2176 15.653 17.2176 15.653C17.2176 15.653 20.8698 14.7964 20.8698 12.0009V9.26172H13.5654Z" fill="#338AF3"/>
</g>
<defs>
<clipPath id="clip0_845_14271">
<rect width="24" height="24" fill="white"/>
</clipPath>
</defs>
</svg>
