<svg width="24" height="24" viewBox="0 0 24 24" fill="none" xmlns="http://www.w3.org/2000/svg">
<g clip-path="url(#clip0_845_14076)">
<path d="M23.2535 16.1742C23.7359 14.8742 23.9999 13.4682 23.9999 12.0003C23.9999 10.5325 23.7359 9.12643 23.2535 7.82644L11.9999 6.78296L0.746269 7.82644C0.263878 9.12643 -0.00012207 10.5325 -0.00012207 12.0003C-0.00012207 13.4682 0.263878 14.8742 0.746269 16.1742L11.9999 17.2177L23.2535 16.1742Z" fill="#F0F0F0"/>
<path d="M11.9999 24.0007C17.1594 24.0007 21.558 20.7442 23.2534 16.1746H0.746216C2.44178 20.7442 6.84025 24.0007 11.9999 24.0007Z" fill="#338AF3"/>
<path d="M11.9999 0C6.84025 0 2.44178 3.2565 0.746216 7.82611H23.2535C21.558 3.2565 17.1594 0 11.9999 0Z" fill="#6DA544"/>
</g>
<defs>
<clipPath id="clip0_845_14076">
<rect width="24" height="24" fill="white"/>
</clipPath>
</defs>
</svg>
