<svg width="24" height="24" viewBox="0 0 24 24" fill="none" xmlns="http://www.w3.org/2000/svg">
<g clip-path="url(#clip0_845_14101)">
<path d="M12 24C18.6274 24 24 18.6274 24 12C24 5.37258 18.6274 0 12 0C5.37258 0 0 5.37258 0 12C0 18.6274 5.37258 24 12 24Z" fill="#F0F0F0"/>
<path d="M23.0638 7.34706C21.2465 3.0303 16.9775 -0.000732422 11.9999 -0.000732422C8.68612 -0.000732422 5.68645 1.34266 3.51501 3.51438L6.52017 7.34706H23.0638Z" fill="black"/>
<path d="M6.55425 16.6077L3.51501 20.4838C5.68645 22.6555 8.68612 23.9989 11.9999 23.9989C16.9943 23.9989 21.2754 20.9476 23.0823 16.6077H6.55425Z" fill="#496E2D"/>
<path d="M2.60889 8.82617V15.1305H23.5868C23.856 14.1325 24.0002 13.0832 24.0002 12.0001C24.0002 10.9012 23.8522 9.83717 23.5754 8.82617H2.60889Z" fill="#A2001D"/>
<path d="M3.51459 3.51465C-1.17169 8.20093 -1.17169 15.7989 3.51459 20.4853C5.45114 18.5487 7.31362 16.6862 11.9999 12L3.51459 3.51465Z" fill="#0052B4"/>
<path d="M3.90853 9.01636L5.37314 11.0602L7.76976 10.2987L6.27862 12.3233L7.74323 14.3672L5.35692 13.5747L3.86573 15.5993L3.88214 13.0848L1.49573 12.2922L3.89217 11.5308L3.90853 9.01636Z" fill="#FFDA44"/>
</g>
<defs>
<clipPath id="clip0_845_14101">
<rect width="24" height="24" fill="white"/>
</clipPath>
</defs>
</svg>
