<svg width="24" height="24" viewBox="0 0 24 24" fill="none" xmlns="http://www.w3.org/2000/svg">
<g clip-path="url(#clip0_845_14139)">
<path d="M6.49775 1.33203C5.42347 1.88652 4.41505 2.61331 3.51449 3.51387C2.61388 4.41448 1.88708 5.42291 1.33264 6.49719L9.04859 14.951L17.5025 22.667C18.5768 22.1125 19.5852 21.3857 20.4858 20.4852C21.3864 19.5846 22.1131 18.5762 22.6676 17.5019L14.9517 9.04798L6.49775 1.33203Z" fill="#F0F0F0"/>
<path d="M20.4855 20.4859C20.9889 19.9825 21.4378 19.4454 21.8331 18.882L5.11816 2.16699C4.55477 2.5622 4.01763 3.01116 3.51424 3.51455C3.01084 4.01795 2.56188 4.55509 2.16663 5.11852L18.8815 21.8334C19.4449 21.4382 19.9821 20.9893 20.4855 20.4859Z" fill="black"/>
<path d="M3.51407 20.4865C7.30002 24.2725 12.9858 24.9992 17.502 22.6683L1.33227 6.49854C-0.998592 11.0148 -0.271701 16.7006 3.51407 20.4865Z" fill="#D80027"/>
<path d="M20.485 3.51461C16.6991 -0.271293 11.0133 -0.998043 6.49707 1.33272L22.6668 17.5026C24.9977 12.9864 24.271 7.30052 20.485 3.51461Z" fill="#D80027"/>
</g>
<defs>
<clipPath id="clip0_845_14139">
<rect width="24" height="24" fill="white"/>
</clipPath>
</defs>
</svg>
