<svg width="24" height="24" viewBox="0 0 24 24" fill="none" xmlns="http://www.w3.org/2000/svg">
<g clip-path="url(#clip0_845_14247)">
<path d="M12 24C18.6274 24 24 18.6274 24 12C24 5.37258 18.6274 0 12 0C5.37258 0 0 5.37258 0 12C0 18.6274 5.37258 24 12 24Z" fill="#0052B4"/>
<path d="M9.48365 11.8601C9.48365 11.8601 9.5301 11.8291 9.54558 11.8252C9.56494 11.8252 9.623 11.802 9.623 11.802C9.623 11.802 9.6617 11.7827 9.68106 11.7827C9.70428 11.7827 9.74299 11.8059 9.75847 11.8252C9.77008 11.8446 9.83588 11.8794 9.83588 11.8794C9.83588 11.8794 9.88233 11.8949 9.89394 11.8794C9.90168 11.864 9.92104 11.8523 9.94426 11.8523C9.96361 11.8523 9.96748 11.833 9.96748 11.8175C9.96748 11.802 9.97523 11.7827 9.99071 11.7633C10.0101 11.744 10.041 11.7324 10.041 11.7324C10.041 11.7324 10.0875 11.713 10.0913 11.6859C10.0991 11.6588 10.1417 11.6395 10.1688 11.6356C10.1959 11.6356 10.1688 11.6201 10.2384 11.6278C10.3042 11.6356 10.3158 11.6124 10.3158 11.593C10.3197 11.5737 10.3158 11.5543 10.3584 11.5543C10.401 11.562 10.4204 11.562 10.4204 11.5388C10.4204 11.5156 10.4591 11.5001 10.3933 11.4846C10.3236 11.4653 10.3313 11.4808 10.3236 11.4459C10.3236 11.4188 10.3236 11.4227 10.281 11.4188C10.2346 11.415 10.2578 11.3917 10.2539 11.3685C10.25 11.3453 10.2384 11.3298 10.2307 11.3182C10.2191 11.3027 10.1959 11.3027 10.1959 11.2795C10.1959 11.2563 10.192 11.2408 10.1688 11.2408C10.1417 11.2408 10.1301 11.2408 10.1301 11.2214C10.1301 11.1982 10.1378 11.1827 10.161 11.1827C10.1881 11.1827 10.1997 11.1595 10.1997 11.1363C10.192 11.1131 10.192 11.0627 10.192 11.0627L10.2268 11.024C10.2268 11.024 10.3275 10.9427 10.3352 10.9273C10.3429 10.9118 10.3778 10.9002 10.3933 10.9311C10.4087 10.9621 10.4165 10.9698 10.432 10.9853C10.4436 11.0008 10.4823 10.9892 10.49 10.9737C10.4978 10.9582 10.5016 10.9002 10.5249 10.8692C10.5481 10.8421 10.5636 10.8266 10.5674 10.7995C10.5713 10.7724 10.5868 10.7531 10.6139 10.7531C10.6371 10.7531 10.6526 10.7182 10.6526 10.6989C10.6526 10.6795 10.6681 10.6602 10.699 10.6524C10.73 10.6486 10.7494 10.6292 10.761 10.6602C10.7726 10.6911 10.7842 10.6873 10.8035 10.6989C10.8268 10.7105 10.8577 10.7221 10.8732 10.7105C10.8926 10.695 10.9003 10.6718 10.9235 10.6834C10.9468 10.6989 10.9622 10.6834 10.97 10.6563L10.9816 10.5828C10.9816 10.5828 10.9855 10.5634 11.0242 10.5634C11.0629 10.5634 11.0358 10.5402 11.0551 10.5247C11.0784 10.5092 11.0784 10.4937 11.1055 10.5015C11.1325 10.5131 11.1751 10.4899 11.1558 10.4628C11.1325 10.4396 11.0861 10.4009 11.1132 10.3699C11.1403 10.3389 11.1519 10.2925 11.1248 10.2847C11.0977 10.2809 11.0551 10.2886 11.0513 10.2615C11.0474 10.2305 11.0358 10.2073 11.0706 10.2034C11.1016 10.1996 11.1558 10.1996 11.1751 10.1841C11.1906 10.1686 11.2448 10.157 11.2448 10.1144C11.2448 10.068 11.2603 10.0641 11.268 10.037C11.2719 10.0138 11.2719 9.9596 11.2487 9.93637C11.2254 9.90928 11.1945 9.87444 11.1906 9.85896C11.1829 9.84348 11.1635 9.82025 11.1287 9.80864C11.0977 9.8009 11.0667 9.79316 11.0667 9.76994C11.0667 9.74284 11.09 9.77381 11.09 9.70801C11.09 9.6422 11.0474 9.63059 11.0474 9.63059L10.9816 9.59189C10.9816 9.59189 10.8655 9.56092 10.8345 9.56092C10.8035 9.56092 10.7648 9.52996 10.7997 9.50673C10.8384 9.48738 10.8461 9.44867 10.8345 9.42158C10.819 9.39448 10.8113 9.37126 10.761 9.35965C10.7106 9.34804 10.699 9.33642 10.7223 9.30546C10.7416 9.27836 10.7494 9.25514 10.7764 9.27836C10.7997 9.29772 10.8461 9.30546 10.881 9.28998C10.9197 9.27449 10.9313 9.25901 10.9506 9.27836C10.9661 9.29385 10.9893 9.30933 11.0164 9.28611C11.0435 9.25901 11.0938 9.25514 11.1171 9.26675C11.1364 9.28223 11.1945 9.27836 11.21 9.26675C11.2254 9.25901 11.2642 9.22805 11.2642 9.21643C11.2642 9.20482 11.2874 9.16999 11.3067 9.15837C11.33 9.14289 11.357 9.10418 11.3803 9.10418C11.4035 9.10418 11.4112 9.07709 11.4112 9.06548C11.4112 9.04613 11.4306 9.01129 11.4345 8.99968C11.4345 8.98806 11.4809 8.96871 11.5119 8.99968C11.5467 9.01903 11.5893 9.03064 11.5893 9.03064C11.5893 9.03064 11.628 9.03838 11.6551 9.03064C11.6673 9.02311 11.6814 9.01912 11.6957 9.01912C11.7101 9.01912 11.7242 9.02311 11.7364 9.03064C11.7712 9.05387 11.8138 9.05387 11.8138 9.05387L11.8254 9.00355C11.8254 8.98807 11.8331 8.9571 11.8138 8.94549C11.7983 8.93388 11.7751 8.91839 11.8099 8.8913C11.8486 8.86808 11.8486 8.87195 11.8835 8.87195L11.9686 8.87582C11.9957 8.87582 12.0383 8.90291 12.0383 8.92613C12.0383 8.94936 12.0576 8.96484 12.077 8.98032C12.1002 8.99194 12.1273 9.00355 12.1157 9.02677C12.1118 9.04613 12.1118 9.06548 12.1389 9.05774C12.166 9.05387 12.1738 9.06935 12.1738 9.09257C12.1738 9.11193 12.1815 9.12354 12.2125 9.13128C12.2357 9.13902 12.2512 9.15837 12.2512 9.17773C12.2512 9.19708 12.2434 9.21256 12.2512 9.23192L12.2899 9.28611C12.2899 9.28611 12.3402 9.34416 12.2744 9.3132C12.2125 9.2861 12.197 9.27449 12.1776 9.27449L12.1389 9.29385L12.0886 9.30159C12.0654 9.30159 12.0422 9.34804 12.0809 9.35578C12.1157 9.36352 12.1273 9.37126 12.1273 9.40222C12.1273 9.43319 12.1157 9.42158 12.0963 9.44093C12.0809 9.46415 12.0654 9.44867 12.0344 9.44867C12.0034 9.44867 11.9957 9.47577 11.9957 9.49899C11.9957 9.52221 12.0073 9.52221 12.0189 9.5377C12.0344 9.56092 12.0576 9.56479 12.0809 9.54544C12.1002 9.52609 12.1196 9.5106 12.1312 9.54931C12.1467 9.58802 12.166 9.58802 12.1892 9.58802C12.2163 9.58802 12.2279 9.58802 12.2512 9.57253C12.2705 9.56092 12.2976 9.57253 12.3015 9.60737C12.3092 9.63833 12.3286 9.64607 12.3518 9.65769C12.375 9.6693 12.3905 9.67704 12.3905 9.69639C12.3983 9.71962 12.4099 9.72736 12.4331 9.71575C12.4563 9.70026 12.4911 9.69252 12.5066 9.71188L12.5415 9.75832V9.8009L12.6305 9.83187L12.6382 9.87057C12.6382 9.88218 12.6537 9.8938 12.6769 9.88606H12.7389C12.7389 9.88606 12.7698 9.87444 12.7698 9.84735C12.7698 9.82412 12.7814 9.81638 12.8085 9.81638C12.8279 9.81638 12.8782 9.83574 12.8898 9.80864C12.9053 9.78542 12.944 9.77768 12.975 9.78929L13.0911 9.83574C13.0911 9.83574 13.0795 9.83574 13.1066 9.87831C13.1337 9.92089 13.184 9.92089 13.184 9.92089C13.184 9.92089 13.184 9.9596 13.1956 9.97508C13.2033 9.99056 13.2459 9.9983 13.2653 9.98282C13.2885 9.96734 13.3195 9.94412 13.3466 9.94412C13.3737 9.94412 13.393 9.94411 13.393 9.92863C13.393 9.91315 13.3659 9.90154 13.3659 9.87444C13.3659 9.84735 13.393 9.85122 13.3969 9.82412C13.4007 9.8009 13.4278 9.82413 13.4472 9.83961C13.4665 9.85509 13.4859 9.87057 13.4859 9.88606C13.4859 9.90541 13.5246 9.96347 13.544 9.97121C13.5672 9.97895 13.6252 9.98282 13.6446 9.96347C13.6601 9.94024 13.7065 9.9325 13.7027 9.98282C13.6988 10.0331 13.6872 10.037 13.7181 10.0525C13.7491 10.068 13.7568 10.1299 13.7298 10.1454C13.7027 10.1609 13.691 10.1647 13.691 10.1918C13.691 10.2189 13.6833 10.2538 13.7065 10.2692C13.7298 10.2886 13.7452 10.3002 13.7452 10.3157C13.7452 10.335 13.7685 10.4086 13.7685 10.4086C13.7685 10.4086 13.7839 10.4821 13.7762 10.4976C13.7762 10.517 13.7646 10.5441 13.8033 10.5402C13.842 10.5363 13.8536 10.5363 13.8536 10.5673C13.8536 10.5983 13.8691 10.6137 13.8459 10.6253C13.8226 10.6408 13.8072 10.6795 13.8304 10.6873C13.8536 10.695 13.8691 10.7105 13.8768 10.726C13.8807 10.7415 13.9155 10.7724 13.9388 10.7531C13.962 10.7376 13.9659 10.7299 13.9852 10.726C14.0007 10.7221 14.0162 10.7105 13.9968 10.6873C13.9813 10.6679 13.9736 10.6486 13.993 10.6331C14.0123 10.6215 14.0201 10.5828 14.0201 10.5828C14.0201 10.5828 14.0471 10.5441 14.0781 10.5828C14.1091 10.6215 14.1168 10.606 14.1362 10.606C14.1555 10.606 14.1671 10.6253 14.1671 10.6447C14.1671 10.6679 14.2136 10.6641 14.2136 10.695L14.2213 10.8111C14.2213 10.8111 14.2213 10.8537 14.2484 10.8692C14.2755 10.8886 14.2716 10.8924 14.2562 10.9079C14.2445 10.9311 14.2484 10.966 14.2484 10.9853C14.2484 11.0047 14.2562 11.0047 14.2368 11.024C14.2136 11.0395 14.202 11.0627 14.2175 11.086C14.2291 11.1092 14.2252 11.1247 14.26 11.1556C14.2987 11.1827 14.2949 11.1943 14.2949 11.2176C14.2949 11.2369 14.3297 11.2679 14.3297 11.2872C14.3297 11.3066 14.3568 11.3337 14.38 11.3375C14.4032 11.3414 14.4265 11.3763 14.4265 11.3995L14.4303 11.473C14.4303 11.473 14.4303 11.4846 14.4536 11.4846C14.4807 11.4846 14.5 11.5156 14.5078 11.4846C14.5155 11.4459 14.5465 11.4459 14.5619 11.4343C14.5774 11.4227 14.6161 11.4111 14.6355 11.4227C14.6548 11.4343 14.6742 11.4343 14.6935 11.4343L14.7942 11.4382C14.7942 11.4382 14.8174 11.4382 14.8329 11.4691C14.8445 11.5001 14.8832 11.5388 14.8639 11.5543C14.8406 11.5737 14.8406 11.6046 14.8639 11.6046C14.8871 11.6046 14.9219 11.6046 14.9219 11.624C14.9219 11.6472 14.9219 11.6627 14.949 11.6511C14.9684 11.6395 14.9838 11.6356 14.9916 11.6511C15.0032 11.6666 15.0187 11.6666 15.0419 11.6782C15.0651 11.6936 15.0729 11.682 15.0883 11.6666C15.1 11.6511 15.1542 11.6356 15.1542 11.6356C15.1542 11.6356 15.2238 11.6162 15.2509 11.624L15.3167 11.6511C15.3167 11.6511 15.3322 11.6898 15.3245 11.7169C15.3167 11.7401 15.3051 11.7362 15.3167 11.7749C15.3245 11.8136 15.3051 11.8136 15.2896 11.8136C15.2703 11.8059 15.2509 11.8059 15.2509 11.8407C15.2509 11.8717 15.2354 11.8794 15.2354 11.9104C15.2354 11.9414 15.2354 11.9336 15.2161 11.9491C15.2006 11.9607 15.1929 11.9801 15.22 11.9878C15.247 11.9878 15.2393 12.0188 15.2393 12.0343L15.2354 12.0885C15.2354 12.0885 15.2354 12.1078 15.2083 12.1078C15.1812 12.1078 15.1503 12.1078 15.1464 12.1272C15.1387 12.1465 15.1077 12.1775 15.1348 12.2007C15.1658 12.2201 15.158 12.2317 15.1387 12.2394C15.1232 12.251 15.1077 12.2897 15.1464 12.3013C15.1812 12.3168 15.1774 12.3284 15.1542 12.3439C15.1309 12.3594 15.0883 12.3749 15.0883 12.3981C15.0883 12.4213 15.0767 12.4213 15.0496 12.4252C15.0225 12.4291 15.0109 12.4639 15.0419 12.5026C15.0729 12.5452 15.0806 12.5413 15.1038 12.5413C15.1271 12.5413 15.1271 12.5026 15.1271 12.5026L15.2238 12.5104C15.247 12.5104 15.278 12.5104 15.2974 12.4987C15.3167 12.4833 15.3632 12.4639 15.3632 12.4987C15.3632 12.5374 15.3748 12.5374 15.3941 12.5491C15.4174 12.5684 15.4212 12.5529 15.4406 12.58C15.4599 12.6032 15.4638 12.58 15.4793 12.5529C15.4909 12.5258 15.518 12.4987 15.5412 12.5297C15.5606 12.5645 15.5606 12.5529 15.5877 12.5529C15.6148 12.5529 15.6264 12.5684 15.6264 12.5878C15.6264 12.6071 15.6496 12.6071 15.6844 12.6032C15.7154 12.6032 15.7193 12.6226 15.7309 12.642C15.7425 12.6613 15.7502 12.6574 15.7696 12.6574C15.7851 12.6574 15.8044 12.6574 15.816 12.642C15.8315 12.6265 15.847 12.6032 15.8664 12.6303C15.8857 12.6536 15.9205 12.6497 15.9283 12.6226C15.9399 12.5916 15.9786 12.5684 16.0018 12.5994C16.025 12.6342 16.0405 12.6342 16.0638 12.6381C16.087 12.6381 16.1179 12.6381 16.1296 12.6613C16.145 12.6845 16.1876 12.7155 16.1566 12.7387C16.1257 12.7658 16.0908 12.7968 16.1179 12.8084C16.1422 12.8143 16.1639 12.8279 16.1799 12.8471C16.1992 12.8626 16.2573 12.8742 16.2844 12.8781C16.3115 12.8781 16.3308 12.8858 16.3618 12.8587C16.3966 12.8355 16.4276 12.8355 16.4237 12.8703C16.4199 12.9013 16.4353 12.94 16.4353 12.94C16.4353 12.94 16.4586 12.9942 16.4586 13.0135C16.4586 13.0329 16.4547 13.0368 16.4973 13.0639C16.536 13.0871 16.5282 13.1026 16.5631 13.0793C16.594 13.0561 16.6018 13.0406 16.6018 13.0213V12.9555C16.6018 12.9555 16.6482 12.9477 16.6637 12.9361C16.6831 12.9206 16.7527 12.8858 16.7721 12.9013C16.7914 12.9168 16.8108 12.9129 16.8301 12.9052C16.8495 12.8974 16.8843 12.8974 16.9037 12.8974C16.9192 12.8974 16.9501 12.9013 16.9888 12.8742C17.0237 12.8432 17.0237 12.851 17.0469 12.8742C17.0663 12.8935 17.0663 12.9168 17.0546 12.9361C17.0392 12.9516 17.0546 12.9864 17.0856 12.9864C17.1166 12.9864 17.1243 13.0058 17.1243 13.0251L17.1359 13.091C17.1359 13.1064 17.1359 13.118 17.1901 13.1297C17.2366 13.1413 17.2288 13.1684 17.2366 13.1916C17.2482 13.2109 17.2482 13.2303 17.2211 13.2303C17.194 13.2303 17.1824 13.2419 17.1824 13.2613C17.1746 13.2806 17.1359 13.2884 17.1359 13.2884L17.0972 13.2806C17.0972 13.2806 17.0663 13.2806 17.0546 13.2961C17.0392 13.3154 17.0159 13.3464 17.0314 13.3735C17.0508 13.4045 17.0508 13.42 17.0314 13.4354C17.0159 13.4471 17.0043 13.509 16.9888 13.4974C16.9695 13.4819 16.9501 13.4974 16.9308 13.509C16.9114 13.5167 16.9153 13.5748 16.9501 13.5941C16.9888 13.6174 16.9966 13.6445 16.9966 13.6445L17.0353 13.7064C17.0353 13.7064 17.0237 13.718 17.0159 13.7412C17.0043 13.7606 16.9772 13.8032 17.0043 13.8109C17.0314 13.8186 17.0198 13.8651 16.9927 13.8651C16.9656 13.8651 16.9346 13.8496 16.9308 13.8844C16.9269 13.9193 16.9114 13.9077 16.8843 13.9038C16.8572 13.9038 16.7914 13.8844 16.7721 13.9154C16.7527 13.9502 16.7489 13.9618 16.7179 13.958C16.6869 13.958 16.6985 14.0083 16.7102 14.0276L16.7489 14.078C16.7489 14.078 16.776 14.0973 16.776 14.1399C16.776 14.1786 16.7566 14.1786 16.7372 14.1476C16.7218 14.1205 16.6869 14.1244 16.6831 14.1554C16.6792 14.1902 16.6714 14.2405 16.6444 14.2405C16.6095 14.2405 16.5979 14.2483 16.5824 14.2638C16.5708 14.2792 16.5476 14.3102 16.5476 14.3257C16.5476 14.3412 16.5437 14.3605 16.5205 14.3644C16.4973 14.3683 16.4934 14.4108 16.4934 14.4108C16.4934 14.4108 16.4392 14.4225 16.4353 14.4418C16.4315 14.4612 16.4392 14.496 16.3966 14.4999C16.3793 14.5019 16.3626 14.5078 16.3479 14.5172C16.3331 14.5266 16.3207 14.5392 16.3115 14.5541C16.296 14.5734 16.2921 14.5928 16.3115 14.6121C16.3308 14.6315 16.3424 14.6973 16.3657 14.7089C16.385 14.7205 16.4044 14.7282 16.4005 14.7592C16.3966 14.794 16.3695 14.8173 16.4044 14.8173C16.4431 14.8173 16.4624 14.825 16.4508 14.856C16.4353 14.8831 16.4353 14.8869 16.4121 14.8985C16.3811 14.914 16.3695 14.914 16.3695 14.945C16.3695 14.976 16.3773 14.9798 16.3541 14.9914C16.3308 15.0031 16.3308 15.0185 16.3308 15.0456C16.3308 15.0727 16.3231 15.0611 16.296 15.0882C16.2689 15.1192 16.2341 15.1192 16.2108 15.1114C16.1876 15.1037 16.1837 15.1037 16.1799 15.0766C16.176 15.0534 16.1373 15.0534 16.1141 15.0572C16.0908 15.0572 16.0599 15.0843 16.0599 15.0843C16.0599 15.0843 16.0212 15.1114 16.0367 15.1308C16.056 15.1501 16.0444 15.185 16.0134 15.1811C15.9825 15.1772 15.9128 15.2121 15.8896 15.1772C15.8664 15.1385 15.8044 15.1153 15.7928 15.1656C15.7851 15.2121 15.8199 15.2082 15.816 15.2585C15.816 15.3088 15.8044 15.3088 15.7851 15.3243C15.7696 15.3398 15.7696 15.3553 15.7618 15.3746C15.7618 15.394 15.7541 15.4404 15.7851 15.4559C15.816 15.4753 15.8315 15.5178 15.8315 15.5449C15.8315 15.5682 15.8315 15.5953 15.8625 15.5953C15.8934 15.5953 15.9205 15.5875 15.9244 15.5604C15.9283 15.5333 15.9902 15.514 15.998 15.572C15.998 15.6301 15.998 15.6611 16.025 15.6843C16.0444 15.7075 16.0638 15.7423 16.0831 15.754C16.0986 15.7656 16.1296 15.8701 16.1296 15.8701C16.087 15.8817 16.0754 15.9397 16.0483 15.9475C16.0328 15.9552 16.0134 15.9475 15.998 15.9591C15.9902 15.9707 15.9902 15.9862 15.9747 15.9901C15.9399 16.0055 15.9476 15.9552 15.9051 15.9746C15.8702 15.9901 15.8664 16.0326 15.816 16.0133C15.7889 16.0055 15.7735 15.8972 15.7657 15.8739L15.7231 15.8043C15.6922 15.7578 15.6341 15.8043 15.6148 15.7888C15.5838 15.7694 15.5954 15.7346 15.549 15.7307C15.4561 15.723 15.5219 15.7888 15.4832 15.8004C15.4057 15.8275 15.4057 15.7307 15.3516 15.7772C15.3322 15.7927 15.3903 15.8043 15.3748 15.8314C15.3632 15.8546 15.309 15.8933 15.309 15.9204C15.3167 15.9591 15.3554 15.9707 15.367 15.9978C15.4057 16.0868 15.3477 16.1449 15.2625 16.0752C15.2161 16.0404 15.2045 15.9707 15.1348 15.9785C15.1154 15.9785 15.1116 15.9939 15.0961 15.9978C15.0767 15.9978 15.0651 15.9823 15.0458 15.9862C15.0187 15.9978 15.0458 16.0172 15.038 16.0326C15.038 16.0326 14.9993 16.0597 14.9993 16.0713C14.9761 16.0946 14.9838 16.1178 14.9529 16.141C14.9297 16.1604 14.9103 16.1488 14.8832 16.1797C14.8561 16.2068 14.8522 16.2533 14.8174 16.2804C14.7981 16.2958 14.7864 16.2378 14.7632 16.2765L14.7555 16.292C14.7477 16.3036 14.7477 16.3075 14.7555 16.3191C14.8019 16.412 14.7013 16.4429 14.6703 16.5087C14.6587 16.5358 14.6935 16.559 14.6819 16.5823L14.6239 16.6481C14.6239 16.6558 14.6161 16.679 14.6084 16.6868C14.6006 16.6945 14.5697 16.6868 14.5697 16.7023C14.5697 16.7177 14.6006 16.7294 14.6084 16.7371C14.6161 16.7487 14.6006 16.7642 14.6084 16.7681C14.6548 16.8184 14.6277 16.8029 14.651 16.8455C14.6548 16.8532 14.6703 16.8416 14.6781 16.8571C14.6819 16.8726 14.6626 16.8726 14.6703 16.8881C14.6703 16.8958 14.709 16.9422 14.709 16.9422C14.709 16.9577 14.6394 16.9887 14.6239 16.9887C14.5813 16.9887 14.6626 16.9035 14.5929 16.9035C14.5619 16.9035 14.5581 16.9693 14.5542 16.981H14.5155C14.469 16.981 14.4381 17.0351 14.4226 17.039C14.411 17.0429 14.3839 17.0313 14.3645 17.039C14.3491 17.039 14.3258 17.0584 14.3104 17.0584C14.2987 17.0584 14.2949 17.0506 14.2833 17.0429C14.2639 17.0313 14.2252 17.0274 14.2058 17.0197C14.1904 17.0197 14.1671 17.0351 14.1594 17.0313C14.1478 17.0235 14.171 16.9926 14.1362 16.9771L14.1091 16.9113C14.1207 16.8726 14.1323 16.8339 14.1284 16.7913C14.1207 16.7487 14.051 16.7139 14.0355 16.6752C14.0239 16.6519 14.0123 16.5823 13.9852 16.5668C13.9557 16.5442 13.9319 16.515 13.9155 16.4816C13.9155 16.4739 13.9272 16.4584 13.9155 16.4429C13.9039 16.4313 13.8846 16.4236 13.8768 16.4042C13.873 16.3887 13.8768 16.3346 13.8575 16.3229C13.8381 16.3113 13.7027 16.292 13.664 16.2881C13.6485 16.2881 13.6369 16.2881 13.6252 16.2765L13.602 16.2494L13.5633 16.2571C13.5517 16.2571 13.5324 16.2494 13.5246 16.2571C13.482 16.2842 13.4704 16.3229 13.4278 16.3578C13.3853 16.3887 13.3388 16.3887 13.2962 16.4236C13.2691 16.4468 13.2498 16.5049 13.2227 16.532C13.2111 16.5436 13.1956 16.532 13.1917 16.5358C13.1685 16.5629 13.1375 16.5823 13.1143 16.6055C13.1104 16.6132 13.1143 16.621 13.1066 16.6249L13.0563 16.6403H13.0098C12.9905 16.6481 12.9905 16.6713 12.913 16.6868L12.8937 16.6984L12.8705 16.7177H12.8356C12.8163 16.7177 12.8047 16.7371 12.7892 16.7371C12.7505 16.7448 12.6808 16.7177 12.6498 16.7332C12.6305 16.7371 12.5802 16.799 12.5608 16.8029C12.5492 16.8068 12.5376 16.8029 12.5221 16.799L12.4989 16.8842L12.406 16.9655C12.3944 16.9771 12.3905 16.9926 12.375 17.0042C12.3673 17.0158 12.3518 17.0235 12.3363 17.0235C12.3208 17.0235 12.2937 17.008 12.2744 17.008C12.2434 17.0003 12.1467 16.9964 12.1196 17.0042C12.0847 17.008 12.0963 17.0971 12.0189 17.1048L11.8912 17.1203C11.8873 17.1203 11.8602 17.1048 11.8331 17.1087C11.8215 17.1126 11.7906 17.1474 11.7906 17.1551V17.1745L11.7983 17.19C11.7828 17.2093 11.7441 17.2403 11.7325 17.2674L11.717 17.2829C11.7093 17.2906 11.6551 17.31 11.6512 17.3177C11.6396 17.3487 11.6899 17.3796 11.6822 17.3912C11.6706 17.4299 11.6164 17.4687 11.597 17.5074C11.5932 17.5228 11.6164 17.5732 11.6164 17.5886C11.6086 17.639 11.5932 17.7009 11.597 17.7473L11.6048 17.8131L11.6319 17.8325L11.7015 17.9718C11.7131 18.057 11.5854 18.026 11.6628 18.1112C11.6706 18.1267 11.6783 18.1383 11.6938 18.1499L11.8022 18.2389C11.8022 18.2544 11.7248 18.266 11.7131 18.2776C11.6744 18.3163 11.6473 18.3783 11.6125 18.417C11.5893 18.4363 11.5738 18.4131 11.5428 18.4673C11.5351 18.4866 11.5428 18.5292 11.5312 18.5447C11.5119 18.5602 11.5003 18.537 11.4809 18.5447C11.4732 18.5447 11.4693 18.5718 11.4616 18.5757C11.4422 18.595 11.2603 18.6918 11.2448 18.6802C11.2371 18.6763 11.2254 18.6453 11.2254 18.6376C11.2254 18.626 11.21 18.6028 11.2022 18.5989C11.1558 18.5602 11.0861 18.5486 11.0397 18.5989C11.028 18.6105 11.028 18.6298 11.0126 18.6376L10.9351 18.6995L10.9158 18.7189C10.8964 18.7189 10.8539 18.6686 10.8384 18.6531C10.8229 18.6298 10.761 18.5757 10.7571 18.5486C10.7571 18.4557 10.6836 18.3589 10.6565 18.2699H10.699C10.7494 18.235 10.7377 18.1538 10.8268 18.1847C10.8384 18.1692 10.8384 18.1538 10.8577 18.146C10.8655 18.1383 10.881 18.1344 10.8848 18.1267C10.9158 18.0802 10.9506 17.9022 10.9197 17.8557C10.8926 17.817 10.8616 17.817 10.8423 17.7512C10.8345 17.7319 10.8423 17.7125 10.8423 17.6893L10.8035 17.5693C10.7958 17.5577 10.7764 17.5499 10.7764 17.5422L10.7687 17.4222C10.7416 17.3371 10.6371 17.2867 10.6332 17.2751L10.5945 17.2093C10.579 17.1822 10.579 17.1706 10.5713 17.1474C10.5674 17.1358 10.5481 17.1242 10.5481 17.1126C10.5481 17.0893 10.61 17.0468 10.6061 17.008C10.6061 16.9964 10.5674 16.9577 10.5752 16.9384C10.5829 16.9151 10.6216 16.8687 10.6216 16.8416C10.6216 16.8106 10.5597 16.741 10.552 16.71C10.5481 16.6907 10.5752 16.679 10.5674 16.6674C10.5597 16.6519 10.4978 16.5939 10.49 16.5784C10.4784 16.5668 10.5094 16.5513 10.49 16.5281C10.4668 16.5087 10.4862 16.5126 10.4784 16.4971C10.4707 16.4778 10.4513 16.4584 10.4397 16.4391C10.432 16.4197 10.3778 16.2262 10.3816 16.2146C10.37 16.203 10.3545 16.1913 10.3468 16.1759L10.3313 16.1294C10.3313 16.1294 10.2694 16.1101 10.2578 16.0907C10.25 16.0791 10.2462 16.0288 10.2307 16.0055C10.2229 15.9939 10.2113 15.9978 10.2036 15.9901C10.1959 15.9823 10.1959 15.9707 10.192 15.963C10.1726 15.9397 10.1378 15.963 10.1146 15.8701C10.0759 15.8469 10.0488 15.8314 10.0217 15.8004L10.0062 15.7849C9.98297 15.7772 9.94813 15.7733 9.92878 15.7578C9.91717 15.7578 9.85911 15.7578 9.85136 15.7501L9.83588 15.7191C9.80492 15.7152 9.75073 15.7191 9.72363 15.6959C9.70428 15.6765 9.70041 15.5875 9.6617 15.5991C9.65665 15.5976 9.65127 15.5976 9.64622 15.5991C9.61913 15.5604 9.53397 15.5604 9.49914 15.5372C9.49139 15.5333 9.46043 15.5372 9.46043 15.5295L9.4643 15.4791L9.42172 15.425C9.38689 15.4172 9.3985 15.4133 9.38302 15.4017C9.32496 15.4017 9.31722 15.4095 9.28238 15.4404C9.27464 15.4482 9.25529 15.452 9.24367 15.4559C9.22432 15.4675 9.22045 15.5024 9.19335 15.4869L9.17013 15.4675C9.15465 15.452 9.14691 15.4598 9.13917 15.4366C9.09272 15.4095 8.96499 15.4946 8.93789 15.4366C8.91467 15.425 8.89919 15.4366 8.87983 15.4211C8.87209 15.4133 8.90693 15.305 8.81403 15.2663L8.87596 15.2237C8.8837 15.2121 8.87596 15.1927 8.87596 15.185C8.87596 15.1656 8.88757 15.1308 8.8837 15.1192C8.8837 15.1076 8.86822 15.0959 8.86435 15.0805C8.85661 15.0689 8.86435 15.0495 8.85661 15.034L8.82564 15.0185C8.80242 14.9992 8.7792 14.9876 8.75984 14.9643L8.74436 14.945C8.72888 14.9334 8.67469 14.914 8.67469 14.8908C8.67469 14.8831 8.69017 14.8792 8.69017 14.8714C8.69404 14.8598 8.69017 14.8482 8.70178 14.8405C8.72501 14.8018 8.78307 14.8211 8.77532 14.7553C8.77145 14.7244 8.74823 14.7011 8.74436 14.6702C8.73275 14.6624 8.73275 14.6508 8.72501 14.6431C8.66695 14.6392 8.67469 14.5812 8.65534 14.5657C8.59728 14.527 8.55083 14.5502 8.61663 14.4728C8.62437 14.4457 8.55857 14.4031 8.54696 14.3915C8.52373 14.3683 8.53534 14.3179 8.52373 14.2947C8.52373 14.2831 8.48116 14.2599 8.46954 14.2444L8.45019 14.2057V14.2018C8.4618 14.1902 8.45793 14.1709 8.45019 14.1631C8.44632 14.1515 8.42697 14.1554 8.4231 14.1476C8.36891 14.1012 8.30698 14.078 8.23343 14.0509C8.21408 14.0431 8.22182 14.0276 8.20247 14.0199L8.08635 13.9735C8.07861 13.9735 8.07087 13.9309 8.06313 13.9154L8.02829 13.8767C8.02829 13.838 8.00507 13.838 7.9741 13.8148V13.7915L7.99733 13.7103C8.0012 13.6948 8.02055 13.6793 8.01668 13.6638L8.0012 13.5748C7.97023 13.4974 7.93539 13.5051 7.95475 13.4006C7.95475 13.3774 7.95088 13.3658 7.96636 13.3464L7.9741 13.3348L8.02055 13.3C8.03603 13.2767 8.04764 13.2264 8.067 13.2109L8.13667 13.1645C8.14441 13.1568 8.15215 13.1297 8.14828 13.118C8.1328 13.1103 8.11732 13.1142 8.10183 13.1103C8.09409 13.1103 8.07474 13.0948 8.05926 13.0948C8.05538 13.0871 8.04764 13.0832 8.04764 13.0755L8.0399 13.0677C8.02055 13.0677 8.0012 13.0561 7.98571 13.0484C7.96636 13.0406 7.93927 13.0406 7.91991 13.029C7.88121 13.0097 7.8425 12.9516 7.80766 12.9439C7.76122 12.9323 7.73025 12.9477 7.6838 12.9516C7.65671 12.9516 7.65671 12.9361 7.63348 12.9284C7.60252 12.9168 7.62574 12.9439 7.55607 12.9206C7.54446 12.9129 7.55607 12.8897 7.55607 12.8819H7.51736C7.46318 12.8665 7.48253 12.8123 7.46705 12.7774C7.46318 12.7697 7.43608 12.7697 7.42834 12.7697C7.4206 12.7697 7.4206 12.7619 7.4206 12.7619L7.42834 12.7581C7.43608 12.7426 7.40125 12.7039 7.40125 12.6961C7.40512 12.6845 7.47866 12.6729 7.4864 12.6729C7.49027 12.6613 7.48253 12.6536 7.47866 12.6458C7.47866 12.6265 7.49027 12.5994 7.49801 12.58V12.5723C7.47479 12.5607 7.47092 12.5452 7.45156 12.5336C7.45156 12.522 7.46318 12.5181 7.46705 12.5065C7.50188 12.4097 7.55607 12.4871 7.60252 12.3981C7.60639 12.3904 7.62187 12.371 7.62574 12.3555H7.63348C7.64123 12.3555 7.65671 12.3633 7.66445 12.3555C7.67219 12.3478 7.6838 12.3478 7.69541 12.3439H7.71477C7.79992 12.3284 7.78057 12.2975 7.83089 12.2626C7.84637 12.251 7.88508 12.2471 7.90056 12.2394C7.91991 12.251 7.94701 12.2781 7.98184 12.2936C8.00894 12.3013 8.09796 12.3207 8.11344 12.3323C8.1328 12.34 8.13667 12.3633 8.15215 12.371C8.20247 12.402 8.1715 12.3555 8.22182 12.3633C8.27214 12.3749 8.31085 12.4175 8.35729 12.4368L8.396 12.4329C8.40761 12.4291 8.48503 12.4136 8.49277 12.4175L8.52373 12.4291C8.53534 12.4329 8.54309 12.4097 8.5547 12.4097C8.58566 12.4175 8.58566 12.4291 8.63211 12.4252C8.63211 12.4252 8.65533 12.2975 8.67856 12.2936C8.69017 12.2897 8.72501 12.3207 8.73275 12.3246C8.74823 12.3284 8.73275 12.2975 8.73275 12.2975C8.72501 12.2859 8.70178 12.2084 8.70565 12.2007C8.70565 12.2007 8.72501 12.2084 8.73662 12.2046C8.75984 12.1968 8.79468 12.1891 8.81403 12.1697L8.85274 12.1117C8.85661 12.1039 8.845 12.0807 8.85274 12.073L8.88757 12.0497C8.90306 12.0343 8.90306 12.011 8.92628 11.9994C9.00369 11.9917 9.03079 11.9298 9.10433 11.922H9.12755L9.14304 11.9452C9.14304 11.9491 9.19335 11.9801 9.2011 11.9762C9.20884 11.9762 9.21271 11.9646 9.22045 11.9607C9.23206 11.9646 9.27464 11.9414 9.27851 11.9259C9.27851 11.9259 9.27077 11.9143 9.27464 11.9027C9.29395 11.8855 9.31467 11.8699 9.33657 11.8562H9.39076C9.3985 11.864 9.3985 11.8794 9.41011 11.8794H9.45656C9.4643 11.8794 9.46817 11.8601 9.48365 11.8601Z" fill="#FFDA44"/>
<path d="M13.3116 6L13.9348 7.91984L12.3014 6.73155H14.3219L12.6885 7.91984L13.3078 6H13.3116ZM15.7424 6.42964L16.3617 8.34948L14.7322 7.16119H16.7488L15.1154 8.34948L15.7424 6.42964ZM18.0609 7.27344L18.6802 9.19328L17.0507 8.00499H19.0673L17.4339 9.19715L18.0609 7.27731V7.27344Z" fill="#F0F0F0"/>
<path d="M10.8423 6L10.2191 7.91984L11.8525 6.73155H9.83207L11.4655 7.91984L10.8462 6H10.8423ZM8.41154 6.42964L7.79224 8.34948L9.42178 7.16119H7.40517L9.03858 8.34948L8.41154 6.42964ZM6.10463 7.27344L6.73168 9.19328L5.09827 8.00499H7.11487L5.48146 9.19328L6.10463 7.27344Z" fill="#F0F0F0"/>
</g>
<defs>
<clipPath id="clip0_845_14247">
<rect width="24" height="24" fill="white"/>
</clipPath>
</defs>
</svg>
