<svg width="24" height="24" viewBox="0 0 24 24" fill="none" xmlns="http://www.w3.org/2000/svg">
<path d="M12 24C18.6274 24 24 18.6274 24 12C24 5.37258 18.6274 0 12 0C5.37258 0 0 5.37258 0 12C0 18.6274 5.37258 24 12 24Z" fill="#F0F0F0"/>
<path d="M3.51422 20.4853C-1.17206 15.7989 -1.17206 8.20098 3.51422 3.51465C3.51389 3.51516 10.4343 12 10.4343 12L3.51422 20.4853Z" fill="black"/>
<path d="M10.435 12.0001L1.59175 6.02417C1.31757 6.50075 1.07579 6.99819 0.868042 7.51306L5.34503 12.0002L0.868183 16.4875C1.07575 17.002 1.31729 17.4991 1.59128 17.9754L10.435 12.0001Z" fill="#FFDA44"/>
<path d="M23.8985 10.4348H10.4346L3.5147 3.51489C2.76901 4.26058 2.12116 5.10391 1.59166 6.02411L7.55598 12L1.59119 17.9752C2.12069 18.8956 2.76883 19.7392 3.5147 20.4851L10.4346 13.5652H23.8985C23.9652 13.0529 24.0001 12.5305 24.0001 12C24.0001 11.4695 23.9652 10.9472 23.8985 10.4348Z" fill="#6DA544"/>
<path d="M4.69373 21.5182C6.71727 23.0736 9.25026 23.9989 11.9998 23.9989C17.5441 23.9989 22.2094 20.2386 23.5864 15.1294H11.0826L4.69373 21.5182Z" fill="#0052B4"/>
<path d="M23.5864 8.86881C22.2094 3.75963 17.5441 -0.000732422 11.9998 -0.000732422C9.25026 -0.000732422 6.71727 0.924627 4.69373 2.48003L11.0825 8.86881H23.5864Z" fill="#D80027"/>
</svg>
